<svg width="62" height="67" viewBox="0 0 62 67" fill="none" xmlns="http://www.w3.org/2000/svg">
<g id="A-1 1" clip-path="url(#clip0_96_328)">
<path id="Vector" d="M1.17773 19.7809C3.45427 28.6384 5.64218 37.5219 7.45795 46.4837C8.82149 53.2182 9.98503 60.031 12.3309 66.4937L12.3661 66.474C23.1313 61.9702 34.0782 58.4409 46.8999 57.4659L35.4803 9.52832C35.4803 9.52832 13.0428 13.9103 4.13036 18.4118C3.18952 18.8871 2.2021 19.2683 1.29648 19.8063" fill="white"/>
<path id="Vector_2" d="M0.684175 19.9151C2.26531 26.0682 3.8044 32.2332 5.20487 38.4297C5.90103 41.5059 6.55874 44.59 7.17801 47.6819C7.78081 50.6993 8.3569 53.7228 9.03242 56.725C9.78634 60.0733 10.6681 63.3968 11.8373 66.6279C11.9509 66.9364 12.2833 67.1021 12.5884 66.9313C12.977 66.7142 13.544 66.5292 13.9996 66.3432C14.5299 66.1266 15.0602 65.9123 15.5904 65.7003C16.6381 65.2838 17.6899 64.8778 18.7459 64.4823C20.8775 63.6861 23.0287 62.9442 25.1994 62.2567C29.6382 60.8599 34.1646 59.7361 38.7563 58.9636C41.4538 58.5102 44.1677 58.18 46.8978 57.9728C47.2347 57.9475 47.4721 57.67 47.3909 57.3306L47.0847 56.0438L46.2546 52.5595L45.028 47.4101L43.5253 41.1025L41.8856 34.2231L40.2329 27.2727L38.6836 20.7677L37.3769 15.2732L36.44 11.339C36.2923 10.7187 36.1599 10.0905 35.9957 9.47365C35.9883 9.44658 35.9827 9.41726 35.9764 9.39245C35.9094 9.11051 35.6105 8.98701 35.3475 9.03833C34.5038 9.20298 33.6618 9.37666 32.8204 9.55541C30.7035 10.0009 28.5917 10.4691 26.4851 10.96C23.7154 11.6057 20.9548 12.2891 18.2095 13.0306C15.4041 13.7885 12.6111 14.6022 9.86247 15.5456C8.65404 15.96 7.45356 16.4004 6.27297 16.8887C4.97306 17.4267 3.71634 18.0543 2.44484 18.6464C1.96704 18.8685 1.49491 19.1009 1.04097 19.3676C0.472829 19.6997 0.988698 20.5777 1.5574 20.2439C2.48064 19.702 3.47886 19.3055 4.43561 18.8268C4.91852 18.5855 5.40788 18.3569 5.90368 18.1411C6.9786 17.6708 8.14442 17.2265 9.29433 16.8177C11.9918 15.8591 14.7399 15.0392 17.4999 14.2802C20.2781 13.5139 23.0734 12.8107 25.8777 12.1482C28.0745 11.629 30.2774 11.1349 32.4863 10.6657C33.1889 10.5153 33.8923 10.3685 34.5964 10.2253C34.918 10.1599 35.2628 10.1221 35.5776 10.0279C35.5912 10.0244 35.6051 10.0218 35.6191 10.0201L34.9901 9.66537L35.2969 10.9522L36.127 14.4364L37.3536 19.5858L38.8557 25.8934L40.4954 32.7728L42.1504 39.7204L43.6997 46.2254L45.0064 51.7199L45.9433 55.6541C46.091 56.2744 46.2092 56.9088 46.3881 57.5195C46.3955 57.546 46.4006 57.5759 46.4069 57.6007L46.9 56.9578C42.033 57.3326 37.2028 58.0836 32.4534 59.2038C27.9418 60.2656 23.5126 61.6499 19.1657 63.248C17.97 63.6882 16.7795 64.1432 15.5944 64.6131C14.9857 64.8537 14.3788 65.0981 13.7735 65.3462C13.2167 65.5718 12.5969 65.7623 12.0731 66.0556L12.8242 66.3589C10.7334 60.5819 9.57784 54.5377 8.38702 48.5311C7.15756 42.325 5.77016 36.1539 4.27312 30.007C3.43 26.5485 2.56264 23.0947 1.67104 19.6456C1.50855 19.0135 0.521119 19.2807 0.684175 19.9151Z" fill="#374151"/>
<path id="Vector_3" d="M13.4242 62.1501C17.6665 59.0634 25.4336 57.277 30.6218 56.4149C35.8101 55.5527 46.1735 54.368 49.3358 54.8084L38.561 5.48248C23.1616 5.22365 6.46735 11.9739 6.46735 11.9739C5.45353 12.2806 4.48067 12.7076 3.56984 13.2455C3.54598 13.2596 3.56416 13.3109 3.56984 13.2844L3.58518 13.321C7.27809 29.4482 9.33646 45.9226 13.2629 61.9979" fill="white"/>
<path id="Vector_4" d="M13.6823 62.5876C15.7844 61.0679 18.2496 60.0834 20.704 59.2821C23.3305 58.4244 26.028 57.7822 28.742 57.2634C33.4257 56.3685 38.1987 55.808 42.9517 55.4364C44.1903 55.3394 45.4311 55.2599 46.673 55.2306C47.1679 55.2187 47.6633 55.2148 48.1587 55.2306C48.3576 55.2368 48.5564 55.2453 48.7558 55.2588C48.8513 55.2655 48.9462 55.2729 49.0399 55.2825C49.0859 55.287 49.3547 55.3202 49.1979 55.2988C49.5865 55.3513 49.9166 55.0857 49.8268 54.6746L49.5387 53.3545L48.7536 49.762L47.5934 44.4497L46.1776 37.9684L44.6329 30.8973L43.0671 23.7308L41.6081 17.0499L40.3747 11.4049L39.4884 7.34491C39.3492 6.70716 39.2287 6.06151 39.0696 5.4277C39.0628 5.40007 39.0577 5.37132 39.0515 5.34425C39.0037 5.12546 38.7742 4.97491 38.5583 4.97152C35.2665 4.91965 31.9793 5.17903 28.7198 5.62619C25.6623 6.05271 22.6284 6.63199 19.6296 7.36183C17.1249 7.96519 14.644 8.65557 12.187 9.43298C10.6059 9.93146 9.0344 10.4626 7.47997 11.0401C6.242 11.4996 4.96084 11.9067 3.79786 12.5281C3.41891 12.7306 2.96724 12.9127 3.06439 13.4208C3.12689 13.7456 3.55015 13.8803 3.81547 13.7241L3.824 13.7191L3.07291 13.4157C3.20018 13.7185 3.23597 14.1025 3.30813 14.4228C3.39676 14.8179 3.48463 15.2126 3.57174 15.607C3.74635 16.3987 3.91679 17.1911 4.08307 17.9843C4.41827 19.5711 4.74173 21.1599 5.05345 22.7508C5.6784 25.9328 6.2687 29.1227 6.84707 32.3132C8.00437 38.6952 9.11962 45.0852 10.403 51.4435C11.1246 55.0186 11.9006 58.5829 12.7653 62.1269C12.9204 62.7613 13.9067 62.4923 13.7516 61.8568C12.2143 55.5554 10.9598 49.1914 9.78378 42.815C8.60773 36.4386 7.51065 30.0464 6.27609 23.6801C5.93255 21.9072 5.5769 20.137 5.20912 18.3694C5.01974 17.4672 4.82733 16.5663 4.63189 15.6667C4.53758 15.2348 4.44289 14.8025 4.34782 14.3698C4.26089 13.9813 4.21828 13.5138 4.06375 13.1473C3.94046 12.8529 3.62628 12.659 3.31267 12.8439L3.30472 12.8484L4.0558 13.1518L4.05182 13.1304L4.00012 13.5217L4.01205 13.4997L3.82854 13.6813C5.01766 12.9855 6.32438 12.5535 7.61065 12.0742C9.0719 11.5284 10.5491 11.0243 12.0353 10.5517C17.2127 8.8956 22.518 7.58005 27.8983 6.76693C31.4242 6.23406 34.9944 5.93408 38.5629 5.99046L38.0697 5.6183L38.3583 6.93779L39.1429 10.5303L40.3031 15.8427L41.7166 22.3211L43.2614 29.3923L44.8283 36.5587L46.2861 43.2413L47.519 48.8863L48.4053 52.9463C48.5445 53.5824 48.653 54.2348 48.824 54.8635C48.8314 54.8906 48.8365 54.9199 48.8422 54.947L49.4717 54.3227C47.6207 54.0707 45.6987 54.2314 43.8471 54.36C41.3047 54.5359 38.768 54.8037 36.2392 55.1156C31.2214 55.7358 26.2081 56.5371 21.3647 58.0145C18.5155 58.8829 15.5958 59.9599 13.1687 61.7153C12.946 61.8765 12.8358 62.1562 12.9852 62.41C13.1142 62.6282 13.4608 62.7545 13.6852 62.5921L13.6823 62.5876Z" fill="#374151"/>
<path id="Vector_5" d="M40.3806 0.506836C28.8145 0.547351 17.3811 2.95532 6.79507 7.58021L6.77405 7.6366C9.22273 24.4652 12.198 41.2071 15.7001 57.8624L15.6688 57.7412C22.8336 54.1887 37.9683 50.3791 50.6213 50.7625C46.9212 34.1809 43.6116 17.5202 40.6925 0.780321" fill="white"/>
<path id="Vector_6" d="M40.3807 0C29.4357 0.0392157 18.6022 2.18554 8.48079 6.32002C7.85584 6.57659 7.1826 6.80271 6.58605 7.12131C6.21846 7.31754 6.26221 7.6429 6.31391 7.99533C6.36561 8.34776 6.41788 8.70583 6.47015 9.06107C6.6815 10.5005 6.89701 11.9393 7.11669 13.3776C7.54999 16.2173 7.99845 19.0542 8.46205 21.8883C9.3919 27.5761 10.3824 33.2536 11.4334 38.9211C12.4845 44.5885 13.5956 50.2441 14.7667 55.8878C14.9129 56.5908 15.0597 57.2937 15.207 57.9967L16.1933 57.7272L16.1621 57.6054L15.9269 58.1789C19.5113 56.4077 23.399 55.2117 27.2618 54.2068C32.1086 52.9454 37.0634 52.0438 42.0528 51.5752C44.8997 51.3085 47.7626 51.1856 50.6214 51.2696C50.9686 51.2797 51.1839 50.938 51.1146 50.6273C49.6727 44.1644 48.2902 37.6891 46.9672 31.2015C45.6415 24.6954 44.374 18.1776 43.1646 11.6482C42.4863 7.9833 41.8272 4.31541 41.1875 0.64452C41.1403 0.374419 40.8063 0.222734 40.5586 0.290401C40.2705 0.368781 40.154 0.643393 40.2012 0.914622C41.3375 7.43652 42.5344 13.9481 43.7918 20.4493C45.0512 26.9689 46.3704 33.4762 47.7495 39.971C48.5237 43.6175 49.3166 47.259 50.1283 50.8957L50.6214 50.2534C45.4605 50.1012 40.2853 50.6048 35.2016 51.4675C30.4752 52.2699 25.7841 53.3932 21.2464 54.9376C19.2579 55.6143 17.2921 56.3716 15.4104 57.3014C15.2076 57.4013 15.1218 57.6674 15.1758 57.8744L15.207 57.9956C15.3724 58.6322 16.3268 58.3616 16.1933 57.7261C14.8249 51.2162 13.5359 44.6903 12.3266 38.1485C11.1251 31.6454 10.003 25.1292 8.96031 18.5998C8.3702 14.9052 7.80585 11.2067 7.26725 7.50418V7.77316L7.28827 7.71677L7.05306 8.02014C15.2393 4.45565 23.947 2.21297 32.8466 1.37701C35.3517 1.14431 37.8637 1.02402 40.3824 1.01612C41.0403 1.01612 41.0415 0.00112887 40.3824 0.00112887L40.3807 0Z" fill="#374151"/>
<path id="Vector_7" d="M39.9746 13.934C41.3503 20.6468 42.6695 27.3712 43.9323 34.107C44.2906 36.0208 44.6447 37.9354 44.9947 39.8507C45.0441 40.1208 45.3748 40.2731 45.6236 40.2054C45.9077 40.127 46.0304 39.8513 45.981 39.5806C44.7504 32.8399 43.4626 26.1096 42.1176 19.3896C41.7359 17.4802 41.3495 15.5719 40.9586 13.6644C40.8274 13.0244 39.8417 13.2951 39.9724 13.934H39.9746Z" fill="#374151"/>
<path id="Vector_8" d="M29.2424 31.897C29.5742 31.5999 29.9106 31.3061 30.3037 31.0901C30.6969 30.8741 31.0821 30.8273 31.5269 30.8967C32.0684 30.9813 32.5445 31.005 33.0564 30.7839C33.4597 30.6102 33.8177 30.3238 34.2495 30.22C34.7284 30.1072 35.2375 30.1676 35.7232 30.0841C36.159 30.0086 36.5754 29.8309 36.9691 29.642C37.702 29.2936 38.427 28.808 39.2752 28.887C39.5508 28.9129 39.7865 28.6355 39.7865 28.3795C39.7865 28.084 39.5513 27.8979 39.2752 27.872C38.3202 27.7829 37.4719 28.2633 36.6476 28.671C36.2561 28.8644 35.8476 29.0528 35.4096 29.1125C34.8983 29.1819 34.3824 29.1221 33.8819 29.2659C33.4234 29.3979 33.0547 29.6962 32.6189 29.8715C32.1348 30.0661 31.6411 29.8445 31.1446 29.8383C30.0992 29.8259 29.2527 30.5194 28.5192 31.1764C28.0295 31.6151 28.7544 32.3307 29.2419 31.8942L29.2424 31.897Z" fill="url(#paint0_radial_96_328)"/>
<path id="Vector_9" d="M18.7511 28.5313L26.5471 26.3355C29.1038 25.616 31.6513 24.8497 34.2267 24.1984C35.6521 23.8381 37.0964 23.5375 38.5639 23.4089C38.8388 23.3847 39.0752 23.1924 39.0752 22.9014C39.0752 22.6454 38.8405 22.3697 38.5639 22.3939C35.9112 22.6246 33.354 23.3621 30.8025 24.0811L22.9162 26.3022L18.4767 27.5524C17.8444 27.7306 18.1131 28.71 18.7483 28.5313H18.7511Z" fill="url(#paint1_radial_96_328)"/>
<path id="Vector_10" d="M16.9239 22.4843L20.6827 21.7225C21.8457 21.4867 22.9769 21.215 24.0302 20.6511C24.5035 20.3984 24.9665 20.108 25.4858 19.9564C26.0283 19.7973 26.6073 19.8554 27.1504 19.6964C27.6436 19.5526 28.0594 19.2594 28.4867 18.9854C28.9412 18.6921 29.377 18.5156 29.9235 18.4841C30.5894 18.4452 31.253 18.4666 31.9177 18.395C32.6211 18.3204 33.3176 18.1921 34.001 18.011C34.6362 17.8418 34.3669 16.8629 33.7295 17.0326C32.5512 17.3456 31.3927 17.4273 30.1797 17.4589C29.5855 17.4741 29.0133 17.5559 28.4753 17.8164C28.0163 18.0386 27.6231 18.3735 27.1686 18.6025C26.6823 18.8478 26.1198 18.806 25.5943 18.8918C25.0381 18.9825 24.5211 19.2301 24.0291 19.4945C23.553 19.7494 23.0888 20.0167 22.5775 20.1977C22.0191 20.386 21.4485 20.5367 20.8696 20.6488C19.4652 20.9426 18.0573 21.2195 16.6512 21.5042C16.0069 21.635 16.2796 22.6134 16.9228 22.4831L16.9239 22.4843Z" fill="url(#paint2_radial_96_328)"/>
<path id="Vector_11" d="M18.708 15.9312C20.4987 14.8491 22.6935 14.8948 24.703 14.5852C25.8216 14.4161 26.8869 14.0676 27.9675 13.7445C29.0134 13.4321 30.0583 13.2612 31.1377 13.1169C32.2575 12.9663 33.3955 12.7526 34.3364 12.0923C34.5636 11.9344 34.6682 11.6491 34.5199 11.3982C34.3898 11.1771 34.0472 11.0598 33.8205 11.216C33.0018 11.7906 32.0252 11.9784 31.0497 12.1132C29.981 12.2609 28.9362 12.4036 27.8971 12.7064C26.8091 13.0227 25.7381 13.3909 24.6195 13.5765C23.5803 13.7501 22.5304 13.8195 21.4901 13.9757C20.3362 14.1488 19.1966 14.4477 18.1915 15.055C17.6302 15.3933 18.1438 16.2724 18.708 15.9312Z" fill="url(#paint3_radial_96_328)"/>
<path id="Vector_12" d="M19.963 43.9984C20.9316 42.9796 21.7941 41.8663 22.5372 40.6754C22.8934 40.1025 23.2832 39.4975 23.5201 38.8648C23.6411 38.5417 23.6474 38.1881 23.4633 37.8876C23.2792 37.587 22.9082 37.3947 22.5543 37.4731C22.2378 37.5425 22.0372 37.8002 21.8481 38.0404C21.6381 38.3041 21.4563 38.5887 21.3055 38.8896C21.0191 39.4708 20.8397 40.0981 20.776 40.742C20.7192 41.3059 20.739 41.9453 20.9282 42.4827C21.1555 43.1323 21.7481 43.5591 22.4349 43.2439C23.0474 42.962 23.6138 42.4319 24.0632 41.9414C24.56 41.4015 24.9718 40.7903 25.2847 40.1285L24.3501 39.7371L24.1797 40.7251C24.1257 41.042 24.0331 41.3735 24.1286 41.6899C24.299 42.2611 24.9768 42.3964 25.4796 42.2041C26.4744 41.8229 26.763 40.7837 27.38 40.0292L26.5278 39.5353C26.404 39.9683 26.3278 40.4533 26.5278 40.8762C26.7477 41.3448 27.2533 41.5579 27.7539 41.4609C28.2385 41.3679 28.6362 41.0143 28.9566 40.663C29.3006 40.2862 29.5916 39.8649 29.8219 39.4106L28.8691 39.1541C28.8816 39.2522 28.8208 39.3091 28.76 39.4749C28.7067 39.6145 28.6872 39.7646 28.7032 39.9131C28.7238 40.0613 28.7778 40.2031 28.8614 40.3277C28.9449 40.4523 29.0557 40.5565 29.1856 40.6326C29.7372 40.9608 30.4258 40.7454 30.9587 40.4848C31.9644 39.9959 32.6575 39.0503 33.2915 38.1729C33.4523 37.9474 33.3313 37.609 33.108 37.4788C32.8512 37.3293 32.57 37.437 32.4086 37.6603C31.9695 38.2699 31.5042 38.9206 30.8775 39.3554C30.5934 39.5505 30.2588 39.7405 29.9117 39.7839C29.8509 39.7918 29.7935 39.7766 29.7361 39.7811C29.6963 39.7839 29.71 39.8324 29.7276 39.7929C29.8191 39.5866 29.9196 39.3903 29.8895 39.1569C29.8594 38.9234 29.7509 38.7323 29.5145 38.668C29.306 38.6116 29.0379 38.7018 28.9367 38.9009C28.672 39.4242 28.3061 40.0055 27.8101 40.3433C27.7274 40.4016 27.636 40.4465 27.5391 40.4764C27.4664 40.4978 27.4505 40.4939 27.4363 40.4284C27.3914 40.226 27.4573 40.0038 27.513 39.8082C27.6442 39.3486 26.9914 38.906 26.6608 39.3142C26.2244 39.8482 25.9676 40.5401 25.4734 41.0217C25.3828 41.1171 25.2741 41.1938 25.1535 41.2472C25.1677 41.2421 25.0075 41.3036 25.0154 41.2782C25.008 41.3042 25.4955 41.3724 25.1041 41.3831C25.1438 41.3831 25.3194 40.1189 25.3381 40.0078C25.3807 39.7586 25.2938 39.5093 25.0421 39.4089C24.8245 39.3221 24.5132 39.3841 24.4035 39.6165C24.0044 40.4748 23.42 41.2356 22.6917 41.8449C22.529 41.9801 22.3582 42.1055 22.1804 42.2205C22.1264 42.256 22.0338 42.34 21.9634 42.3445C22.035 42.34 21.9872 42.4009 21.9554 42.2915C21.8352 41.9184 21.7748 41.5289 21.7765 41.1372C21.7913 40.2522 22.0898 39.3948 22.6287 38.6894C22.6565 38.6533 22.861 38.4588 22.8559 38.4295L22.6378 38.452L22.6071 38.4317L22.6008 38.421C22.5883 38.3945 22.5838 38.4075 22.5861 38.4599C22.5293 38.5163 22.4827 38.7075 22.4452 38.7808C22.3846 38.8984 22.3226 39.0155 22.2594 39.1321C22.0068 39.5986 21.7357 40.0544 21.4464 40.4995C20.7994 41.4912 20.0627 42.4222 19.2454 43.2811C18.7943 43.7565 19.5158 44.476 19.9686 43.999L19.963 43.9984Z" fill="#374151"/>
<path id="Vector_13" d="M36.6962 48.3597C32.2253 49.0992 27.8065 50.1205 23.4665 51.4176L24.0914 51.7729C23.8562 50.2639 22.8268 48.8688 21.5166 48.0952C19.9827 47.1885 18.076 47.1439 16.4602 47.8578C16.2125 47.9672 16.1426 48.3394 16.2767 48.5519L16.3096 48.6044C16.6301 49.1119 17.3425 48.7685 17.2442 48.2136C16.5716 44.407 15.8807 40.6034 15.1717 36.8028C14.4675 33.021 13.7468 29.243 13.0093 25.4687C12.5904 23.3259 12.1662 21.1832 11.7367 19.0404C11.6083 18.4004 10.6226 18.6711 10.7504 19.3099C11.5106 23.1011 12.2539 26.895 12.9803 30.6914C13.703 34.4698 14.4094 38.2516 15.0995 42.0368C15.4911 44.1863 15.8775 46.3368 16.2585 48.4882L17.1931 48.0974L17.1601 48.045L16.9766 48.7392C17.5931 48.469 18.2638 48.3428 18.9371 48.3704C19.6104 48.398 20.2684 48.5785 20.8603 48.8982C21.4523 49.2178 21.9624 49.668 22.3515 50.2141C22.7406 50.7602 22.9982 51.3876 23.1046 52.048C23.1461 52.3153 23.4926 52.4743 23.7335 52.4022C28.0743 51.1051 32.4939 50.0836 36.9655 49.3436C37.2382 49.2985 37.3905 48.9641 37.3228 48.7194C37.2433 48.4324 36.9672 48.3196 36.6939 48.3647L36.6962 48.3597Z" fill="#374151"/>
<path id="Vector_14" d="M11.2295 15.6937C12.4601 15.2262 13.3884 14.2619 13.8998 13.0626C14.4986 11.6466 14.4316 10.0497 14.0253 8.59264C13.8503 7.96391 12.8635 8.23062 13.0396 8.86218C13.3805 10.0858 13.464 11.4149 12.9862 12.6165C12.6226 13.5306 11.8954 14.3589 10.9579 14.7147C10.7 14.8129 10.5227 15.0565 10.6011 15.339C10.6688 15.5837 10.9698 15.7901 11.2295 15.6937Z" fill="#374151"/>
<path id="Vector_15" d="M13.6754 9.12047C19.137 7.01625 24.8205 5.53041 30.6178 4.69115C32.2325 4.4577 33.8562 4.28064 35.4811 4.15095C35.7566 4.12896 35.9924 3.93329 35.9924 3.64345C35.9924 3.38576 35.7578 3.1134 35.4811 3.13596C29.5952 3.60164 23.781 4.72505 18.1489 6.48487C16.5494 6.9856 14.9675 7.53783 13.4032 8.14156C13.1459 8.24081 12.9675 8.47989 13.0464 8.76578C13.1135 9.00995 13.4163 9.22028 13.6754 9.12047Z" fill="#374151"/>
<path id="Vector_16" d="M35 3.74341C35.1971 5.09673 35.6096 6.43652 36.4771 7.51805C37.2725 8.51106 38.4713 9.1911 39.7638 9.22268C40.4223 9.23903 40.4218 8.22404 39.7638 8.20768C38.7281 8.18231 37.7844 7.57501 37.1748 6.76583C36.4578 5.81399 36.1522 4.63096 35.9817 3.47331C35.942 3.20208 35.5948 3.05321 35.3528 3.11919C35.0591 3.19926 34.9551 3.47105 34.9954 3.74341H35Z" fill="#374151"/>
<path id="Vector_17" d="M43.9061 54.2941C44.2084 54.2541 44.4998 54.3956 44.7919 54.483C45.2674 54.6256 45.773 54.6279 46.269 54.6803C46.8834 54.7458 47.4865 54.8905 48.0632 55.1106L48.12 55.0677C47.7109 58.4922 47.5134 61.9384 47.5286 65.3868L45.5327 63.1155L43.4306 66.474C43.4139 62.4336 43.5582 58.3969 43.8635 54.364" fill="white"/>
<path id="Vector_18" d="M43.906 54.8019C44.2821 54.7759 44.6491 54.9914 45.0172 55.0556C45.4314 55.1278 45.8501 55.1425 46.2672 55.1881C46.6307 55.23 46.9899 55.3026 47.3409 55.4052C47.5369 55.4616 47.7284 55.5524 47.9256 55.6004C48.1483 55.6567 48.3119 55.5581 48.4772 55.4267L47.6046 55.068C47.1975 58.4927 47 61.9387 47.0131 65.3871L47.8858 65.0279L45.8899 62.7572C45.6666 62.5023 45.2502 62.5987 45.0871 62.8598L42.989 66.2161L43.9418 66.4721C43.927 62.4316 44.0713 58.395 44.3747 54.3621C44.3951 54.0886 44.1247 53.8546 43.8634 53.8546C43.5696 53.8546 43.3725 54.0874 43.352 54.3621C43.049 58.3916 42.9047 62.4282 42.9191 66.4721C42.9191 66.9835 43.6071 67.1521 43.8719 66.7286L45.97 63.3718L45.1667 63.4744L47.1631 65.7458C47.4608 66.0841 48.0375 65.8072 48.0358 65.3871C48.0226 61.9387 48.2201 58.4927 48.6272 55.068C48.6505 54.8741 48.4801 54.6733 48.313 54.604C48.1068 54.5216 47.9227 54.5758 47.7545 54.7088L47.6977 54.7523L48.1954 54.6214C47.506 54.369 46.7849 54.2113 46.0524 54.1529C45.7115 54.123 45.3632 54.1094 45.0297 54.0226C44.6514 53.9239 44.3082 53.7593 43.906 53.7869C43.2532 53.832 43.2481 54.8476 43.906 54.8019Z" fill="#374151"/>
<path id="Vector_19" d="M54.3246 49.6738C53.5275 50.8323 52.8562 52.0713 52.3219 53.37L52.3537 53.3464C54.7109 55.4327 56.6221 57.9905 59.0475 60.0002L57.555 55.6978C58.6428 55.8946 59.7502 55.9628 60.8541 55.9008C58.66 53.8584 56.5187 51.7622 54.4302 49.6123" fill="white"/>
<path id="Vector_20" d="M53.883 49.4186C53.0673 50.6173 52.3788 51.8966 51.8286 53.236C51.6649 53.6308 52.2348 54.0655 52.5802 53.809L52.6115 53.7858L51.9916 53.7063C54.3471 55.8012 56.2595 58.3392 58.686 60.3601C59.0423 60.6573 59.7212 60.3883 59.5383 59.8668L58.0457 55.5632L57.4168 56.188C58.5495 56.392 59.7021 56.4661 60.8518 56.409C61.2739 56.3865 61.5529 55.8581 61.2137 55.5423C59.0195 53.4999 56.878 51.404 54.7892 49.2545C54.3312 48.7836 53.6086 49.502 54.0659 49.9723C56.1544 52.1207 58.2959 54.2166 60.4905 56.2602L60.8518 55.394C59.7937 55.4527 58.7323 55.3906 57.6884 55.2091C57.3356 55.1465 56.9214 55.4346 57.0595 55.8333L58.552 60.1363L59.4042 59.6423C56.9782 57.6219 55.0653 55.0839 52.7103 52.9885C52.5569 52.8515 52.2757 52.7714 52.0911 52.909L52.0592 52.9327L52.8103 53.5056C53.3351 52.2505 53.9889 51.0525 54.7613 49.9306C55.1317 49.3892 54.246 48.8806 53.8784 49.4186H53.883Z" fill="#374151"/>
<path id="Vector_21" d="M41.8082 41.4608C39.6328 43.2089 38.4499 46.0993 38.7834 48.8567C39.1169 51.6141 40.9549 54.146 43.4848 55.333C44.1179 55.6268 44.7828 55.8479 45.4664 55.9921C46.205 56.1517 46.976 56.2295 47.7276 56.1258C48.2811 56.0395 48.8214 55.8839 49.3355 55.6628C51.9671 54.5819 54.1953 52.3573 54.8635 49.6095C55.3896 47.4448 54.9049 45.068 53.6084 43.2512C52.3119 41.4343 50.2337 40.1966 48.0145 39.8724C45.7954 39.5481 43.4632 40.1301 41.6349 41.4202" fill="url(#paint4_radial_96_328)"/>
<path id="Vector_22" d="M41.6757 43.89C41.2155 43.8793 40.8184 44.1635 40.6246 44.5667C40.407 45.0229 40.4854 45.5179 40.6729 45.9702C40.8252 46.3367 41.1354 46.7878 40.957 47.1887C40.7865 47.5705 40.4854 47.8902 40.4957 48.3346C40.5027 48.5636 40.5901 48.783 40.7428 48.9548C40.8695 49.102 41.032 49.2029 41.12 49.3817C41.3195 49.7877 41.078 50.1209 40.9701 50.5095C40.8496 50.9465 40.9132 51.4495 41.2842 51.75C41.4712 51.9017 41.6785 51.9361 41.9092 51.9756C42.07 52.0043 42.1183 52.0556 42.1933 52.2011C42.3637 52.5502 42.3978 52.9426 42.6137 53.2764C42.8461 53.6356 43.2046 53.9305 43.6551 53.9243C43.8823 53.9215 44.0784 53.8302 44.2704 53.7219C44.3074 53.7074 44.3425 53.6884 44.3749 53.6655C44.367 53.674 44.3073 53.6599 44.305 53.6621C44.2795 53.6982 44.2562 53.5291 44.3215 53.6729C44.3045 53.6362 44.3181 53.6729 44.3414 53.6954C44.559 53.9018 44.6885 54.1702 44.9556 54.3286C45.3089 54.5384 45.7333 54.473 46.035 54.2074C46.1465 54.1023 46.2449 53.9844 46.3282 53.8561C46.3663 53.7997 46.4015 53.7433 46.4418 53.6915C46.4822 53.6396 46.5055 53.586 46.5208 53.5928C46.5361 53.5995 46.4214 53.6356 46.4378 53.6339C46.3884 53.6396 46.2896 53.6052 46.2538 53.6125C46.1509 53.6339 46.2288 53.5742 46.2168 53.5995C46.2376 53.6417 46.2609 53.6826 46.2867 53.7219C46.4157 53.9266 46.5793 54.1008 46.8185 54.173C47.2764 54.3146 47.7429 54.0839 48.0531 53.7524C48.1599 53.6396 48.2638 53.4574 48.4059 53.3841C48.5348 53.3176 48.6996 53.3712 48.836 53.3965C49.2632 53.4755 49.7098 53.5178 50.0575 53.2037C50.3228 52.9646 50.3222 52.5445 50.65 52.394C50.9909 52.2366 51.3551 52.1729 51.6517 51.9265C51.9999 51.6372 52.0704 51.2341 52.1664 50.8202C52.2556 50.435 52.6078 50.3719 52.8743 50.1164C53.23 49.7781 53.2981 49.3152 53.1874 48.8533C53.1396 48.6526 53.059 48.4586 53.009 48.2607C52.959 48.0628 52.9936 47.9021 53.0578 47.7103C53.1879 47.3246 53.3839 46.9491 53.3533 46.5296C53.3192 46.066 53.0482 45.7463 52.7084 45.4582C52.4437 45.2326 52.3528 45.0302 52.2636 44.6992C52.1704 44.3513 52.0755 43.9938 51.8301 43.7175C51.5375 43.3876 51.1295 43.3335 50.7103 43.3459C50.5648 43.3504 50.5268 43.3656 50.475 43.294C50.3853 43.1694 50.3478 43.0064 50.283 42.8604C50.1194 42.4888 49.8211 42.1905 49.3927 42.1628C49.1825 42.1493 48.9843 42.2091 48.7871 42.2722C48.6314 42.3224 48.5888 42.3529 48.4905 42.2897C48.303 42.1685 48.1093 41.9001 47.9065 41.7365C47.6082 41.4958 47.2423 41.3813 46.873 41.5352C46.6725 41.6187 46.5322 41.7647 46.381 41.9159C46.3066 41.9908 46.3305 41.9852 46.2413 41.9672C45.939 41.9108 45.6697 41.7219 45.3669 41.6215C45.0362 41.5087 44.6658 41.5087 44.363 41.6993C44.263 41.7613 43.9454 42.014 43.9426 42.1408C43.9426 42.2243 43.8579 42.1408 43.9846 42.1611C44.0414 42.1696 43.8926 42.1313 43.8846 42.1279C43.5114 41.9768 43.1654 41.7433 42.7557 41.9514C42.3166 42.1769 42.2796 42.6878 42.1632 43.1096C42.0649 43.4654 41.9206 43.8472 41.516 43.9205C41.2445 43.9701 41.0905 44.2971 41.1587 44.5447C41.2377 44.8266 41.5155 44.949 41.7882 44.8994C42.7483 44.7246 43.0512 43.7598 43.2574 42.9466C43.2757 42.9045 43.2874 42.8598 43.292 42.8141C43.2733 42.7386 43.292 42.8254 43.2244 42.8508C43.2102 42.8564 43.1057 42.8716 43.1 42.8784C43.0835 42.897 43.1244 42.8784 43.1364 42.8908C43.225 42.9675 43.4625 43.0515 43.5807 43.0955C43.9369 43.2291 44.3255 43.1863 44.6079 42.9179C44.7215 42.8102 44.7942 42.6686 44.905 42.5587C44.8607 42.6027 44.9487 42.5446 44.9147 42.5547C44.8709 42.5683 44.9453 42.5581 44.9527 42.5587C44.8959 42.553 44.9618 42.5621 44.9817 42.5666C45.2538 42.6297 45.493 42.7837 45.7674 42.8835C46.0612 42.9912 46.3793 43.0261 46.6765 42.9173C46.8615 42.8421 47.0264 42.7253 47.1582 42.5762C47.1934 42.5435 47.2264 42.5086 47.2571 42.4718L47.2219 42.4752C47.1742 42.4656 47.169 42.4656 47.2054 42.4752C47.2418 42.4848 47.2366 42.4843 47.2128 42.4752C47.2128 42.4752 47.2344 42.4927 47.2469 42.504C47.2986 42.5508 47.3486 42.5982 47.3969 42.6478C47.4986 42.751 47.5951 42.8604 47.7042 42.9562C47.9588 43.1818 48.2525 43.3442 48.6019 43.3402C48.803 43.3402 48.9877 43.2669 49.1763 43.2083C49.2254 43.1856 49.2789 43.1739 49.3331 43.1739C49.3013 43.1694 49.2763 43.1372 49.3035 43.1784C49.4626 43.4231 49.5172 43.7389 49.7206 43.9814C49.9978 44.3118 50.3859 44.3671 50.796 44.3541C50.9193 44.3501 51.0375 44.3586 51.0676 44.3896C51.1202 44.4675 51.1604 44.5529 51.1869 44.6428C51.2818 44.9422 51.342 45.2473 51.471 45.5354C51.6244 45.8738 51.8971 46.0824 52.1619 46.3288C52.4152 46.5651 52.313 46.7878 52.2011 47.0856C52.0579 47.4656 51.917 47.8344 51.9693 48.2483C51.9972 48.4458 52.0443 48.6401 52.1102 48.8285C52.1505 48.9548 52.2545 49.1601 52.2175 49.2954C52.1874 49.4082 52.0596 49.4646 51.9698 49.521C51.7981 49.6202 51.6409 49.7424 51.5028 49.8841C51.2079 50.2162 51.2131 50.6048 51.0784 50.9995C50.996 51.2391 50.7324 51.2848 50.5137 51.3626C50.1592 51.4889 49.8234 51.6446 49.6047 51.9637C49.5052 52.1098 49.4496 52.2801 49.3774 52.4396C49.3723 52.4515 49.3331 52.4864 49.3831 52.4515C49.4331 52.4165 49.3621 52.4582 49.3427 52.4515C49.2984 52.443 49.2325 52.4379 49.1814 52.43C48.7837 52.3686 48.4047 52.2722 48.0161 52.4436C47.8367 52.5265 47.6756 52.644 47.5423 52.7892C47.4287 52.9093 47.3253 53.0796 47.1798 53.1642C47.1764 53.1642 47.1082 53.2099 47.1139 53.1958C47.0702 53.3001 47.0901 53.1394 47.1219 53.206C47.148 53.2623 47.1787 53.2691 47.1849 53.2353C47.1849 53.2206 47.1401 53.158 47.1315 53.1439C47.0264 52.9703 46.9105 52.8135 46.7265 52.7159C46.4003 52.5423 46.0305 52.6392 45.7777 52.8885C45.7174 52.9449 45.3374 53.4761 45.3311 53.4693C45.3135 53.4501 45.4447 53.4411 45.4396 53.4428C45.5004 53.4304 45.4783 53.471 45.4618 53.4428C45.4328 53.3915 45.2987 53.2522 45.2345 53.1699C45.0487 52.9375 44.8311 52.7323 44.5283 52.6708C44.3122 52.6326 44.0894 52.6671 43.8954 52.7689C43.8244 52.8033 43.6801 52.9116 43.6233 52.9009C43.4187 52.8614 43.3295 52.3573 43.2824 52.2028C43.1727 51.8521 43.025 51.4912 42.7347 51.2493C42.5777 51.1172 42.3884 51.0285 42.1859 50.9921C42.1171 50.9797 41.974 50.9921 41.9171 50.9487C41.9677 50.9848 41.9387 50.973 41.9399 50.9143C41.9399 50.7452 42.0302 50.5822 42.0904 50.4254C42.1731 50.2175 42.2207 49.9975 42.2313 49.7741C42.2402 49.3464 42.0972 48.9293 41.8274 48.5956C41.7705 48.5236 41.708 48.4561 41.6405 48.3938C41.6115 48.3667 41.5837 48.3408 41.5513 48.3148C41.3984 48.184 41.5206 48.2691 41.5195 48.2894C41.5251 48.202 41.6359 48.0588 41.6802 47.9833C41.8916 47.6201 42.0779 47.2536 42.0382 46.8211C41.9961 46.3401 41.7484 45.9482 41.5933 45.5016C41.5416 45.3522 41.4797 45.174 41.5399 45.0172C41.558 44.9823 41.5787 44.9487 41.6018 44.9168C41.6126 44.8988 41.6484 44.8858 41.6666 44.8751C41.6359 44.8932 41.5297 44.8875 41.6831 44.8915C42.3416 44.9067 42.3416 43.8917 41.6831 43.8765L41.6757 43.89Z" fill="white"/>
</g>
<defs>
<radialGradient id="paint0_radial_96_328" cx="0" cy="0" r="1" gradientUnits="userSpaceOnUse" gradientTransform="translate(34.0714 32.0302) rotate(-90) scale(2.12383 5.27938)">
<stop stop-color="#587EDB"/>
<stop offset="1" stop-color="#1445C2"/>
</radialGradient>
<radialGradient id="paint1_radial_96_328" cx="0" cy="0" r="1" gradientUnits="userSpaceOnUse" gradientTransform="translate(28.5957 28.553) rotate(-90) scale(3.1384 9.68057)">
<stop stop-color="#587EDB"/>
<stop offset="1" stop-color="#1445C2"/>
</radialGradient>
<radialGradient id="paint2_radial_96_328" cx="0" cy="0" r="1" gradientUnits="userSpaceOnUse" gradientTransform="translate(25.3233 22.495) rotate(-90) scale(2.79277 8.35091)">
<stop stop-color="#587EDB"/>
<stop offset="1" stop-color="#1445C2"/>
</radialGradient>
<radialGradient id="paint3_radial_96_328" cx="0" cy="0" r="1" gradientUnits="userSpaceOnUse" gradientTransform="translate(26.2689 16.0085) rotate(-90) scale(2.47788 7.68572)">
<stop stop-color="#587EDB"/>
<stop offset="1" stop-color="#1445C2"/>
</radialGradient>
<radialGradient id="paint4_radial_96_328" cx="0" cy="0" r="1" gradientUnits="userSpaceOnUse" gradientTransform="translate(46.9001 56.1729) rotate(-90) scale(8.34896 7.54938)">
<stop stop-color="#587EDB"/>
<stop offset="1" stop-color="#1445C2"/>
</radialGradient>
<clipPath id="clip0_96_328">
<rect width="61" height="67" fill="white" transform="translate(0.666626)"/>
</clipPath>
</defs>
</svg>
