<svg width="61" height="67" viewBox="0 0 61 67" fill="none" xmlns="http://www.w3.org/2000/svg">
<g id="Group 1">
<path id="Vector" d="M44.4448 25.3021C44.8758 19.1743 45.153 12.4306 44.9067 6.2721C44.8758 5.16355 44.6911 3.87025 43.7673 3.25438C43.3978 3.00804 42.9667 2.91566 42.5356 2.85408C41.9506 2.7617 41.3347 2.70011 40.7188 2.70011C28.5556 2.11505 16.3924 2.11505 4.19838 2.60773L1.79653 11.6916C1.45781 9.38218 1.64256 6.98034 2.3816 4.76325C2.59714 4.14738 3.05904 3.1928 3.64411 2.85408C4.47552 2.36139 5.33772 2.66932 5.92278 3.46993C6.50785 4.27055 6.78499 5.71782 6.90816 6.7032C7.89353 14.2474 7.70878 21.9149 7.52402 29.5207C7.30846 38.6354 7.09291 47.7193 6.87737 56.8341L6.78499 56.8957C15.0683 57.45 23.3824 57.7579 31.6965 57.8195L44.4448 25.3021Z" fill="white"/>
<path id="Vector_2" d="M44.7219 25.302C44.9991 21.2681 45.1838 17.2343 45.2454 13.1696C45.2762 11.1681 45.2762 9.16653 45.2146 7.19577C45.1838 5.7793 45.2454 3.74697 43.7673 2.94635C43.367 2.7308 42.9359 2.63842 42.5049 2.57684C42.0121 2.51526 41.4887 2.45367 40.9959 2.42287C39.9183 2.39208 38.8405 2.33049 37.7627 2.2997C35.638 2.20732 33.5133 2.14574 31.3885 2.08415C27.1084 1.99177 22.8282 1.96098 18.5479 1.99177C14.2985 2.02256 10.0183 2.11494 5.76886 2.26891C5.24539 2.2997 4.7219 2.2997 4.16763 2.33049C4.04445 2.33049 3.92128 2.42287 3.89049 2.54605C3.18225 5.19424 2.50481 7.84243 1.79657 10.5214C1.70419 10.8909 1.61181 11.2604 1.48864 11.63H2.04292C1.73499 9.59762 1.88895 7.47291 2.44322 5.47138C2.65878 4.70155 2.96671 3.80856 3.58257 3.25429C4.2908 2.60763 5.21459 2.97715 5.70727 3.65459C6.16916 4.30124 6.35392 5.16344 6.50789 5.93327C6.69265 6.88785 6.78502 7.87323 6.8774 8.8278C7.09296 11.0141 7.24692 13.2004 7.30851 15.3867C7.46248 19.7901 7.37009 24.1627 7.27771 28.566C7.18533 33.0002 7.06216 37.4036 6.96978 41.8378C6.8774 46.272 6.75424 50.7369 6.66186 55.1711C6.66186 55.7254 6.63106 56.2797 6.63106 56.834L6.78502 56.5877L6.69265 56.6492C6.44631 56.8032 6.53869 57.1727 6.84661 57.2035C13.3132 57.6346 19.7797 57.9117 26.2462 58.0657C28.0629 58.0965 29.9105 58.1273 31.7273 58.1273C31.8504 58.1273 31.9737 58.0349 32.0044 57.9117C32.4356 56.834 32.8666 55.7563 33.267 54.6477C34.2831 52.0611 35.2993 49.4745 36.2846 46.8879C37.5164 43.747 38.7481 40.6061 39.949 37.496C40.9959 34.7863 42.0737 32.0764 43.1206 29.3667C43.4594 28.4737 43.8289 27.5807 44.1677 26.6877C44.3216 26.2566 44.5063 25.8563 44.6603 25.4252C44.6603 25.3944 44.6603 25.3944 44.6911 25.3636C44.8143 25.0249 44.2601 24.8709 44.1368 25.2096C43.7058 26.2874 43.2746 27.3651 42.8744 28.4737C41.8582 31.0603 40.842 33.6469 39.8566 36.2335C38.6249 39.3744 37.3932 42.5152 36.1922 45.6254C35.1453 48.3351 34.0675 51.0449 33.0206 53.7547C32.6818 54.6477 32.3123 55.5406 31.9737 56.4337C31.8197 56.834 31.6042 57.2651 31.4809 57.6962C31.4809 57.727 31.4809 57.727 31.4502 57.7577L31.7273 57.5422C25.2608 57.5115 18.7635 57.2958 12.297 56.9572C10.4802 56.8648 8.6326 56.7416 6.81581 56.6184L6.96978 57.1727C7.09295 57.0803 7.18533 57.0187 7.21613 56.834C7.24692 56.5568 7.21613 56.2489 7.24692 55.941C7.24692 55.3559 7.27771 54.7709 7.27771 54.1858C7.30851 53.0157 7.3393 51.8455 7.37009 50.6754C7.43168 48.3351 7.49327 46.0256 7.52406 43.6854C7.64722 39.0048 7.7396 34.3244 7.86278 29.6438C7.98595 25.0249 8.07833 20.3752 7.92437 15.7563C7.86278 13.4468 7.70881 11.1681 7.49327 8.85859C7.40089 7.84243 7.30851 6.79547 7.09295 5.81009C6.93899 4.97868 6.72345 4.0857 6.23075 3.40824C5.73807 2.7308 4.96825 2.20732 4.10604 2.42287C3.24384 2.60763 2.72036 3.40824 2.38163 4.14727C1.95054 5.04027 1.73499 6.05644 1.58102 7.04182C1.39626 8.08877 1.33468 9.16653 1.39626 10.2135C1.42706 10.737 1.48864 11.2912 1.55023 11.8147C1.58102 12.1226 2.04292 12.0611 2.10451 11.8147C2.81274 9.16653 3.49018 6.51833 4.19842 3.83935C4.2908 3.46983 4.38318 3.10032 4.50634 2.7308L4.22922 2.94635C8.41705 2.76159 12.6049 2.66921 16.7927 2.60763C20.9806 2.54605 25.1684 2.57684 29.3562 2.63842C31.4502 2.66921 33.5133 2.7308 35.6072 2.79239C36.6541 2.82318 37.7012 2.85397 38.7173 2.91556C39.7643 2.94635 40.7804 2.97715 41.8273 3.06953C42.6588 3.16191 43.6442 3.25429 44.1368 4.02411C44.5372 4.63997 44.5987 5.40979 44.6296 6.14882C44.7219 8.08877 44.7219 10.0595 44.7219 11.9995C44.6911 15.9718 44.5063 19.9441 44.2601 23.9163C44.2292 24.3782 44.1984 24.8709 44.1677 25.3328C44.1368 25.6715 44.6911 25.6715 44.7219 25.302Z" fill="black"/>
<path id="Vector_3" d="M31.7273 58.2813C29.8797 58.2813 28.0322 58.2505 26.2462 58.2198C19.8721 58.0965 13.3747 57.8194 6.96979 57.3884L6.9082 57.4191L6.87741 57.3575C6.84661 57.3575 6.84661 57.3575 6.81582 57.3575C6.63106 57.3575 6.44631 57.2344 6.41552 57.0496C6.38472 56.8956 6.41552 56.7417 6.5079 56.6493L7.15455 28.6277C7.27772 23.978 7.3393 19.7593 7.18534 15.4792C7.09296 13.1389 6.96979 10.9834 6.75423 8.92028L6.72344 8.64314C6.63106 7.78093 6.53869 6.88794 6.38472 6.02574C6.23076 5.28671 6.046 4.4553 5.6149 3.80865C5.33776 3.43913 4.93746 3.16199 4.56794 3.1312L2.28926 11.784V11.8456H2.25847V11.8764C2.19688 12.0919 1.98134 12.2151 1.79658 12.1843C1.58102 12.1843 1.45785 12.0304 1.42706 11.8456C1.42706 11.8456 1.42706 11.8456 1.42706 11.8148H1.39627L1.42706 11.7224C1.36547 11.1989 1.30389 10.7063 1.27309 10.2444C1.21151 9.19741 1.27309 8.11966 1.45785 7.0419C1.58102 6.27208 1.79658 5.13275 2.28926 4.11658C2.75116 3.10041 3.30543 2.51534 4.01367 2.33059C4.07525 2.269 4.16763 2.23821 4.26001 2.23821C4.78349 2.20742 5.30697 2.20742 5.86124 2.17662C10.1415 2.02266 14.4217 1.93028 18.6403 1.89949C22.9206 1.86869 27.2315 1.89949 31.4809 1.99187C33.6056 2.05345 35.7304 2.11504 37.8551 2.20742C38.317 2.23821 38.7481 2.23821 39.21 2.269C39.8259 2.29979 40.4725 2.33059 41.0883 2.36138C41.5811 2.39217 42.1045 2.42297 42.628 2.51534C43.0591 2.57693 43.521 2.66931 43.9521 2.88486C45.3994 3.65469 45.4301 5.53305 45.461 6.91873V7.25746C45.5225 9.13582 45.5225 11.1066 45.4917 13.2621C45.4301 16.8648 45.2762 20.8064 44.9682 25.3021C44.9682 25.3637 44.9682 25.4561 44.9375 25.5177C44.9375 25.5484 44.9375 25.5484 44.9067 25.5792C44.8143 25.8563 44.6911 26.1643 44.568 26.4415C44.5063 26.5954 44.4448 26.7186 44.414 26.8417L32.22 58.0658C32.0661 58.1582 31.9121 58.2813 31.7273 58.2813ZM31.4194 57.9734C31.5118 57.9734 31.6042 57.9734 31.7273 57.9734C31.7889 57.9734 31.8504 57.9118 31.8504 57.8503L31.9737 57.5423L31.4194 57.9734ZM7.27772 57.0804C13.5903 57.5115 19.9644 57.7886 26.2153 57.9118C27.8474 57.9426 29.5102 57.9734 31.173 57.9734L31.2654 57.6963H31.3578C24.9837 57.6346 18.5788 57.4499 12.2354 57.1112C10.6034 57.0188 8.94053 56.9265 7.30851 56.8032V56.8341C7.3393 56.9572 7.30851 57.0188 7.27772 57.0804ZM31.7273 57.3884H32.0352L44.0444 26.6262C44.1061 26.4722 44.1677 26.3491 44.2292 26.1951C44.2908 26.0411 44.3524 25.8872 44.414 25.7024H44.3832C44.2908 25.7024 44.2292 25.6716 44.1677 25.6101L32.0968 56.4953C32.0352 56.6493 31.9737 56.7725 31.9121 56.9265C31.8504 57.0804 31.7889 57.2344 31.7273 57.3884ZM7.40088 56.5261C9.03291 56.6493 10.6957 56.7417 12.3278 56.8341C18.6403 57.1727 25.076 57.3884 31.4194 57.4191C31.4809 57.2036 31.5733 57.0188 31.6657 56.8341C31.7273 56.7108 31.7889 56.557 31.8504 56.4337L44.0444 25.2405C44.0753 24.8094 44.1061 24.3475 44.1368 23.9164C44.414 19.4822 44.568 15.5715 44.5987 11.9995C44.5987 10.152 44.5987 8.18125 44.5063 6.1797C44.4756 5.50226 44.414 4.73243 44.0137 4.14737C43.5518 3.43913 42.6588 3.34675 41.8582 3.28517C41.1192 3.22358 40.3493 3.19279 39.6411 3.16199C39.3331 3.16199 39.056 3.1312 38.7481 3.1312C37.7012 3.10041 36.6541 3.03883 35.638 3.00804C33.5749 2.94645 31.4809 2.88486 29.3871 2.85407C25.23 2.76169 21.0114 2.76169 16.8236 2.82328C13.3132 2.85407 9.74115 2.94645 6.16917 3.06961C6.26155 3.16199 6.32314 3.25437 6.41552 3.37755C6.9082 4.08578 7.12375 4.97878 7.30851 5.84098C7.49326 6.76477 7.58564 7.75014 7.67802 8.67393L7.70882 8.92028C7.92437 11.0758 8.07834 13.3237 8.13991 15.8179C8.29388 20.4368 8.17071 25.1173 8.07834 29.6439V29.7055L7.46247 56.0334C7.46247 56.1258 7.46247 56.2182 7.46247 56.3106C7.40088 56.3413 7.40088 56.4337 7.40088 56.5261ZM6.69265 56.8956C6.69265 56.9265 6.69265 56.9265 6.69265 56.9572C6.69265 56.988 6.72344 57.0188 6.75423 57.0496L6.72344 56.9265L6.69265 56.8956ZM7.03137 56.8032L7.06217 56.8956C7.06217 56.8648 7.06217 56.8648 7.06217 56.8341C7.06217 56.8341 7.06217 56.8341 7.06217 56.8032H7.03137ZM6.78503 56.4646C6.9082 56.4646 6.96979 56.4646 7.06217 56.4953C7.06217 56.403 7.06217 56.3413 7.06217 56.249C7.06217 56.1566 7.06217 56.0642 7.06217 55.9411L7.67802 29.5515C7.7704 25.0249 7.89358 20.3445 7.73961 15.7563C7.64723 13.2621 7.52406 11.0142 7.30851 8.88948L7.27772 8.64314C7.18534 7.71935 7.09296 6.76477 6.9082 5.84098C6.75423 5.00957 6.53869 4.14737 6.07679 3.50072C5.95362 3.31596 5.79965 3.16199 5.67649 3.03883C5.52252 3.03883 5.39935 3.03883 5.24538 3.06961C5.46093 3.22358 5.67649 3.40834 5.83044 3.62389C6.32314 4.30134 6.5079 5.19433 6.66185 5.96416C6.81582 6.82636 6.9082 7.75014 7.00058 8.61234L7.03137 8.88948C7.24693 10.9526 7.37009 13.1081 7.46247 15.4484C7.61644 19.7593 7.52406 23.978 7.43168 28.6277L6.78503 56.4646ZM44.2908 25.2713V25.3021C44.2908 25.3637 44.3216 25.4253 44.3832 25.4253C44.4448 25.4253 44.5372 25.3944 44.5372 25.3021C44.5372 25.2713 44.5372 25.2713 44.5372 25.2405C44.5372 25.2097 44.5063 25.2097 44.4756 25.2097C44.4448 25.1789 44.3524 25.1789 44.2908 25.2713ZM44.4448 24.871C44.5063 24.871 44.5372 24.871 44.5987 24.9018C44.8759 20.5292 45.0606 16.7108 45.0915 13.1697C45.1222 11.0142 45.1222 9.07424 45.0606 7.19587V6.85715C45.0299 5.47146 44.9991 3.77786 43.7058 3.06961C43.367 2.88486 42.9668 2.79248 42.474 2.7309C41.9506 2.66931 41.4578 2.60772 40.9652 2.57693C40.3493 2.54614 39.7026 2.51534 39.0868 2.48455C38.625 2.45376 38.1938 2.45376 37.7319 2.42297C35.638 2.33059 33.4825 2.269 31.3885 2.20742C27.17 2.11504 22.8589 2.08424 18.5788 2.11504C14.3601 2.14583 10.0799 2.23821 5.79966 2.39217C5.67649 2.39217 5.55331 2.39217 5.43014 2.39217C5.55331 2.45376 5.67649 2.54614 5.79966 2.63852C9.49481 2.51534 13.1592 2.42297 16.7619 2.36138C20.9497 2.29979 25.1684 2.33059 29.3255 2.39217C31.3885 2.42297 33.5133 2.48455 35.5765 2.54614C36.6234 2.57693 37.6703 2.60772 38.7173 2.66931C39.0252 2.66931 39.3024 2.7001 39.6103 2.7001C40.3493 2.7309 41.0883 2.76169 41.8274 2.82328C42.6896 2.91566 43.7058 3.00804 44.2292 3.83944C44.6603 4.4861 44.722 5.31751 44.7527 6.02574C44.8451 8.05807 44.8451 10.0288 44.8451 11.8764C44.8143 15.4484 44.6603 19.3591 44.3832 23.7932C44.3524 24.132 44.3524 24.4399 44.3216 24.7787C44.3524 24.9018 44.414 24.871 44.4448 24.871ZM1.7042 11.784C1.7042 11.8148 1.73499 11.8456 1.79658 11.8456C1.85816 11.8456 1.88896 11.8148 1.95054 11.784H1.7042ZM1.73499 11.4761H1.91975C1.88896 11.3221 1.88896 11.1682 1.85816 11.0142L1.73499 11.4761ZM2.1045 10.0904C2.1045 10.3675 2.13529 10.6447 2.16609 10.9218L4.22922 3.10041C4.10605 3.1312 4.01367 3.16199 3.92129 3.22358L2.1045 10.0904ZM3.73653 2.7001C3.27464 2.94645 2.84353 3.43913 2.50481 4.20896C2.04291 5.19433 1.82737 6.30287 1.7042 7.0727C1.51944 8.11966 1.45785 9.19741 1.51944 10.2136C1.51944 10.4291 1.55023 10.6755 1.58102 10.891L1.79658 10.0904C1.73499 8.55076 1.91975 6.98032 2.35085 5.47146C2.5664 4.67085 2.87432 3.77786 3.52098 3.19279C3.55177 3.16199 3.61335 3.1312 3.64415 3.10041L3.73653 2.7001ZM3.49019 3.65469C3.05908 4.17816 2.84353 4.8864 2.65878 5.53305C2.35085 6.61081 2.16609 7.75014 2.1045 8.88948L3.49019 3.65469ZM4.10605 2.57693L4.07525 2.60772L4.01367 2.88486C4.04446 2.88486 4.04446 2.88486 4.07525 2.85407L4.50635 2.51534C4.38318 2.51534 4.26001 2.51534 4.10605 2.57693C4.13684 2.54614 4.10605 2.54614 4.10605 2.57693ZM4.69111 2.54614L4.62952 2.76169C4.84508 2.76169 5.06062 2.7309 5.27617 2.7309C5.09141 2.63852 4.90666 2.57693 4.69111 2.54614Z" fill="black"/>
<path id="Vector_4" d="M11.5887 49.2589C12.7896 48.1503 13.9906 47.0418 15.1299 45.8409C15.6841 45.2558 16.2384 44.6707 16.7619 44.024C17.2238 43.4698 17.7165 42.8231 17.7165 42.0533C17.7165 41.9302 17.6241 41.807 17.501 41.7762C16.9774 41.5607 16.4232 42.1457 16.0537 42.4536C15.6534 42.7924 15.3146 43.1926 15.0067 43.6238C14.3908 44.4552 13.9289 45.4406 13.6211 46.4259C13.4671 46.9186 13.3439 47.4421 13.2823 47.9656C13.1899 48.4891 13.0975 49.0434 13.1899 49.5668C13.2823 50.0903 13.6518 50.4906 14.2061 50.5214C14.7604 50.5522 15.2223 50.2443 15.5918 49.8748C16.0537 49.382 16.4232 48.797 16.7927 48.2427C17.1931 47.6268 17.5317 47.011 17.8397 46.3644L17.347 46.0872C17.0391 46.7647 16.9159 47.5344 17.0083 48.2735C17.0698 48.8277 17.347 49.4744 17.9629 49.5668C18.6403 49.6592 19.1022 49.0125 19.4102 48.4891C19.8104 47.8424 20.1492 47.1649 20.4263 46.4259L19.8412 46.3335C19.5949 47.0418 19.5641 47.7808 19.6873 48.5198C19.7488 48.8277 19.8412 49.2589 20.0876 49.5053C20.3031 49.7208 20.6418 49.7515 20.919 49.6592C21.504 49.5053 21.9044 49.0125 22.2123 48.4891C22.5818 47.8732 22.8589 47.1649 23.1668 46.5183C23.3208 46.1796 22.8282 45.9025 22.6742 46.2411C22.397 46.7954 22.1507 47.3497 21.8735 47.904C21.658 48.3043 21.4425 48.7662 21.0421 48.9817C20.8882 49.0741 20.6111 49.1973 20.4878 49.0434C20.4263 48.951 20.3955 48.797 20.3647 48.7046C20.3339 48.5506 20.3031 48.3967 20.2723 48.2735C20.1799 47.6577 20.2416 47.0725 20.4263 46.4875C20.5495 46.118 19.9952 45.9949 19.8721 46.3335C19.6564 46.8878 19.3793 47.4113 19.0714 47.9348C18.8559 48.2735 18.5479 48.951 18.086 49.0434C17.655 49.1049 17.5626 48.4891 17.5317 48.1811C17.501 47.5961 17.5933 46.9802 17.8089 46.4259C17.9629 46.0872 17.4702 45.7792 17.3162 46.1488C16.8543 47.1342 16.3 48.058 15.6534 48.9201C15.3762 49.2896 15.0684 49.7824 14.6372 49.9672C14.2369 50.121 13.8058 49.9979 13.7442 49.5668C13.6827 49.1357 13.7751 48.6738 13.8366 48.2427C13.8982 47.7808 13.9906 47.3497 14.1137 46.9187C14.3601 46.0256 14.7296 45.1942 15.2223 44.4244C15.4994 43.9933 15.8074 43.6238 16.146 43.2543C16.3308 43.0695 16.5156 42.8847 16.7312 42.7307C16.8851 42.6076 17.1622 42.3305 17.3778 42.3921L17.1622 42.115C17.1622 42.8231 16.6079 43.4083 16.1769 43.9009C15.6534 44.4859 15.1299 45.0711 14.5756 45.6253C13.4979 46.7339 12.3585 47.8116 11.1884 48.8586C10.8804 49.1049 11.3116 49.5053 11.5887 49.2589Z" fill="url(#paint0_radial_96_262)"/>
<path id="Vector_5" d="M14.2677 50.7678C14.237 50.7678 14.1753 50.7678 14.1446 50.7678C13.5287 50.7062 13.0668 50.2751 12.9744 49.6593C12.9128 49.1665 12.9744 48.6431 13.0668 48.1196V48.058C12.6049 48.4891 12.1122 48.951 11.6503 49.3821C11.4347 49.5669 11.1576 49.5053 11.0037 49.3513C10.8497 49.1974 10.8189 48.951 11.0345 48.7355C11.8351 47.9965 12.6357 47.2574 13.4363 46.4875C13.4363 46.4568 13.4363 46.4568 13.4671 46.426C13.8058 45.3482 14.2677 44.3937 14.8836 43.5623C15.2223 43.1004 15.561 42.7 15.9305 42.3614L16.0229 42.269C16.2693 42.0534 16.6079 41.7455 16.9775 41.6223V41.5915L17.0083 41.6223C17.1931 41.5607 17.3778 41.5607 17.5626 41.6223C17.7473 41.6838 17.8705 41.8686 17.8705 42.0534C17.8705 42.269 17.8397 42.4537 17.7781 42.6385L17.8089 42.6693H17.7781C17.6241 43.1928 17.2546 43.6547 16.8851 44.1166C16.3924 44.7016 15.8689 45.2866 15.2531 45.9333C14.9144 46.272 14.6065 46.6108 14.2677 46.9187C14.1446 47.319 14.0522 47.7501 13.9906 48.1812L13.9598 48.3044C13.8982 48.6739 13.8366 49.105 13.8982 49.4745C13.929 49.6284 13.9906 49.7208 14.083 49.7824C14.2061 49.844 14.3908 49.844 14.5756 49.7824C14.9144 49.6284 15.1915 49.2589 15.4379 48.9202L15.5303 48.7663C16.2077 47.8425 16.7619 46.9187 17.1622 46.0256L17.2238 45.8718L17.2546 45.9025C17.3778 45.8101 17.5317 45.7794 17.6857 45.8409C17.8705 45.9333 17.9936 46.118 17.9629 46.3336H17.9936L17.9321 46.4568C17.7165 46.9803 17.6241 47.5653 17.655 48.1196C17.6857 48.366 17.7473 48.7046 17.9012 48.797C17.9321 48.8279 17.9936 48.8279 18.0552 48.8279C18.394 48.7663 18.6711 48.2736 18.825 47.9656C18.8559 47.9041 18.8867 47.8732 18.9174 47.8117C19.2254 47.2882 19.4717 46.7647 19.6873 46.2413L19.7181 46.118H19.7488C19.8721 45.9641 20.1183 45.9025 20.2723 45.9641C20.4263 46.0256 20.5495 46.1489 20.5495 46.3336H20.5802L20.5187 46.4875C20.3339 47.0418 20.2723 47.6577 20.3647 48.1812C20.3955 48.3044 20.4263 48.4584 20.4571 48.6123L20.4878 48.6739C20.5187 48.7355 20.5187 48.8586 20.5802 48.8894C20.6111 48.9202 20.765 48.8894 20.9497 48.797C21.3193 48.5815 21.5349 48.1812 21.7504 47.7808C21.9351 47.4113 22.1199 47.0111 22.3047 46.6415L22.551 46.1489C22.6126 46.0256 22.7358 45.9333 22.8897 45.9025C23.0437 45.9025 23.1977 45.9641 23.3208 46.118C23.4132 46.2413 23.4132 46.426 23.3516 46.5799C23.2592 46.7647 23.1668 46.9494 23.0745 47.1651C22.8589 47.6269 22.6434 48.1196 22.3663 48.5815C21.9659 49.2589 21.504 49.6593 20.9806 49.8132C20.5802 49.9056 20.2416 49.844 19.9952 49.5977C19.7181 49.3205 19.6257 48.8586 19.5641 48.5199C19.5333 48.5507 19.5333 48.5815 19.5025 48.6123C19.133 49.2281 18.6403 49.844 17.9012 49.7517C17.347 49.69 16.9467 49.1974 16.8236 48.4584C16.454 49.0434 16.0845 49.5669 15.6842 50.0288C15.3763 50.3675 14.8836 50.7678 14.2677 50.7678ZM13.4671 47.6885C13.4363 47.8117 13.4363 47.9348 13.4055 48.0272L13.3747 48.1504C13.3132 48.6431 13.2208 49.1358 13.2823 49.5977C13.3439 50.0596 13.7134 50.3983 14.1446 50.4291C14.6988 50.4598 15.1299 50.1212 15.3763 49.8132C15.8074 49.3513 16.146 48.797 16.5464 48.1812C16.6079 48.0888 16.6388 48.0272 16.7003 47.9348C16.7003 47.7501 16.7003 47.5653 16.7312 47.3806C16.4232 47.9041 16.0845 48.4275 15.6842 48.9818L15.5918 49.1358C15.3455 49.5053 15.0375 49.9056 14.6065 50.0903C14.3601 50.2136 14.0522 50.2136 13.8674 50.0903C13.6827 49.9979 13.5594 49.8132 13.5287 49.5669C13.4671 49.1665 13.5287 48.7046 13.5903 48.3044L13.6211 48.1812C13.6518 47.9041 13.7134 47.6269 13.7751 47.3498C13.7134 47.473 13.5903 47.5961 13.4671 47.6885ZM19.7797 48.1196C19.7797 48.2427 19.8104 48.366 19.8412 48.4891C19.9028 48.7663 19.9644 49.1974 20.18 49.4129C20.3339 49.5669 20.6111 49.5977 20.8882 49.536C21.3501 49.4129 21.7196 49.0741 22.0891 48.4584C22.3354 48.0272 22.551 47.5346 22.7666 47.0727C22.8589 46.8879 22.9513 46.7032 23.0437 46.4875C23.0745 46.426 23.0745 46.3952 23.0437 46.3336C23.0129 46.272 22.9513 46.272 22.9206 46.272C22.8897 46.272 22.8589 46.272 22.8589 46.3336L22.6126 46.8263C22.4278 47.2266 22.243 47.5961 22.0583 47.9965C21.8428 48.4275 21.5656 48.8894 21.1654 49.1358C20.8266 49.3205 20.5802 49.3513 20.4263 49.1665C20.334 49.0741 20.3031 48.9202 20.2723 48.8279L20.2416 48.7663C20.2107 48.6123 20.1492 48.4584 20.1492 48.3044C20.1183 48.0888 20.0876 47.8732 20.0876 47.6577C19.9644 47.8117 19.8721 47.9656 19.7797 48.1196ZM17.0698 48.058C17.0698 48.1504 17.0698 48.212 17.1007 48.3044C17.1315 48.6123 17.2855 49.3821 17.9321 49.4437C18.4864 49.5053 18.9174 48.9818 19.2254 48.4584C19.3178 48.3351 19.3793 48.1812 19.4717 48.058C19.4717 47.8732 19.4409 47.6885 19.4717 47.5037C19.3793 47.6885 19.2869 47.8425 19.1945 48.0272C19.1638 48.058 19.133 48.1196 19.1022 48.1812C18.8866 48.5815 18.5788 49.1358 18.086 49.1974C17.9321 49.2281 17.8089 49.1974 17.7165 49.105C17.4702 48.8894 17.3778 48.4584 17.3778 48.212C17.3778 48.0272 17.347 47.8117 17.3778 47.6269C17.2546 47.7501 17.1622 47.9041 17.0698 48.058ZM11.4656 49.1358C12.0506 48.6123 12.6049 48.058 13.1899 47.5346C13.2208 47.3806 13.2515 47.2266 13.2823 47.0727C12.6049 47.7193 11.9275 48.3351 11.25 48.9818C11.1885 49.0434 11.2192 49.105 11.25 49.1358C11.2808 49.1358 11.3732 49.2281 11.4656 49.1358ZM19.9336 46.5184C19.8412 46.8263 19.7797 47.1651 19.7797 47.4729C19.9336 47.1958 20.0568 46.8879 20.18 46.5799L19.9336 46.5184ZM17.3778 46.3336C17.2546 46.7032 17.1622 47.0418 17.1007 47.4113C17.2855 47.1034 17.4393 46.7955 17.5933 46.4875L17.3778 46.3336ZM13.7134 46.6415C13.6518 46.7955 13.6211 46.9803 13.5903 47.1342C13.7134 47.0111 13.8366 46.8879 13.9598 46.7647C14.0213 46.5799 14.083 46.3952 14.1446 46.2104C13.9906 46.3952 13.8674 46.5184 13.7134 46.6415ZM14.6988 45.687C14.6065 45.9025 14.5141 46.118 14.4525 46.3336C14.6372 46.1489 14.822 45.9333 15.0375 45.7485C15.6534 45.1327 16.1769 44.5476 16.6696 43.9626C17.0391 43.5007 17.3778 43.0695 17.5317 42.6076L17.347 42.5461C17.3162 42.5461 17.3162 42.5461 17.2855 42.5461C17.1315 43.0695 16.7619 43.5007 16.4232 43.8702L16.3 44.0242C15.7765 44.5476 15.2839 45.1019 14.6988 45.687ZM16.9775 41.9918C16.7003 42.115 16.454 42.3305 16.2384 42.5461L16.146 42.6385C15.7765 42.9464 15.4379 43.3467 15.1299 43.7778C14.6372 44.4245 14.237 45.1942 13.929 46.0256C14.083 45.8718 14.2677 45.687 14.4217 45.533C14.6065 45.1019 14.822 44.7016 15.0684 44.3013C15.3455 43.8702 15.6534 43.4699 16.0229 43.1311C16.2077 42.9464 16.3924 42.7616 16.6079 42.5769L16.6696 42.5153C16.7619 42.4537 16.8543 42.3614 16.9467 42.2997C16.9467 42.2381 16.9775 42.1766 16.9775 42.0842V41.9918ZM16.7619 42.854C16.5772 43.008 16.4232 43.1619 16.2693 43.3159C15.9305 43.6547 15.6226 44.0549 15.3763 44.4552C15.3146 44.5476 15.2531 44.64 15.2223 44.7323C15.5303 44.4245 15.8074 44.0857 16.0537 43.7778L16.1769 43.6238C16.3617 43.4083 16.5772 43.1311 16.7619 42.854ZM17.1931 41.9302L17.5317 42.3614C17.5317 42.269 17.5626 42.1766 17.5626 42.0842C17.5626 42.0226 17.5317 41.9918 17.4393 41.961C17.3778 41.9302 17.2855 41.9302 17.1931 41.9302Z" fill="url(#paint1_radial_96_262)"/>
<path id="Vector_6" d="M7.27777 11.7224C5.46098 11.7531 3.64421 11.7531 1.82742 11.6916C1.82742 11.6916 1.27315 5.25587 2.99756 3.62384C4.72197 1.96102 6.2616 2.85402 6.78509 5.74855C7.33936 8.61229 7.27777 11.7224 7.27777 11.7224Z" fill="black"/>
<path id="Vector_7" d="M7.27773 11.4452C5.46094 11.476 3.64417 11.476 1.82738 11.4144L2.10452 11.6916C2.04294 10.9834 2.01214 10.2751 2.01214 9.56687C2.01214 8.24278 2.04294 6.88789 2.35086 5.59458C2.47403 5.07111 2.65879 4.51684 2.96672 4.05494C3.27465 3.59305 3.89051 3.16194 4.47557 3.10036C5.06064 3.03878 5.52253 3.43908 5.83047 3.90097C6.35394 4.73238 6.50791 5.71776 6.63108 6.67234C6.87742 8.33516 7.00059 10.0596 6.9698 11.7531C6.9698 12.1226 7.55486 12.1226 7.55486 11.7531C7.58566 10.2135 7.46249 8.67388 7.27773 7.16502C7.12376 6.08728 7.00059 4.97873 6.50791 3.99335C6.19997 3.3467 5.70729 2.73084 4.99906 2.57688C4.29082 2.42292 3.58258 2.76164 3.0283 3.22353C2.53562 3.62384 2.22769 4.11652 2.01214 4.73238C1.51945 6.05648 1.45787 7.53454 1.42707 8.92022C1.39628 9.87481 1.42707 10.7986 1.51945 11.7531C1.51945 11.9071 1.64263 12.0304 1.79659 12.0304C3.61338 12.0919 5.43015 12.1226 7.24694 12.0611C7.67804 11.9995 7.67803 11.4452 7.27773 11.4452Z" fill="black"/>
<path id="Vector_8" d="M19.9029 8.95106C18.4557 7.81172 16.4541 7.62696 14.8529 8.55075C14.1139 8.98185 13.4672 9.65929 13.0977 10.4291C12.6973 11.2605 12.5742 12.3383 13.1901 13.1697C13.7751 13.9703 14.7296 14.2782 15.6227 14.4015C15.8074 14.4322 15.9922 14.463 16.2077 14.463C16.2386 14.463 16.2693 14.463 16.3001 14.463C16.5157 14.4938 16.762 14.5246 16.9776 14.5553C17.4086 14.617 17.8398 14.7401 18.1785 14.9865C18.7943 15.3868 19.0715 16.2182 19.1023 16.9572C19.1331 17.6962 18.9483 18.4045 18.4248 18.8664C17.7474 19.4823 16.6696 19.7286 15.7458 19.6054C14.8836 19.4823 14.0522 19.0204 13.5596 18.3121C13.4056 18.0966 13.0977 17.9734 12.8206 18.1274C12.6973 18.189 12.6049 18.3121 12.5742 18.4661C12.5434 18.5893 12.5434 18.7433 12.6358 18.8972C13.7443 20.4985 15.8074 21.0835 17.6243 20.4985C18.4864 20.2213 19.3486 19.6978 19.7797 18.8356C20.18 18.0657 20.2416 17.1728 20.0876 16.3105C19.9337 15.3868 19.4718 14.4938 18.6404 14.0011C17.9321 13.57 17.1007 13.4777 16.3309 13.416C16.1769 13.3853 16.023 13.3853 15.8691 13.3544C15.4995 13.2929 15.0992 13.2313 14.7296 13.0773C14.3601 12.9234 14.083 12.7078 13.9291 12.3691C13.7751 12.0304 13.7751 11.6608 13.8982 11.2913C14.0215 10.9218 14.237 10.5523 14.4525 10.2752C15.0068 9.6285 15.7767 9.16661 16.6081 9.04344C17.4395 8.92026 18.4248 9.16661 19.1023 9.72088C19.3178 9.87485 19.6257 9.93643 19.8413 9.72088C19.9337 9.6285 19.9952 9.47454 19.9952 9.35137C20.0569 9.2282 20.0261 9.07423 19.9029 8.95106Z" fill="url(#paint2_radial_96_262)"/>
<path id="Vector_9" d="M16.2385 20.8986C14.7604 20.8986 13.3747 20.2212 12.5433 18.9895C12.4202 18.8355 12.4202 18.62 12.4509 18.4352C12.5125 18.2505 12.6049 18.0965 12.7589 18.0041C13.0668 17.8193 13.3747 17.9117 13.5903 18.1272L13.6827 18.2505C14.1446 18.9279 14.9144 19.3898 15.7458 19.4822C16.7003 19.6053 17.6858 19.3282 18.3016 18.7739C18.8559 18.2812 18.9483 17.5114 18.9174 16.9879C18.8867 16.1258 18.5479 15.4483 18.0553 15.1096C17.7474 14.9248 17.4086 14.8016 16.916 14.7092C16.7003 14.6785 16.4848 14.6477 16.2693 14.6168H16.1769C15.9613 14.5861 15.7766 14.5861 15.5918 14.5553C14.3909 14.4013 13.5595 13.9702 13.0361 13.262C12.2354 12.1842 12.6973 10.8909 12.9437 10.3675C13.3132 9.56685 13.9598 8.8894 14.7604 8.39671C16.3617 7.44214 18.4555 7.59609 19.9645 8.79702C20.1184 8.9202 20.18 9.10495 20.18 9.3205C20.18 9.50526 20.0876 9.69002 19.9645 9.81318C19.6565 10.1211 19.2562 10.0287 19.0098 9.84398C18.3632 9.35129 17.4394 9.10495 16.608 9.19733C15.8382 9.28971 15.0991 9.72081 14.5449 10.3675C14.2985 10.6754 14.1137 11.0141 13.9906 11.322C13.8675 11.6916 13.8675 12.0302 14.0214 12.3074C14.1446 12.5845 14.3909 12.8001 14.7604 12.954C15.0375 13.0773 15.407 13.1696 15.8689 13.2312C16.0229 13.262 16.1769 13.262 16.3001 13.2928C17.0699 13.3852 17.9321 13.4775 18.6712 13.9087C19.4717 14.3706 19.9952 15.2327 20.2107 16.3413C20.3955 17.2958 20.2724 18.1889 19.9028 18.9586C19.4102 19.9441 18.394 20.4676 17.655 20.7138C17.2239 20.8371 16.7312 20.8986 16.2385 20.8986ZM13.1284 18.2505C13.0668 18.2505 13.0052 18.2812 12.9437 18.312C12.8513 18.3736 12.7897 18.4352 12.7589 18.5584C12.7589 18.62 12.7281 18.7431 12.7897 18.8355C13.8366 20.3443 15.8074 20.9602 17.5934 20.3752C18.2708 20.1596 19.1946 19.6977 19.6565 18.8047C20.0876 17.9425 20.0568 17.0187 19.9336 16.4029C19.8412 15.8178 19.5026 14.7708 18.5479 14.1858C17.8705 13.7854 17.0699 13.6931 16.3001 13.6007C16.1461 13.5699 15.9922 13.5699 15.8382 13.5392C15.3455 13.4775 14.976 13.3852 14.668 13.2312C14.237 13.0464 13.9598 12.7693 13.7751 12.4306C13.6211 12.0919 13.5903 11.6916 13.7442 11.2297C13.8675 10.8602 14.083 10.4906 14.3294 10.1827C14.9144 9.47447 15.7458 9.01258 16.5772 8.9202C17.501 8.79702 18.4864 9.07415 19.1946 9.62843C19.3486 9.75161 19.5641 9.81318 19.7488 9.62843C19.8105 9.56685 19.8412 9.47447 19.8721 9.35129C19.8721 9.28971 19.8721 9.16653 19.7797 9.07415C18.3632 7.96561 16.4232 7.81165 14.9144 8.70464C14.1754 9.13574 13.5903 9.7824 13.2208 10.5214C13.0052 10.9833 12.5742 12.1535 13.2823 13.0773C13.7442 13.7239 14.5141 14.0934 15.6227 14.2473C15.8074 14.2782 15.9922 14.2782 16.1769 14.3089H16.3001C16.5156 14.3397 16.762 14.3706 16.9775 14.4013C17.501 14.4937 17.9013 14.6168 18.24 14.8325C18.7943 15.202 19.1638 16.0025 19.2254 16.9263C19.2562 17.7886 19.0098 18.4967 18.5172 18.9586C17.8398 19.5745 16.762 19.8824 15.715 19.7285C14.7913 19.6053 13.929 19.1126 13.4363 18.3736C13.3747 18.3429 13.2516 18.2505 13.1284 18.2505Z" fill="url(#paint3_radial_96_262)"/>
<path id="Vector_10" d="M26.6156 9.35133C29.9105 9.35133 33.1745 9.22817 36.4385 9.0742C36.8081 9.04341 36.8081 8.48914 36.4385 8.48914C33.1745 8.67389 29.9105 8.76627 26.6156 8.76627C26.2461 8.79706 26.2461 9.35133 26.6156 9.35133Z" fill="black"/>
<path id="Vector_11" fill-rule="evenodd" clip-rule="evenodd" d="M26.6156 9.65931C26.4309 9.65931 26.2769 9.59772 26.1845 9.47455C26.0921 9.35137 26.0305 9.19741 26.0305 9.07423C26.0305 8.95107 26.0614 8.7971 26.1845 8.67393C26.2769 8.55075 26.4309 8.48917 26.6156 8.48917C29.8797 8.48917 33.1745 8.36599 36.4386 8.21204C36.6233 8.21204 36.7773 8.27363 36.9005 8.39679C36.9928 8.51996 37.0545 8.67393 37.0545 8.7971C37.0545 9.07423 36.8697 9.38217 36.5002 9.41296C33.2053 9.56693 29.9104 9.65931 26.6156 9.65931ZM36.4693 9.07423C33.2053 9.25899 29.9104 9.35137 26.6464 9.35137C26.2769 9.35137 26.2769 8.76631 26.6464 8.76631C29.9413 8.76631 33.2053 8.64314 36.4693 8.48917C36.8388 8.45838 36.8388 9.04345 36.4693 9.07423Z" fill="black"/>
<path id="Vector_12" d="M12.7896 27.1805C16.3616 27.1805 19.9644 27.0573 23.5363 26.9033C23.9367 26.8725 23.9367 26.3182 23.5363 26.3182C19.9644 26.503 16.3616 26.5954 12.7896 26.5954C12.3893 26.5954 12.3893 27.1805 12.7896 27.1805Z" fill="black"/>
<path id="Vector_13" fill-rule="evenodd" clip-rule="evenodd" d="M12.7896 27.4883C12.6048 27.4883 12.4201 27.4268 12.2969 27.3036C12.1737 27.1804 12.1429 27.0264 12.1429 26.9033C12.1429 26.7802 12.2046 26.6262 12.2969 26.503C12.4201 26.3798 12.5741 26.3183 12.7896 26.3183C16.3616 26.3183 19.9335 26.195 23.5055 26.0411C23.6903 26.0411 23.8751 26.1027 23.9982 26.2259C24.1214 26.349 24.1522 26.503 24.1522 26.6262C24.1522 26.9033 23.9674 27.2112 23.5363 27.2421C19.9644 27.396 16.3924 27.4883 12.7896 27.4883ZM23.5363 26.9033C19.9644 27.0881 16.3616 27.1804 12.7896 27.1804C12.3893 27.1804 12.3893 26.5954 12.7896 26.5954C16.3616 26.5954 19.9644 26.4722 23.5363 26.3183C23.9367 26.2874 23.9367 26.8725 23.5363 26.9033Z" fill="black"/>
<path id="Vector_14" d="M26.8004 13.9394C31.1114 13.9394 35.3916 13.8163 39.7027 13.6623C40.1953 13.6315 40.1953 13.0773 39.7027 13.0773C35.4225 13.262 31.1114 13.3544 26.8004 13.3544C26.3077 13.3544 26.3077 13.9394 26.8004 13.9394Z" fill="black"/>
<path id="Vector_15" fill-rule="evenodd" clip-rule="evenodd" d="M26.8004 14.2475C26.554 14.2475 26.3693 14.1859 26.2153 14.0627C26.0921 13.9396 26.0305 13.7856 26.0305 13.6624C26.0305 13.5392 26.0921 13.3853 26.2153 13.2621C26.3693 13.1389 26.554 13.0773 26.8004 13.0773C31.0806 13.0773 35.3916 12.9542 39.6718 12.8002C39.9182 12.8002 40.1337 12.8618 40.2569 12.9849C40.3801 13.1082 40.4416 13.2621 40.4416 13.3853C40.4416 13.6624 40.1953 13.9703 39.7026 14.0011C35.4224 14.1551 31.1114 14.2475 26.8004 14.2475ZM39.7026 13.6624C35.4224 13.8472 31.1114 13.9396 26.8004 13.9396C26.3077 13.9396 26.3077 13.3544 26.8004 13.3544C31.1114 13.3544 35.3916 13.2313 39.7026 13.0773C40.1953 13.0465 40.1953 13.6316 39.7026 13.6624Z" fill="black"/>
<path id="Vector_16" d="M16.7311 21.6685C16.885 16.7417 16.9466 11.8147 16.9159 6.8879C16.9159 6.33363 16.3308 6.30284 16.3308 6.85711C16.3616 11.784 16.3 16.7108 16.146 21.6378C16.146 22.192 16.7311 22.2228 16.7311 21.6685Z" fill="url(#paint4_radial_96_262)"/>
<path id="Vector_17" fill-rule="evenodd" clip-rule="evenodd" d="M17.0391 21.6685C17.0391 21.9456 16.9467 22.1612 16.8235 22.3152C16.7003 22.4691 16.5464 22.5307 16.4232 22.5307C16.3 22.5307 16.146 22.4691 16.0229 22.3152C15.8998 22.1612 15.8381 21.9148 15.8381 21.6376C15.9921 16.7108 16.0537 11.784 16.0229 6.88786C16.0229 6.61072 16.0845 6.36439 16.2384 6.21042C16.3616 6.05645 16.5155 5.99487 16.6388 5.99487C16.9159 5.99487 17.2238 6.27201 17.2238 6.85707C17.2546 11.8147 17.1931 16.7416 17.0391 21.6685ZM16.9159 6.88786C16.9467 11.8147 16.8851 16.7416 16.7312 21.6685C16.7003 22.2228 16.146 22.2228 16.146 21.6376C16.3 16.7108 16.3616 11.784 16.3308 6.85707C16.3308 6.3028 16.9159 6.33359 16.9159 6.88786Z" fill="url(#paint5_radial_96_262)"/>
<path id="Vector_18" d="M12.9744 31.6762C17.6857 31.7378 22.3663 31.6762 27.0776 31.5531C27.601 31.5531 27.6319 30.968 27.0776 30.968C22.3971 31.0912 17.6857 31.122 12.9744 31.0912C12.4509 31.0912 12.4509 31.6762 12.9744 31.6762Z" fill="black"/>
<path id="Vector_19" fill-rule="evenodd" clip-rule="evenodd" d="M12.9744 31.9841C12.728 31.9841 12.4817 31.8917 12.3277 31.7686C12.1737 31.6454 12.1122 31.4914 12.1122 31.3683C12.1122 31.2451 12.1737 31.0912 12.3277 30.9679C12.4817 30.8448 12.6972 30.7832 12.9744 30.7832C17.6549 30.8448 22.3662 30.7832 27.0467 30.66C27.2931 30.66 27.5394 30.7217 27.6933 30.8448C27.8473 30.9679 27.909 31.1219 27.909 31.2451C27.909 31.5222 27.6318 31.8302 27.0775 31.861C22.397 32.015 17.6857 32.0457 12.9744 31.9841ZM27.0775 31.5838C22.397 31.707 17.6857 31.7378 12.9744 31.707C12.4508 31.707 12.4508 31.1219 12.9744 31.1219C17.6857 31.1835 22.3662 31.1219 27.0775 30.9988C27.6318 30.9679 27.601 31.5531 27.0775 31.5838Z" fill="black"/>
<path id="Vector_20" d="M26.8312 17.9735C31.3578 18.0351 35.8844 17.9735 40.4109 17.8812C40.9343 17.8812 40.9343 17.296 40.4109 17.296C35.8844 17.4193 31.3578 17.45 26.8312 17.3884C26.3385 17.3884 26.3385 17.9427 26.8312 17.9735Z" fill="black"/>
<path id="Vector_21" fill-rule="evenodd" clip-rule="evenodd" d="M26.8312 18.2813C26.5848 18.2813 26.3693 18.189 26.2153 18.0658C26.0921 17.9426 26.0305 17.7887 26.0305 17.6654C26.0305 17.5423 26.0921 17.3883 26.2461 17.2652C26.4 17.142 26.6156 17.0804 26.8619 17.0804C31.3885 17.142 35.915 17.0804 40.4416 16.988C40.688 16.988 40.9035 17.0497 41.0575 17.1728C41.2115 17.2959 41.273 17.4499 41.2423 17.5731C41.2423 17.8502 40.9959 18.1582 40.4416 18.189C35.915 18.2813 31.3885 18.3121 26.8312 18.2813ZM40.4416 17.8502C35.915 17.9734 31.3885 18.0042 26.8619 17.9426C26.3385 17.9426 26.3693 17.3576 26.8619 17.3576C31.3885 17.4192 35.915 17.3576 40.4416 17.2652C40.9651 17.2652 40.9344 17.8502 40.4416 17.8502Z" fill="black"/>
<path id="Vector_22" d="M13.0359 35.8026C17.9936 35.8641 22.9205 35.8026 27.8782 35.7102C28.4324 35.7102 28.4324 35.1251 27.8782 35.1251C22.9205 35.2483 17.9936 35.2791 13.0359 35.2174C12.4817 35.2174 12.4817 35.7717 13.0359 35.8026Z" fill="black"/>
<path id="Vector_23" fill-rule="evenodd" clip-rule="evenodd" d="M13.036 36.1104C12.7588 36.1104 12.5432 36.0181 12.3585 35.8949C12.2046 35.7717 12.1429 35.6178 12.1429 35.4945C12.1429 35.3714 12.2046 35.2174 12.3585 35.0943C12.5125 34.9711 12.7588 34.9095 13.036 34.9095C17.9628 34.971 22.9205 34.9095 27.8473 34.8171C28.1245 34.8171 28.3708 34.8787 28.5247 35.0019C28.6787 35.125 28.7404 35.279 28.7404 35.4022C28.7404 35.6793 28.4632 35.9873 27.8781 36.0181C22.9513 36.1104 17.9936 36.1412 13.036 36.1104ZM27.8781 35.6793C22.9205 35.8024 17.9936 35.8333 13.036 35.7717C12.4817 35.7717 12.4817 35.1867 13.036 35.1867C17.9936 35.2483 22.9205 35.1867 27.8781 35.0943C28.4324 35.0943 28.4324 35.6793 27.8781 35.6793Z" fill="black"/>
<path id="Vector_24" d="M33.113 63.9472C32.5895 63.8548 32.22 63.3929 32.0352 62.9002C31.8505 62.4075 31.8505 61.884 31.8197 61.3606C31.5733 50.5523 31.7889 39.744 32.1585 28.9664C32.1892 28.2274 32.22 27.4576 32.4971 26.7493C32.7742 26.0411 33.6365 25.456 34.0984 25.302C34.5294 25.1481 36.377 24.9325 37.6087 24.9941C44.1985 25.302 50.8189 25.61 57.4086 25.9179C57.9629 25.9179 58.5787 26.1951 58.9174 26.9033C59.2562 27.6115 59.2562 28.4121 59.2562 29.1819C59.133 40.2674 59.0098 51.3528 58.8867 62.4383C58.8558 63.1466 58.3632 63.5161 57.7165 63.7932C57.0699 64.0704 56.3616 64.1011 55.6534 64.1011C49.1869 64.2551 42.7511 64.2551 36.2846 64.1627C35.0837 64.132 33.852 64.1011 32.7127 63.7625" fill="white"/>
<path id="Vector_25" d="M33.2054 63.67C32.2508 63.4545 32.1277 62.3151 32.1277 61.5145C32.0968 60.4367 32.0968 59.3589 32.0661 58.2812C32.0353 56.1257 32.0353 53.9394 32.0353 51.7839C32.0353 47.4421 32.0968 43.1311 32.1892 38.7893C32.2508 36.6337 32.2816 34.4783 32.374 32.3228C32.4048 31.245 32.4356 30.1672 32.4664 29.0895C32.4972 28.2273 32.4664 27.1496 33.0206 26.4413C33.3901 25.9794 33.9137 25.6099 34.4987 25.5175C35.207 25.3635 35.9152 25.3328 36.6234 25.302C37.5781 25.2712 38.5326 25.3328 39.4871 25.3944C40.5649 25.4559 41.6427 25.4868 42.7204 25.5483C47.0315 25.7639 51.3425 25.9487 55.6534 26.1642C56.177 26.1949 56.7312 26.2258 57.2547 26.2258C57.5934 26.2566 57.9014 26.2873 58.2093 26.4721C58.9791 26.9956 59.0099 28.1041 59.0099 28.9355C59.0099 31.0603 58.9483 33.2157 58.9483 35.3404C58.8867 39.6822 58.8559 43.9933 58.7943 48.3351C58.7328 52.6769 58.7019 56.9879 58.6404 61.3297C58.6404 61.576 58.6404 61.8532 58.6404 62.0995C58.6404 62.315 58.6404 62.5614 58.5788 62.7462C58.4557 63.0541 58.1785 63.2388 57.8705 63.3928C57.0084 63.824 56.0538 63.7931 55.13 63.7931C52.9745 63.8547 50.819 63.8855 48.6326 63.8855C44.3217 63.9163 40.0414 63.9163 35.7305 63.824C34.7451 63.7931 33.7597 63.7316 32.8051 63.4545C32.4356 63.3621 32.2816 63.9163 32.6511 64.0087C33.6673 64.3166 34.7143 64.3782 35.7305 64.409C36.839 64.4398 37.9476 64.4398 39.0561 64.4706C41.304 64.5014 43.5211 64.5014 45.7689 64.5014C47.986 64.5014 50.2031 64.4706 52.4202 64.4398C53.5287 64.409 54.6373 64.409 55.7458 64.3782C56.6696 64.3474 57.6243 64.2859 58.4248 63.7623C58.7328 63.5468 58.9791 63.3005 59.1331 62.9309C59.2871 62.4998 59.2255 61.9455 59.2255 61.4836C59.2255 60.3751 59.2562 59.2665 59.2562 58.158C59.2871 55.9409 59.3178 53.7238 59.3178 51.476C59.3794 47.011 59.4102 42.5152 59.4718 38.0503C59.5026 35.8332 59.5333 33.6161 59.5333 31.3682L59.5642 29.7053C59.5642 29.1819 59.595 28.6892 59.5642 28.1658C59.5026 27.2727 59.2254 26.3182 58.394 25.8563C58.0553 25.6407 57.6858 25.6099 57.2855 25.6099C56.762 25.5792 56.2077 25.5483 55.6843 25.5483C54.5758 25.4868 53.4672 25.4559 52.3587 25.3944C50.1416 25.302 47.9245 25.1788 45.6765 25.0864C43.4594 24.994 41.2423 24.8709 38.9945 24.7785C38.0707 24.7477 37.1469 24.6861 36.1924 24.7477C35.5149 24.7785 34.8067 24.8401 34.16 24.994C33.5134 25.1788 32.8975 25.6407 32.4972 26.1949C31.943 26.9648 31.9121 28.0425 31.8813 28.9663C31.8197 31.1834 31.7273 33.4005 31.6658 35.6484C31.5426 40.1134 31.4811 44.5783 31.4502 49.0434C31.4502 51.2912 31.4502 53.5083 31.4502 55.7562C31.4502 56.8647 31.4811 57.9732 31.4811 59.0818C31.4811 59.6361 31.5118 60.1903 31.5118 60.7446C31.5118 61.2681 31.5118 61.7916 31.5734 62.315C31.6966 63.1465 32.1277 64.0395 33.0206 64.255C33.421 64.3166 33.5749 63.7624 33.2054 63.67Z" fill="black"/>
<path id="Vector_26" d="M44.7834 64.6554C42.8743 64.6554 40.9652 64.6554 39.0252 64.6247H38.6249C37.6703 64.6247 36.6541 64.5939 35.6688 64.5631C34.8989 64.5323 34.0984 64.5015 33.267 64.3475C33.1746 64.3783 33.0822 64.4092 32.959 64.3783C32.1275 64.1935 31.5425 63.4238 31.3885 62.3152C31.327 61.8841 31.327 61.4222 31.327 61.0219V60.714C31.327 60.1597 31.2961 59.6055 31.2961 59.0512C31.2654 57.9426 31.2654 56.8341 31.2654 55.7256C31.2346 53.5392 31.2346 51.2605 31.2654 49.0127C31.2961 44.8249 31.3578 40.4522 31.4809 35.6177C31.5425 33.3699 31.6041 31.1528 31.6965 28.9357V28.8125C31.7273 27.8887 31.758 26.8418 32.3432 26.072C32.8051 25.4561 33.4517 24.9942 34.0984 24.8094C34.745 24.6247 35.4532 24.5939 36.1307 24.5323H36.1615C36.9929 24.4707 37.855 24.5323 38.6864 24.563L57.2546 25.4253C57.6241 25.4561 58.0552 25.4868 58.4555 25.7025C59.1945 26.1027 59.6257 26.9649 59.718 28.1351C59.7488 28.5662 59.7488 28.9665 59.7488 29.3976L59.6564 38.3275L59.4101 61.453C59.4101 61.5454 59.4101 61.6686 59.4101 61.7609C59.4101 62.1612 59.4409 62.5616 59.2869 62.9311C59.1638 63.2698 58.8866 63.5778 58.5171 63.824C57.655 64.3783 56.6695 64.4399 55.7765 64.4707C54.668 64.5015 53.5594 64.5323 52.4509 64.5323C50.203 64.5631 47.9859 64.5939 45.7996 64.5939C45.4301 64.6554 45.1222 64.6554 44.7834 64.6554ZM33.5441 64.0704C34.2831 64.1936 35.0222 64.2244 35.7303 64.2552C36.7157 64.2859 37.7011 64.2859 38.6864 64.3168H39.0868C41.3347 64.3475 43.5825 64.3475 45.7996 64.3475C47.9859 64.3475 50.2338 64.3168 52.4509 64.2859C53.5594 64.2552 54.668 64.2552 55.7765 64.2244C56.6079 64.1935 57.5933 64.132 58.3631 63.6393C58.6711 63.4238 58.8866 63.1774 59.0098 62.9002C59.133 62.5923 59.133 62.2228 59.1022 61.8533C59.1022 61.7302 59.1022 61.6378 59.1022 61.5146L59.4717 29.4591C59.4717 29.0588 59.4717 28.6277 59.4409 28.2274C59.3793 27.4884 59.1638 26.503 58.3631 26.0411C58.0552 25.8563 57.7473 25.8256 57.3162 25.7948L38.7481 24.9326C37.9474 24.9018 37.0852 24.8402 36.2538 24.9018H36.2231C35.5456 24.9326 34.8682 24.9942 34.2523 25.1482C33.6672 25.3021 33.0822 25.7332 32.6818 26.2875C32.1584 26.9958 32.1275 27.9811 32.0968 28.8433V28.9665C32.0352 31.1528 31.9428 33.4006 31.8813 35.6177C31.758 40.4214 31.6657 44.794 31.6657 48.9819C31.6657 51.2298 31.6657 53.5085 31.6657 55.6947C31.6657 56.8032 31.6965 57.9118 31.6965 59.0203C31.6965 59.5746 31.7273 60.1289 31.7273 60.6832V60.9911C31.7273 61.4222 31.7273 61.8533 31.7889 62.2536C31.8197 62.5 31.9428 63.1159 32.3432 63.5778C32.3739 63.5161 32.4047 63.4545 32.4663 63.393L32.4971 63.3621C32.0352 62.8079 32.0352 61.9149 32.0044 61.5146C31.9737 60.5293 31.9737 59.5131 31.9428 58.5277V58.2813C31.912 56.1566 31.912 53.9704 31.912 51.784C31.912 47.6577 31.9737 43.4083 32.066 38.7894C32.1275 36.7263 32.1584 34.5708 32.2508 32.3229C32.2815 31.2452 32.3123 30.1674 32.3432 29.0896V28.8125C32.3739 27.9811 32.4047 27.0265 32.9282 26.3491C33.3285 25.8256 33.9136 25.4868 34.4986 25.3637C35.2684 25.2097 36.0691 25.1789 36.6541 25.1482C37.3931 25.1173 38.1322 25.1482 38.8712 25.2097C39.0868 25.2097 39.3023 25.2406 39.5179 25.2406L57.2854 26.072C57.6241 26.1027 57.9936 26.1335 58.3016 26.3491C59.1022 26.9034 59.1638 27.9811 59.1638 28.9357C59.1638 30.3829 59.133 31.8302 59.133 33.2467C59.133 33.9549 59.1022 34.6632 59.1022 35.3714L58.7943 62.2228C58.7943 62.4076 58.7943 62.6231 58.7019 62.8387C58.5479 63.2082 58.2092 63.4238 57.9321 63.5778C57.1622 63.978 56.2693 63.978 55.4379 64.0088H55.0991C52.9436 64.0704 50.7573 64.1012 48.6018 64.1012C44.8143 64.132 40.2877 64.1628 35.6996 64.0396C34.9913 64.0088 34.2523 63.978 33.5441 63.8549C33.5748 63.9164 33.5748 64.0088 33.5441 64.1012C33.5441 64.0396 33.5441 64.0704 33.5441 64.0704ZM32.6818 63.6085C32.6511 63.6085 32.6203 63.6085 32.6203 63.6393C32.5894 63.6701 32.5587 63.7317 32.5894 63.7933C32.5894 63.824 32.6203 63.8549 32.6818 63.8857C32.8666 63.9473 33.0513 63.978 33.2361 64.0396C33.2361 64.0088 33.267 64.0088 33.267 64.0088C33.267 63.978 33.267 63.8857 33.1746 63.8549L32.9898 63.824C32.8666 63.7317 32.7742 63.6701 32.6818 63.6085ZM32.8051 63.3006C33.7596 63.5778 34.7758 63.6393 35.6996 63.6701C40.2877 63.7933 44.7834 63.7625 48.6018 63.7317C50.7573 63.7009 52.9436 63.6701 55.0991 63.6393H55.4379C56.2384 63.6393 57.0698 63.6085 57.7781 63.239C58.0245 63.1159 58.3016 62.9619 58.394 62.6847C58.4555 62.5307 58.4555 62.3768 58.4555 62.1921V61.3298L58.7326 35.3406C58.7326 34.6323 58.7635 33.9242 58.7635 33.2159C58.7943 31.7995 58.7943 30.3522 58.7943 28.9049C58.7943 28.0119 58.7326 27.0573 58.086 26.5646C57.8089 26.3799 57.5317 26.3491 57.2238 26.3491L39.4563 25.5177C39.2407 25.5177 39.0252 25.4868 38.8097 25.4868C38.1014 25.4561 37.3624 25.3945 36.6234 25.4253C36.0383 25.4561 35.2377 25.4868 34.4986 25.6408C33.9751 25.7332 33.4825 26.072 33.113 26.5339C32.6203 27.1189 32.6203 28.0427 32.5894 28.8125V29.0896C32.5587 30.1674 32.5279 31.2452 32.4971 32.3229C32.4355 34.54 32.3739 36.7263 32.3123 38.7894C32.2199 43.4083 32.1584 47.6577 32.1584 51.784C32.1584 53.9704 32.1584 56.1566 32.1892 58.2813V58.5277C32.1892 59.5131 32.2199 60.5293 32.2508 61.5146C32.2815 62.1612 32.3739 62.9311 32.8051 63.3006Z" fill="black"/>
<path id="Vector_27" d="M42.2277 29.9519C46.3231 29.9211 50.4186 29.9519 54.5141 30.1059C54.7604 30.1059 55.0068 30.1366 55.1915 30.2906C55.3455 30.4138 55.407 30.5985 55.4686 30.7833C55.9305 32.2306 55.7458 33.801 55.561 35.3407C55.5303 35.6486 55.4687 35.9565 55.3147 36.2029C54.8836 36.9419 53.8982 36.9727 53.0668 36.9419C50.511 36.8188 48.571 36.7879 46.0153 36.6648C42.8435 36.6032 39.6719 36.5108 36.5002 36.4493C36.3462 36.4493 36.2231 36.4493 36.0999 36.3876C35.7612 36.2336 35.7303 35.7717 35.7303 35.3715C35.7612 34.2322 35.792 33.062 35.8227 31.9227C35.8536 31.3068 35.9151 30.5678 36.4694 30.2599C36.7158 30.1059 37.0236 30.1059 37.3008 30.1059C39.056 30.0443 40.8112 30.0135 42.5664 29.9827" fill="url(#paint6_radial_96_262)"/>
<path id="Vector_28" d="M42.2277 30.2598C45.7381 30.2291 49.2177 30.2598 52.7281 30.3522C53.1591 30.3522 53.621 30.3831 54.0522 30.3831C54.3293 30.3831 54.8836 30.3214 55.0683 30.5678C55.1607 30.6909 55.2223 30.8757 55.2531 31.0297C55.3147 31.2452 55.3455 31.43 55.3762 31.6455C55.4378 32.0459 55.4686 32.4461 55.4686 32.8464C55.4686 33.6471 55.3762 34.4477 55.2531 35.2483C55.2223 35.587 55.1607 35.9258 54.9452 36.1721C54.7604 36.3877 54.4833 36.4801 54.2369 36.5416C53.5903 36.6956 52.882 36.6032 52.2353 36.5724C51.4348 36.5416 50.6341 36.5108 49.8335 36.4801C48.2015 36.4184 46.5695 36.3568 44.9374 36.2953C43.1822 36.2644 41.4579 36.2029 39.7027 36.1721C38.8404 36.1413 37.9475 36.1413 37.0852 36.1105C36.9005 36.1105 36.6849 36.1105 36.5002 36.1105C36.3462 36.1105 36.1923 36.1105 36.0999 35.9873C35.9459 35.7718 36.0075 35.3715 36.0075 35.1251C36.0383 34.263 36.069 33.4007 36.0999 32.5078C36.1307 31.9226 36.0383 31.1221 36.4078 30.6293C36.6233 30.3522 37.0237 30.3522 37.3624 30.3522C37.7935 30.3522 38.2246 30.3214 38.6865 30.3214C39.5487 30.2907 40.4417 30.2907 41.3039 30.2598C41.735 30.2598 42.166 30.2291 42.5664 30.2291C42.9359 30.2291 42.9359 29.644 42.5664 29.644C41.6426 29.6748 40.688 29.6748 39.7642 29.7055C39.2715 29.7055 38.8097 29.7364 38.317 29.7364C37.8859 29.7364 37.424 29.7364 36.9621 29.7672C36.5926 29.7979 36.223 29.9212 35.9767 30.1983C35.7612 30.4446 35.638 30.7526 35.5764 31.0912C35.5148 31.4607 35.5148 31.8303 35.484 32.1998C35.484 32.6617 35.4533 33.1236 35.4533 33.5854C35.4533 34.0473 35.4224 34.5092 35.4224 34.9711C35.4224 35.3406 35.3916 35.7102 35.484 36.0489C35.6072 36.3877 35.8535 36.6032 36.223 36.6648C36.6542 36.7263 37.1161 36.6956 37.578 36.6956C39.4563 36.7263 41.3039 36.7879 43.1822 36.8187C44.999 36.8496 46.8158 36.9419 48.6326 37.0035C49.464 37.0343 50.2954 37.0651 51.1268 37.0958C51.9274 37.1267 52.7589 37.2191 53.5903 37.1882C54.2062 37.1575 54.9452 37.0651 55.3762 36.5416C55.6226 36.2644 55.715 35.9258 55.7766 35.5563C55.8381 35.1251 55.8997 34.694 55.9305 34.2321C56.0229 33.3699 56.0537 32.5078 55.9305 31.6455C55.869 31.2452 55.7766 30.8141 55.6226 30.4446C55.4686 30.0751 55.1915 29.8595 54.7912 29.7979C54.36 29.7364 53.8674 29.7364 53.4363 29.7364C52.9744 29.7364 52.5125 29.7055 52.0814 29.7055C51.1268 29.6748 50.1722 29.6748 49.2177 29.644C47.3393 29.6132 45.4609 29.6132 43.5826 29.6132C43.1207 29.6132 42.6588 29.6132 42.166 29.6132C41.8582 29.6748 41.8582 30.2598 42.2277 30.2598Z" fill="url(#paint7_radial_96_262)"/>
<path id="Vector_29" d="M41.3655 32.0766C40.8727 32.7541 40.3801 33.4623 39.949 34.2013C39.7642 34.5093 40.257 34.8172 40.4417 34.4784C40.8727 33.7394 41.3655 33.0312 41.8582 32.3537C42.0737 32.0766 41.581 31.7994 41.3655 32.0766Z" fill="white"/>
<path id="Vector_30" d="M40.1954 34.7863C40.0107 34.7863 39.8567 34.6939 39.795 34.5399C39.7335 34.4168 39.7335 34.2628 39.795 34.1089C40.2262 33.3699 40.7188 32.6616 41.2116 31.9842C41.3963 31.7378 41.6735 31.7378 41.8582 31.8918C42.043 32.0457 42.0738 32.2613 41.9506 32.4461C41.4579 33.1235 40.9652 33.8317 40.5341 34.5708C40.5033 34.7247 40.3493 34.7863 40.1954 34.7863ZM41.4887 32.1689C40.996 32.8463 40.5033 33.5546 40.0722 34.2936C40.0414 34.3244 40.0414 34.386 40.0722 34.4168C40.103 34.4784 40.1646 34.5092 40.1954 34.5092C40.2262 34.5092 40.2878 34.4784 40.2878 34.4475C40.7188 33.7085 41.2116 33.0003 41.7042 32.3228C41.735 32.2921 41.7659 32.2304 41.6735 32.1997C41.6735 32.1073 41.5502 32.0766 41.4887 32.1689Z" fill="white"/>
<path id="Vector_31" d="M46.046 31.7687C45.3686 32.754 44.6912 33.7086 44.0137 34.6939C43.7982 35.0019 44.2908 35.2791 44.5065 34.9711C45.1839 33.9858 45.8613 33.0311 46.5388 32.0458C46.7543 31.7687 46.2616 31.4915 46.046 31.7687Z" fill="white"/>
<path id="Vector_32" d="M44.26 35.2482C44.1676 35.2482 44.0445 35.2174 43.9829 35.1558C43.7981 35.0327 43.7365 34.7863 43.8905 34.5708L45.9228 31.6454C46.0152 31.5223 46.1692 31.4299 46.3231 31.4607C46.4771 31.4607 46.6311 31.5838 46.7235 31.707C46.785 31.8302 46.7542 31.9842 46.6926 32.1073L44.6603 35.0327C44.5064 35.2174 44.3832 35.2482 44.26 35.2482ZM46.2923 31.7994C46.2307 31.7994 46.2 31.8302 46.1692 31.8609L44.1369 34.7863C44.1369 34.8171 44.0753 34.8787 44.1676 34.9403C44.2293 34.9711 44.3216 35.0018 44.3832 34.9094L46.4155 31.9842C46.4463 31.9226 46.4463 31.9226 46.4463 31.8918C46.4155 31.8609 46.354 31.7994 46.2923 31.7994Z" fill="white"/>
<path id="Vector_33" d="M52.2047 41.2221C52.143 44.3322 52.1123 47.4423 52.0507 50.5524C52.0507 50.9219 52.6357 50.9219 52.6357 50.5524C52.6973 47.4423 52.7281 44.3322 52.7897 41.2221C52.7897 40.8526 52.2047 40.8526 52.2047 41.2221Z" fill="black"/>
<path id="Vector_34" d="M52.3585 50.9835C52.143 50.9835 51.9275 50.8295 51.9275 50.5523L52.0814 41.2221C52.0814 41.0681 52.1738 40.9142 52.297 40.8525C52.4509 40.7602 52.6357 40.7602 52.7589 40.8525C52.882 40.9449 52.9744 41.0681 52.9437 41.2221L52.7897 50.5523C52.7897 50.6755 52.728 50.7987 52.6357 50.8911C52.5741 50.9526 52.4509 50.9835 52.3585 50.9835ZM52.5125 41.0989C52.4818 41.0989 52.4509 41.0989 52.4201 41.1297C52.3894 41.1604 52.3585 41.1913 52.3585 41.2221V41.3452L52.2046 50.5523C52.2046 50.5831 52.2046 50.6139 52.2354 50.6447C52.2661 50.6755 52.297 50.6755 52.3278 50.6755C52.3585 50.6755 52.3894 50.6755 52.4201 50.6447C52.4509 50.6139 52.4509 50.5831 52.4509 50.5523L52.6049 41.2221C52.6049 41.1604 52.6049 41.1297 52.5433 41.1297C52.5433 41.0989 52.5125 41.0989 52.5125 41.0989Z" fill="black"/>
<path id="Vector_35" d="M55.7151 41.3144C55.7766 44.3013 55.7766 47.2882 55.6842 50.306C55.6842 50.6755 56.2385 50.6755 56.2693 50.306C56.3617 47.319 56.3617 44.3321 56.3001 41.3144C56.2693 40.9141 55.7151 40.9141 55.7151 41.3144Z" fill="black"/>
<path id="Vector_36" d="M55.9613 50.7062C55.7458 50.7062 55.5303 50.5522 55.5303 50.2751C55.6227 47.319 55.6227 44.3013 55.561 41.3143C55.561 41.0372 55.7766 40.8833 55.9922 40.8833C56.2077 40.8833 56.4541 41.0372 56.4541 41.3143C56.5156 44.3013 56.5156 47.319 56.4232 50.3059C56.4232 50.5522 56.1769 50.7062 55.9613 50.7062ZM55.8689 41.2836C55.9305 44.2705 55.9305 47.2882 55.8382 50.2751C55.8382 50.3675 55.8998 50.3983 55.9613 50.3983C55.9613 50.3983 56.1153 50.3983 56.1153 50.2751C56.2077 47.319 56.2077 44.3013 56.1461 41.3143C56.1461 41.1912 56.0229 41.1912 55.9922 41.1912C55.9613 41.1604 55.8689 41.1912 55.8689 41.2836Z" fill="black"/>
<path id="Vector_37" d="M52.4817 41.4376C53.5903 41.4376 54.7296 41.4376 55.8381 41.4376C56.2076 41.4376 56.2076 40.8525 55.8381 40.8525C54.7296 40.8525 53.5903 40.8525 52.4817 40.8525C52.1122 40.8525 52.1122 41.4376 52.4817 41.4376Z" fill="black"/>
<path id="Vector_38" d="M55.8382 41.5915H52.4818C52.2047 41.5915 52.0507 41.376 52.0507 41.1604C52.0507 40.9449 52.2047 40.7294 52.4818 40.7294H55.8382C56.1153 40.7294 56.2693 40.9449 56.2693 41.1604C56.2693 41.376 56.1461 41.5915 55.8382 41.5915ZM52.4818 41.0065C52.3586 41.0065 52.3586 41.0989 52.3586 41.1296C52.3586 41.1604 52.3586 41.2528 52.4818 41.2528H55.8382C55.9613 41.2528 55.9613 41.1604 55.9613 41.1296C55.9613 41.0989 55.9613 41.0065 55.8382 41.0065H52.4818Z" fill="black"/>
<path id="Vector_39" d="M52.1738 50.3676L52.1123 50.4599C52.0814 50.4908 52.0814 50.5216 52.0814 50.5523C52.0814 50.5832 52.0814 50.6139 52.0814 50.6756C52.0814 50.7063 52.1123 50.7371 52.143 50.7679C52.1738 50.7987 52.2047 50.8295 52.2354 50.8295C52.297 50.8603 52.3894 50.8911 52.4509 50.8603C52.5126 50.8295 52.6049 50.7987 52.6357 50.7371L52.6973 50.6447C52.7281 50.6139 52.7281 50.5832 52.7281 50.5523C52.7281 50.5216 52.7281 50.4908 52.7281 50.4292C52.7281 50.3984 52.6973 50.3676 52.6666 50.3368C52.6357 50.306 52.6049 50.2752 52.5742 50.2752C52.5126 50.2444 52.4202 50.2137 52.3586 50.2444C52.297 50.2444 52.2354 50.2752 52.1738 50.3676Z" fill="black"/>
<path id="Vector_40" d="M52.3893 50.8912C53.0051 50.9219 53.621 50.8912 54.2369 50.8296C54.8527 50.7988 55.4378 50.7372 56.0536 50.7064C56.4231 50.6756 56.4231 50.0905 56.0536 50.1213C55.4378 50.1521 54.8527 50.2137 54.2369 50.2445C53.621 50.2753 53.0051 50.3369 52.3893 50.306C52.0198 50.306 52.0198 50.8603 52.3893 50.8912Z" fill="black"/>
<path id="Vector_41" d="M52.882 51.0758C52.6973 51.0758 52.5433 51.0758 52.3585 51.0451C52.0506 51.0142 51.9275 50.7679 51.9275 50.5523C51.9582 50.306 52.143 50.152 52.3585 50.152C52.9128 50.1828 53.4979 50.152 54.0522 50.1213L55.9922 49.998C56.2384 49.998 56.4232 50.152 56.4232 50.3984C56.4541 50.6139 56.3001 50.8603 55.9922 50.8911L54.0522 51.0142C53.7134 51.0451 53.3132 51.0758 52.882 51.0758ZM52.3585 50.4599C52.297 50.4599 52.2661 50.4908 52.2661 50.5523C52.2661 50.6139 52.297 50.7063 52.3894 50.7063C52.9437 50.7371 53.5287 50.7063 54.083 50.6756L56.0229 50.5523C56.1461 50.5523 56.1461 50.4292 56.1461 50.3984C56.1461 50.3368 56.1153 50.2752 56.0229 50.306L54.083 50.4292C53.5287 50.4599 52.9437 50.5216 52.3585 50.4599Z" fill="black"/>
<path id="Vector_42" d="M52.4817 46.272C53.6518 46.1796 54.822 46.118 55.9921 46.118C56.3616 46.118 56.3616 45.533 55.9921 45.533C54.822 45.533 53.6518 45.5946 52.4817 45.687C52.1122 45.7177 52.1122 46.3027 52.4817 46.272Z" fill="black"/>
<path id="Vector_43" d="M52.4508 46.426C52.3277 46.426 52.2046 46.3643 52.1122 46.272C52.0198 46.1488 52.0198 45.9641 52.0813 45.8101C52.1429 45.6561 52.2968 45.5637 52.4508 45.5637C53.621 45.4713 54.7912 45.4098 55.9612 45.4098C56.2384 45.4098 56.3924 45.6253 56.3924 45.8408C56.3924 46.0564 56.2384 46.272 55.9612 46.272C54.7912 46.272 53.621 46.3336 52.4508 46.426C52.4816 46.426 52.4816 46.426 52.4508 46.426ZM55.9921 45.6869C54.8219 45.6869 53.6518 45.7484 52.4817 45.8408C52.4201 45.8408 52.3893 45.8717 52.3585 45.9332C52.3277 45.9948 52.3277 46.0564 52.3585 46.0872C52.3585 46.0872 52.3892 46.118 52.4508 46.118C53.621 46.0256 54.7912 45.9641 55.9612 45.9641C56.0845 45.9641 56.0845 45.8717 56.0845 45.8408C56.1152 45.7793 56.1152 45.6869 55.9921 45.6869Z" fill="black"/>
<path id="Vector_44" d="M52.2662 52.9234C52.1738 55.3252 52.1738 58.0658 52.3278 60.4368L52.3893 60.5292C52.5125 60.7448 53.7442 60.4368 53.929 60.4061C54.3601 60.3753 54.7912 60.3753 55.2223 60.3753C55.3763 60.3753 55.7766 60.4677 55.8997 60.4061C56.0537 60.3444 56.0537 60.0982 56.0229 59.9442C55.9613 58.8664 55.9306 57.7887 55.9306 56.6801C55.9306 55.4176 55.9921 54.1859 56.0537 52.9234L55.9921 52.677C54.7604 52.8002 53.5287 52.8618 52.2662 52.9234Z" fill="url(#paint8_radial_96_262)"/>
<path id="Vector_45" d="M51.989 52.9233C51.9275 54.4014 51.9275 55.8794 51.9275 57.3575C51.9275 58.0965 51.9583 58.8663 51.989 59.6053C52.0199 60.0672 51.8966 60.8062 52.4818 60.8679C52.882 60.9295 53.3132 60.8062 53.7134 60.7447C53.7751 60.7447 53.8366 60.7139 53.8982 60.7139C53.8366 60.7139 53.8982 60.7139 53.9598 60.7139C54.083 60.7139 54.1753 60.7139 54.2985 60.6831C54.6372 60.6831 55.0068 60.6524 55.3455 60.6831C55.5918 60.7139 55.8689 60.7755 56.0845 60.5907C56.3308 60.3752 56.3001 60.0672 56.3001 59.7593C56.2693 58.9587 56.2384 58.1581 56.2077 57.3882C56.2077 56.4953 56.2077 55.6023 56.2384 54.7092C56.2693 54.2782 56.2693 53.8163 56.3001 53.3852C56.3001 53.2004 56.3617 53.0157 56.3001 52.8309C56.2693 52.7385 56.2693 52.6769 56.2384 52.5845C56.2077 52.4614 56.0845 52.369 55.9613 52.369C54.6989 52.4922 53.4671 52.5538 52.2046 52.6154C51.8351 52.6154 51.8351 53.2004 52.2046 53.2004C53.4671 53.1388 54.6989 53.0773 55.9613 52.9541L55.6842 52.7385C55.715 52.8002 55.715 52.8617 55.7458 52.9233C55.7765 53.0157 55.7458 53.1388 55.7458 53.262C55.715 53.6316 55.715 54.0011 55.6842 54.3397C55.6534 55.0788 55.6226 55.8178 55.6226 56.5568C55.6226 57.2959 55.6226 58.0041 55.6534 58.7432C55.6534 59.1127 55.6842 59.4822 55.715 59.8209C55.715 59.8825 55.6842 60.0981 55.715 60.1596C55.7458 60.2212 55.6842 60.1288 55.7458 60.1596C55.7458 60.1596 55.715 60.1596 55.6842 60.1596C55.6226 60.1596 55.561 60.1596 55.4994 60.1596C54.9451 60.0981 54.3293 60.0672 53.7442 60.1596C53.4056 60.2212 53.0668 60.2828 52.728 60.3136C52.6665 60.3136 52.5741 60.3136 52.5125 60.3136C52.5741 60.3136 52.4818 60.3136 52.4818 60.3136C52.4818 60.3444 52.6357 60.4367 52.5433 60.3444C52.5125 60.2828 52.5125 60.3136 52.5433 60.3444C52.5741 60.4367 52.5433 60.3136 52.5433 60.3136C52.5433 60.252 52.5433 60.1596 52.5433 60.0981C52.5433 59.9133 52.5125 59.7593 52.5125 59.5746C52.4818 58.8972 52.4509 58.2196 52.4509 57.5422C52.4201 56.0026 52.4509 54.4937 52.5125 52.9541C52.5741 52.5538 51.989 52.5538 51.989 52.9233Z" fill="url(#paint9_radial_96_262)"/>
<path id="Vector_46" d="M35.2685 40.6678C35.0837 44.6401 34.9913 48.6124 34.9913 52.5847C34.9913 53.7241 34.9913 54.8634 35.0221 56.0027C35.0221 56.3722 35.6072 56.3722 35.6072 56.0027C35.5456 52.0304 35.5764 48.0581 35.7304 44.0858C35.7611 42.9465 35.8227 41.8072 35.8844 40.6987C35.8535 40.2983 35.2685 40.2983 35.2685 40.6678Z" fill="black"/>
<path id="Vector_47" d="M35.2992 56.4031C35.0837 56.4031 34.8681 56.2491 34.8373 55.9719C34.8065 54.8634 34.8065 53.7241 34.8065 52.5539C34.8065 48.6124 34.8989 44.6094 35.0837 40.6371C35.0837 40.3599 35.33 40.2059 35.5763 40.2059C35.7919 40.2059 36.0074 40.3599 35.9767 40.6371C35.9151 41.7764 35.8843 42.9158 35.8227 44.0243C35.6995 47.9657 35.6379 51.9689 35.6995 55.9412C35.7303 56.2491 35.5148 56.4031 35.2992 56.4031ZM35.2684 40.6678H35.4224C35.2377 44.6401 35.1453 48.6433 35.1453 52.5847C35.1453 53.7241 35.1453 54.8634 35.176 56.0027C35.176 56.1259 35.2992 56.1259 35.33 56.1259C35.3608 56.1259 35.4532 56.1259 35.4532 56.0027C35.3915 52.0304 35.4224 48.0274 35.5763 44.0858C35.6072 42.9773 35.6687 41.838 35.7303 40.6678C35.7303 40.5754 35.6687 40.5447 35.6072 40.5447C35.6072 40.5447 35.4532 40.5447 35.4532 40.6678H35.2684Z" fill="black"/>
<path id="Vector_48" d="M48.725 41.3144C48.6943 45.1943 48.725 49.105 48.8174 52.985C48.8483 54.0935 48.879 55.1712 48.9098 56.2797C48.9098 56.6492 49.4949 56.6492 49.4949 56.2797C49.4025 52.3998 49.3409 48.4892 49.3102 44.6092C49.3102 43.5007 49.3102 42.4229 49.3102 41.3144C49.3102 40.9141 48.725 40.9141 48.725 41.3144Z" fill="black"/>
<path id="Vector_49" d="M49.1869 56.7108C49.0945 56.7108 49.033 56.68 48.9714 56.6492C48.8482 56.5877 48.7557 56.4337 48.7557 56.2797C48.725 55.1712 48.6942 54.0934 48.6634 52.9849C48.571 49.1357 48.5402 45.1943 48.571 41.3144C48.571 41.1604 48.6634 41.0064 48.7866 40.9449C48.9405 40.8525 49.1253 40.8525 49.2485 40.9449C49.3716 41.0064 49.464 41.1604 49.464 41.3144C49.464 42.423 49.464 43.5006 49.464 44.6092C49.464 48.4891 49.5256 52.4306 49.6488 56.2797C49.6488 56.4337 49.5871 56.5877 49.464 56.6492C49.3716 56.68 49.2793 56.7108 49.1869 56.7108ZM49.0021 41.1604C48.9714 41.1604 48.9405 41.1604 48.9097 41.1912C48.879 41.222 48.8481 41.2528 48.8481 41.2835C48.8174 45.1635 48.8481 49.105 48.9405 52.954C48.9714 54.0626 49.0021 55.1404 49.0329 56.2489C49.0329 56.3105 49.0637 56.3413 49.0945 56.3722C49.1561 56.4029 49.2176 56.4029 49.2485 56.3722C49.2793 56.3722 49.31 56.3413 49.31 56.2797C49.2176 52.3999 49.1561 48.4891 49.1254 44.6092C49.1254 43.5006 49.1254 42.423 49.1254 41.3144C49.1254 41.2528 49.0945 41.222 49.0637 41.222C49.0637 41.1912 49.0329 41.1604 49.0021 41.1604Z" fill="black"/>
<path id="Vector_50" d="M35.638 40.9449C39.0869 41.0373 42.5356 41.1605 45.9844 41.2836C46.9698 41.3144 47.9552 41.376 48.9098 41.4068C49.2793 41.4376 49.2793 40.8525 48.9098 40.8218C45.461 40.637 42.0121 40.5139 38.5633 40.4215C37.5779 40.3906 36.5926 40.3599 35.638 40.3291C35.2685 40.3599 35.2685 40.9449 35.638 40.9449Z" fill="black"/>
<path id="Vector_51" d="M48.9405 41.5916C47.9244 41.5301 46.9698 41.4992 45.9844 41.4684C42.5664 41.3144 39.0869 41.1913 35.638 41.1297C35.4841 41.1297 35.3301 41.0373 35.2685 40.9142C35.1761 40.7602 35.207 40.5754 35.2685 40.4523C35.3609 40.3291 35.4841 40.2675 35.638 40.2675C36.6234 40.2983 37.6088 40.3291 38.5941 40.3599C42.0121 40.4523 45.4918 40.6063 48.9405 40.7602C49.2177 40.7602 49.3717 41.0065 49.3717 41.2529C49.3409 41.4068 49.1869 41.5916 48.9405 41.5916ZM35.638 40.5447C35.6072 40.5447 35.5765 40.5447 35.5456 40.5754C35.5149 40.6063 35.5149 40.637 35.5149 40.6678C35.5149 40.6987 35.5149 40.7602 35.5456 40.7602C35.5765 40.791 35.6072 40.791 35.638 40.791C39.0869 40.8834 42.5973 41.0065 45.9844 41.1297C46.9698 41.1605 47.9552 41.2221 48.9098 41.2529C49.0022 41.2529 49.0329 41.1913 49.0329 41.1297C49.0329 41.1297 49.0329 40.9758 48.9098 40.9758C45.461 40.8218 41.9814 40.6678 38.5634 40.5754C37.578 40.5754 36.6234 40.5447 35.638 40.5447Z" fill="black"/>
<path id="Vector_52" d="M35.2992 56.2182C38.8712 56.2797 42.4433 56.3413 45.9844 56.4337C47.0006 56.4645 48.0167 56.4645 49.0329 56.4953C49.4024 56.4953 49.4024 55.9102 49.0329 55.9102C45.4609 55.8487 41.889 55.7871 38.3477 55.6947C37.3316 55.6639 36.3154 55.6639 35.2992 55.6331C34.899 55.6331 34.899 56.2182 35.2992 56.2182Z" fill="black"/>
<path id="Vector_53" d="M49.0328 56.6185L35.2684 56.3722C35.1145 56.3722 34.9605 56.2797 34.8989 56.1566C34.8065 56.0026 34.8065 55.8178 34.8989 55.6947C34.9913 55.5715 35.0836 55.4792 35.2684 55.5099L49.0328 55.7563C49.31 55.7563 49.464 56.0027 49.464 56.2182C49.464 56.4337 49.31 56.6185 49.0328 56.6185ZM35.2684 55.7871C35.2376 55.7871 35.2069 55.7871 35.176 55.8487C35.1452 55.8794 35.1452 55.9718 35.176 56.0026C35.2069 56.0334 35.2376 56.0642 35.2992 56.0642L49.0637 56.3106C49.1561 56.3106 49.1868 56.2182 49.1868 56.1873C49.1868 56.1566 49.1868 56.0334 49.0637 56.0334L35.2684 55.7871Z" fill="black"/>
<path id="Vector_54" d="M39.7335 40.8218C39.5795 44.7017 39.4255 48.6123 39.3023 52.4922C39.2716 53.6008 39.2407 54.6786 39.21 55.7871C39.21 56.1566 39.7642 56.1566 39.795 55.7871C39.8874 51.9072 40.0106 47.9964 40.1645 44.1165C40.1954 43.008 40.2569 41.9303 40.2877 40.8218C40.3185 40.4522 39.7642 40.4522 39.7335 40.8218Z" fill="black"/>
<path id="Vector_55" d="M39.5178 56.2183C39.3023 56.2183 39.0868 56.0643 39.0868 55.7872C39.1176 54.6786 39.1483 53.6009 39.1792 52.4923C39.3023 48.6433 39.4254 44.7325 39.6102 40.8218C39.6102 40.5447 39.8566 40.3907 40.0721 40.3907C40.2877 40.3907 40.5032 40.5447 40.4725 40.8218C40.4109 41.9304 40.3801 43.0082 40.3492 44.1167C40.1953 47.9657 40.0721 51.9073 39.9797 55.7872C39.949 56.0951 39.7334 56.2183 39.5178 56.2183ZM40.0413 40.6987C40.0106 40.6987 39.8873 40.6987 39.8873 40.8218C39.7334 44.7325 39.5794 48.6433 39.4563 52.4923C39.4254 53.6009 39.3947 54.6786 39.3639 55.7872C39.3639 55.8796 39.4563 55.9103 39.4871 55.9103C39.5178 55.9103 39.6411 55.9103 39.6411 55.7872C39.7334 51.9073 39.8566 47.9657 40.0106 44.1167C40.0413 43.0082 40.103 41.9304 40.1337 40.8218C40.1645 40.7294 40.103 40.6987 40.0413 40.6987Z" fill="black"/>
<path id="Vector_56" d="M44.3216 41.0065C44.2908 44.8556 44.1984 48.7355 44.0137 52.5846C43.9521 53.6932 43.9213 54.7709 43.8597 55.8795C43.8289 56.249 44.414 56.249 44.4448 55.8795C44.6603 52.0303 44.8143 48.1812 44.8759 44.3013C44.9067 43.1927 44.9067 42.1151 44.9067 41.0065C44.9067 40.637 44.3216 40.637 44.3216 41.0065Z" fill="black"/>
<path id="Vector_57" d="M44.1061 56.2798C43.8289 56.2798 43.6749 56.095 43.6749 55.8486C43.7365 54.7401 43.7982 53.6624 43.8289 52.5539C44.0137 48.7355 44.1061 44.8556 44.1368 40.9757C44.1368 40.6985 44.3524 40.5446 44.568 40.5446C44.7835 40.5446 44.9991 40.6985 44.9991 40.9757C44.9991 42.0842 44.9682 43.162 44.9682 44.2705C44.9067 48.0888 44.7527 51.9996 44.5372 55.8486C44.568 56.1566 44.3216 56.2798 44.1061 56.2798ZM44.4756 41.0065C44.4448 44.8864 44.3524 48.7663 44.1677 52.5846C44.1061 53.6932 44.0753 54.7709 44.0137 55.8795C44.0137 55.9719 44.0753 56.0026 44.1368 56.0026C44.1368 56.0026 44.2908 56.0026 44.2908 55.8795C44.5063 52.0303 44.6603 48.1504 44.722 44.3321C44.7527 43.2236 44.7527 42.1458 44.7527 41.0373C44.7527 40.9141 44.6603 40.9141 44.6296 40.9141C44.5987 40.8833 44.4756 40.8833 44.4756 41.0065Z" fill="black"/>
<path id="Vector_58" d="M35.3301 45.6255C38.8405 45.5947 42.3509 45.5639 45.8613 45.5331C46.8466 45.5331 47.832 45.5331 48.8482 45.5024C49.2177 45.5024 49.2177 44.9172 48.8482 44.9172C45.3378 44.9481 41.8274 44.9789 38.317 45.0096C37.3316 45.0096 36.3463 45.0096 35.3301 45.0405C34.9606 45.0405 34.9606 45.6255 35.3301 45.6255Z" fill="black"/>
<path id="Vector_59" d="M35.3301 45.7795C35.0529 45.7795 34.8989 45.5639 34.8989 45.3483C34.8989 45.1328 35.0529 44.8864 35.3301 44.8864L48.8481 44.7941C49.1253 44.7941 49.2793 45.0096 49.2793 45.2252C49.2793 45.4407 49.1253 45.6871 48.8481 45.6871L35.3301 45.7795ZM48.8789 45.102L35.3608 45.1943C35.2377 45.1943 35.2377 45.3176 35.2377 45.3176C35.2377 45.3483 35.2377 45.4407 35.3608 45.4407L48.8789 45.3483C49.0021 45.3483 49.0021 45.2252 49.0021 45.1943C49.0021 45.1943 48.9713 45.102 48.8789 45.102Z" fill="black"/>
<path id="Vector_60" d="M35.2992 51.0449C38.8712 50.9217 42.4433 50.9217 45.9844 51.014C47.0006 51.0449 48.0167 51.0757 49.0329 51.1373C49.4024 51.168 49.4024 50.583 49.0329 50.5521C45.4609 50.3982 41.889 50.3366 38.3477 50.3982C37.3316 50.429 36.3154 50.429 35.2992 50.4598C34.9297 50.4905 34.9297 51.0757 35.2992 51.0449Z" fill="black"/>
<path id="Vector_61" d="M49.0636 51.2914C48.0167 51.2297 46.9698 51.199 45.9844 51.1681C42.474 51.0757 38.8712 51.0757 35.2992 51.199C35.0221 51.199 34.8682 50.9834 34.8682 50.7678C34.8682 50.5523 35.0221 50.306 35.2992 50.306C36.3154 50.2752 37.3624 50.2443 38.3477 50.2443C41.889 50.1828 45.4917 50.2443 49.0636 50.3983C49.3408 50.3983 49.4948 50.6447 49.4948 50.8602C49.464 51.0757 49.31 51.2914 49.0636 51.2914ZM41.1499 50.7986C42.7819 50.7986 44.3832 50.8295 45.9844 50.8602C46.9698 50.891 48.0167 50.9218 49.0329 50.9834C49.1253 50.9834 49.156 50.9218 49.156 50.8602C49.156 50.8602 49.156 50.7062 49.0329 50.7062C45.4609 50.5523 41.889 50.4907 38.3477 50.5523C37.3315 50.5831 36.3154 50.5831 35.2992 50.6138C35.1761 50.6138 35.1761 50.7371 35.1761 50.7678C35.1761 50.7986 35.2068 50.891 35.2992 50.891C37.2392 50.8295 39.21 50.7986 41.1499 50.7986Z" fill="black"/>
</g>
<defs>
<radialGradient id="paint0_radial_96_262" cx="0" cy="0" r="1" gradientUnits="userSpaceOnUse" gradientTransform="translate(17.1392 50.5235) rotate(-90) scale(4.47993 5.59534)">
<stop stop-color="#587EDB"/>
<stop offset="1" stop-color="#1445C2"/>
</radialGradient>
<radialGradient id="paint1_radial_96_262" cx="0" cy="0" r="1" gradientUnits="userSpaceOnUse" gradientTransform="translate(17.1375 50.7678) rotate(-90) scale(4.68257 5.78001)">
<stop stop-color="#587EDB"/>
<stop offset="1" stop-color="#1445C2"/>
</radialGradient>
<radialGradient id="paint2_radial_96_262" cx="0" cy="0" r="1" gradientUnits="userSpaceOnUse" gradientTransform="translate(16.3605 20.7203) rotate(-90) scale(6.49965 3.51466)">
<stop stop-color="#587EDB"/>
<stop offset="1" stop-color="#1445C2"/>
</radialGradient>
<radialGradient id="paint3_radial_96_262" cx="0" cy="0" r="1" gradientUnits="userSpaceOnUse" gradientTransform="translate(16.3647 20.8986) rotate(-90) scale(6.6855 3.63122)">
<stop stop-color="#587EDB"/>
<stop offset="1" stop-color="#1445C2"/>
</radialGradient>
<radialGradient id="paint4_radial_96_262" cx="0" cy="0" r="1" gradientUnits="userSpaceOnUse" gradientTransform="translate(16.5348 22.0692) rotate(-90) scale(7.95363 0.359146)">
<stop stop-color="#587EDB"/>
<stop offset="1" stop-color="#1445C2"/>
</radialGradient>
<radialGradient id="paint5_radial_96_262" cx="0" cy="0" r="1" gradientUnits="userSpaceOnUse" gradientTransform="translate(16.5348 22.5307) rotate(-90) scale(8.4239 0.643572)">
<stop stop-color="#587EDB"/>
<stop offset="1" stop-color="#1445C2"/>
</radialGradient>
<radialGradient id="paint6_radial_96_262" cx="0" cy="0" r="1" gradientUnits="userSpaceOnUse" gradientTransform="translate(45.7444 36.9494) rotate(-90) scale(3.57025 9.25065)">
<stop stop-color="#587EDB"/>
<stop offset="1" stop-color="#1445C2"/>
</radialGradient>
<radialGradient id="paint7_radial_96_262" cx="0" cy="0" r="1" gradientUnits="userSpaceOnUse" gradientTransform="translate(45.7146 37.1944) rotate(-90) scale(3.86216 9.51211)">
<stop stop-color="#587EDB"/>
<stop offset="1" stop-color="#1445C2"/>
</radialGradient>
<radialGradient id="paint8_radial_96_262" cx="0" cy="0" r="1" gradientUnits="userSpaceOnUse" gradientTransform="translate(54.1284 60.6053) rotate(-90) scale(4.03893 1.77851)">
<stop stop-color="#587EDB"/>
<stop offset="1" stop-color="#1445C2"/>
</radialGradient>
<radialGradient id="paint9_radial_96_262" cx="0" cy="0" r="1" gradientUnits="userSpaceOnUse" gradientTransform="translate(54.1275 60.8847) rotate(-90) scale(4.33816 2.03226)">
<stop stop-color="#587EDB"/>
<stop offset="1" stop-color="#1445C2"/>
</radialGradient>
</defs>
</svg>
