<svg width="115" height="110" viewBox="0 0 115 110" fill="none" xmlns="http://www.w3.org/2000/svg">
<path fill-rule="evenodd" clip-rule="evenodd" d="M37.9493 107.136C31.4621 105.649 37.8693 94.184 44.5853 85.55C48.6573 80.3144 51.4897 74.9058 51.4897 74.9058L48.872 73.0262C48.872 73.0262 43.4086 82.0573 40.1589 85.5226C36.9103 88.988 32.0586 96.8595 31.8317 99.9117C31.6049 102.965 31.7963 107.136 37.9493 107.136Z" fill="#231F20"/>
<path fill-rule="evenodd" clip-rule="evenodd" d="M88.663 102.263C74.1655 101.623 39.3883 57.145 39.3883 57.145C42.5134 55.7253 46.2573 49.7333 46.2573 49.7333L44.7444 48.1343C44.7444 48.1343 39.4886 55.1764 35.365 55.9157C35.365 55.9157 34.2592 55.8691 36.0172 57.6129C37.7752 59.3587 52.4376 75.3428 55.3693 79.0471C58.3 82.7515 76.277 101.251 81.2927 102.748C86.0209 104.157 86.0209 104.157 87.391 103.161L88.663 102.263Z" fill="#231F20"/>
<path fill-rule="evenodd" clip-rule="evenodd" d="M31.3709 56.1939C28.4827 56.7388 25.5045 56.597 22.7004 55.878L21.1753 55.4466C20.6639 55.3119 20.1869 55.079 19.6958 54.8896C17.9651 54.2 16.3894 53.2025 14.8755 52.1493C14.1656 51.5599 13.4233 51.007 12.7559 50.3731C12.1159 49.7108 11.406 49.1174 10.842 48.3872C10.3215 47.7584 9.75437 47.166 9.30171 46.4844C8.82575 45.8221 8.32246 45.1781 7.93764 44.4642L7.13763 43.1224C6.90168 42.6586 6.68699 42.1816 6.46724 41.7097C6.24547 41.2368 6.02268 40.7649 5.91533 40.2484C5.77559 39.7461 5.65204 39.2388 5.56191 38.7263C5.4495 38.0874 5.61862 38.136 6.0328 38.5674C6.47635 38.9927 7.10219 39.7967 7.63688 40.7932C9.34627 44.4176 11.6967 47.7482 14.7944 50.4095C16.6365 52.0106 18.9018 53.2552 21.2462 54.1018C23.8255 55.0243 26.6032 55.4628 29.3405 55.1914C30.1749 55.084 31.0134 54.9483 31.8347 54.758C32.6357 54.4866 33.4671 54.3175 34.2428 53.9569C36.6266 52.9817 38.8525 51.5589 40.6824 49.7726C42.0819 48.365 43.2151 46.7508 44.003 44.9887C44.1812 44.6029 44.3341 44.2171 44.4759 43.815C45.0268 42.3365 45.1706 41.8677 45.6759 41.6216C45.7873 41.5659 45.9037 41.4818 46.006 41.4535C46.326 41.3502 46.5113 42.0985 46.1893 43.336C45.2698 47.0293 42.6409 50.3549 39.4307 52.6587C37.0398 54.3985 34.2995 55.6116 31.381 56.2253L31.3709 56.1939Z" fill="#231F20"/>
<path fill-rule="evenodd" clip-rule="evenodd" d="M26.4979 39.1694C26.6619 38.9668 27.3151 38.1678 28.0057 37.4073C28.6933 36.6438 29.4447 35.946 29.5885 35.8265C29.7921 35.6301 30.7876 34.8787 30.8929 34.7977C30.903 34.7916 31.0093 34.7166 31.1693 34.6032C31.2483 34.5496 31.3405 34.4868 31.4407 34.4199L31.5177 34.3835C31.5592 34.3784 31.5268 34.3197 31.5339 34.2873L31.5298 34.2275C31.5207 34.1698 31.5136 34.1131 31.5065 34.0584C31.4731 33.8235 31.4458 33.6331 31.4336 33.5419C31.4245 33.4538 31.2939 32.2062 31.1592 30.913C31.0174 29.6361 30.6782 28.352 30.5698 28.0938C30.501 27.9074 30.3106 27.2968 30.0787 26.6922C29.8407 26.0887 29.5754 25.4861 29.468 25.2897C29.4012 25.155 29.7445 24.9788 29.8113 25.0851C30.0939 25.5337 30.3774 25.9894 30.583 26.4836C30.741 26.8613 31.0893 27.6927 31.3233 28.4725C31.5653 29.2502 31.7111 29.9611 31.7283 30.0178C31.8681 30.5515 31.9845 31.0903 32.0919 31.627L32.2347 32.3774L32.4281 33.4103L32.5374 33.9166L32.7177 34.6782C32.7157 34.7379 32.7896 34.824 32.7238 34.8615L32.5638 34.988L32.2387 35.2453L31.8144 35.5977L31.0762 36.2316C30.3592 36.8433 29.6908 37.4914 29.063 38.2002C28.7055 38.6053 28.3693 39.0306 28.0209 39.4509C27.8184 39.7 27.5754 39.9177 27.3627 40.1618C27.2057 40.34 26.9343 40.3076 26.6427 40.2134C26.3105 40.1101 26.3814 39.3142 26.4979 39.1694Z" fill="#231F20"/>
<path fill-rule="evenodd" clip-rule="evenodd" d="M84.1481 46.7812C78.951 45.5701 69.9281 39.3401 66.4111 39.3401C64.966 39.3401 66.2643 44.8227 66.9377 45.0962C67.6121 45.3696 64.9144 45.3362 64.4637 42.3781C64.0121 39.4201 64.9863 35.3715 64.9863 35.3715C64.9863 35.3715 71.0056 39.4465 73.6872 40.1655C76.3687 40.8844 85.6853 45.4891 85.6853 45.4891C85.6853 45.4891 84.8073 46.9342 84.1481 46.7812Z" fill="#231F20"/>
<path fill-rule="evenodd" clip-rule="evenodd" d="M64.3441 46.1938C64.3441 46.1938 65.3193 46.4561 64.9861 48.1341C64.6519 49.8131 59.2159 61.5662 59.2159 61.5662L57.4133 59.0578L64.3441 46.1938Z" fill="#231F20"/>
<path fill-rule="evenodd" clip-rule="evenodd" d="M58.6028 18.0743C58.1035 20.6323 56.1511 22.6576 55.3693 22.7113C54.9693 22.7376 54.2756 22.8814 54.391 22.4976C54.0113 23.7574 54.8528 26.2678 56.1369 25.0293C56.8913 24.3022 57.5182 23.3797 58.1126 22.524C59.1628 21.01 62.5998 18.7143 61.6904 16.612C61.6904 16.612 60.4337 13.8099 57.1546 16.1826C57.1546 16.1826 58.9714 16.1826 58.6028 18.0743Z" fill="#231F20"/>
<path fill-rule="evenodd" clip-rule="evenodd" d="M91.0993 33.3444C90.0015 31.9905 88.6749 30.7581 87.2643 29.6219C86.7478 29.2097 86.1999 28.836 85.6653 28.4431C83.7766 27.0578 81.7867 25.7848 79.7502 24.5879C78.8479 24.0532 77.9224 23.5479 77.0079 23.0476C75.8373 22.3954 74.6292 21.804 73.5456 20.9564C73.2134 20.6658 73.3501 20.6233 73.6985 20.7336C74.0529 20.839 74.6666 21.0455 75.3481 21.3939C77.7654 22.6314 80.2545 23.803 82.6029 25.2755C84.0095 26.1524 85.5164 27.0001 86.926 27.9631C88.4602 29.0355 89.9661 30.1839 91.2795 31.5632C92.0886 32.4087 92.835 33.3323 93.4254 34.3743C93.6411 34.7723 93.8547 35.1784 93.9975 35.6169C94.1727 36.0149 94.2487 36.5708 94.357 36.8939C94.4958 37.5318 95.2553 37.9511 95.9895 38.3146C97.1601 38.8817 98.4847 39.3476 99.5713 40.3106C99.8184 40.5081 100.043 40.7258 100.254 40.9719C100.644 41.4235 100.822 41.7891 100.853 42.0777C100.895 42.3633 100.861 42.5496 100.774 42.7208C100.735 42.7998 100.705 42.8899 100.66 42.9426C100.504 43.1248 100.139 42.7937 99.5915 42.3046C98.9049 41.4873 98.0482 40.8797 97.0244 40.3805C96.513 40.1213 95.9732 39.8954 95.3839 39.6129C94.8107 39.3121 94.1525 39.0022 93.5469 38.3116C93.0851 37.8377 92.8876 36.8685 92.8461 36.6478C92.759 36.269 92.6294 35.8863 92.4491 35.5156C92.1059 34.7673 91.6299 34.0442 91.076 33.3677L91.0993 33.3444Z" fill="#231F20"/>
<path fill-rule="evenodd" clip-rule="evenodd" d="M46.5307 44.5206C45.757 47.0016 44.3676 49.266 42.64 51.1627C40.9012 53.0645 38.7878 54.5602 36.5306 55.6964C35.6991 56.0985 34.8657 56.4843 34.0019 56.8094C33.1118 57.0747 32.2378 57.4149 31.3264 57.5982C28.1152 58.2929 24.7582 58.1431 21.6291 57.2873C18.4938 56.4276 15.5885 54.8731 13.0922 52.8539C10.8846 51.0513 8.9251 48.9298 7.3666 46.5662C5.39999 43.5312 3.92452 40.0426 3.75642 36.4131C3.67642 35.2901 3.90528 35.4258 4.42681 36.2744C4.68302 36.6997 5.05669 37.2891 5.38176 38.0071C5.71797 38.7261 6.27291 39.4947 6.53418 40.4284C7.7342 43.6578 9.59853 46.5945 11.9145 49.1151C14.2275 51.6427 17.0994 53.6944 20.3339 54.9714C20.824 55.1455 21.3162 55.3218 21.8093 55.498C22.3045 55.6802 22.8311 55.742 23.3445 55.8676C24.3724 56.1481 25.4428 56.1552 26.5051 56.2615C27.0367 56.2727 27.5704 56.223 28.1041 56.2078L28.9051 56.1734C29.1684 56.138 29.4307 56.0843 29.695 56.0407L31.2717 55.7673L32.7989 55.3025C37.2668 53.8736 41.4045 50.9632 43.6355 46.8021C44.321 45.5312 44.8284 44.1641 45.1474 42.7504C45.4026 41.3185 45.6365 39.8694 45.6011 38.4061L45.6142 37.5767L45.5352 36.7483C45.4755 36.1974 45.4451 35.6415 45.3651 35.0926C45.1231 34.008 44.9681 32.9012 44.5793 31.8531C43.9514 29.7143 42.9367 27.7031 41.7438 25.8429C39.8562 22.9628 37.4004 20.5425 34.6136 18.7055C33.9715 18.3531 33.3659 17.9602 32.7077 17.6503C30.2712 16.4564 29.4773 16.3693 28.9892 15.6523C28.8747 15.4994 28.7107 15.3374 28.6439 15.1956C28.5315 14.9556 28.7684 14.7997 29.3426 14.7359C29.6282 14.7024 29.9988 14.6974 30.4373 14.7328C30.8565 14.8149 31.3436 14.9344 31.8885 15.0923C35.0683 16.1485 37.8247 18.2306 40.1711 20.6691C42.5063 23.136 44.4112 26.0707 45.7064 29.2849C47.6487 34.0445 48.0902 39.5129 46.5763 44.5287L46.5307 44.5206Z" fill="#231F20"/>
<path fill-rule="evenodd" clip-rule="evenodd" d="M30.2078 34.1258C30.22 34.1055 30.2311 34.0772 30.2372 34.0316L30.061 33.182C29.9334 32.5906 29.7916 31.9961 29.6417 31.4047C29.5344 30.9723 29.3602 30.5602 29.259 30.1247C28.8863 28.5925 28.5076 27.0553 28.064 25.5373C27.8665 24.8639 27.6134 24.2056 27.3501 23.5626C26.9926 22.7433 26.6078 21.9342 26.4852 21.0248C26.4468 20.7423 26.8235 20.6309 27.2853 20.7018C27.743 20.7737 28.3131 21.0238 28.5521 21.4917C29.3086 23.1828 29.8615 24.9479 30.2473 26.7778C30.4711 27.8745 30.9228 28.9429 31.2367 30.0386L31.7147 31.8584L32.1653 33.7825L32.3517 34.6392C32.3689 34.7749 32.4418 34.9319 32.4124 35.0473L32.0306 35.2701L31.2823 35.7116L30.7638 36.0286C29.8038 36.625 28.8782 37.2732 28.0731 38.0549C27.4473 38.6636 26.9501 39.3785 26.4285 40.0762C26.3141 40.2302 26.2108 40.3892 26.0863 40.538C25.6214 41.0818 25.3713 41.1679 24.8771 40.9411C24.7647 40.8904 24.6452 40.8489 24.5429 40.7861C24.1966 40.5765 24.1429 40.135 24.4022 39.6438C25.1678 38.1917 26.3455 36.8975 27.7237 35.7572C28.2351 35.3359 28.7759 34.9491 29.3258 34.5946L29.74 34.3313L30.0954 34.1146C30.1136 34.1116 30.1329 34.1126 30.1521 34.1045L30.2078 34.1258Z" fill="#231F20"/>
<path fill-rule="evenodd" clip-rule="evenodd" d="M18.168 40.54C17.3964 40.1532 16.6247 39.7653 15.8551 39.3795C15.5716 39.2418 15.2678 39.1577 14.9862 39.0119C13.9887 38.5147 13.0409 37.8909 12.0576 37.3653C11.6272 37.1172 11.1664 36.9329 10.735 36.6969C10.17 36.4215 9.59881 36.143 9.10564 35.7228C8.95171 35.5921 9.07121 35.4179 9.32337 35.2812C9.57451 35.1486 9.97046 35.022 10.3188 35.1141C10.9305 35.2934 11.5543 35.4321 12.1345 35.6772C12.7128 35.9253 13.288 36.1916 13.8429 36.5126C14.5133 36.8894 15.2921 37.0838 16.006 37.4058L18.3746 38.4661L19.8379 39.1233C20.5812 39.4463 21.3154 39.8038 22.0719 40.0975C22.6582 40.3294 23.2831 40.455 23.8947 40.6666C24.0294 40.7132 24.1702 40.7416 24.3018 40.7993C24.7879 41.0261 24.8689 41.2438 24.6795 41.7714C24.636 41.8909 24.6005 42.0145 24.5469 42.1299C24.3646 42.5178 24.0071 42.7203 23.6476 42.6626C22.5732 42.4874 21.5281 42.1269 20.4861 41.659C19.7103 41.3036 18.9296 40.9441 18.1508 40.5866L18.168 40.54Z" fill="#231F20"/>
<path fill-rule="evenodd" clip-rule="evenodd" d="M85.9835 87.4483C87.2109 88.9289 88.4494 90.455 89.4752 92.1775C90.4727 93.9001 91.4327 95.7857 91.5583 98.0601C91.62 99.1791 91.3932 100.404 90.8028 101.436C90.2246 102.478 89.3456 103.248 88.4494 103.83C88.0342 104.12 87.4499 104.385 86.8848 104.583L86.0149 104.764C85.7273 104.807 85.4448 104.792 85.1602 104.804C84.0361 104.78 82.986 104.538 82.0321 104.179C79.228 103.139 76.8553 101.547 74.6183 99.8394C70.68 96.8196 67.1316 93.413 63.7412 89.8767C60.3518 86.3405 57.1132 82.6776 53.9517 78.9551C51.1456 75.6446 48.382 72.3008 45.5394 69.0977C43.7227 67.0318 41.8644 64.9944 40.0001 62.9731C38.1287 60.974 36.2917 58.8839 34.3939 57.0439C34.2562 56.897 34.1408 56.7644 34.0446 56.6479C33.9504 56.5345 33.8916 56.4849 33.8359 56.4089C33.7306 56.2712 33.684 56.1659 33.7165 56.1061C33.7529 55.9927 34.2248 55.9745 34.9732 56.258C36.4709 56.8039 38.7748 58.3938 40.9763 60.7128C44.8295 64.8749 48.4954 69.1534 52.0985 73.516C55.6661 77.8573 59.2986 82.15 63.0829 86.3395C65.3432 88.8468 67.7736 91.2894 70.3043 93.6348C72.8431 95.9649 75.4892 98.2282 78.3358 100.061C79.8923 101.063 81.5247 101.97 83.2088 102.487C84.0493 102.72 84.8929 102.849 85.6807 102.786C86.0554 102.71 86.4362 102.651 86.7633 102.474C87.0995 102.339 87.5035 102.067 87.8195 101.823C89.1866 100.833 89.8185 99.2743 89.4752 97.5862C89.1805 95.9072 88.2732 94.2646 87.2564 92.7385C85.9906 90.8459 84.4807 89.0727 82.9384 87.3096C81.4103 85.5759 79.7687 83.8817 78.1515 82.1916C73.2147 77.0816 68.199 71.9858 63.169 67.0318C59.2591 63.1776 55.3228 59.5067 51.3886 55.7669C50.5197 54.9456 49.6701 54.1426 48.7941 53.3152C45.5759 50.2174 44.7171 49.063 44.4417 47.9754C44.3779 47.7252 44.2614 47.4265 44.2685 47.2564C44.2877 46.9718 44.6533 47.0579 45.3561 47.4893C46.065 47.9247 47.0716 48.7167 48.301 49.7992C55.5061 56.3137 62.8541 63.4399 70.1048 70.7281C72.7975 73.436 75.4851 76.1601 78.1505 78.9166C80.7996 81.6771 83.5096 84.4286 86.02 87.4048L85.9835 87.4483Z" fill="#231F20"/>
<path fill-rule="evenodd" clip-rule="evenodd" d="M81.6988 44.4246C78.7945 43.1446 75.8821 41.8747 72.9777 40.5501C71.9174 40.063 70.8359 39.6276 69.7848 39.0939C68.8673 38.626 67.9184 38.1228 67.0303 37.5374C66.1533 36.9653 65.2925 36.3516 64.4733 35.6711C62.8459 34.3222 61.3401 32.6341 60.5613 30.5358C60.2221 29.6112 60.0256 28.6289 59.9882 27.6456C59.9699 26.6583 60.0884 25.6841 60.3082 24.7737C60.5684 23.5899 60.9806 22.4506 61.5244 21.3681C62.0783 20.3007 62.7366 19.2374 63.7037 18.4516C64.3285 17.9736 64.4267 18.2926 64.2971 18.9792C64.1867 19.6941 63.9507 20.7625 63.4525 21.8734C62.9948 22.8618 62.7011 23.9251 62.3882 24.955C62.0905 26.0071 61.9386 27.0097 62.0044 27.991C62.0965 29.9687 63.1791 31.8361 64.7457 33.424C65.6713 34.384 66.8085 35.2133 68.0166 35.9607C69.1842 36.6999 70.5078 37.2924 71.804 37.9162C74.6709 39.2681 77.6056 40.5451 80.5343 41.8231L85.9511 44.1826C88.6873 45.3715 91.4195 46.611 94.1264 47.8302C96.2277 48.7902 98.3279 49.646 100.38 50.7325C100.833 50.9685 101.28 51.2034 101.726 51.4759C103.365 52.5128 103.796 53.1569 103.681 53.8273C103.658 53.9771 103.651 54.1392 103.597 54.2455C103.383 54.5797 102.754 54.287 101.673 53.6247C100.021 52.6455 98.1558 51.7716 96.2682 50.8905C94.3745 50.0125 92.4322 49.1396 90.4757 48.2778C87.5521 47.012 84.6143 45.7401 81.6837 44.4712L81.6988 44.4246Z" fill="#231F20"/>
<path fill-rule="evenodd" clip-rule="evenodd" d="M93.1825 34.5648C92.1152 32.3127 90.1313 30.4028 87.9369 28.8027C87.1369 28.2073 86.2508 27.7242 85.3991 27.1885C82.3611 25.3313 79.1064 23.71 75.801 22.1809C74.3336 21.5024 72.8258 20.8836 71.3382 20.2548C69.4273 19.4558 67.4657 18.6649 65.7614 17.3707C65.2287 16.9697 65.5406 16.6648 66.2272 16.5656C66.9067 16.4795 67.9801 16.519 69.0414 16.9757C72.8015 18.6507 76.7448 20.192 80.5504 22.189C82.8269 23.3758 85.2766 24.4847 87.5389 25.9045C89.9967 27.4853 92.3906 29.3445 94.1547 31.8387C94.6955 32.6023 95.1542 33.4347 95.5117 34.3117C95.7031 34.7441 95.8195 35.2089 95.9684 35.6565L96.1162 36.3532L96.1891 36.7006C96.2094 36.8099 96.2084 36.8737 96.2195 36.9629L96.2428 37.2079L96.2661 37.4591C96.3289 37.5127 96.4109 37.5401 96.4838 37.5806L97.1907 37.933C97.7801 38.2368 98.3563 38.569 98.9142 38.9315C100.029 39.6525 101.069 40.491 102.01 41.4247C103.534 42.9315 104.836 44.6733 105.692 46.6754C105.884 47.1139 106.049 47.5524 106.184 48.0152C106.298 48.4466 106.372 48.8101 106.413 49.1169C106.434 49.4278 106.405 49.6851 106.375 49.8957C106.297 50.318 106.137 50.5711 105.909 50.7798C105.803 50.8739 105.707 50.9934 105.605 51.0501C105.259 51.2436 104.877 50.5924 104.374 49.5281C103.776 47.922 103.068 46.3827 102.086 44.9984C101.114 43.611 99.8793 42.3857 98.4626 41.3649C97.8661 40.9396 97.2403 40.5487 96.5892 40.1943L96.094 39.935L95.4327 39.615C95.2798 39.5411 95.0742 39.45 94.9122 39.3558C94.7633 39.2373 94.6296 39.1107 94.5598 38.9457L94.4949 38.8353L94.4625 38.7786L94.4463 38.7492C94.5577 38.6692 94.2924 38.8566 94.3198 38.8373L94.3187 38.8343L94.3177 38.8302L94.3147 38.8221L94.3086 38.8059L94.2185 38.5477L94.0392 38.0302C93.942 36.9274 93.8499 36.654 93.7101 36.0889C93.624 35.8378 93.5552 35.5806 93.459 35.3314L93.1339 34.5932L93.1825 34.5648Z" fill="#231F20"/>
<path fill-rule="evenodd" clip-rule="evenodd" d="M64.8658 33.8845C65.0805 34.2127 65.3033 35.5008 65.3377 36.6907C65.3914 37.8876 65.4045 39.0158 65.4126 39.2264C65.4157 39.5413 65.3934 40.9145 65.4278 41.0553C65.4359 41.0776 65.4207 41.6325 65.4602 42.1895C65.4957 42.7475 65.6101 43.2781 65.6729 43.354C65.679 43.3662 65.7053 43.4189 65.7347 43.5161C65.7904 43.5424 65.7094 43.5809 65.9625 43.7368C66.3565 44.0042 67.0187 44.3282 67.6932 44.6513C69.0643 45.3328 70.475 46.0346 70.7747 46.1845C70.9965 46.2726 71.6679 46.6614 72.31 47.108C72.95 47.5587 73.5373 48.0883 73.7439 48.2564C73.8826 48.3739 73.509 48.8002 73.3905 48.7293C72.8922 48.4093 72.3687 48.1349 71.8563 47.8412C71.4674 47.6093 70.5823 47.1394 69.7398 46.785C68.9023 46.4245 68.1317 46.1389 68.0669 46.1166C67.4674 45.9283 66.8658 45.7409 66.2572 45.5191C65.9716 45.4158 65.6871 45.3034 65.3934 45.1657C65.2921 45.1242 65.1858 45.0644 65.0815 45.0077L64.9235 44.9217L64.7291 44.7596C64.4385 44.5277 64.3068 44.2817 64.1731 44.0356C63.9362 43.5515 63.8309 43.1009 63.7346 42.6594C63.5787 41.8411 63.4703 41.0502 63.4288 40.2684C63.3984 39.1474 63.3681 38.0304 63.3367 36.9104C63.3154 36.2876 63.2172 35.68 63.1959 35.0977C63.1726 34.7494 63.1655 34.4304 63.2263 34.0759C63.2364 33.8491 63.4744 33.599 63.6597 33.361C63.763 33.2293 63.9666 33.2881 64.2481 33.4197C64.5397 33.5544 64.8091 33.7762 64.8658 33.8845Z" fill="#231F20"/>
<path fill-rule="evenodd" clip-rule="evenodd" d="M38.3677 108.79C37.2193 109.009 35.9616 108.851 34.9165 108.4C33.9463 107.943 32.9489 107.418 32.1833 106.532C31.3954 105.703 30.8425 104.592 30.6825 103.483C30.5002 102.378 30.5458 101.276 30.7726 100.264C31.0693 98.7712 31.5797 97.3808 32.2268 96.0846C32.7868 94.9534 33.4491 93.8436 34.1468 92.8066C34.8365 91.7666 35.5494 90.76 36.2603 89.7493L40.5783 83.7492C41.8573 81.9791 43.1009 80.1704 44.3171 78.379C45.8797 76.0752 47.3329 73.6863 49.2205 71.6113C49.8007 70.9592 49.9769 71.2194 49.8716 72.0387C49.7663 72.8579 49.4514 74.2848 48.5845 75.6387C45.3855 80.3456 42.0214 84.927 38.5763 89.4941C36.5449 92.2547 34.482 95.155 33.2415 98.273C32.8962 99.1246 32.6157 99.9965 32.4759 100.87C32.3332 101.738 32.2815 102.624 32.4942 103.421C32.8395 105.04 34.2268 106.262 35.8998 106.823C36.8679 107.162 37.9191 107.116 38.9135 106.733C39.911 106.353 40.8345 105.685 41.669 104.917C44.1926 102.539 46.1156 99.4457 47.8189 96.36C49.1405 93.9398 50.2109 91.4476 51.3623 88.9523C51.6134 88.4014 51.8666 87.8647 52.1491 87.3189C53.1942 85.2966 53.7816 84.7406 54.5097 84.6323C54.6616 84.5968 54.8195 84.528 54.9198 84.5199C55.093 84.5077 55.095 84.7285 55.0606 85.1761C55.0444 85.6348 54.8307 86.2262 54.5056 86.9716C52.6393 91.4364 50.3952 96.1565 47.5324 100.636C46.465 102.297 45.2609 103.904 43.8594 105.405C43.1414 106.147 42.3758 106.862 41.4847 107.483C40.5854 108.088 39.5545 108.61 38.3829 108.834L38.3677 108.79Z" fill="#231F20"/>
<path fill-rule="evenodd" clip-rule="evenodd" d="M56.7477 57.9385C56.8226 57.7319 57.2945 57.019 57.7431 56.3091C58.1857 55.5962 58.6201 54.8954 58.6991 54.7668C58.8176 54.5754 59.3715 53.7237 59.4181 53.6204C59.4282 53.6053 59.6631 53.265 59.9173 52.8964C60.1735 52.5298 60.4297 52.1257 60.5067 51.9971C60.5948 51.8766 62.8075 48.467 62.9574 48.0092C63.091 47.7105 64.0429 46.0872 64.1928 45.833C64.2404 45.7611 64.769 45.7651 64.7731 45.9251C64.764 46.5014 64.6171 46.8922 64.4106 47.3034C64.1078 47.9201 63.085 49.9981 63.0394 50.0903L62.5017 51.3632L62.2363 51.9505C61.9842 52.4933 61.733 53.0341 61.4799 53.5789C61.248 54.0893 61.0535 54.621 60.8004 55.1202C60.4287 55.8554 60.0601 56.5866 59.6885 57.3207C59.4778 57.739 59.2935 58.1734 59.0717 58.5866C58.9533 58.8377 58.7041 59.0109 58.5401 59.2327C58.4844 59.3188 58.3295 59.3208 58.1421 59.2863C57.9467 59.2479 57.6925 59.1567 57.5163 59.1051C57.4201 59.0777 57.3492 59.017 57.2601 58.9167C57.1801 58.8225 57.0261 58.6544 56.9563 58.5279C56.777 58.2514 56.7173 58.0094 56.7477 57.9385Z" fill="#231F20"/>
<path fill-rule="evenodd" clip-rule="evenodd" d="M70.8755 56.8595C71.8618 55.538 72.9211 54.2559 74.038 53.0195C74.4451 52.5688 74.8239 52.0898 75.2735 51.6706C76.8128 50.1779 78.6325 48.8463 80.5799 47.9642C81.4245 47.5551 82.268 47.148 83.1045 46.7439C83.6351 46.4888 84.1435 46.1951 84.666 45.949C85.1845 45.7201 85.6919 45.4973 86.2357 45.2584C86.5607 45.1196 86.7056 45.3748 86.6225 45.8214C86.5435 46.266 86.2114 46.9201 85.6169 47.3262C83.4326 48.588 81.2098 49.3161 79.2452 50.4918C78.0685 51.2108 77.0426 52.2701 76.0644 53.3273C74.9859 54.497 73.9702 55.7446 73.0031 57.0408C72.4127 57.8418 71.8314 58.653 71.2745 59.4834C70.438 60.7462 69.5681 62.0039 68.7843 63.2981C68.1757 64.3087 67.6562 65.3488 66.9989 66.3321C66.8622 66.5528 66.7255 66.7726 66.5615 66.9802C66.2708 67.3731 66.0278 67.5999 65.7949 67.7093C65.5751 67.8258 65.3999 67.8511 65.2075 67.8247C65.1204 67.8126 65.0273 67.8136 64.9574 67.7903C64.7306 67.7154 64.7944 67.2587 65.0425 66.6075C65.4627 65.6607 65.9346 64.7331 66.4086 63.7629C66.9321 62.8313 67.4901 61.8874 68.0633 60.9487C68.9028 59.5401 69.8729 58.1912 70.836 56.8352L70.8755 56.8595Z" fill="#231F20"/>
<path fill-rule="evenodd" clip-rule="evenodd" d="M57.781 23.8814C58.2924 24.1457 58.7998 24.3958 59.3253 24.6378C59.5886 24.7583 59.8539 24.8748 60.1355 24.9872C60.2742 25.0419 60.421 25.0956 60.578 25.1472C60.6671 25.1725 60.734 25.1978 60.8423 25.2211C60.9456 25.2404 61.0418 25.2748 61.2869 25.2606C61.3497 25.2616 61.3112 24.889 61.2423 24.5214C61.2119 24.3523 61.1805 24.1842 61.1805 24.1842C61.1694 24.094 61.1714 24.0039 61.1846 23.9158C61.1917 23.8712 61.2018 23.8277 61.215 23.7852C61.2271 23.7791 61.2119 23.7791 61.2119 23.7791L61.1694 23.771C61.14 23.7669 61.0742 23.7426 61.0286 23.7315L60.6813 23.6039C60.4403 23.5087 60.1922 23.3993 59.9451 23.2859C59.4519 23.0591 58.9527 22.812 58.4676 22.5619C58.4615 22.5578 58.4139 22.6368 58.3461 22.7603C58.2803 22.8829 58.1921 23.0469 58.104 23.211C57.9309 23.5411 57.7658 23.8753 57.781 23.8814Z" fill="#242021"/>
<path fill-rule="evenodd" clip-rule="evenodd" d="M59.1669 21.2666L61.9821 22.3796C62.0115 22.4018 62.5654 20.9993 62.529 20.9963L59.7137 19.8833C59.6894 19.8702 59.1395 21.2596 59.1669 21.2666Z" fill="#242021"/>
<path fill-rule="evenodd" clip-rule="evenodd" d="M60.6885 17.6986C60.4515 17.9041 60.3259 18.1684 60.1831 18.4125L59.768 19.1477L58.9538 20.5999C58.4079 21.5568 57.8489 22.5027 57.2312 23.3715C56.9223 23.8019 56.5952 24.2171 56.2509 24.5533C56.0818 24.7093 55.8995 24.8663 55.7557 24.9341C55.5968 25.0101 55.5664 24.9938 55.5664 24.9938C55.5502 24.9999 55.4307 24.8784 55.3486 24.7123C55.3223 24.6242 55.2909 24.5402 55.2545 24.4551C55.2281 24.3589 55.2221 24.2404 55.2038 24.1331C55.1492 23.6865 55.1917 23.169 55.2707 22.6586C55.6312 20.612 56.4433 18.4874 57.5411 16.7446C57.6839 16.5522 57.8388 16.3264 57.9856 16.2008L58.093 16.0904C58.1203 16.0763 58.1406 16.0702 58.1608 16.054C58.172 16.0185 58.3006 15.9952 58.3826 15.9649C58.7492 15.8616 59.1816 15.8859 59.5847 16.0297C59.9837 16.1694 60.3806 16.3831 60.6358 16.6666C60.8687 16.9674 61.0024 17.1841 60.9102 17.4555C60.8778 17.5699 61.8115 18.4348 62.0718 18.0074C62.5265 17.2651 62.2571 16.2221 61.771 15.7087C61.294 15.1507 60.7026 14.7679 60.0444 14.5684C59.3902 14.3689 58.6581 14.3365 57.9583 14.5593C57.7821 14.6291 57.6262 14.6555 57.4206 14.8043C57.3264 14.8671 57.2282 14.935 57.1431 15.0028L56.9618 15.1932C56.7006 15.4514 56.5578 15.7036 56.3714 15.9578C55.7152 16.9694 55.2403 18.0145 54.8251 19.091C54.419 20.1695 54.0848 21.2753 53.8975 22.448C53.8104 23.0364 53.7517 23.6399 53.8296 24.3002C53.857 24.4673 53.8691 24.6293 53.9127 24.8014C53.9704 24.9787 54.0342 25.1569 54.102 25.3311C54.2712 25.6511 54.4808 26.0197 54.974 26.2678C55.4894 26.5169 56.0595 26.3741 56.3887 26.201C56.7482 26.0247 56.9882 25.806 57.2312 25.5913C57.692 25.1549 58.0586 24.6931 58.4059 24.2252C59.0925 23.2885 59.6809 22.3194 60.253 21.3503C60.7978 20.3761 61.4216 19.4201 61.8723 18.4743C61.8956 18.2383 60.9356 17.5294 60.6885 17.6986Z" fill="#242021"/>
<path fill-rule="evenodd" clip-rule="evenodd" d="M107.843 31.3676C107.745 31.4902 107.612 31.316 107.46 30.9625C107.412 30.8501 107.352 30.4917 107.375 30.4339C107.422 30.3236 107.469 30.2162 107.523 30.1362C107.555 30.0896 108.154 29.7939 108.354 29.6754C108.548 29.563 108.753 29.5063 108.962 29.4618L110.233 29.163C110.327 29.1418 110.425 29.1387 110.528 29.1529C110.876 29.2035 111.204 29.1448 111.527 29.0476C111.581 29.0314 111.639 29.0314 111.682 28.9615C111.749 28.844 112.651 28.6759 112.777 28.7033C113.087 28.7721 113.389 28.7975 113.694 28.8471C113.738 28.8542 113.779 28.8238 113.828 28.8916C113.939 29.0496 114.024 29.0081 114.116 29.0091C114.243 29.0081 114.373 29.0213 114.503 29.0628C114.569 29.083 114.641 29.1742 114.71 29.2451C114.773 29.3099 114.771 29.5721 114.755 29.6015C114.709 29.6896 114.768 29.8051 114.784 29.9124C114.79 29.9489 114.797 29.9954 114.798 30.0248C114.797 30.0906 114.159 30.6122 114.086 30.6203C114.078 30.6223 113.831 30.6891 113.564 30.762C113.301 30.839 113.029 30.921 112.973 30.9463C112.917 30.9727 112.851 30.9423 112.787 30.9281C112.756 30.92 111.976 31.1934 111.942 31.1955C111.772 31.2056 111.616 31.2988 111.422 31.1833C111.384 31.161 111.351 31.1752 111.318 31.1833C111.034 31.2613 110.734 31.2582 110.438 31.2765C110.287 31.2856 110.142 31.3342 109.993 31.3605C109.967 31.3656 109.935 31.3484 109.907 31.3453C109.87 31.3393 109.833 31.3251 109.799 31.3342C109.45 31.4172 109.084 31.4051 108.741 31.5367C108.662 31.5671 108.241 31.4699 108.151 31.5104C108.1 31.5317 107.882 31.318 107.843 31.3676Z" fill="url(#paint0_radial_1134_3046)"/>
<path fill-rule="evenodd" clip-rule="evenodd" d="M98.1795 15.6139C98.0489 15.5491 98.2008 15.4063 98.5178 15.2027C98.619 15.1369 98.9542 15.0154 99.012 15.0296C99.1254 15.0539 99.2358 15.0843 99.3218 15.1238C99.3796 15.1491 99.736 15.6929 99.8677 15.8762C99.9942 16.0534 100.067 16.2468 100.123 16.4423C100.241 16.8392 100.36 17.2402 100.477 17.6372C100.502 17.7263 100.507 17.8195 100.497 17.9157C100.46 18.2489 100.525 18.5557 100.624 18.8575C100.64 18.9091 100.641 18.9638 100.709 19.0023C100.825 19.061 100.996 19.9137 100.965 20.0352C100.902 20.3309 100.878 20.6175 100.823 20.9142C100.816 20.9557 100.843 20.9962 100.778 21.0408C100.627 21.1431 100.662 21.2271 100.658 21.3173C100.65 21.4418 100.637 21.5654 100.585 21.695C100.56 21.7578 100.469 21.8206 100.396 21.8803C100.331 21.934 100.083 21.9056 100.057 21.8874C99.978 21.8378 99.8636 21.8803 99.7613 21.8844C99.7269 21.8854 99.6813 21.8864 99.654 21.8864C99.5963 21.8742 99.1426 21.3071 99.1304 21.2433C99.1284 21.2332 99.0768 21.0135 99.0039 20.7765C98.936 20.5416 98.853 20.2935 98.8287 20.2448C98.8033 20.1942 98.8327 20.1335 98.8459 20.0747C98.853 20.0464 98.5806 19.3415 98.5755 19.3112C98.5633 19.1562 98.4682 19.0175 98.5745 18.8362C98.5957 18.7998 98.5806 18.7714 98.5714 18.742C98.4884 18.4858 98.4823 18.2124 98.4509 17.9441C98.4368 17.8053 98.3841 17.6767 98.3497 17.544C98.3446 17.5208 98.3588 17.4914 98.3618 17.4651C98.3649 17.4316 98.376 17.3972 98.3669 17.3668C98.2676 17.058 98.2555 16.7238 98.1026 16.4331C98.0671 16.3673 98.1259 15.9774 98.0752 15.9066C98.0489 15.866 98.2322 15.6402 98.1795 15.6139Z" fill="url(#paint1_radial_1134_3046)"/>
<path fill-rule="evenodd" clip-rule="evenodd" d="M22.5452 7.83385C22.6191 7.96752 22.4257 8.03942 22.0794 8.09714C21.969 8.11436 21.6469 8.07588 21.6054 8.03233C21.5254 7.94828 21.4474 7.86119 21.3938 7.7741C21.3553 7.72144 21.2935 6.9427 21.2682 6.68345C21.2378 6.42522 21.2672 6.19028 21.3057 5.95332L21.5082 4.55785C21.5214 4.4576 21.5568 4.35937 21.6044 4.26924C21.7664 3.9543 21.8464 3.62316 21.8566 3.29505C21.8576 3.24037 21.8768 3.1867 21.8201 3.12796C21.7502 3.01657 21.7857 2.20339 21.8242 2.10516C21.9548 1.84693 22.0328 1.57958 22.0824 1.30616C22.0905 1.26566 22.0672 1.23021 22.1229 1.18262C22.2596 1.06312 22.2221 0.985146 22.2191 0.898056C22.2161 0.803878 22.213 0.70261 22.207 0.523367C22.208 0.457544 22.2556 0.367416 22.2839 0.281339C22.3102 0.203363 22.4824 0.138552 22.5118 0.148679C22.5908 0.175008 22.6495 0.0879182 22.7143 0.0433607C22.7366 0.0281706 22.7659 0.0089298 22.7862 0.00184109C22.8196 -0.0386658 23.6166 0.601343 23.6612 0.72894C23.6986 0.737041 24.1726 2.0606 24.13 2.21352C24.1493 2.29251 24.1098 2.37251 24.0865 2.4515C24.0926 2.492 24.1695 3.52797 24.1493 3.56442C24.1118 3.77303 24.1412 3.98164 23.9589 4.15886C23.9224 4.19329 23.9255 4.23481 23.9224 4.27633C23.8728 4.61659 23.727 4.93558 23.6014 5.24647C23.5386 5.40749 23.5133 5.57154 23.4657 5.73357C23.4576 5.76293 23.4272 5.78724 23.41 5.81357C23.3877 5.84699 23.3573 5.87838 23.3482 5.91484C23.2581 6.2956 23.0738 6.65105 23.0414 7.02979C23.0292 7.11688 22.773 7.48448 22.7771 7.58473C22.7761 7.63942 22.5128 7.77917 22.5452 7.83385Z" fill="url(#paint2_radial_1134_3046)"/>
<path fill-rule="evenodd" clip-rule="evenodd" d="M7.85988 17.3949C8.01481 17.3251 8.05937 17.5529 8.05633 17.9641C8.05431 18.0947 7.95405 18.4674 7.90139 18.5089C7.7981 18.5909 7.6938 18.6679 7.59557 18.7165C7.53683 18.7509 6.71758 18.7033 6.4391 18.6821C6.16466 18.6719 5.91757 18.5929 5.6725 18.5038C5.18338 18.3185 4.69122 18.1433 4.22033 17.9458C4.11501 17.9033 4.01881 17.8405 3.93172 17.7615C3.63096 17.4901 3.28158 17.3332 2.92411 17.2056C2.86436 17.1833 2.8117 17.1448 2.72968 17.1772C2.59297 17.2258 1.68156 16.7924 1.58333 16.6982C1.33826 16.4521 1.07092 16.2567 0.808637 16.0481C0.771168 16.0177 0.716484 16.0238 0.706357 15.9347C0.67699 15.7342 0.576735 15.719 0.490658 15.6623C0.371163 15.5833 0.250655 15.5104 0.140273 15.403C0.0886271 15.3402 0.0541962 15.2258 0.0106513 15.1377C-0.0298556 15.0557 0.0562215 14.8926 0.0845764 14.8774C0.164577 14.8369 0.143311 14.7316 0.161539 14.6547C0.167616 14.6283 0.175717 14.5929 0.184831 14.5726C0.20711 14.5048 1.17522 14.3063 1.27345 14.3296C1.30687 14.3103 2.51904 14.6364 2.6598 14.6597C2.73474 14.6709 2.7874 14.7357 2.84512 14.7863C2.8755 14.8076 3.83653 15.0496 3.86995 15.0678C4.04919 15.16 4.25274 15.1914 4.36717 15.4172C4.38945 15.4618 4.42995 15.4709 4.46641 15.485C4.7854 15.6045 5.06591 15.804 5.35351 15.9782C5.50136 16.0683 5.66541 16.1139 5.82035 16.1858C5.84871 16.198 5.86694 16.2334 5.89124 16.2547C5.92061 16.282 5.94795 16.3175 5.98339 16.3306C6.35808 16.4704 6.6953 16.7023 7.08822 16.7701C7.17632 16.7894 7.52367 17.1023 7.63202 17.1084C7.68975 17.1154 7.79608 17.4253 7.85988 17.3949Z" fill="url(#paint3_radial_1134_3046)"/>
<path fill-rule="evenodd" clip-rule="evenodd" d="M20.362 102.39C20.3022 102.209 20.5078 102.109 20.8653 102.083C20.9787 102.075 21.2997 102.168 21.3372 102.219C21.4101 102.32 21.481 102.417 21.5266 102.506C21.5407 102.564 21.5843 103.318 21.6754 103.556C21.7311 103.792 21.7605 104.019 21.7888 104.249C21.8526 104.715 21.9772 105.173 22.1696 105.599C22.2111 105.695 22.2263 105.8 22.2516 105.904C22.3114 106.271 22.4957 106.6 22.7438 106.867C22.7853 106.911 22.8157 106.966 22.8947 106.978C23.0122 107.01 23.6795 107.683 23.7534 107.796C23.9266 108.082 24.1585 108.317 24.4056 108.554C24.441 108.587 24.4957 108.59 24.5079 108.663C24.5393 108.832 24.6446 108.857 24.7357 108.912C24.8583 108.996 24.995 109.051 25.1195 109.147C25.1813 109.192 25.2289 109.289 25.2826 109.372C25.3322 109.446 25.2471 109.624 25.2167 109.636C25.1307 109.673 25.161 109.783 25.1469 109.864C25.1418 109.89 25.1347 109.927 25.1256 109.947C25.1175 110.007 24.0431 110.026 23.9306 109.953C23.9134 109.957 23.5549 109.818 23.1792 109.647C22.8147 109.463 22.4309 109.249 22.36 109.197C22.278 109.152 22.2283 109.066 22.1716 108.992C22.1078 109.002 21.1853 108.151 21.1762 108.088C21.0263 107.877 20.842 107.681 20.8217 107.393C20.8177 107.337 20.7843 107.297 20.7549 107.255C20.522 106.879 20.3843 106.455 20.2729 106.034C20.203 105.801 20.1463 105.607 20.0825 105.394C20.0734 105.355 20.0795 105.313 20.0815 105.271C20.0825 105.219 20.0916 105.165 20.0815 105.116C19.965 104.605 19.9741 104.078 19.9357 103.558C19.9083 103.432 20.121 102.877 20.12 102.744C20.1108 102.663 20.3833 102.459 20.362 102.39Z" fill="url(#paint4_radial_1134_3046)"/>
<defs>
<radialGradient id="paint0_radial_1134_3046" cx="0" cy="0" r="1" gradientUnits="userSpaceOnUse" gradientTransform="translate(111.084 31.5427) rotate(-90) scale(1.44802 3.43089)">
<stop stop-color="#587EDB"/>
<stop offset="1" stop-color="#1445C2"/>
</radialGradient>
<radialGradient id="paint1_radial_1134_3046" cx="0" cy="0" r="1" gradientUnits="userSpaceOnUse" gradientTransform="translate(99.5208 21.9114) rotate(-90) scale(3.5064 1.33776)">
<stop stop-color="#587EDB"/>
<stop offset="1" stop-color="#1445C2"/>
</radialGradient>
<radialGradient id="paint2_radial_1134_3046" cx="0" cy="0" r="1" gradientUnits="userSpaceOnUse" gradientTransform="translate(22.7041 8.10135) rotate(-90) scale(4.1271 1.33808)">
<stop stop-color="#587EDB"/>
<stop offset="1" stop-color="#1445C2"/>
</radialGradient>
<radialGradient id="paint3_radial_1134_3046" cx="0" cy="0" r="1" gradientUnits="userSpaceOnUse" gradientTransform="translate(4.02824 18.7286) rotate(-90) scale(2.24198 3.72114)">
<stop stop-color="#587EDB"/>
<stop offset="1" stop-color="#1445C2"/>
</radialGradient>
<radialGradient id="paint4_radial_1134_3046" cx="0" cy="0" r="1" gradientUnits="userSpaceOnUse" gradientTransform="translate(22.6155 110) rotate(-90) scale(4.03325 2.47779)">
<stop stop-color="#587EDB"/>
<stop offset="1" stop-color="#1445C2"/>
</radialGradient>
</defs>
</svg>
