<svg width="77" height="110" viewBox="0 0 77 110" fill="none" xmlns="http://www.w3.org/2000/svg">
<path fill-rule="evenodd" clip-rule="evenodd" d="M36.2966 99.9704C34.393 99.9241 32.444 99.7398 30.5262 99.2023C29.8286 99.007 29.1158 98.8147 28.4453 98.4905C27.2645 97.9288 26.1672 97.1254 25.3034 96.1268C24.8675 95.6204 24.494 95.113 24.1598 94.512C23.8095 93.911 23.6051 93.2134 23.5236 92.5137C23.441 91.8905 23.5074 91.2493 23.6605 90.6442C23.8266 90.0372 24.1225 89.4845 24.4678 88.9791C25.395 87.7067 26.9665 86.9446 28.4333 87.0845C28.8933 87.1137 28.8279 87.3513 28.5329 87.7117C28.2178 88.0308 27.793 88.6812 27.3209 89.0375C26.8668 89.3456 26.6041 89.8097 26.3111 90.161C26.0403 90.5446 25.8662 90.9654 25.7886 91.3932C25.6729 91.814 25.6517 92.266 25.7413 92.7362C25.8339 93.2043 26.0665 93.6704 26.3826 94.2211C26.7672 94.8321 27.2967 95.3637 27.9078 95.7976C28.5299 96.2204 29.2245 96.5486 29.9403 96.8355C31.5228 97.4627 33.3027 97.7365 35.1007 97.8502C36.2111 97.9137 37.3386 97.9298 38.448 97.8664C40.1322 97.7677 41.8305 97.5583 43.4261 97.064C44.6765 96.7147 45.8342 96.1811 46.9385 95.5731C47.1842 95.4412 47.4127 95.2942 47.6523 95.1523C48.5422 94.6248 48.8765 94.5291 49.2812 94.6741C49.3718 94.7063 49.4754 94.7244 49.5479 94.7657C49.7765 94.8784 49.6073 95.3909 48.9922 95.9747C48.0751 96.8264 47.004 97.5815 45.8382 98.1875C45.2543 98.4855 44.6543 98.7754 44.0302 98.9969C43.4 99.1952 42.7577 99.3623 42.1104 99.4932C40.1906 99.8979 38.2265 100.027 36.2997 100.023L36.2966 99.9704Z" fill="#231F20"/>
<path fill-rule="evenodd" clip-rule="evenodd" d="M41.4884 100.699C40.4565 100.973 39.4065 101.168 38.3535 101.329C37.9659 101.381 37.5864 101.432 37.1978 101.484C35.8287 101.583 34.4515 101.553 33.0945 101.362C32.4905 101.283 31.8885 101.176 31.2945 101.05C30.5415 100.86 29.7502 100.667 29.1079 100.171C28.9036 100.026 29.0657 99.8402 29.3556 99.7254C29.6526 99.6056 30.0351 99.5764 30.4177 99.6983C31.7546 100.2 33.2203 100.425 34.7233 100.557C35.6274 100.625 36.5727 100.526 37.4918 100.393C38.5086 100.277 39.5173 100.068 40.5169 99.8181C41.133 99.6711 41.7381 99.4687 42.3441 99.2815L43.7092 98.7973C44.1552 98.6161 44.5981 98.4238 45.035 98.2254C45.7035 97.8952 46.3246 97.5046 46.9719 97.1573L47.3897 96.9127C47.9233 96.6238 48.1347 96.6016 48.3421 96.6892C48.3894 96.7104 48.4448 96.7244 48.481 96.7506C48.6008 96.8342 48.4508 97.0657 48.1035 97.3697C47.0797 98.2818 45.8444 99.0328 44.5267 99.6197C43.5592 100.083 42.5364 100.439 41.4975 100.725L41.4884 100.699Z" fill="#231F20"/>
<path fill-rule="evenodd" clip-rule="evenodd" d="M43.5018 107.192C43.829 106.913 44.1088 106.516 44.3656 106.101C44.4642 105.953 44.5004 105.764 44.5931 105.607C44.9092 105.036 45.188 104.419 45.4649 103.781C45.5978 103.503 45.6944 103.206 45.8031 102.91C45.9501 102.535 46.0447 102.108 46.4676 101.801C46.5884 101.706 46.7273 101.896 46.8541 102.125C46.9749 102.368 47.1219 102.569 47.0837 102.764C46.9004 103.395 46.8209 104.212 46.3669 104.92C46.1212 105.351 46.0206 105.863 45.8011 106.334C45.5686 106.854 45.2565 107.354 44.9072 107.829C44.6555 108.103 44.435 108.394 44.129 108.621L43.7998 108.889L43.4213 109.094C43.1796 109.249 42.9078 109.327 42.6441 109.427C42.4417 109.52 42.2394 109.584 42.029 109.642C41.8226 109.697 41.6052 109.795 41.3917 109.812C41.2981 109.824 41.2055 109.826 41.1099 109.818C40.7565 109.774 40.6528 109.667 40.6266 109.312C40.6196 109.236 40.6085 109.163 40.6085 109.095C40.6095 108.879 40.7696 108.608 40.975 108.511C41.6042 108.199 42.0723 108.096 42.5303 107.872C42.8364 107.671 43.1877 107.505 43.4726 107.169L43.5018 107.192Z" fill="#231F20"/>
<path fill-rule="evenodd" clip-rule="evenodd" d="M27.6442 89.4196C27.3915 89.5243 27.0915 89.6391 26.8328 89.8394C26.7402 89.9129 26.6848 90.0176 26.5922 90.0931C26.2539 90.3579 25.9207 90.668 25.6751 91.0344C25.5845 91.1955 25.5281 91.3857 25.5392 91.5519C25.5331 91.7884 25.6177 91.9153 25.4425 92.0975C25.3801 92.1589 24.9915 92.3411 24.5576 92.3874C24.1388 92.4579 23.5912 92.2576 23.5479 91.9797C23.4341 91.4824 23.5318 91.0475 23.6838 90.6851C23.8308 90.3136 24.0583 90.0086 24.3321 89.7509C24.6664 89.4559 24.8143 89.0502 25.1063 88.7371C25.4304 88.4009 25.7888 88.0999 26.1976 87.8532C26.4371 87.6931 26.721 87.5844 26.9888 87.4646C27.1962 87.378 27.4308 87.3327 27.6452 87.2683C27.8818 87.2462 28.1053 87.1928 28.3408 87.1767C28.5251 87.1737 28.7133 87.1294 28.9056 87.1213C29.0938 87.1304 29.2932 87.1405 29.4905 87.1727C29.5811 87.1787 29.6475 87.228 29.72 87.2734C29.9717 87.4727 29.9777 87.6468 29.7975 88.0062C29.7563 88.0888 29.718 88.1703 29.6717 88.2468C29.5167 88.4985 29.2841 88.6777 29.1039 88.7744C28.5442 89.0905 28.515 89.1831 28.2784 89.2384C28.1254 89.2727 27.9029 89.3411 27.6744 89.4629L27.6442 89.4196Z" fill="#231F20"/>
<path fill-rule="evenodd" clip-rule="evenodd" d="M10.3764 72.5012C7.96429 69.7046 5.79081 66.6754 4.05323 63.3935C3.718 62.8046 3.42706 62.1925 3.14116 61.5774C2.83814 60.9704 2.56532 60.3513 2.33277 59.713C0.55694 55.2734 -0.168896 50.4261 0.185465 45.6876C0.242847 44.6346 0.418014 43.5886 0.544859 42.5426C0.770361 41.5138 0.8962 40.4628 1.19318 39.4601C1.78613 36.8537 2.79888 34.2625 4.36833 32.0739C4.86162 31.3944 4.90591 31.5695 4.66632 32.243C4.41665 32.9165 3.99786 34.1356 3.44216 35.5188C3.19652 36.1339 2.97908 36.7611 2.78478 37.3933C2.58847 38.0225 2.45559 38.6849 2.26834 39.3232C2.08512 39.9655 1.92002 40.6108 1.81029 41.2691C1.69553 41.9255 1.52237 42.5728 1.45291 43.2362C1.03211 45.8718 1.0009 48.5617 1.25761 51.2345C1.56264 54.4409 2.56129 57.6915 3.95457 60.6795C5.46967 63.9784 7.4106 67.0942 9.6928 69.9522C11.079 71.725 12.578 73.4153 14.1545 75.028C16.5314 77.4844 19.0813 79.7998 21.6807 81.9935C23.7031 83.6998 25.7608 85.2793 27.7954 86.9384C28.2414 87.3069 28.6904 87.6511 29.1253 88.0428C30.7531 89.4723 31.193 90.028 31.3541 90.5243C31.3924 90.636 31.4568 90.7689 31.4659 90.8454C31.492 91.1072 30.7652 90.6038 29.5501 89.6152C25.9209 86.7089 21.9917 83.6988 18.2569 80.3978C15.4864 77.9435 12.7995 75.3472 10.3582 72.5224L10.3764 72.5012Z" fill="#231F20"/>
<path fill-rule="evenodd" clip-rule="evenodd" d="M5.57678 30.1754C7.16133 28.0583 9.02777 26.1959 11.0643 24.562C13.1482 22.9936 15.3791 21.6426 17.7358 20.5604C22.4653 18.4584 27.6277 17.3127 32.8263 17.4758C34.7229 17.5342 36.6156 17.7527 38.4458 18.1161C39.3679 18.2983 40.287 18.5177 41.1981 18.7865C42.1092 19.0503 43.0001 19.4359 43.8961 19.7651C47.0007 21.1221 49.7631 23.212 51.9658 25.7358C54.1786 28.2586 55.8467 31.1962 56.9903 34.2878C59.3138 40.477 59.7597 47.1958 58.894 53.6146C58.5477 56.4746 57.9396 59.2964 57.1886 62.0639C56.4628 64.8424 55.5094 67.5424 54.4967 70.193C53.191 73.5997 51.6245 76.9077 49.8779 80.1101C48.1454 83.3205 46.1763 86.396 44.039 89.3305C42.6991 91.1577 42.6326 90.7328 43.3897 88.949C43.7773 88.0641 44.3249 86.8117 45.0246 85.3349C45.6991 83.8429 46.5346 82.1326 47.489 80.3094C49.1903 77.0789 50.647 73.7376 52.0413 70.3873C53.4064 67.0229 54.5722 63.582 55.452 60.0746C57.2279 53.078 57.7765 45.725 56.0853 38.7093C55.5698 36.6244 54.846 34.5697 53.8917 32.6167C52.9333 30.6647 51.692 28.8506 50.2433 27.2348C48.7897 25.6251 47.1115 24.2036 45.2159 23.1526C43.3232 22.0996 41.3129 21.2932 39.1706 20.7969C29.7981 18.4513 19.3505 20.8906 11.8435 27.0536C9.54924 28.9523 7.55496 31.2234 6.09121 33.8036C5.76302 34.467 5.41067 35.1214 5.09759 35.7908L4.32745 37.8727C3.94289 39.3223 3.54222 40.774 3.34692 42.2639L3.20699 43.1045L3.13652 43.9542L3.00162 45.6545L3.0127 47.3609L3.02176 48.2136L3.10129 49.0643C3.23719 51.3414 3.76269 53.5793 4.409 55.7669C5.0694 57.9575 6.02275 60.0504 7.05966 62.091C8.14489 64.1095 9.37508 66.0474 10.713 67.9048C14.919 73.6712 20.0975 78.4621 25.4069 83.1524C26.5807 84.1862 27.7505 85.1738 28.9193 86.249C33.2612 90.1902 34.4411 91.9208 34.6676 93.3221C34.7169 93.6422 34.7703 94.0439 34.7441 94.2261C34.7179 94.3842 34.6193 94.3691 34.4501 94.2271C34.273 94.0842 34.0887 93.8073 33.7122 93.451C33.0206 92.7281 31.871 91.6026 30.2793 90.2063C25.5096 86.1121 20.3774 81.9483 15.6831 77.1312C10.9979 72.3313 6.61268 66.8719 3.73048 60.4572C2.65632 58.0854 1.85196 55.5756 1.29425 53.0055C0.725458 50.4314 0.580492 47.7686 0.662036 45.1321C0.759686 42.4854 1.28519 39.8861 1.97075 37.3502C2.76907 34.773 3.98417 32.3408 5.5194 30.1502L5.57678 30.1754Z" fill="#231F20"/>
<path fill-rule="evenodd" clip-rule="evenodd" d="M31.6033 98.3527C34.1694 98.8228 36.8986 98.7453 39.5744 98.3094C40.5439 98.1393 41.5264 97.8695 42.4667 97.6631C44.0482 97.2534 45.66 96.5003 47.1308 95.6275C48.5985 94.7406 49.9677 93.6544 50.922 92.3346C51.7264 91.1447 51.9146 89.7182 51.2009 88.5494C50.7569 87.8074 50.0119 87.1954 49.2086 86.693C48.3881 86.2098 47.5133 85.7699 46.5831 85.4386C46.0053 85.2444 46.0918 85.0551 46.6868 84.886C47.2606 84.7551 48.4415 84.5709 49.6445 85.1074C50.6945 85.5766 51.7284 86.2128 52.566 87.2356C53.0039 87.74 53.2646 88.3964 53.5123 89.0396C53.5837 89.3839 53.6411 89.7373 53.6693 90.0906C53.6784 90.441 53.618 90.7873 53.5817 91.1346C53.316 92.4957 52.6082 93.5759 51.8411 94.4708C51.068 95.3779 50.1579 96.0614 49.2217 96.6785C48.0982 97.4074 46.9334 98.0648 45.7143 98.6507C45.1043 98.9426 44.4781 99.2114 43.8288 99.444C43.5076 99.5658 43.1593 99.6544 42.8271 99.758L41.8576 99.9695C39.0308 100.599 36.1003 100.928 33.1697 100.681C31.3687 100.523 29.5768 100.146 27.8704 99.4852C26.5819 98.9708 25.3668 98.2419 24.2976 97.3178C23.2436 96.3775 22.3819 95.1644 21.956 93.7571C21.648 92.6668 21.6017 91.4406 21.9732 90.3272C22.3557 89.2178 23.0715 88.2625 23.9252 87.5296C24.3017 87.2044 24.6832 86.9064 25.1111 86.6568C25.9003 86.1907 26.4933 86.0527 26.91 86.0004C27.3349 85.9672 27.6087 86.0638 27.8543 86.2662C27.9661 86.3558 28.099 86.4353 28.1714 86.5299C28.4151 86.8571 27.8483 87.3282 26.9151 87.9172C25.5248 88.7729 24.356 89.9578 24.0369 91.2222C23.8436 91.8524 23.8788 92.4745 24.0268 93.1319C24.206 93.7893 24.5916 94.4306 25.0627 95.0285C26.5617 96.7993 29.0483 97.8624 31.6083 98.2993L31.6033 98.3527Z" fill="#231F20"/>
<path fill-rule="evenodd" clip-rule="evenodd" d="M28.9154 93.5886C30.3389 94.1845 31.9224 94.5741 33.5422 94.7644C34.1341 94.8369 34.7331 94.8268 35.3301 94.85C37.4382 94.9426 39.5935 94.7865 41.6583 94.26C42.5714 94.0245 43.4693 93.7013 44.2918 93.2785C45.3499 92.7248 46.271 92.01 47.0884 91.2157C47.3482 90.9691 47.5415 91.11 47.5777 91.547C47.6361 91.9909 47.4529 92.7631 46.8509 93.3107C44.7146 95.1701 42.071 96.0369 39.4395 96.2946C37.863 96.4446 36.2372 96.6862 34.6153 96.6399C32.8385 96.5865 31.0516 96.355 29.3311 95.8003C28.2751 95.46 27.2422 95.005 26.2889 94.3909C25.5711 93.9208 24.9006 93.35 24.349 92.6634C24.0912 92.306 23.8325 91.9496 23.6402 91.55C23.4198 91.1916 23.2587 90.6208 23.2688 90.1356C23.2798 89.3473 23.5808 88.6476 23.9664 88.0637C24.358 87.4778 24.8493 86.9825 25.4161 86.5799C25.6617 86.3966 25.9174 86.2346 26.1993 86.0966C27.2744 85.6185 27.7657 85.8037 28.0073 86.2285C28.0647 86.3272 28.1322 86.4218 28.1603 86.5185C28.2358 86.8456 27.8875 87.1446 27.3701 87.4295C26.5808 87.8453 25.8379 88.5258 25.4342 89.2305C25.2318 89.5788 25.1432 89.9191 25.1634 90.1436C25.1664 90.2604 25.2016 90.35 25.2469 90.4446C25.3013 90.5614 25.4523 90.804 25.5439 90.9812C26.2516 92.0865 27.4939 92.9684 28.9315 93.5422L28.9154 93.5886Z" fill="#231F20"/>
<path fill-rule="evenodd" clip-rule="evenodd" d="M34.7088 102.803C36.0367 103.115 37.4813 103.163 38.9219 103.033C39.4504 102.997 39.9638 102.85 40.4893 102.763C42.3487 102.46 44.186 101.881 45.9437 101.111C46.7148 100.753 47.4527 100.313 48.1212 99.8123C49.0041 99.1811 49.7068 98.3989 50.4326 97.672C50.6772 97.4526 50.8957 97.5875 50.9994 98.0053C51.0477 98.2116 51.089 98.5136 51.0276 98.8277C50.9551 99.1187 50.8151 99.4398 50.5917 99.7277C48.9155 101.596 46.8296 102.935 44.5192 103.641C43.135 104.037 41.7568 104.614 40.2971 104.867C38.7035 105.156 37.0625 105.258 35.4246 105.093C34.4199 104.987 33.4082 104.748 32.4609 104.411C31.0243 103.883 29.6673 103.074 28.5418 102.019C27.6629 101.212 26.8545 100.304 26.2736 99.2375C26.1549 98.9999 26.0381 98.7663 25.9384 98.5177C25.6475 97.5683 25.8136 97.2049 26.2122 96.911C26.3038 96.8435 26.3864 96.765 26.474 96.7207C26.7548 96.5727 27.1817 96.8556 27.5522 97.372C28.0968 98.1422 28.5709 98.868 29.1116 99.5334C29.6542 100.197 30.2934 100.769 31.0183 101.253C32.0833 101.968 33.4052 102.49 34.7159 102.749L34.7088 102.803Z" fill="#231F20"/>
<path fill-rule="evenodd" clip-rule="evenodd" d="M29.1651 41.0117C29.1289 40.5073 29.1259 39.9899 29.154 39.4604L29.2134 38.6439L29.3111 38.055C29.3675 37.8426 29.444 37.6372 29.5094 37.4278C29.7893 36.5862 30.4436 36.0386 31.2188 35.8785C32.002 35.7235 32.8185 35.9923 33.4466 36.5641C33.5986 36.7121 33.7577 36.8641 33.8835 37.0322C34.0235 37.2013 34.1564 37.3654 34.2137 37.4751C34.3738 37.7248 34.5007 37.9704 34.6215 38.2161C34.8611 38.7053 35.0453 39.1886 35.2104 39.6698C35.5215 40.6402 35.7822 41.6469 35.9 42.6456C36.3963 46.6412 35.7953 50.67 34.0466 54.2892C33.7255 54.9486 33.35 55.5868 32.9352 56.2049C32.7248 56.516 32.443 56.8301 32.1953 57.1381C31.9003 57.421 31.6003 57.7099 31.2631 57.9536C29.8849 58.9522 28.0386 59.215 26.5255 58.8566C25.1655 58.5777 23.9594 58.0009 22.8651 57.3123C21.7688 56.6157 20.7833 55.8053 19.8913 54.863C18.9853 53.8905 18.2816 52.8234 17.6897 51.6898C17.1048 50.5553 16.6236 49.3563 16.382 48.0587C16.1444 46.7781 16.1011 45.3395 16.7283 44.0077C17.0252 43.3604 17.434 42.7805 18.0279 42.2912C18.6098 41.801 19.4232 41.5171 20.1954 41.5412C21.7618 41.5936 22.9417 42.5369 23.8316 43.3976C24.7507 44.2926 25.5108 45.3073 26.1752 46.3613C28.5238 50.1204 29.8366 54.3365 31.0829 58.3844C31.8973 60.9989 32.6121 63.6837 33.0671 66.426C33.2805 67.7992 33.4446 69.1844 33.4869 70.5757C33.5292 71.9679 33.4577 73.3582 33.3268 74.7354C33.1174 76.4528 32.8638 76.178 32.597 74.7334C32.45 73.9622 32.2567 72.9616 32.0342 71.7998C31.7685 70.6008 31.5017 69.2196 31.247 67.7156C30.792 65.0478 30.0319 62.4364 29.2175 59.8069C28.4242 57.1472 27.6319 54.5046 26.6695 51.9878C25.7051 49.4781 24.5322 47.0167 22.842 45.108C22.4252 44.6338 21.9541 44.1828 21.5121 43.8788C21.0531 43.5758 20.5628 43.3885 20.147 43.3895C19.7303 43.3785 19.3668 43.5275 19.0145 43.8677C18.6621 44.21 18.3632 44.7224 18.2121 45.2187C17.8205 46.4761 18.1225 48.0899 18.7165 49.5435C19.3074 51.0093 20.1913 52.4398 21.2675 53.5653C22.393 54.7049 23.747 55.6855 25.1816 56.3358C26.6091 56.9539 28.1856 57.2479 29.4188 56.671C30.1003 56.3751 30.6862 55.8536 31.1705 55.1992C31.6628 54.4875 32.0977 53.7123 32.4581 52.8989C33.1587 51.262 33.6258 49.4962 33.8242 47.7023C34.0406 45.9083 33.9953 44.0832 33.6782 42.3285C33.499 41.4597 33.2624 40.603 32.9272 39.7835C32.7611 39.3798 32.5728 38.9933 32.3604 38.661C32.1842 38.3842 32.0946 38.2785 31.8883 38.1607C31.6446 38.0228 31.3386 38.1688 31.2419 38.4214C31.1886 38.5402 31.1433 38.6751 31.1242 38.797C31.0799 38.9983 31.0305 39.2912 31.0215 39.548C30.9691 40.6211 31.0909 41.7496 31.3003 42.8489C31.5128 43.9493 31.8168 45.0405 32.2416 46.0634C32.6564 47.06 33.2211 48.105 33.9429 48.6043C34.5399 48.9697 35.2768 49.1489 35.9845 49.015C36.7013 48.8942 37.405 48.5097 38.0221 48.0033C39.2493 46.9795 40.2328 45.5167 40.704 43.9966C40.9365 43.2768 40.9436 42.4493 40.8399 41.6651C40.7271 40.8929 40.4453 40.1248 39.9832 39.7312C39.505 39.3345 39.0278 39.3396 38.5235 39.8157C38.0161 40.302 37.6023 41.0369 37.2902 41.7879C37.0325 42.3748 36.8825 42.9728 36.7345 43.6332C36.5684 44.2724 36.4577 44.9248 36.351 45.5761C36.1587 46.8808 36.0429 48.1946 36.0147 49.5093C35.9554 52.1388 36.1547 54.7663 36.6107 57.3566C36.8121 58.4982 37.0627 59.6036 37.3476 60.7331C37.8671 62.8311 38.3151 64.179 38.5567 65.1545C38.8104 66.126 38.8506 66.7321 38.7771 67.2757C38.7429 67.5233 38.7389 67.8364 38.6765 68.0025C38.5154 68.5542 37.2691 67.0965 36.1517 63.9535C34.5339 59.3026 33.7245 54.2116 33.946 49.0261C34.0154 47.7315 34.1372 46.4298 34.3547 45.1332C34.4765 44.4879 34.549 43.8315 34.705 43.1862L34.9184 42.2026C35.0131 41.8312 35.1238 41.4969 35.2466 41.1557C35.4993 40.4802 35.7983 39.8157 36.2372 39.1443C36.6762 38.504 37.2621 37.7157 38.5376 37.2919C39.1456 37.154 39.8221 37.1409 40.3949 37.4198C41 37.6181 41.4308 37.9886 41.7822 38.3782C42.4788 39.1775 42.7395 40.0161 42.9197 40.7973C43.1422 41.9761 43.1704 43.0563 42.8714 44.3036C42.5573 45.4392 42.059 46.4056 41.455 47.3066C40.8449 48.2006 40.1191 49.0211 39.2201 49.7157C38.3261 50.3972 37.2107 50.9811 35.8919 51.0858C35.5708 51.1331 35.2305 51.0758 34.9033 51.0607C34.5762 51.0194 34.259 50.9157 33.9409 50.8331C33.6429 50.7123 33.356 50.5694 33.0691 50.4284C32.748 50.2402 32.4701 50.0117 32.2376 49.7841C31.3517 48.859 30.8966 47.8956 30.4909 46.9372C29.7299 45.0103 29.2759 43.0704 29.1188 41.0258L29.1651 41.0117Z" fill="url(#paint0_radial_1134_3019)"/>
<path fill-rule="evenodd" clip-rule="evenodd" d="M69.047 43.4435C69.0239 43.6197 68.7913 43.5421 68.4299 43.3287C68.3141 43.2613 68.0413 42.9804 68.0323 42.9109C68.0142 42.776 67.9991 42.6421 68.0071 42.5274C68.0071 42.4579 68.4641 41.7281 68.6262 41.4713C68.7772 41.2207 68.9756 41.0183 69.191 40.8371C69.6188 40.4566 70.0769 40.1032 70.5611 39.7811C70.6688 39.7106 70.7896 39.6603 70.9185 39.6271C71.3675 39.5214 71.7541 39.323 72.1366 39.0915C72.201 39.0542 72.2755 39.0351 72.3118 38.9385C72.3591 38.7633 73.5098 38.3073 73.6849 38.3284C74.1047 38.3455 74.5054 38.3244 74.9131 38.3757C74.9705 38.3828 75.0238 38.3415 75.0893 38.422C75.2393 38.6073 75.348 38.5569 75.4678 38.5569C75.6319 38.5529 75.799 38.572 75.9661 38.6264C76.0487 38.6526 76.1363 38.7603 76.2188 38.8448C76.2933 38.9204 76.2742 39.2224 76.254 39.2566C76.1936 39.3563 76.2581 39.4922 76.2722 39.616C76.2772 39.6573 76.2832 39.7116 76.2822 39.7459C76.2651 39.8123 75.5443 40.4375 75.4769 40.4616C75.4658 40.4556 75.196 40.5724 74.9181 40.6811C74.6383 40.7918 74.3554 40.9247 74.302 40.966C74.2457 41.0042 74.1661 40.9771 74.0937 40.969C74.0534 40.9579 73.2782 41.4351 73.249 41.4512C73.0688 41.5076 72.9349 41.6546 72.6863 41.5781C72.6369 41.565 72.6078 41.5922 72.5755 41.6123C72.2987 41.7854 71.9816 41.8891 71.6745 42.026C71.5205 42.0995 71.3886 42.2083 71.2467 42.3019C71.2205 42.319 71.1813 42.316 71.149 42.324C71.1088 42.3341 71.0635 42.3371 71.0323 42.3613C70.7041 42.5968 70.3165 42.769 70.0407 43.0801C69.9742 43.1445 69.5011 43.2945 69.4336 43.3861C69.3943 43.4334 69.0561 43.371 69.047 43.4435Z" fill="url(#paint1_radial_1134_3019)"/>
<path fill-rule="evenodd" clip-rule="evenodd" d="M59.3471 21.0122C59.3229 21.1934 59.0763 21.1109 58.6998 20.8934C58.58 20.824 58.2961 20.5361 58.285 20.4646C58.2639 20.3236 58.2457 20.1837 58.2498 20.0629C58.2498 19.9904 58.6877 19.2092 58.8347 18.9263C58.9736 18.6535 59.1629 18.432 59.3682 18.2307C59.788 17.823 60.236 17.4495 60.681 17.0911C60.7806 17.0126 60.8954 16.9522 61.0222 16.9159C61.4571 16.7871 61.8055 16.5455 62.1196 16.2626C62.1719 16.2153 62.2383 16.1861 62.2454 16.0784C62.2635 15.9012 63.1585 15.2378 63.3034 15.2045C63.6799 15.126 64.0182 14.9931 64.3746 14.8804C64.4269 14.8673 64.4521 14.8109 64.5507 14.8653C64.7803 14.9921 64.8457 14.8965 64.9464 14.8482C65.0863 14.7797 65.2303 14.7173 65.4004 14.6861C65.485 14.67 65.6249 14.7264 65.7487 14.7606C65.8615 14.7918 66.0437 15.0747 66.0477 15.119C66.0588 15.2448 66.2038 15.3334 66.2964 15.4381C66.3276 15.4733 66.3689 15.5196 66.39 15.5509C66.4373 15.6143 66.1001 16.6854 66.0175 16.7529C66.0205 16.7992 65.0028 17.7062 64.9021 17.828C64.8497 17.8914 64.7511 17.8914 64.6665 17.9086C64.6263 17.9206 63.845 18.6596 63.8098 18.6737C63.6125 18.7713 63.4806 18.9586 63.1907 18.9133C63.1333 18.9042 63.1031 18.9364 63.0699 18.9636C62.784 19.1921 62.4417 19.333 62.1175 19.4992C61.9545 19.5847 61.8226 19.7136 61.6736 19.8173C61.6464 19.8374 61.6031 19.8334 61.5699 19.8434C61.5266 19.8555 61.4773 19.8585 61.4451 19.8857C61.1209 20.1676 60.693 20.3226 60.4071 20.6498C60.3367 20.7163 59.8283 20.8622 59.7578 20.9569C59.7155 21.0052 59.3571 20.9377 59.3471 21.0122Z" fill="url(#paint2_radial_1134_3019)"/>
<path fill-rule="evenodd" clip-rule="evenodd" d="M46.2924 107.033C45.7599 107.793 45.1277 108.56 44.2861 109.157C43.969 109.36 43.672 109.602 43.3055 109.729C42.6763 109.99 41.9364 110.056 41.2951 109.955C40.6448 109.856 40.0559 109.634 39.5284 109.348C39.0592 109.097 38.6062 108.838 38.1754 108.559C37.9025 108.376 37.6227 108.2 37.37 107.991C37.1274 107.77 36.923 107.506 36.7529 107.217C36.6492 107.034 36.8405 106.885 37.1485 106.799C37.4515 106.718 37.8945 106.659 38.2066 106.8C39.18 107.482 40.1596 108.048 41.1331 108.423C41.7512 108.646 42.332 108.476 42.8978 108.163C43.5149 107.828 44.0636 107.274 44.5367 106.616C44.8337 106.217 45.0985 105.772 45.3522 105.32C45.7277 104.625 46.1072 103.908 46.4354 103.167C46.685 102.59 46.8552 101.972 47.128 101.383C47.1894 101.254 47.2357 101.118 47.3072 100.992C47.6012 100.539 47.8377 100.484 48.2616 100.659C48.3532 100.695 48.4428 100.72 48.5152 100.756C48.7347 100.861 48.9431 101.267 48.8585 101.618C48.6209 102.672 48.181 103.657 47.6545 104.699C47.2699 105.472 46.8361 106.261 46.3297 107.054L46.2924 107.033Z" fill="#231F20"/>
<path fill-rule="evenodd" clip-rule="evenodd" d="M32.7063 9.59931C32.8181 9.75736 32.5996 9.90132 32.206 10.0332C32.0802 10.0755 31.6966 10.0815 31.6372 10.0382C31.5244 9.95367 31.4107 9.86911 31.3271 9.78253C31.2818 9.72716 30.9738 8.8775 30.8258 8.59864C30.6919 8.32582 30.6214 8.05099 30.563 7.77516C30.4463 7.21543 30.2741 6.66677 30.1765 6.11107C30.1513 5.98825 30.1543 5.86141 30.1765 5.73154C30.258 5.28356 30.1815 4.85571 30.0375 4.44094C30.0134 4.37148 30.0114 4.29598 29.9107 4.24464C29.7375 4.16209 29.4567 3.01947 29.5312 2.8433C29.6359 2.42854 29.6661 2.02585 29.7184 1.61512C29.7255 1.55673 29.6822 1.50639 29.7688 1.43391C29.9701 1.26378 29.8986 1.15807 29.9127 1.03022C29.9248 0.85606 29.9328 0.680893 29.9922 0.494653C30.0506 0.393982 30.1704 0.279217 30.2469 0.176533C30.3174 0.0819027 30.5218 0.0718357 30.56 0.0889497C30.6536 0.143312 30.7493 0.0557284 30.8359 0.0265339C30.8661 0.0164668 30.9053 0.00337962 30.9335 0.000359503C31.0342 -0.0187679 32.052 0.731229 32.0338 0.849013C32.0379 0.860087 32.1869 1.19733 32.3449 1.55773C32.502 1.91512 32.6731 2.28961 32.7174 2.36411C32.7657 2.44263 32.7325 2.53827 32.7214 2.62887C32.7315 2.66612 33.114 3.78155 33.113 3.83189C33.1241 4.07551 33.2459 4.30403 33.0718 4.57886C33.0385 4.63322 33.0567 4.67953 33.0677 4.72785C33.1563 5.13658 33.1261 5.56543 33.1191 5.98624C33.115 6.20167 33.1634 6.41107 33.1644 6.6255C33.1654 6.66375 33.1362 6.70503 33.1241 6.74529C33.109 6.79563 33.0838 6.84697 33.0869 6.89529C33.1221 7.39764 33.0254 7.90905 33.101 8.40435C33.1171 8.51911 32.9036 9.07985 32.9308 9.20871C32.9439 9.2832 32.659 9.53689 32.7063 9.59931Z" fill="url(#paint3_radial_1134_3019)"/>
<path fill-rule="evenodd" clip-rule="evenodd" d="M0.11117 11.366C-0.103258 11.3378 0.00647294 11.0509 0.320565 10.6311C0.420229 10.4972 0.803785 10.1791 0.886335 10.165C1.0464 10.1358 1.20244 10.1086 1.32929 10.1056C1.40378 10.1116 2.13566 10.5002 2.41452 10.5828C2.67425 10.6774 2.88565 10.8204 3.08901 10.9764L4.38263 11.8794C4.47927 11.9469 4.55981 12.0365 4.63229 12.1432C4.8739 12.5156 5.22021 12.7522 5.60175 12.9354C5.66517 12.9656 5.71853 13.017 5.82121 12.9797C5.98329 12.9213 6.97389 13.5103 7.07456 13.6452C7.31416 13.9774 7.591 14.2572 7.85476 14.5623C7.89301 14.6056 7.96046 14.6076 7.95241 14.7203C7.93328 14.9811 8.05409 15.0072 8.14771 15.0817C8.27657 15.1864 8.40039 15.3032 8.50106 15.4552C8.5514 15.5297 8.5514 15.6858 8.56449 15.8187C8.57757 15.9395 8.36214 16.2213 8.32086 16.2415C8.20006 16.2989 8.16583 16.472 8.09637 16.6019C8.07321 16.6452 8.04201 16.7015 8.01885 16.7348C7.9655 16.8052 6.85611 16.8586 6.76953 16.8052C6.75946 16.8002 6.43631 16.6693 6.09201 16.5274C5.74772 16.3895 5.38531 16.2465 5.30477 16.2254C5.22121 16.2042 5.17793 16.1146 5.12356 16.0431C5.10041 16.017 4.02927 15.6042 3.99202 15.571C3.80478 15.427 3.5531 15.3727 3.46753 15.0707C3.45142 15.0113 3.40411 14.9942 3.36283 14.973C2.99841 14.7777 2.70143 14.4797 2.39639 14.1958C2.23834 14.0529 2.05109 13.9462 1.88096 13.8173C1.85076 13.7942 1.83969 13.7458 1.81754 13.7116C1.78935 13.6693 1.77123 13.612 1.73298 13.5838C1.33029 13.2747 1.02526 12.8539 0.601437 12.5589C0.497746 12.4935 0.282311 11.9146 0.170566 11.8391C0.103117 11.7959 0.194727 11.3771 0.11117 11.366Z" fill="url(#paint4_radial_1134_3019)"/>
<defs>
<radialGradient id="paint0_radial_1134_3019" cx="0" cy="0" r="1" gradientUnits="userSpaceOnUse" gradientTransform="translate(29.6559 75.9224) rotate(-90) scale(20.4218 12.4111)">
<stop stop-color="#587EDB"/>
<stop offset="1" stop-color="#1445C2"/>
</radialGradient>
<radialGradient id="paint1_radial_1134_3019" cx="0" cy="0" r="1" gradientUnits="userSpaceOnUse" gradientTransform="translate(72.1436 43.5409) rotate(-90) scale(2.65578 3.82321)">
<stop stop-color="#587EDB"/>
<stop offset="1" stop-color="#1445C2"/>
</radialGradient>
<radialGradient id="paint2_radial_1134_3019" cx="0" cy="0" r="1" gradientUnits="userSpaceOnUse" gradientTransform="translate(62.3219 21.1116) rotate(-90) scale(3.27483 3.76217)">
<stop stop-color="#587EDB"/>
<stop offset="1" stop-color="#1445C2"/>
</radialGradient>
<radialGradient id="paint3_radial_1134_3019" cx="0" cy="0" r="1" gradientUnits="userSpaceOnUse" gradientTransform="translate(31.3418 10.0679) rotate(-90) scale(5.12895 1.68397)">
<stop stop-color="#587EDB"/>
<stop offset="1" stop-color="#1445C2"/>
</radialGradient>
<radialGradient id="paint4_radial_1134_3019" cx="0" cy="0" r="1" gradientUnits="userSpaceOnUse" gradientTransform="translate(4.28253 16.8269) rotate(-90) scale(3.42407 3.95604)">
<stop stop-color="#587EDB"/>
<stop offset="1" stop-color="#1445C2"/>
</radialGradient>
</defs>
</svg>
