<svg width="113" height="110" viewBox="0 0 113 110" fill="none" xmlns="http://www.w3.org/2000/svg">
<path fill-rule="evenodd" clip-rule="evenodd" d="M17.0868 101.354C17.2622 101.415 17.1326 101.657 16.8185 101.961C16.7188 102.06 16.36 102.269 16.2889 102.272C16.1513 102.278 16.016 102.286 15.9106 102.28C15.8785 102.272 15.7203 102.188 15.5575 102.131C15.4841 102.125 15.3981 102.098 15.3626 102.135C15.3626 102.135 15.3339 102.171 15.3557 102.141C15.4004 102.082 15.4394 102.019 15.4738 101.958C15.5414 101.841 15.5747 101.818 15.6033 101.749C15.6285 101.699 15.648 101.626 15.6595 101.581C15.671 101.561 15.679 101.535 15.6813 101.507C15.679 101.41 15.6824 101.494 15.6882 101.475C15.7031 101.534 15.7397 101.588 15.8085 101.665C15.9002 101.795 15.9748 101.826 16.1295 101.96C16.2063 102.025 16.2866 102.082 16.3691 102.132C16.4563 102.19 16.5594 102.229 16.5216 102.221L16.5056 102.256C16.4884 102.313 16.4666 102.357 16.4459 102.442C16.4012 102.586 16.3634 102.785 16.321 102.977C16.3038 103.067 16.2625 103.153 16.196 103.236C15.9748 103.529 15.9163 103.874 15.9174 104.225C15.9174 104.284 15.8968 104.341 15.9713 104.406C16.0894 104.509 15.9988 105.463 15.9301 105.588C15.7489 105.889 15.632 106.202 15.4898 106.516C15.4692 106.561 15.4967 106.611 15.4004 106.648C15.1746 106.734 15.2055 106.835 15.1826 106.936C15.1516 107.075 15.1081 107.213 15.0244 107.355C14.9831 107.425 14.8524 107.491 14.7447 107.558C14.6484 107.618 14.3274 107.537 14.2941 107.512C14.1978 107.441 14.0396 107.475 13.9043 107.462C13.8596 107.456 13.7989 107.451 13.7633 107.446C13.6877 107.46 13.1592 106.649 13.1649 106.556C13.1637 106.547 13.1316 106.25 13.0972 105.928C13.0617 105.609 13.0239 105.272 13.0067 105.202C12.9883 105.13 13.0445 105.06 13.0801 104.993C13.0938 104.963 12.9769 103.973 12.9906 103.93C13.0342 103.729 12.9688 103.51 13.1935 103.33C13.2371 103.295 13.2314 103.251 13.2325 103.209C13.2451 102.845 13.3747 102.496 13.5088 102.127C13.5787 101.937 13.5959 101.734 13.6682 101.519C13.6796 101.48 13.7209 101.454 13.7461 101.42C13.7759 101.378 13.8264 101.333 13.8424 101.283C13.9307 101.032 14.0602 100.712 14.4237 100.395C14.5979 100.237 14.8742 100.037 15.2422 99.9438C15.6217 99.8383 16.0298 99.9151 16.2809 100.011C16.3382 100.033 16.4459 100.095 16.5617 100.187C16.642 100.269 16.7268 100.373 16.8048 100.475C16.9274 100.669 17.0146 100.851 17.0639 100.899C17.12 100.956 17.018 101.336 17.0868 101.354Z" fill="#231F20"/>
<path fill-rule="evenodd" clip-rule="evenodd" d="M36.5877 23.6446C36.778 24.4288 36.8342 25.2462 37.0371 26.0349C37.1002 26.325 37.2354 26.5898 37.3054 26.8764C37.5645 27.8829 37.8877 28.8757 38.344 29.7837C38.555 30.1781 38.837 30.5323 39.1488 30.804C39.573 31.1617 39.9834 31.3073 40.356 31.5973C40.4706 31.6936 40.4557 32.1224 40.2035 32.5145C39.9696 32.9157 39.3712 33.2459 38.8954 33.0269C38.0723 32.6452 37.5152 32.0422 37.0818 31.446C36.6576 30.8338 36.347 30.1918 36.1693 29.512C35.9537 28.7072 35.5674 27.9689 35.3461 27.1802C35.1088 26.3158 34.93 25.4422 34.8119 24.564C34.7557 24.0184 34.7236 23.4738 34.6881 22.9327C34.6388 22.1107 34.6434 21.2853 34.6445 20.4713C34.6434 19.8396 34.6055 19.2114 34.6904 18.566C34.7099 18.425 34.7248 18.2828 34.7649 18.1429C34.9277 17.6213 35.0939 17.4826 35.3496 17.4654C35.4092 17.4608 35.4688 17.4516 35.5215 17.4585C35.7015 17.4849 35.7646 17.7222 35.7841 18.0684C35.8414 19.0968 35.9595 20.1618 36.1452 21.2406C36.2828 22.0408 36.4318 22.8444 36.6336 23.6343L36.5877 23.6446Z" fill="#231F20"/>
<path fill-rule="evenodd" clip-rule="evenodd" d="M10.468 9.63797C10.5539 9.35137 10.9162 9.51301 11.3668 9.95782C11.5112 10.1 11.815 10.6239 11.8207 10.7225C11.8288 10.9174 11.8437 11.1008 11.8345 11.2418C11.8299 11.2842 11.7038 11.4894 11.6213 11.7027C11.5261 11.9136 11.5169 12.1326 11.5181 12.2358C11.533 12.4421 11.494 12.5969 11.4252 12.8514L11.181 13.9302C11.0653 14.3887 10.8325 15.0113 10.4496 15.5077C10.2926 15.7255 10.0988 15.894 9.8982 16.0178C9.21149 16.4202 8.73229 16.7297 8.34365 17.0989C8.28174 17.1585 8.19805 17.1998 8.19347 17.3259C8.19118 17.4291 7.92865 17.687 7.70051 17.9266C7.47466 18.1662 7.26601 18.3955 7.1892 18.4253C6.83037 18.5869 6.51511 18.8162 6.21474 19.0925C6.16889 19.1315 6.17691 19.2014 6.04622 19.1911C5.73898 19.1693 5.74127 19.3195 5.66561 19.4238C5.54065 19.5625 5.41684 19.7104 5.25863 19.8526C5.17838 19.9225 4.99954 19.9604 4.8528 20.0154C4.71866 20.0635 4.37703 19.9122 4.34722 19.8686C4.26239 19.7437 4.06635 19.762 3.91273 19.7253C3.86114 19.7127 3.7935 19.6955 3.75338 19.6795C3.70981 19.66 3.61237 19.292 3.51836 18.8724C3.42665 18.4505 3.44728 18.0137 3.48741 17.9449C3.50804 17.9323 3.68574 17.4222 3.97922 16.9223C4.25322 16.4122 4.61893 15.9272 4.68657 15.8241C4.7542 15.7129 4.88948 15.6613 5.00871 15.6074C5.03622 15.5948 5.3148 15.252 5.60943 14.9516C5.90063 14.6432 6.17806 14.3612 6.20099 14.3498C6.46466 14.1835 6.63319 13.9359 6.97253 13.968C7.04017 13.9737 7.07571 13.9302 7.11125 13.8969C7.42078 13.6012 7.66268 13.4716 7.78993 13.3558C7.86445 13.2928 7.87935 13.1483 7.93208 12.9844C7.94011 12.9511 7.98367 12.9271 8.00775 12.8972C8.0387 12.8629 8.08226 12.8239 8.09258 12.7688C8.18659 12.2587 8.46288 11.4791 8.81254 10.6766C8.88361 10.46 9.68382 9.89706 9.81795 9.76752C9.89361 9.65288 10.4416 9.74918 10.468 9.63797Z" fill="#231F20"/>
<path fill-rule="evenodd" clip-rule="evenodd" d="M34.8083 77.672C34.9779 77.7007 35.1545 77.7316 35.3138 77.7591C35.3689 77.7672 35.4182 77.7316 35.4686 77.7431C35.6589 77.7901 35.8343 77.8451 35.9765 77.8612C36.0154 77.8692 36.0636 77.8359 36.0361 77.8348C36.0166 77.8245 35.9581 77.7167 36.0796 77.727C36.1267 77.7293 36.4247 77.8015 36.7618 77.9449C37.0851 78.079 37.3934 78.3048 37.3545 78.4275C37.2926 78.5376 37.2868 78.6029 37.1607 78.7462C37.0564 78.8723 36.9498 79.0087 36.85 79.0431C36.6265 79.1715 36.4534 79.1761 36.2757 79.1463C36.0728 79.1004 35.9444 79.2139 35.7908 79.2311C35.628 79.2483 35.4709 79.2449 35.3219 79.246C35.2359 79.2483 35.1384 79.2437 35.0628 79.2552C34.9401 79.2587 34.8037 79.2506 34.7475 79.3091C34.72 79.3286 34.712 79.3721 34.7406 79.4054L34.7567 79.4283L34.6936 79.3733C34.6604 79.3446 34.6627 79.3366 34.6375 79.3194C34.6203 79.3068 34.5996 79.2965 34.5744 79.2885C34.5927 79.2976 34.6088 79.2976 34.6145 79.2976C34.6145 79.2976 34.6397 79.2976 34.6042 79.2942C34.5446 79.2919 34.4712 79.2896 34.3795 79.2862L34.1445 79.2919C33.8934 79.3068 33.6573 79.2575 33.5403 79.0317C33.3535 78.7072 33.5541 78.3117 33.6997 78.1375C33.796 78.0205 33.8739 77.9563 33.953 77.9001C34.0379 77.8394 34.1284 77.7878 34.1949 77.7603C34.4208 77.6537 34.618 77.6307 34.798 77.633L34.8083 77.672Z" fill="#231F20"/>
<path fill-rule="evenodd" clip-rule="evenodd" d="M22.8777 77.6384C24.1032 77.8872 25.3723 77.9904 26.646 78.0385C27.1114 78.042 27.5723 77.9686 28.0389 77.972C29.6771 77.9239 31.3497 77.823 32.9501 77.463C33.5979 77.3048 34.4852 77.0067 34.5379 76.7545C34.6916 76.4542 34.7477 76.0667 34.7787 75.6276C34.797 75.4075 34.8108 75.1793 34.844 74.9225C34.8956 74.6623 34.8933 74.3826 35.1696 73.9653C35.5353 73.6397 35.7302 74.0879 35.9148 74.4158C36.2106 74.6784 36.6267 74.9397 36.6153 75.5898C36.5969 76.1263 36.5591 76.7752 36.2358 77.463C36.1613 77.6327 36.0581 77.8001 35.9457 77.9617C35.8254 78.1337 35.5582 78.3538 35.337 78.5074C34.9988 78.6989 34.7477 78.8066 34.468 78.9167C33.4236 79.3133 32.4171 79.475 31.3807 79.5976C30.1494 79.6974 28.9056 79.9806 27.6502 80.0253C26.2757 80.1067 24.8942 80.0241 23.5243 79.8957C22.6839 79.7731 21.8402 79.6779 21.0136 79.4796C20.3865 79.334 19.7537 79.2159 19.1449 78.9935C18.5305 78.7952 17.9114 78.6266 17.3221 78.363C16.3775 78.0397 15.4592 77.6717 14.534 77.2463C14.3323 77.15 14.142 77.0411 13.9597 76.907C13.289 76.4049 13.1721 76.1194 13.3865 75.6012C13.4346 75.482 13.4736 75.3593 13.5366 75.2527C13.7476 74.895 14.2256 74.8113 14.7438 74.9971C15.1405 75.1243 15.4833 75.3123 15.8673 75.4453C16.2479 75.5806 16.6194 75.7296 16.9828 75.8913C17.3439 76.0575 17.7486 76.1515 18.1223 76.3005C18.4995 76.445 18.8801 76.5849 19.2768 76.6972C19.8569 76.8864 20.4358 77.087 21.0468 77.2131C21.6441 77.3805 22.2586 77.4997 22.8823 77.5845L22.8777 77.6384Z" fill="#231F20"/>
<path fill-rule="evenodd" clip-rule="evenodd" d="M82.0001 88.1634C81.8969 89.272 81.7513 90.376 81.5335 91.4685C81.4452 91.8652 81.4165 92.271 81.3145 92.6654C80.9339 94.0537 80.3951 95.3938 79.7198 96.6503C79.3621 97.1777 79.1099 97.7635 78.7282 98.2656C78.4886 98.5901 78.2834 98.942 78.0174 99.247C77.74 99.5416 77.4442 99.8225 77.1255 100.068C76.9237 100.221 76.777 100.007 76.7311 99.6723C76.6887 99.3364 76.7242 98.8824 76.981 98.5557C77.8569 97.3519 78.4737 96.0347 79.1386 94.6659C79.5203 93.8324 79.6671 92.8797 79.8196 91.9546C79.9892 90.9331 80.1222 89.8968 80.1612 88.8466C80.2048 88.2023 80.2036 87.5512 80.2139 86.9012C80.1921 85.9164 80.1761 84.9201 80.0351 83.9434C79.9399 83.1833 79.6763 82.4611 79.5295 81.7136C79.494 81.5485 79.4435 81.3915 79.4195 81.2241C79.3266 80.6004 79.4263 80.3815 79.8608 80.1854C79.9606 80.1407 80.0569 80.0857 80.1578 80.0547C80.496 79.947 80.8238 80.1602 81.0164 80.5947C81.6309 81.8833 81.8556 83.3415 81.9771 84.8238C82.0757 85.9233 82.0734 87.0445 82.0459 88.1622L82.0001 88.1634Z" fill="#231F20"/>
<path fill-rule="evenodd" clip-rule="evenodd" d="M106.896 94.4777C106.927 94.2736 107.183 94.2277 107.515 94.2449C107.62 94.2507 107.865 94.3917 107.881 94.4628C107.914 94.6015 107.95 94.7436 107.97 94.8789C107.97 94.9546 107.836 96.0735 107.853 96.477C107.872 96.8714 107.697 97.166 107.578 97.4893L107.176 98.4546L106.979 98.9372C106.928 99.0874 106.96 99.0576 106.959 99.1161C106.964 99.147 106.929 99.1677 106.886 99.2032C106.708 99.327 106.803 99.5643 106.961 99.6354C106.982 99.6526 107.003 99.6733 107.072 99.6228C107.135 99.577 107.222 99.5953 107.3 99.5884C107.364 99.5919 107.429 99.5953 107.483 99.5976C107.652 99.6022 107.799 99.6125 107.851 99.6308C108.376 99.8005 108.988 99.9427 109.561 100.23C109.641 100.273 109.744 100.265 109.789 100.39C109.889 100.686 110.072 100.697 110.222 100.817C110.43 100.976 110.62 101.151 110.761 101.368C110.836 101.472 110.845 101.652 110.869 101.796C110.89 101.929 110.656 102.137 110.61 102.146C110.477 102.172 110.445 102.335 110.37 102.441C110.346 102.479 110.313 102.526 110.288 102.551C110.261 102.579 109.94 102.565 109.638 102.64C109.486 102.673 109.342 102.726 109.233 102.775C109.133 102.798 109.062 102.819 109.044 102.811C109.044 102.811 108.765 102.765 108.433 102.782C108.106 102.797 107.673 102.86 107.578 102.883C107.53 102.896 107.48 102.888 107.431 102.872C107.354 102.851 107.254 102.825 107.173 102.803C107.137 102.797 106.52 102.808 105.921 102.589C105.318 102.391 104.814 101.976 104.783 101.943C104.442 101.582 104.065 101.188 104.062 100.645C104.063 100.541 104.013 100.456 103.977 100.367C103.673 99.5838 103.76 98.6484 104.149 97.941C104.25 97.7243 104.305 97.6555 104.367 97.5375L104.55 97.2062C104.573 97.166 104.624 97.1397 104.659 97.1064C104.702 97.064 104.757 97.0273 104.784 96.9757C105.075 96.4541 105.432 95.9657 105.706 95.4372C105.787 95.3226 106.382 94.8961 106.452 94.7562C106.501 94.6829 106.889 94.5614 106.896 94.4777Z" fill="#231F20"/>
<path fill-rule="evenodd" clip-rule="evenodd" d="M93.2959 35.943C92.3903 35.6553 91.4708 35.3801 90.5227 35.1955C90.1765 35.121 89.8234 35.1084 89.4761 35.0454C88.2528 34.7966 87.0021 34.5983 85.7387 34.4893C85.1781 34.4355 84.6107 34.4572 84.0535 34.4802C83.3347 34.5226 82.617 34.6556 81.8913 34.4848C81.4374 34.3781 81.9555 32.6723 82.8027 32.6184C84.2988 32.5393 85.8178 32.5977 87.3288 32.9199C88.231 33.109 89.1837 33.109 90.1112 33.2512C91.1269 33.4358 92.1381 33.6582 93.1286 33.9574C93.7419 34.1236 94.3403 34.346 94.9422 34.5455C95.8467 34.878 96.7249 35.2781 97.5962 35.6667C98.2748 35.9682 98.9512 36.2514 99.6047 36.6022C99.7537 36.6733 99.8867 36.7615 100.019 36.8601C100.5 37.2362 100.589 37.446 100.485 37.8059C100.462 37.8885 100.446 37.9733 100.413 38.0478C100.304 38.292 99.9693 38.3493 99.5462 38.2347C98.9226 38.0593 98.3069 37.8805 97.7211 37.65C97.1021 37.4849 96.5483 37.1926 95.9556 36.9633C95.0924 36.593 94.197 36.2697 93.2856 35.9889L93.2959 35.943Z" fill="#231F20"/>
<path fill-rule="evenodd" clip-rule="evenodd" d="M95.8737 10.4283C95.6398 10.3377 95.5974 10.0683 95.6031 9.70263C95.6054 9.58684 95.7636 9.3438 95.8531 9.34265C96.0239 9.3438 96.2085 9.3415 96.3781 9.36329C96.4767 9.37819 97.9075 9.92389 98.4153 10.1062C98.8911 10.2942 99.2786 10.5877 99.6672 10.88C100.464 11.4658 101.186 12.1376 101.864 12.8862C102.016 13.0479 102.142 13.2405 102.244 13.4491C102.588 14.1886 103.065 14.7515 103.547 15.672C103.617 15.8119 103.651 15.9529 103.794 16.0504C103.916 16.126 104.15 16.7164 104.3 17.1337C104.463 17.5831 104.554 17.7505 104.531 17.7815C104.575 18.1827 104.904 18.6975 105.258 19.3073C105.309 19.3979 105.412 19.4575 105.384 19.6111C105.314 19.9585 105.488 20.1156 105.601 20.33C105.759 20.6234 105.868 20.9433 105.903 21.2643C105.935 21.4202 105.781 21.6369 105.618 21.8352C105.483 22.0118 105.286 22.0026 105.215 21.9842C105.069 21.9097 104.952 22.0519 104.856 22.0932C104.818 22.1092 104.771 22.1298 104.731 22.1379C104.71 22.1424 104.514 22.1115 104.335 22.0473C104.205 21.9648 104.058 21.857 103.901 21.771C103.594 21.5967 103.28 21.4947 103.239 21.442C103.346 21.4867 101.597 20.1339 101.218 19.3842C101.097 19.2179 101.08 19.0173 101.05 18.8442C101.03 18.8018 100.816 18.3375 100.589 17.848C100.491 17.6382 100.4 17.4547 100.332 17.3286C100.267 17.2117 100.222 17.1337 100.215 17.1223C100.18 16.9962 100.127 16.9125 100.096 16.8253C100.033 16.7038 100.011 16.572 100.027 16.3748C100.034 16.298 99.9894 16.2521 99.9527 16.2017C99.6259 15.7741 99.3451 15.2513 99.0126 14.7526C98.8406 14.5004 98.6182 14.2883 98.4153 14.0579C98.3798 14.0166 98.3683 13.9501 98.3419 13.8985C98.3076 13.8355 98.2881 13.7552 98.2411 13.7036C97.7687 13.1465 97.3549 12.5102 96.7989 12.0333C96.6922 11.9038 96.3105 11.1058 96.1511 10.9912C96.0766 10.9155 95.9746 10.4547 95.8737 10.4283Z" fill="#231F20"/>
<path fill-rule="evenodd" clip-rule="evenodd" d="M41.9269 51.442C40.9593 52.4153 39.876 53.3233 38.8236 54.112L38.6321 54.2565C38.5828 54.2966 38.5828 54.2978 38.5519 54.3184C38.5037 54.3402 38.4441 54.4491 38.3845 54.5064C38.2664 54.6474 38.1472 54.8492 38.0406 55.067C37.8159 55.4981 37.6554 56.0518 37.5086 56.6032C37.3172 57.4321 37.2495 58.3171 37.1337 59.2056C36.7634 62.3697 36.7531 65.692 36.9434 68.9834C37.0294 70.4463 37.2289 71.9102 37.4696 73.3444C37.6427 74.2638 37.7849 75.1901 37.9144 76.1142C37.9798 76.5773 38.036 77.0405 38.0795 77.5048L38.138 78.1995C38.1483 78.4322 38.099 78.6741 38.0853 78.9068C38.0406 79.2187 37.9775 79.229 37.7264 79.3643C37.6737 79.4021 37.3538 79.3734 37.0478 79.1659C36.3393 78.8048 35.5001 77.9943 35.2261 76.9155C34.6735 75.0147 34.4523 73.0658 34.2963 71.1089C34.145 69.1508 34.0843 67.1778 34.1794 65.1876C34.2929 62.8134 34.1393 60.3417 34.4798 57.8517C34.6861 56.484 34.9968 55.0991 35.7133 53.7073C35.9174 53.36 36.126 53.0149 36.4264 52.687C36.5456 52.5231 36.7554 52.3557 36.9262 52.2159L37.3183 51.9132C37.8227 51.5211 38.31 51.1279 38.7823 50.7106C39.9356 49.6823 41.0327 48.5737 41.9602 47.3321C43.3898 45.4783 44.5855 43.393 45.255 41.1575C45.7537 39.4149 45.952 37.6357 45.9107 35.8656C45.9084 35.4747 45.8786 35.0941 45.8924 34.7043C45.866 33.9797 45.8546 33.504 46.0174 33.1612C46.2294 32.8161 46.5011 32.6029 46.8382 32.4206C46.9907 32.3381 47.1282 32.2303 47.2555 32.1776C47.4745 32.0881 47.6751 32.1925 47.9491 32.4619C48.2242 32.7324 48.5418 33.1772 48.5957 33.7688C49.1368 37.2654 48.4707 41.1815 46.7923 44.5967C45.5955 47.1567 43.9366 49.4943 41.9785 51.4856L41.9269 51.442Z" fill="#231F20"/>
<mask id="mask0_1134_2983" style="mask-type:luminance" maskUnits="userSpaceOnUse" x="0" y="15" width="11" height="59">
<path fill-rule="evenodd" clip-rule="evenodd" d="M0 15.9074H10.9757V73.5469H0V15.9074Z" fill="white"/>
</mask>
<g mask="url(#mask0_1134_2983)">
<path fill-rule="evenodd" clip-rule="evenodd" d="M2.90379 36.6281C3.36121 39.6214 4.14536 42.625 5.03613 45.6149C5.37088 46.7063 5.77443 47.7713 6.12179 48.865C7.34158 52.7147 8.49144 56.6377 9.46476 60.6273C9.88664 62.3985 10.3246 64.1858 10.6192 65.9914C10.9299 68.3026 11.2635 70.7421 10.555 73.0912C10.3785 73.8214 9.93708 73.6036 9.53239 72.9352C9.12198 72.2554 8.78493 71.2076 8.6508 69.9786C8.5224 67.7981 8.04205 65.6108 7.5617 63.3924C7.09052 61.1741 6.45311 58.9432 5.89136 56.671C5.16453 53.962 4.09836 51.222 3.22478 48.4557C2.2744 45.4085 1.3951 42.3097 0.764563 39.1342L0.482544 37.6656L0.284213 36.1752C0.12486 35.1882 0.0801498 34.1782 0.0308537 33.1716C-0.0814956 31.6377 0.128299 30.0602 0.394269 28.5791C0.667118 27.0818 1.05002 25.6167 1.52235 24.1825C2.25835 21.9608 3.06429 19.7378 4.7266 17.8084C5.0625 17.3705 5.52794 17.0105 5.97161 16.6356C6.46457 16.3628 6.85894 16.1048 7.24872 16.0028C7.64653 15.9157 7.97785 15.9054 8.24038 15.9077C8.7769 15.9741 9.07841 16.2137 9.28133 16.4809C9.37533 16.6058 9.48883 16.7239 9.5301 16.8363C9.60003 17.0277 9.43151 17.2111 9.1472 17.4209C9.00389 17.5298 8.83308 17.6227 8.64163 17.7064C8.45705 17.8463 8.26331 18.0102 8.03861 18.118C6.72252 18.8826 5.69303 20.4326 4.89512 22.1591C4.10524 23.9039 3.50451 25.8357 3.08377 27.7995C2.78112 29.2509 2.55871 30.7573 2.54266 32.1444C2.55069 32.8598 2.62864 33.6245 2.66533 34.3627C2.72036 35.1102 2.86939 35.8634 2.96684 36.6132L2.90379 36.6281Z" fill="#231F20"/>
</g>
<path fill-rule="evenodd" clip-rule="evenodd" d="M11.9933 14.8965C11.3502 16.1346 10.8148 17.5023 10.3838 18.8906C10.2336 19.4031 10.1602 19.9316 10.0261 20.4486C9.52051 22.2657 9.11238 24.1458 8.86934 26.0603C8.76043 26.9098 8.73865 27.7731 8.74438 28.626C8.78336 29.722 8.81775 30.8214 8.53458 31.922C8.44402 32.2636 7.96367 32.2189 7.45924 31.9266C6.96169 31.6354 6.39995 31.092 6.32084 30.4454C6.14315 28.1606 6.35524 25.8391 6.89062 23.5439C7.2311 22.1797 7.30218 20.7157 7.6633 19.3159C8.04392 17.7774 8.58388 16.2768 9.19378 14.8082C9.60076 13.9094 10.0341 13.0221 10.5603 12.1669C11.3582 10.8794 12.4083 9.6688 13.7772 8.80784C14.8342 8.14177 16.0838 7.71186 17.276 7.59148C17.5455 7.56741 17.7782 7.54563 18.035 7.54907C18.9475 7.59034 19.0599 7.73593 19.3408 8.33551C19.4015 8.46964 19.4829 8.59575 19.5345 8.72071C19.6228 8.93624 19.5976 9.14488 19.4279 9.36614C19.2467 9.60116 18.9521 9.75019 18.5853 9.85681C18.074 9.99668 17.581 10.1102 17.1729 10.2432C16.7464 10.328 16.3807 10.4415 16.0322 10.555C15.3535 10.7992 14.7791 11.1511 14.2197 11.7048C13.3817 12.489 12.6399 13.6538 12.0541 14.9206L11.9933 14.8965Z" fill="#231F20"/>
<path fill-rule="evenodd" clip-rule="evenodd" d="M20.938 10.1238L20.6032 10.6053L20.3189 11.1396C20.1343 11.4984 19.9223 11.84 19.756 12.2172C19.4408 12.9819 19.0945 13.7351 18.816 14.5421C18.5913 15.1176 18.4846 15.7321 18.3104 16.3351C17.6443 18.4457 17.1812 20.6652 16.8269 22.9145C16.6802 23.9153 16.6332 24.9322 16.6091 25.9353C16.6206 27.2319 16.6068 28.5159 16.2835 29.8515C16.178 30.2699 15.7906 30.177 15.3652 29.8216C14.9525 29.472 14.4206 28.8483 14.3014 28.0928C14.0801 26.755 14.1454 25.393 14.1638 24.0334C14.236 22.6726 14.3472 21.3014 14.6843 19.9498C15.0557 18.3379 15.2059 16.616 15.614 14.9526C16.107 13.1343 16.7329 11.3299 17.728 9.66297C17.9791 9.13218 18.3631 8.65297 18.691 8.15772C19.0017 7.651 19.4224 7.20848 19.8225 6.75794C20.116 6.40828 20.429 6.07697 20.8073 5.80068C21.1787 5.51063 21.4951 5.22059 21.9102 4.93628C22.8342 4.38026 23.7192 4.18193 24.6363 4.00997C26.0407 3.77495 27.5368 3.69356 29.0363 4.24728C29.3493 4.39631 29.7001 4.48229 29.958 4.74482C30.4751 5.16097 30.7009 5.55764 30.7926 5.86144C30.8293 6.21454 30.7594 6.46675 30.6207 6.71438C30.5576 6.82902 30.5083 6.9471 30.4407 7.02964C30.3249 7.1695 30.1392 7.19129 29.8755 7.17868C29.6152 7.15919 29.269 7.13053 28.9778 7.02047C28.0389 6.80265 27.3281 6.60203 26.4236 6.62495C25.5626 6.63986 24.5676 6.8187 23.8407 7.1546C23.5656 7.28988 23.5151 7.31395 23.1861 7.6189C22.9236 7.86653 22.629 8.0683 22.3756 8.33542L21.6476 9.19294C21.3988 9.4761 21.2223 9.84181 21.0033 10.1605L20.938 10.1238Z" fill="#231F20"/>
<path fill-rule="evenodd" clip-rule="evenodd" d="M35.4251 11.7169C35.8733 10.8972 36.3193 10.081 36.8879 9.31171C37.139 8.91734 37.4646 8.54934 37.781 8.18248L38.2453 7.65054L38.5422 7.39604C38.6098 7.36279 38.6683 7.30776 38.6431 7.22981C38.6408 7.19427 38.635 7.15758 38.627 7.11975C38.6179 7.08077 38.6213 7.06816 38.5445 6.90537C38.3175 6.39177 37.985 5.93664 37.5597 5.59386C36.8982 5.086 36.0166 4.86933 35.0353 4.82805C34.6444 4.73978 33.8086 5.17198 33.1253 5.75436C32.4157 6.33789 31.7565 7.08192 31.1466 7.86378C29.9303 9.4424 28.91 11.2285 28.0639 13.0915C27.3164 14.7492 26.7616 16.5066 26.3683 18.2664C25.8605 20.5363 25.6793 22.8429 25.3927 25.1403C25.301 25.8546 24.7439 25.7766 24.2039 25.1335C23.6536 24.4949 23.1641 23.2522 23.3062 21.818C23.5653 19.289 24.1317 16.8047 24.9835 14.4179C25.8307 12.031 26.9416 9.72557 28.4193 7.61386C29.3135 6.35623 30.2455 5.08371 31.4722 3.92926C32.0947 3.36293 32.7906 2.80577 33.7536 2.43547C34.0024 2.35178 34.2603 2.27153 34.5492 2.236C34.6925 2.22109 34.8496 2.2039 34.9826 2.19931L35.3116 2.21192L35.9696 2.24402L36.6357 2.35866C38.0011 2.60858 39.355 3.4042 40.2412 4.52998C40.4659 4.80971 40.6573 5.10778 40.8339 5.41502L41.0689 5.88964L41.3154 6.52705C41.4335 6.96384 41.5825 7.41897 41.5149 7.842C41.508 7.94861 41.4541 8.04262 41.4197 8.14351L41.3865 8.21688L41.3853 8.21917C41.367 8.21344 41.5343 8.26847 41.4633 8.24668L41.4598 8.25127L41.4541 8.25815L41.4415 8.2742L41.4163 8.3063L41.3165 8.43355L40.9187 8.93912C40.702 9.15121 40.4418 9.38508 40.2618 9.57768L39.8376 10.0936C39.5373 10.4214 39.2942 10.8101 39.0455 11.193C38.0297 12.7785 37.28 14.5875 36.7584 16.4551C36.0086 19.2947 35.6693 22.3053 35.9662 25.2298C36.2092 27.5077 36.9487 29.6389 37.8039 31.6784C37.9976 32.1278 38.2441 32.5394 38.4379 32.991C39.214 34.6304 39.2816 35.2678 38.9572 35.9557C38.8838 36.1116 38.8299 36.2927 38.7451 36.4143C38.4723 36.8167 37.7087 36.3707 36.6678 35.238C33.8969 31.6784 32.7161 26.7614 32.8284 22.0141C32.833 21.1279 32.9385 20.2417 33.0313 19.3589C33.2045 18.4854 33.3076 17.6015 33.5541 16.7428C33.9531 15.0071 34.6031 13.3253 35.3563 11.6905L35.4251 11.7169Z" fill="#231F20"/>
<path fill-rule="evenodd" clip-rule="evenodd" d="M62.0632 37.3335C61.2217 36.3292 60.3538 35.1965 59.8311 33.8472C59.8265 33.799 59.815 33.7486 59.8242 33.689C59.8551 33.5996 59.7543 33.6362 59.7164 33.6041L59.6236 33.5824C59.5823 33.5755 59.6064 33.5709 59.4023 33.556L58.4783 33.4964C57.6173 33.4459 56.7449 33.5033 55.8771 33.4666C52.8047 33.3439 49.7082 33.2935 46.6289 33.4242C45.2612 33.478 43.8981 33.6489 42.5648 33.8552C41.713 33.9985 40.8658 34.1877 40.0289 34.3482C39.1875 34.4892 38.3471 34.6107 37.5274 34.7288C37.0116 34.7861 36.8602 34.2725 37.1331 33.5961C37.4036 32.9094 38.1465 32.0576 39.1806 31.7504C41.0149 31.2528 42.848 31.0866 44.6754 30.9273C46.5051 30.7851 48.3336 30.7587 50.169 30.8298C52.3633 30.9181 54.6275 30.714 56.8722 30.753C57.4683 30.7656 58.0656 30.7839 58.6663 30.816L59.5708 30.8676C59.9377 30.8894 60.4926 30.925 60.9339 30.9743L61.3799 31.3468L61.6 31.5314L61.7032 31.7481C61.8121 32.0095 62.0632 32.3763 62.2684 32.7099C62.4552 33.0413 62.5275 33.2465 62.6788 33.525C62.8473 33.7853 62.9975 34.0535 63.1798 34.3115C63.9731 35.4464 64.9762 36.5 66.0665 37.4366C67.7162 38.8616 69.5699 40.1158 71.5704 40.986C72.3339 41.3562 73.1582 41.5557 73.9527 41.7988C74.7735 41.9581 75.5726 42.1702 76.3969 42.2596C76.758 42.3066 77.1157 42.3261 77.4734 42.388C78.8112 42.5554 79.2113 42.7595 79.4418 43.5654C79.4933 43.7454 79.5702 43.9288 79.5965 44.1065C79.6894 44.7084 79.0589 45.1188 77.9354 45.1509C74.6084 45.2208 71.16 44.0801 68.122 42.3341C65.8544 41.0318 63.7954 39.3787 62.0139 37.3828L62.0632 37.3335Z" fill="#231F20"/>
<path fill-rule="evenodd" clip-rule="evenodd" d="M62.436 2.5445L67.0457 1.52992L69.3512 1.00027C70.1491 0.84321 70.9619 0.635708 71.7747 0.527945C72.9578 0.329614 74.1398 0.125551 75.3378 0.0579118C77.4461 -0.0762195 79.5692 0.0269584 81.6637 0.322735C83.7594 0.60934 85.8379 1.12867 87.8005 1.969C88.6913 2.28312 89.5144 2.78066 90.3731 3.1842C91.1641 3.715 92.0274 4.14261 92.7405 4.78002C93.7264 5.50571 94.5988 6.39074 95.3933 7.33539C95.7498 7.83867 96.0616 8.37635 96.37 8.9037C96.628 9.45971 96.8309 10.0444 96.965 10.644C97.1347 11.3949 96.7266 11.427 95.9539 11.13C95.1342 10.8457 94.1127 10.2439 93.3011 9.40812C90.8294 6.09611 86.9522 4.0188 82.5694 3.00192C79.943 2.35993 77.0563 2.50208 74.2911 2.78754C72.7526 2.92511 71.2646 3.21745 69.7375 3.56023L65.0693 4.62755L59.3028 5.86912C56.3886 6.48246 53.4388 7.00523 50.5292 7.53831C48.2628 7.93153 46.0525 8.4073 43.7951 8.73862C43.2999 8.81772 42.815 8.90026 42.3117 8.95758C41.3796 9.07337 40.7583 9.07796 40.3123 8.9828C39.8698 8.91631 39.6027 8.73059 39.3803 8.49787C39.2794 8.39583 39.1498 8.30871 39.0902 8.22731C38.8908 8.00032 39.6004 7.4145 40.9245 7.09121C42.9055 6.64754 44.9141 6.19929 46.949 5.74531C48.9873 5.27757 51.0497 4.82473 53.135 4.44183C56.2224 3.82964 59.328 3.19911 62.4165 2.48145L62.436 2.5445Z" fill="#231F20"/>
<path fill-rule="evenodd" clip-rule="evenodd" d="M95.4902 13.0223C94.3965 12.3929 93.2352 11.8174 92.0005 11.3783C91.5465 11.2006 91.112 11.1135 90.6581 10.9851C89.068 10.522 87.3667 10.1941 85.6597 9.97397C84.903 9.86277 84.1338 9.81118 83.3748 9.78596C82.3958 9.80889 81.4225 9.68163 80.4434 9.42369C80.1385 9.34 80.1786 9.14281 80.44 8.87685C80.7002 8.61775 81.1863 8.21307 81.7664 8.07664C82.28 7.92875 82.7913 7.92188 83.3026 7.93105C83.8139 7.9299 84.3264 7.94251 84.8388 7.97346C85.8649 8.009 86.884 8.22568 87.8998 8.46069C89.1127 8.76794 90.4036 8.86423 91.6703 9.23453C93.0392 9.66214 94.3358 10.1689 95.6049 10.8212C96.3833 11.2121 97.1388 11.6626 97.8587 12.1705C98.949 12.9386 99.9475 13.8649 100.795 14.9334C101.452 15.7577 102.091 16.6461 102.505 17.6905C102.593 17.9187 102.707 18.1411 102.759 18.3841C102.973 19.2852 102.788 19.5982 102.082 19.7839C101.92 19.8275 101.759 19.8802 101.595 19.9031C101.025 19.9731 100.596 19.6647 100.418 19.1923C99.9017 17.7845 99.3594 16.5315 98.3379 15.3106C97.5836 14.4186 96.5553 13.7044 95.4684 13.0682L95.4902 13.0223Z" fill="#231F20"/>
<path fill-rule="evenodd" clip-rule="evenodd" d="M103.438 22.3213C102.479 21.4683 101.296 20.7541 100.038 20.1729C99.5767 19.9574 99.0986 19.7946 98.6263 19.6043C96.9537 18.9244 95.2008 18.318 93.4204 17.8296C92.6305 17.6129 91.8189 17.465 91.0164 17.3389C89.9823 17.1876 88.9505 17.0397 87.9428 16.7233C87.6287 16.6213 87.7055 16.2945 88.0231 15.9781C88.3406 15.6629 88.9115 15.3316 89.5352 15.3579C90.6415 15.3843 91.7214 15.5769 92.7922 15.8153C93.8618 16.0515 94.9222 16.3496 95.9643 16.729C97.2105 17.1784 98.5575 17.4673 99.845 17.9569C101.24 18.5392 102.628 19.1617 103.901 20.0525C104.297 20.3128 104.661 20.6338 105.039 20.9227C105.389 21.2574 105.75 21.5796 106.069 21.9476C107.062 23.047 107.712 24.4811 107.969 25.9325C108.173 27.0594 108.26 28.1933 108.174 29.3076C108.153 29.5518 108.167 29.8017 108.088 30.0333C107.878 30.9149 107.54 31.104 106.997 31.143C106.874 31.151 106.751 31.1728 106.64 31.1659C106.452 31.1522 106.308 31.0398 106.185 30.8472C106.061 30.6546 105.94 30.3749 105.94 30.0677C105.84 29.1322 105.954 28.2907 105.908 27.4733C105.882 26.6605 105.778 25.9027 105.528 25.1931C105.135 24.1556 104.409 23.18 103.407 22.3637L103.438 22.3213Z" fill="#231F20"/>
<path fill-rule="evenodd" clip-rule="evenodd" d="M108.203 80.8369C108.294 77.6671 107.996 74.4605 107.518 71.2735C107.348 70.1099 107.071 68.9623 106.86 67.801C106.485 65.75 106.031 63.7151 105.604 61.6275C105.172 59.5272 104.879 57.4155 104.65 55.297C104.453 53.4168 104.266 51.5218 104.208 49.6268C104.158 48.4115 104.205 47.178 104.356 45.9399C104.483 44.7029 104.915 43.4407 105.694 42.3745C106.203 41.7119 106.356 42.0363 106.408 42.754C106.413 43.0967 106.485 43.5805 106.537 44.0987C106.548 44.3486 106.633 44.6559 106.63 44.9367C106.615 45.213 106.607 45.5145 106.579 45.831C106.227 50.3054 106.73 55.1594 107.4 59.9033C107.847 62.7281 108.773 65.7099 109.32 68.6837C109.941 71.9613 110.356 75.294 110.479 78.6473C110.527 80.7143 110.48 82.7858 110.259 84.8471C109.985 87.9768 109.131 91.0733 107.896 93.952C107.643 94.508 107.424 95.0789 107.159 95.6246L106.257 97.2113C105.72 98.3187 104.881 99.2164 104.153 100.21C103.846 100.638 103.454 101.087 102.986 101.462C102.128 102.165 101.287 102.476 100.616 102.44C99.9307 102.374 99.5558 102.011 99.4687 101.632C99.4205 101.461 99.3896 101.266 99.4228 101.14C99.4836 100.911 99.7415 100.866 99.9708 100.74C100.201 100.613 100.374 100.441 100.807 100.195C101.46 99.7655 102.055 99.1281 102.64 98.2625C103.235 97.4543 103.893 96.6942 104.351 95.7794L105.13 94.4725L105.754 93.0681C105.946 92.5912 106.214 92.1487 106.353 91.6465L106.826 90.1619C107.702 87.195 108.114 84.0332 108.146 80.8415L108.203 80.8369Z" fill="url(#paint0_radial_1134_2983)"/>
<path fill-rule="evenodd" clip-rule="evenodd" d="M98.8892 98.1755C99.694 97.0566 100.376 95.8586 100.886 94.5666C101.061 94.0908 101.185 93.599 101.326 93.1095C101.857 91.3921 102.169 89.5693 102.338 87.719C102.416 86.8982 102.417 86.0647 102.403 85.2404C102.414 84.1823 102.398 83.115 102.66 82.0511C102.739 81.7198 102.98 81.7668 103.273 82.0488C103.547 82.332 103.99 82.8479 104.058 83.4623C104.12 84.0057 104.197 84.5526 104.226 85.1006C104.215 85.6497 104.198 86.1988 104.163 86.7514C104.091 87.8577 103.964 88.972 103.731 90.0806C103.452 91.4036 103.304 92.8103 102.899 94.1527C102.459 95.6247 101.818 97.0486 101.032 98.3578C100.549 99.1626 100.01 99.9444 99.3925 100.675C98.449 101.779 97.2636 102.707 95.9544 103.355C94.9467 103.867 93.9023 104.302 92.8051 104.559C92.5632 104.625 92.3282 104.687 92.0829 104.719C91.1681 104.867 90.8688 104.608 90.6774 104.091C90.6338 103.967 90.5776 103.845 90.5536 103.722C90.4733 103.31 90.8161 102.935 91.3985 102.747C93.125 102.28 94.7667 101.868 96.1435 100.922C97.1696 100.24 98.0775 99.2852 98.8468 98.1514L98.8892 98.1755Z" fill="url(#paint1_radial_1134_2983)"/>
<path fill-rule="evenodd" clip-rule="evenodd" d="M91.1268 101.493C91.5946 100.962 92.0187 100.352 92.4051 99.7112C92.7674 99.0726 93.2271 98.3504 93.4048 97.8001C93.5802 97.298 93.6902 96.7466 93.8438 96.21C94.3895 94.3058 94.8848 92.3592 95.2826 90.3988C95.4649 89.5287 95.5532 88.6402 95.6495 87.7666C95.7618 86.642 95.8077 85.5185 96.1516 84.4088C96.2536 84.0603 96.4852 84.1118 96.7718 84.4237C97.0332 84.7344 97.4941 85.3271 97.5353 86.0057C97.5881 88.4063 97.1375 90.7473 96.499 93.0459C96.0908 94.417 95.873 95.8764 95.466 97.2945C95.3537 97.6855 95.2367 98.0707 95.0912 98.4754C95.0281 98.6634 94.9272 98.9076 94.8229 99.1242L94.5374 99.655C94.1545 100.366 93.7372 101.066 93.281 101.755C92.7238 102.602 92.0726 103.419 91.2873 104.113C90.1271 105.209 88.5909 105.87 87.0788 106.216C85.898 106.496 84.7092 106.684 83.5134 106.691C83.2509 106.692 82.9907 106.704 82.7258 106.688C82.2421 106.63 81.9302 106.551 81.7319 106.389C81.537 106.206 81.4579 105.945 81.4121 105.666C81.3903 105.542 81.3524 105.434 81.3433 105.348C81.3284 105.198 81.427 105.086 81.6356 104.871C81.8477 104.643 82.1263 104.508 82.4519 104.508C83.4103 104.457 84.3446 104.408 85.2892 104.359C86.2007 104.256 87.0857 104.116 87.9054 103.821C89.1034 103.359 90.1994 102.594 91.0878 101.465L91.1268 101.493Z" fill="url(#paint2_radial_1134_2983)"/>
<path fill-rule="evenodd" clip-rule="evenodd" d="M81.3727 107.023C80.0853 107.522 78.6179 107.898 77.0049 107.458C76.2092 107.269 75.4411 106.771 74.8863 106.166C74.6111 105.853 74.3646 105.528 74.203 105.18C74.0127 104.894 73.8384 104.337 73.6745 103.849C73.608 103.444 73.6114 102.999 73.8212 102.622C73.929 102.436 74.0391 102.248 74.1835 102.08C74.3096 101.924 74.4965 101.696 74.5618 101.632C75.2967 100.842 75.8905 100.092 76.5107 99.3227C78.697 96.647 80.1105 93.3384 80.7112 89.8304C80.9852 88.2747 81.038 86.672 80.9978 85.0968C80.9818 84.0833 80.8947 83.0688 80.811 82.0542C80.7479 81.0373 80.7365 80.0078 80.6952 78.9737C80.6883 78.3272 80.9577 78.3593 81.3807 78.8431C81.7969 79.3257 82.4504 80.26 82.7736 81.4638C83.5773 85.7434 83.2746 90.3566 81.6318 94.5571C80.6459 97.0448 79.3825 99.5967 77.6021 101.684C77.2169 102.137 76.8123 102.574 76.4305 102.987L76.0935 103.357C76.0132 103.434 75.9834 103.545 76.0373 103.644C76.0694 103.731 76.0579 103.778 76.1278 103.9L76.3525 104.325L76.638 104.681L76.9796 104.959C77.4726 105.28 78.1513 105.388 78.8701 105.306C80.3421 105.122 81.9024 104.31 82.9032 103.132C84.5506 101.223 85.7016 98.7988 86.5167 96.3363C87.1415 94.4069 87.4831 92.4316 87.7778 90.446C87.8431 90.0081 87.8798 89.5747 87.9727 89.1379C88.2352 87.51 88.7121 87.048 89.1925 86.7534C89.3083 86.6869 89.4206 86.594 89.5169 86.5585C89.682 86.5012 89.8012 86.649 89.9285 86.9781C90.0488 87.3048 90.2174 87.8195 90.2288 88.4547C90.2518 90.3371 89.925 92.2344 89.5043 94.1489C89.0641 96.06 88.4656 97.9803 87.6436 99.8535C87.0326 101.244 86.2851 102.608 85.3325 103.887L84.5735 104.822C84.2674 105.152 83.9407 105.474 83.6002 105.743C82.9181 106.286 82.1867 106.729 81.4002 107.076L81.3727 107.023Z" fill="url(#paint3_radial_1134_2983)"/>
<path fill-rule="evenodd" clip-rule="evenodd" d="M76.375 60.9627C77.2038 60.1442 78.0877 59.3898 78.9154 58.6997C79.3259 58.3546 79.7283 58.0153 80.0378 57.7046C80.3611 57.3778 80.4929 57.1646 80.5021 57.0935C80.5583 56.7255 80.5984 56.2773 80.6328 55.8462C80.713 54.9119 80.6913 53.9581 80.7589 53.01C80.9744 49.6624 81.1349 46.2931 81.12 42.9306C81.1223 41.4391 81.0065 39.9454 80.9102 38.4745C80.7635 36.5829 80.462 34.7188 80.3427 32.8628C80.3049 32.2815 80.6374 32.2517 81.1315 32.6553C81.6382 33.0554 82.3306 33.9209 82.5347 35.0444C83.3303 38.9938 83.4381 42.9398 83.234 46.9053C83.1079 49.2761 83.2329 51.7352 83.1492 54.1644C83.101 55.2249 83.0552 56.2268 82.9451 57.3606C82.8672 58.0302 82.5186 58.6057 82.216 58.9714C81.903 59.3589 81.5832 59.6741 81.2713 59.9596L79.46 61.5703C78.2826 62.6296 77.2268 63.776 76.328 65.0508C74.9752 66.9791 73.9537 69.178 73.3908 71.4857C72.9541 73.281 72.8578 75.1095 72.8188 76.9335C72.8039 77.3336 72.8291 77.7303 72.8245 78.135C72.7775 79.6345 72.625 80.1102 71.8443 80.4347C71.6712 80.5092 71.497 80.6089 71.3227 80.6525C70.7346 80.805 70.26 80.1641 70.1063 78.989C69.916 77.2453 69.9241 75.4248 70.1568 73.5814C70.401 71.7402 70.8962 69.8876 71.6047 68.0957C72.6583 65.4303 74.3252 62.9517 76.3257 60.9214L76.375 60.9627Z" fill="url(#paint4_radial_1134_2983)"/>
<path fill-rule="evenodd" clip-rule="evenodd" d="M53.9363 75.6534C54.3524 76.1658 54.7605 76.684 55.1411 77.2137L55.7006 78.0024C55.8141 78.164 55.7854 78.1251 55.8038 78.164C55.8152 78.1881 55.829 78.211 55.8542 78.2191C55.8817 78.2328 55.8863 78.2443 55.9413 78.2546L56.2944 78.3257L57.1737 78.4587C57.7664 78.5458 58.3867 78.6054 58.9931 78.6776C59.8908 78.7625 60.7907 78.7808 61.6918 78.8553C64.8651 79.1339 68.0579 79.3666 71.2495 79.4515C72.6642 79.4744 74.0869 79.4583 75.4844 79.385C76.3797 79.3277 77.2774 79.2566 78.1624 79.1694L79.4888 79.0949C79.9382 79.0846 80.367 79.056 80.7889 79.0135C81.3231 78.9803 81.3908 79.3311 81.0136 79.8332C80.6353 80.3503 79.7777 80.9968 78.7058 81.2342C76.8028 81.5425 74.9318 81.6388 73.0505 81.7076C71.1716 81.7283 69.2949 81.6343 67.417 81.4634C65.1723 81.2559 62.8336 81.3041 60.5339 81.1528C59.2671 81.0599 58.0083 80.9647 56.7243 80.8042C56.4011 80.763 56.0881 80.732 55.7419 80.6655C55.5997 80.63 55.3383 80.6197 55.1079 80.5337C54.8832 80.4431 54.639 80.3847 54.4338 80.2643C54.2618 80.0935 54.0796 79.9307 53.9363 79.73L53.621 79.3116L53.0615 78.5813C52.1375 77.3982 51.1275 76.2919 50.0132 75.3014C48.3371 73.7985 46.4444 72.4847 44.3579 71.6833C43.5657 71.3245 42.7036 71.1949 41.8839 70.9932C41.031 70.9209 40.2067 70.7398 39.3561 70.7731C38.9835 70.7673 38.6201 70.7868 38.2498 70.7662C36.8718 70.8178 36.4293 70.5977 36.0727 69.9339C35.9925 69.7814 35.8858 69.6312 35.832 69.4799C35.6462 68.9766 36.224 68.5123 37.3728 68.2727C39.0695 67.9976 40.8728 68.1145 42.6601 68.4493C44.4244 68.8746 46.1887 69.4959 47.7834 70.4223C50.1909 71.7372 52.2407 73.5852 53.9821 75.6075L53.9363 75.6534Z" fill="#231F20"/>
<path fill-rule="evenodd" clip-rule="evenodd" d="M2.07755 75.5807C2.01909 74.4652 2.07411 73.2764 2.52351 72.0543C3.00157 70.8322 3.78457 69.6801 5.55121 68.9613L5.9857 68.8558C6.1313 68.8627 6.28148 68.8214 6.42937 68.8214C6.72973 68.857 7.02092 68.9292 7.2846 69.0782C7.5563 69.202 7.79246 69.4164 8.03207 69.6124C8.23384 69.8131 8.54108 70.1111 8.61903 70.2109C9.11314 70.7715 9.54076 71.2759 10.0039 71.7608C10.7961 72.6023 11.6926 73.3039 12.6109 73.9803C15.8541 76.3924 19.9159 77.7509 24.0682 78.4422C25.9139 78.762 27.8078 78.9042 29.6799 78.9214C32.0851 78.9386 34.4984 78.8606 36.9288 78.903C37.6866 78.9317 37.6258 79.3375 37.017 79.8133C36.4083 80.2776 35.2481 80.8875 33.8185 81.0239C31.2941 81.3082 28.7341 81.3254 26.1719 81.1099C23.6073 80.9139 21.0394 80.3991 18.5665 79.5267C15.6305 78.488 12.5341 77.2293 10.0073 75.1325C9.12346 74.4068 8.30033 73.5951 7.5563 72.7662L6.62197 71.7207C6.49701 71.5648 6.27346 71.3917 6.07169 71.535C5.95819 71.5774 5.85157 71.637 5.74954 71.7207C5.59592 71.8342 5.44115 72.0004 5.31619 72.1713C5.0594 72.5186 4.87711 72.9588 4.7705 73.4507C4.58019 74.2933 4.61229 75.2597 4.74642 76.209C4.87482 77.1089 5.20728 77.9423 5.72891 78.7311C6.51994 79.9153 7.61018 80.9666 8.82654 81.8642C10.036 82.7722 11.3647 83.5518 12.7416 84.2121C14.8865 85.2405 17.1484 85.9146 19.4172 86.5004C19.9182 86.6311 20.4157 86.7228 20.9178 86.8454C22.7865 87.3029 23.2818 87.5482 23.5959 88.2716C23.6819 88.431 23.769 88.596 23.8504 88.7485C23.9077 88.8815 23.9077 89.0065 23.8183 89.1234C23.722 89.2449 23.5477 89.3469 23.3391 89.4215C22.9115 89.5716 22.2878 89.6198 21.5312 89.5372C17.0899 88.9549 12.6395 87.4095 8.49407 84.8587C6.96933 83.8808 5.49962 82.7195 4.24888 81.1982C3.63095 80.4301 3.07494 79.5691 2.66681 78.5924C2.47192 78.096 2.30913 77.5869 2.2071 77.0481C2.10163 76.5357 2.05233 76.0897 2.01221 75.591L2.07755 75.5807Z" fill="#231F20"/>
<path fill-rule="evenodd" clip-rule="evenodd" d="M8.20594 88.9056C9.12308 89.7482 10.3624 90.4498 11.706 91.0506C12.2058 91.2718 12.7228 91.4197 13.1929 91.61C14.9137 92.3013 16.7938 92.8298 18.6636 93.3468C19.4982 93.5669 20.3546 93.7057 21.2018 93.8283C22.2932 93.9762 23.4029 94.0232 24.4519 94.4749C24.7798 94.6125 24.672 95.0493 24.3166 95.4792C23.9624 95.8976 23.3456 96.3814 22.7001 96.347C20.4291 96.1303 18.1557 95.8002 15.9454 95.0046C14.6293 94.515 13.194 94.2892 11.7965 93.7527C10.3463 93.1737 8.87316 92.5214 7.48714 91.5791C6.6491 90.9886 5.83514 90.2939 5.21951 89.4192C4.23359 88.1192 3.83349 86.521 3.61338 85.0387C3.45861 83.8762 3.28435 82.7264 3.29353 81.5765C3.29467 81.3243 3.25455 81.0664 3.28435 80.8164C3.39097 79.8856 3.63172 79.6173 4.31843 79.5439C4.47663 79.5267 4.63484 79.4969 4.78846 79.4992C5.30664 79.5095 5.67694 79.9429 5.75833 80.5849C5.96927 82.4799 5.93488 84.36 6.39345 85.9318C6.74081 87.0862 7.27963 88.0584 8.24492 88.854L8.20594 88.9056Z" fill="#231F20"/>
<path fill-rule="evenodd" clip-rule="evenodd" d="M12.9445 97.1689C14.0359 97.788 15.2729 98.2764 16.55 98.7223C17.0085 98.8737 17.5382 98.9677 17.9555 99.0869C19.5318 99.534 21.3454 99.7106 23.1304 99.8951C23.9295 99.9662 24.7377 99.9685 25.5391 99.9696C26.564 99.9834 27.629 99.863 28.6562 100.295C28.976 100.419 28.8809 100.773 28.5748 101.158C28.2675 101.514 27.7608 102.065 27.1968 102.066C25.1791 102.133 23.08 102.297 20.927 101.933C19.651 101.713 18.2627 101.756 16.8824 101.418C15.4689 101.068 14.0576 100.613 12.698 99.98C11.8565 99.6062 11.046 99.1316 10.2653 98.6077C9.08791 97.7983 8.04352 96.6886 7.36369 95.3587C6.80653 94.3442 6.43509 93.1977 6.37892 92.0341C6.37433 91.7808 6.34567 91.5274 6.35828 91.2683C6.48668 90.3374 6.75838 90.0863 7.45082 90.0783C7.61017 90.0772 7.77067 90.0657 7.92544 90.084C8.44592 90.154 8.80704 90.585 8.87009 91.1261C9.10052 92.7793 9.40432 93.9521 10.2561 95.024C10.9016 95.8104 11.8508 96.5407 12.9708 97.1082L12.9445 97.1689Z" fill="#231F20"/>
<path fill-rule="evenodd" clip-rule="evenodd" d="M37.0872 105.07C38.5386 104.79 39.9624 104.41 41.4424 104.032C42.9569 103.64 44.4518 103.316 45.9571 103.007C47.053 102.778 48.1398 102.511 49.2404 102.314C53.1279 101.659 57.0452 101.19 60.9855 100.949C62.7361 100.867 64.4958 100.752 66.2487 100.76C66.8139 100.772 67.3779 100.759 67.9443 100.786L69.6479 100.947C70.784 101.104 71.9166 101.397 72.9645 101.939C73.6248 102.253 73.3668 102.551 72.6813 102.779C72.3385 102.894 71.8937 102.997 71.4065 103.06C70.8871 103.187 70.3265 103.241 69.7464 103.151C67.6313 102.991 65.4565 102.972 63.2588 103.022C61.0577 103.097 58.8371 103.256 56.5936 103.419C53.9098 103.632 51.1641 104.245 48.4654 104.798C46.9797 105.096 45.4996 105.427 44.0288 105.778C42.5636 106.118 41.1272 106.561 39.607 106.948C37.7578 107.416 35.8823 107.829 33.9712 108.079C31.0834 108.477 28.0866 108.453 25.1919 107.862C22.9507 107.385 20.7518 106.575 18.8373 105.228C18.3902 104.961 18.005 104.641 17.6164 104.296C16.8609 103.687 16.5479 103.115 16.3668 102.698C16.2796 102.486 16.2349 102.3 16.2303 102.123C16.2418 101.933 16.2923 101.753 16.3473 101.588C16.3989 101.436 16.4218 101.273 16.4745 101.172C16.5983 100.875 17.6072 101.011 18.5003 101.825C19.9528 102.926 21.4213 103.935 23.0928 104.613C24.7483 105.309 26.563 105.707 28.4489 105.819C31.2496 105.997 34.1741 105.657 37.07 105.011L37.0872 105.07Z" fill="#231F20"/>
<path fill-rule="evenodd" clip-rule="evenodd" d="M106.876 23.0871C107.032 23.2671 106.911 23.4998 106.646 23.7727C106.561 23.8586 106.251 23.9618 106.184 23.916C106.054 23.8277 105.926 23.7348 105.819 23.6339C105.751 23.5755 105.148 22.4302 104.944 22.0324C104.737 21.6506 104.595 21.2505 104.475 20.8459C104.244 20.0204 103.955 19.203 103.819 18.3719C103.783 18.1873 103.77 17.9993 103.779 17.809C103.805 17.1578 103.71 16.5319 103.566 15.9208C103.543 15.8188 103.537 15.711 103.45 15.6228C103.31 15.4737 103.006 13.8217 103.008 13.6051C103.029 13.0548 103.028 12.5068 103.031 11.9531C103.031 11.8751 102.989 11.8006 103.054 11.7123C103.204 11.5082 103.138 11.3535 103.117 11.1861C103.078 10.9568 103.078 10.7172 103.096 10.4707C103.106 10.3492 103.176 10.2128 103.272 10.0661C103.349 9.93536 103.489 9.95485 103.533 9.97892C103.629 10.0638 103.701 9.95255 103.766 9.92504C103.79 9.91358 103.821 9.90097 103.846 9.89867C104.028 9.85167 104.887 11.0611 104.92 11.2148C104.958 11.2434 105.594 13.1878 105.641 13.4147C105.681 13.5294 105.657 13.6578 105.65 13.7816C105.668 13.855 106.064 15.4026 106.079 15.4623C106.11 15.7936 106.233 16.1077 106.114 16.4562C106.09 16.525 106.111 16.5892 106.123 16.6545C106.24 17.2048 106.264 17.7643 106.317 18.3191C106.361 18.6138 106.401 18.8774 106.442 19.1572C106.449 19.2076 106.431 19.2626 106.427 19.3154C106.424 19.3819 106.412 19.4484 106.424 19.5114C106.545 20.1649 106.578 20.8413 106.792 21.4707C106.828 21.6174 106.843 22.3717 106.912 22.538C106.944 22.6308 106.811 23.0149 106.876 23.0871Z" fill="#231F20"/>
<path fill-rule="evenodd" clip-rule="evenodd" d="M93.8977 103.887C93.673 104.097 93.3841 104.041 93.0219 103.848C92.9072 103.787 92.7616 103.5 92.8224 103.421C92.937 103.265 93.0609 103.109 93.1996 102.973C93.2649 102.86 94.8596 102.029 95.4408 101.846C95.9854 101.6 96.5586 101.494 97.1284 101.361C98.2908 101.162 99.4567 100.994 100.613 100.934C100.871 100.913 101.131 100.917 101.386 100.946C102.268 101.025 103.139 101.028 104.009 101.007C104.155 101.004 104.303 101.017 104.445 100.961C104.682 100.856 107.029 100.93 107.325 101.013C108.066 101.174 108.81 101.287 109.549 101.415C109.655 101.432 109.77 101.417 109.863 101.489C110.081 101.657 110.311 101.638 110.54 101.659C110.859 101.69 111.175 101.721 111.492 101.777C111.648 101.806 111.804 101.897 111.958 101.97C112.099 102.036 112.024 102.266 111.975 102.291C111.829 102.363 111.947 102.475 111.961 102.571C111.965 102.603 111.971 102.646 111.964 102.671C111.952 102.736 110.073 103.121 109.867 103.106C109.82 103.107 107.142 103.153 106.8 103.158C106.639 103.17 106.481 103.127 106.322 103.095C106.244 103.075 104.105 103.11 104.024 103.11C103.583 103.071 103.145 103.129 102.71 102.98C102.623 102.951 102.534 102.957 102.447 102.958C101.695 102.981 100.944 102.934 100.196 102.941C99.8121 102.931 99.4372 102.994 99.0578 103.022C98.9901 103.028 98.9191 103.013 98.8503 103.009C98.7632 103.006 98.6749 102.992 98.5889 103.005C97.705 103.133 96.8028 103.195 95.9659 103.484C95.8707 103.518 95.5784 103.56 95.2803 103.604C94.9914 103.669 94.6979 103.743 94.5913 103.791C94.4721 103.839 93.9849 103.79 93.8977 103.887Z" fill="url(#paint5_radial_1134_2983)"/>
<path fill-rule="evenodd" clip-rule="evenodd" d="M101.218 36.0863C102.75 36.812 104.264 37.5468 105.772 38.1888C106.524 38.5098 107.278 38.8044 108.006 39.0165C108.717 39.2332 109.482 39.3501 109.842 39.2378C109.981 39.2045 110.009 39.1667 110.065 39.1105C110.13 39.0658 110.128 39.0062 110.162 38.8033C110.214 38.652 110.159 38.3837 110.177 38.1785C110.125 37.9377 110.106 37.6993 110.049 37.4528C109.588 35.6885 108.372 33.97 106.867 32.5759C105.354 31.167 103.588 29.9873 101.734 28.9498C100.902 28.5084 100.031 28.1244 99.1744 27.722C98.2939 27.3689 97.3974 27.0513 96.5158 26.7234C95.3717 26.3222 94.1817 26.0448 93.0307 25.6596C91.8694 25.295 90.6851 25.0095 89.5513 24.5154C88.8428 24.2139 89.0079 23.9262 89.7313 23.6866C90.4593 23.4229 91.7536 23.2429 93.1717 23.5226C94.4225 23.8035 95.6354 24.2311 96.8632 24.598C98.0646 25.0715 99.2867 25.4738 100.462 26.031C102.829 27.0777 105.108 28.4316 107.143 30.1421L108.05 30.9285C108.347 31.2002 108.622 31.5063 108.912 31.7918C109.507 32.3466 110.01 33.023 110.531 33.6742C111.505 35.0339 112.353 36.6262 112.346 38.5797C112.343 39.0968 112.233 39.733 111.831 40.3521C111.403 40.9242 110.725 41.2692 110.142 41.369C108.975 41.5513 108.065 41.3117 107.183 41.0893C105.446 40.594 103.863 39.9233 102.286 39.2607C100.345 38.449 98.4453 37.5858 96.5204 36.8051C93.6074 35.6266 90.6358 34.5466 87.6047 33.9195C85.25 33.4266 82.886 33.3268 80.5668 33.4346C80.0544 33.4403 79.5591 33.5389 79.0478 33.5664C77.1597 33.7407 76.5635 33.7269 76.0155 33.0781C75.8929 32.9359 75.7358 32.8006 75.6498 32.6539C75.3529 32.1827 76.0751 31.5189 77.5919 31.1968C82.0973 30.2304 87.02 30.9262 91.5197 32.2859C94.8891 33.2867 98.1128 34.6406 101.239 36.0255L101.218 36.0863Z" fill="#231F20"/>
<path fill-rule="evenodd" clip-rule="evenodd" d="M11.6396 97.7546C11.4722 97.625 11.5628 97.4107 11.7795 97.1069C11.8494 97.0106 12.1268 96.8501 12.1956 96.8822C12.3298 96.9464 12.4639 97.0174 12.5785 97.1057C12.6714 97.1447 13.3226 98.243 13.4704 98.6373C13.6573 99.0099 13.7639 99.4009 13.8442 99.7906C14.0196 100.587 14.1411 101.373 14.2374 102.16C14.2546 102.333 14.2535 102.508 14.2363 102.684C14.1766 103.287 14.2042 103.875 14.2684 104.461C14.2764 104.559 14.2672 104.658 14.3291 104.752C14.4334 104.911 14.4472 106.481 14.4071 106.681C14.2936 107.184 14.2684 107.677 14.1778 108.169C14.1652 108.24 14.1835 108.312 14.1228 108.378C13.9806 108.537 14.0161 108.682 14.0139 108.831C14.015 108.999 14.0173 109.165 14.0219 109.425C14.0276 109.51 13.9863 109.619 13.9668 109.734C13.9485 109.838 13.7743 109.887 13.7422 109.864C13.6516 109.799 13.6023 109.911 13.5404 109.959C13.5186 109.974 13.4899 109.995 13.4693 110C13.4601 110.014 13.1678 109.693 12.9958 109.361C12.7837 109.012 12.6416 108.67 12.6152 108.592C12.5396 108.548 12.269 106.666 12.2472 106.472C12.2243 106.363 12.2575 106.251 12.2747 106.14C12.2839 106.086 12.073 104.634 12.0695 104.58C12.0787 104.279 12.0156 103.987 12.1521 103.684C12.1796 103.624 12.1704 103.564 12.1658 103.505C12.1246 102.997 12.1624 102.487 12.1578 101.983C12.1532 101.727 12.1211 101.469 12.0925 101.217C12.0879 101.171 12.1028 101.123 12.1062 101.076C12.1108 101.018 12.1234 100.958 12.1142 100.9C12.0294 100.307 12.0099 99.6955 11.8001 99.1498C11.7715 99.0168 11.7279 98.3656 11.6476 98.2304C11.6167 98.1524 11.7164 97.8039 11.6396 97.7546Z" fill="#231F20"/>
<path fill-rule="evenodd" clip-rule="evenodd" d="M15.4488 9.14986C15.5967 9.03178 15.7572 9.19572 15.9292 9.5213C15.9842 9.62563 16.0289 9.95809 15.9888 10.0131C15.9108 10.1186 15.8306 10.2218 15.7446 10.2997C15.6941 10.349 14.7999 10.6551 14.4927 10.7675C14.1969 10.8798 13.8931 10.9303 13.587 10.9704C12.9668 11.046 12.3466 11.132 11.7252 11.1893C11.5865 11.2031 11.4478 11.1939 11.3091 11.1699C10.8322 11.0839 10.3621 11.1022 9.89211 11.1618C9.81415 11.171 9.7339 11.1641 9.65939 11.2306C9.53672 11.3384 8.26305 11.4083 8.10025 11.3441C7.69098 11.2226 7.284 11.1458 6.87702 11.0495C6.8197 11.0369 6.75779 11.0609 6.70506 10.9853C6.58125 10.8053 6.45629 10.8362 6.33018 10.8236C6.15707 10.8041 5.98281 10.7778 5.80856 10.7182C5.72258 10.6895 5.63774 10.5875 5.55291 10.5061C5.47495 10.4316 5.51622 10.1622 5.54259 10.1323C5.62054 10.0475 5.55749 9.9214 5.54947 9.80905C5.54717 9.77122 5.54373 9.72193 5.54717 9.69212C5.5552 9.62448 6.55259 9.15559 6.6615 9.15789C6.67296 9.15674 7.04096 9.11776 7.43304 9.07764C7.82167 9.03407 8.22407 8.98363 8.30661 8.96644C8.39145 8.9458 8.47857 8.98822 8.5657 9.01573C8.60697 9.02834 9.76027 8.89077 9.80498 8.89306C10.0434 8.91255 10.2807 8.8495 10.5215 8.99739C10.5685 9.02834 10.6166 9.01802 10.6648 9.01458C11.0729 8.98478 11.4822 9.03407 11.8915 9.057C12.1013 9.06961 12.3076 9.03751 12.5151 9.03063C12.553 9.02834 12.5919 9.04783 12.6309 9.05586C12.6779 9.06617 12.7272 9.08337 12.7742 9.07878C13.2637 9.03293 13.7636 9.07764 14.2485 8.96758C14.3586 8.9458 14.9192 9.05242 15.0464 9.01344C15.1175 8.9951 15.3892 9.19801 15.4488 9.14986Z" fill="#231F20"/>
<defs>
<radialGradient id="paint0_radial_1134_2983" cx="0" cy="0" r="1" gradientUnits="userSpaceOnUse" gradientTransform="translate(104.952 102.443) rotate(-90) scale(30.7844 5.12094)">
<stop stop-color="#587EDB"/>
<stop offset="1" stop-color="#1445C2"/>
</radialGradient>
<radialGradient id="paint1_radial_1134_2983" cx="0" cy="0" r="1" gradientUnits="userSpaceOnUse" gradientTransform="translate(97.3839 104.761) rotate(-90) scale(11.6869 6.32029)">
<stop stop-color="#587EDB"/>
<stop offset="1" stop-color="#1445C2"/>
</radialGradient>
<radialGradient id="paint2_radial_1134_2983" cx="0" cy="0" r="1" gradientUnits="userSpaceOnUse" gradientTransform="translate(89.4407 106.696) rotate(-90) scale(11.4768 7.48142)">
<stop stop-color="#587EDB"/>
<stop offset="1" stop-color="#1445C2"/>
</radialGradient>
<radialGradient id="paint3_radial_1134_2983" cx="0" cy="0" r="1" gradientUnits="userSpaceOnUse" gradientTransform="translate(81.9331 107.652) rotate(-90) scale(14.8596 7.66434)">
<stop stop-color="#587EDB"/>
<stop offset="1" stop-color="#1445C2"/>
</radialGradient>
<radialGradient id="paint4_radial_1134_2983" cx="0" cy="0" r="1" gradientUnits="userSpaceOnUse" gradientTransform="translate(76.648 80.6747) rotate(-90) scale(24.6008 6.16688)">
<stop stop-color="#587EDB"/>
<stop offset="1" stop-color="#1445C2"/>
</radialGradient>
<radialGradient id="paint5_radial_1134_2983" cx="0" cy="0" r="1" gradientUnits="userSpaceOnUse" gradientTransform="translate(102.424 104.021) rotate(-90) scale(1.58522 8.88262)">
<stop stop-color="#587EDB"/>
<stop offset="1" stop-color="#1445C2"/>
</radialGradient>
</defs>
</svg>
