<svg width="126" height="110" viewBox="0 0 126 110" fill="none" xmlns="http://www.w3.org/2000/svg">
<mask id="mask0_1134_2964" style="mask-type:luminance" maskUnits="userSpaceOnUse" x="0" y="11" width="118" height="96">
<path fill-rule="evenodd" clip-rule="evenodd" d="M0 11.3218H117.861V106.076H0V11.3218Z" fill="white"/>
</mask>
<g mask="url(#mask0_1134_2964)">
<path fill-rule="evenodd" clip-rule="evenodd" d="M82.6911 14.3008C75.8474 14.0746 68.9338 14.1466 62.0428 14.2074C55.1517 14.294 48.2641 14.4955 41.3956 14.8917C36.3818 15.182 31.3871 15.657 26.425 16.2309C22.055 16.7441 17.6917 17.3834 13.4803 18.4255C11.3881 18.9533 9.30268 19.578 7.47159 20.4929C6.55662 20.9442 5.73392 21.4935 5.11493 22.1012L4.75705 22.5727C4.62987 22.7337 4.62987 22.862 4.54096 23.033L4.35301 23.7308L4.20221 24.4972C3.82406 26.5793 3.63049 28.7908 3.45829 30.9775C3.28723 33.1721 3.17468 35.3791 3.08578 37.5872C2.91246 42.0056 2.84831 46.4342 2.86519 50.8628C2.90683 58.7228 3.25009 66.6301 3.92085 74.3934C4.34739 79.3813 4.93937 84.3614 5.71029 89.2986C6.47896 94.2325 7.39957 99.1417 8.7861 103.858C9.74047 106.729 8.93916 106.7 7.32304 104.417C5.74293 102.125 3.82631 97.4017 2.86181 91.6035C1.20968 81.3328 0.471391 71.0227 0.149517 60.6946C-0.130716 50.362 -0.0778206 40.0192 0.839408 29.5977C1.00372 28.0334 1.15228 26.4701 1.41563 24.8664C1.54731 24.0606 1.68574 23.2615 1.94346 22.3758C2.07514 21.9481 2.32723 21.2875 2.64235 20.9386L3.10941 20.323L3.63161 19.8346C5.05416 18.5831 6.60839 17.8864 8.15023 17.2494C9.70108 16.653 11.2666 16.1769 12.841 15.7706C19.139 14.1815 25.5314 13.4016 31.8676 12.7961C45.8061 11.5559 59.7705 11.333 73.7079 11.3218C78.0026 11.3285 82.3051 11.3961 86.6099 11.6189C90.9147 11.8564 95.2262 12.1996 99.5175 13.0482C101.14 13.3824 102.763 13.7955 104.359 14.4359C105.153 14.7712 105.949 15.137 106.696 15.6885C107.437 16.2557 108.133 16.9242 108.582 17.6411C109.597 19.0546 110.334 20.5819 110.947 22.1316C111.588 23.6757 112.063 25.2592 112.525 26.8415C114.247 33.1991 115.139 39.667 115.843 46.0909C116.904 56.0859 117.496 65.9155 117.745 75.8384C117.792 78.0229 117.859 80.1612 117.861 82.366C117.854 90.5366 117.522 93.1364 116.704 94.8594C116.515 95.251 116.321 95.7699 116.138 95.9938C115.503 96.7479 115.184 93.4211 115.107 87.4765C114.983 78.6576 114.734 69.6013 114.184 60.4515C113.612 51.3152 112.837 42.027 111.052 33.0123C110.366 29.6844 109.562 26.3598 108.336 23.32C107.74 21.7984 107.021 20.3388 106.138 19.1649C105.935 18.8307 105.687 18.6416 105.469 18.3985C105.362 18.3107 105.258 18.2184 105.157 18.1228L104.764 17.8538C104.196 17.5027 103.518 17.1853 102.787 16.9174C99.8124 15.864 96.3854 15.3733 93.008 15.0076C89.608 14.6553 86.1608 14.4741 82.7058 14.3728L82.6911 14.3008Z" fill="#231F20"/>
</g>
<path fill-rule="evenodd" clip-rule="evenodd" d="M81.0456 72.6152C80.0788 72.2179 79.0929 71.8386 78.1239 71.654C77.4644 71.5077 77.5849 71.5224 77.4138 71.483C77.2675 71.4436 77.2236 71.6056 77.1831 71.7159C77.1673 71.7891 77.1684 71.7418 77.1493 71.9545C77.1302 72.1312 77.1234 72.3203 77.1178 72.5105L77.0897 73.6708C77.012 76.4641 77.1673 79.3678 77.4217 82.2342C77.5421 83.5082 77.7525 84.7789 77.9934 86.0225L78.5077 88.4084C78.6574 89.2052 78.7542 90.0121 78.8363 90.8101C78.8836 91.3019 78.4559 91.3851 77.882 91.0892C77.317 90.792 76.581 90.1123 76.2748 89.1861C75.442 85.8593 74.9457 82.5066 74.8332 79.0684C74.8028 77.0089 74.4888 74.9043 74.5529 72.7232C74.5709 72.4182 74.5788 72.1211 74.6148 71.8048C74.634 71.672 74.6373 71.4593 74.688 71.2174C74.7353 70.9912 74.7634 70.7571 74.8242 70.5399C74.9513 70.1066 75.1066 69.6913 75.397 69.3874C75.6671 69.0385 76.0936 68.9136 76.5416 68.9642L77.8482 68.971C78.2263 69.0048 78.4717 69.0959 78.7891 69.1556C79.4002 69.2692 79.9606 69.4819 80.5357 69.662C81.9155 70.1707 83.248 70.7424 84.5141 71.4064C86.4488 72.3889 88.2652 73.5538 90.0862 74.6364C91.502 75.4771 92.9662 76.1884 94.3943 76.9334C94.7083 77.0955 95.0302 77.2261 95.3375 77.4005C95.9103 77.7055 96.2446 77.9632 96.4066 78.2671C96.5754 78.5496 96.6002 78.8534 96.5417 79.2597C96.5147 79.4454 96.509 79.639 96.464 79.8101C96.3301 80.3762 95.5682 80.572 94.5575 80.267C91.7372 79.1258 89.2759 77.405 86.7369 75.8328C84.863 74.6646 82.9779 73.511 81.0242 72.6771L81.0456 72.6152Z" fill="url(#paint0_radial_1134_2964)"/>
<path fill-rule="evenodd" clip-rule="evenodd" d="M91.4471 86.0401C92.792 87.3614 94.1763 88.6556 95.609 89.897C96.1301 90.3528 96.7085 90.7321 97.233 91.1822C99.0821 92.7725 100.982 94.3087 102.948 95.747C103.819 96.384 104.751 96.9388 105.685 97.4363C106.886 98.0361 108.132 98.681 109.195 99.1087C109.482 99.2257 109.545 99.7029 109.084 100.15C108.61 100.605 107.644 100.87 106.796 100.618C105.276 100.188 103.971 99.4812 102.712 98.7204C101.448 97.9664 100.271 97.0941 99.1777 96.1105C97.8632 94.9479 96.3293 93.9868 94.9461 92.8681C93.4268 91.6403 91.9558 90.3539 90.513 89.0372C89.6228 88.2302 88.7585 87.3918 87.8919 86.5601C86.5819 85.2928 85.3338 83.9536 84.0699 82.6447C83.093 81.6205 82.0362 80.6909 81.0954 79.5599C80.8827 79.319 80.6677 79.0726 80.482 78.7923C80.2986 78.5447 80.1838 78.3039 80.1275 78.0788C80.0679 77.8582 80.0183 77.6838 80.0476 77.5082C80.1466 77.1278 80.3109 76.8858 80.5507 76.6641C80.6621 76.564 80.7589 76.4526 80.8647 76.385C81.0447 76.2702 81.2597 76.2972 81.541 76.3862C81.8112 76.4829 82.2096 76.591 82.4572 76.8656C83.9821 78.4468 85.6534 80.2621 87.4304 82.0403C88.7438 83.3672 90.0943 84.6997 91.4921 85.985L91.4471 86.0401Z" fill="url(#paint1_radial_1134_2964)"/>
<path fill-rule="evenodd" clip-rule="evenodd" d="M64.1701 73.5867C64.4549 73.5664 64.5224 74.02 64.2793 74.5321C64.2039 74.6986 63.8258 75.0858 63.738 75.1195C63.568 75.1859 63.4049 75.2501 63.2867 75.2962C63.2135 75.3097 62.1477 75.1083 61.7122 75.106C61.325 75.0858 60.9559 74.9957 60.5991 74.8854C59.862 74.6761 59.1327 74.4285 58.3843 74.2293C58.2188 74.182 58.0647 74.101 57.9161 73.9997C57.4097 73.6407 56.8368 73.4764 56.2493 73.3875C56.1526 73.3706 56.058 73.3323 55.941 73.4111C55.7463 73.5304 54.2033 73.2052 54.0221 73.1039C53.5629 72.8281 53.0959 72.5873 52.6232 72.3397C52.5545 72.3026 52.4758 72.3285 52.4262 72.2002C52.3103 71.9008 52.1494 71.9301 51.9974 71.885C51.7859 71.795 51.5788 71.7635 51.3717 71.5947C51.2693 71.5181 51.1669 71.3516 51.0588 71.2289C50.9609 71.1164 51.0138 70.8136 51.051 70.7731C51.1556 70.6718 51.0723 70.5109 51.0622 70.3781C51.0588 70.3331 51.0555 70.2734 51.0611 70.2351C51.0656 70.216 51.4178 69.9234 51.8185 69.7107C52.209 69.5059 52.6277 69.3607 52.7065 69.3652C52.7256 69.3641 53.2579 69.3528 53.8229 69.3416C54.3766 69.3472 54.9495 69.4091 55.0688 69.4012C55.1926 69.3989 55.2972 69.4935 55.4064 69.5599C55.4615 69.579 57.0889 69.74 57.1497 69.7692C57.4637 69.8908 57.8159 69.8795 58.0669 70.2115C58.1164 70.2768 58.1851 70.2835 58.2504 70.2982C58.8097 70.4231 59.3274 70.6864 59.8485 70.9307C60.1152 71.05 60.4011 71.1186 60.6768 71.2188C60.7252 71.2368 60.7635 71.2897 60.8073 71.3234C60.8625 71.3651 60.9131 71.4191 60.9773 71.4394C61.6402 71.6487 62.2153 72.0786 62.8973 72.2891C63.0537 72.3375 63.6378 72.9531 63.8235 73.024C63.9282 73.0521 64.0576 73.5912 64.1701 73.5867Z" fill="url(#paint2_radial_1134_2964)"/>
<path fill-rule="evenodd" clip-rule="evenodd" d="M71.6345 63.893C71.8911 63.911 71.702 64.1283 71.5951 64.7529C71.5568 64.9453 71.343 65.4619 71.2327 65.4923C71.0279 65.5553 70.7803 65.5902 70.5631 65.5744C70.4337 65.5778 69.2081 64.9206 68.8547 64.7146C68.4686 64.5143 68.1682 64.2442 67.8845 63.9606C67.3072 63.3843 66.7332 62.8194 66.1818 62.2308C66.0602 62.1002 65.9668 61.9472 65.897 61.775C65.6494 61.1942 65.2983 60.7002 64.8774 60.2534C64.8087 60.178 64.7615 60.0834 64.6152 60.0688C64.3709 60.0519 63.3806 58.7003 63.3333 58.4606C63.268 58.1736 63.1836 57.9046 63.1026 57.6311C63.0418 57.3408 62.9822 57.0594 62.9191 56.7645C62.9022 56.6835 62.8313 56.6194 62.9056 56.4911C63.0801 56.1928 62.9608 56.0645 62.9067 55.8957C62.8336 55.6481 62.7863 55.3757 62.8392 55.0741C62.882 54.8862 62.9968 54.7005 63.1037 54.5519C63.1994 54.4203 63.4368 54.4596 63.4886 54.4822C63.609 54.5598 63.7238 54.4585 63.8274 54.4383C63.8645 54.4304 63.9118 54.4203 63.9466 54.4191C64.0074 54.4495 64.3405 54.5024 64.7176 54.6543C65.0192 54.7849 65.3906 54.974 65.412 55.0167C65.412 55.0167 65.7181 55.3454 66.0591 55.6706C66.3821 56.015 66.7051 56.3875 66.7895 56.4517C66.875 56.5203 66.8773 56.6475 66.9032 56.7589C66.9088 56.8141 67.9532 57.8247 67.9825 57.8731C68.1333 58.1319 68.4067 58.2985 68.3752 58.6958C68.3707 58.7746 68.4191 58.8128 68.4596 58.8578C68.7984 59.2427 69.01 59.7312 69.2745 60.178C69.4084 60.4076 69.593 60.5989 69.7516 60.8048C69.7809 60.8431 69.7809 60.9039 69.7978 60.9523C69.818 61.0119 69.8293 61.0806 69.8676 61.1256C70.2705 61.5938 70.5665 62.1655 71.0436 62.5391C71.1483 62.6371 71.3936 63.2999 71.5298 63.3787C71.603 63.4372 71.5332 63.8874 71.6345 63.893Z" fill="url(#paint3_radial_1134_2964)"/>
<path fill-rule="evenodd" clip-rule="evenodd" d="M83.1383 61.2564C83.3049 61.3544 83.0303 61.4298 82.5306 61.7674C82.373 61.8698 81.8699 62.0836 81.7754 62.0442C81.5931 61.9745 81.4085 61.8743 81.2633 61.7426C81.2026 61.6864 81.081 61.3746 80.9527 60.9807C80.8503 60.6228 80.7546 60.2064 80.7164 60.0162C80.6185 59.6178 80.6477 59.2577 80.6882 58.893C80.7985 58.175 80.9336 57.475 81.1159 56.802C81.1564 56.6512 81.2251 56.5094 81.3241 56.3799C81.6662 55.9376 81.8418 55.4503 81.9724 54.9394C81.9926 54.8538 82.0399 54.7762 81.9791 54.6603C81.8654 54.4678 82.4068 53.1308 82.57 52.9991C82.9402 52.6626 83.2553 52.3014 83.6155 51.9694C83.665 51.9221 83.6639 51.8388 83.8023 51.8478C84.1242 51.8703 84.1489 51.7229 84.2446 51.6126C84.3898 51.4708 84.562 51.3391 84.7646 51.2378C84.8658 51.1861 85.0515 51.1973 85.2057 51.1928C85.3453 51.1883 85.6289 51.4505 85.6491 51.4989C85.7043 51.6396 85.8922 51.6902 86.0262 51.778C86.0723 51.8073 86.132 51.8467 86.1657 51.8759C86.2029 51.9075 86.2411 52.2428 86.3008 52.5771C86.3829 52.9327 86.3942 53.2433 86.3638 53.285C86.3638 53.285 86.2276 53.635 86.0993 53.9906C85.98 54.3575 85.8585 54.7379 85.8506 54.8246C85.8393 54.9135 85.7426 54.963 85.6694 55.0227C85.6266 55.0497 85.3734 56.1931 85.3565 56.2336C85.2384 56.443 85.2462 56.6996 84.9311 56.8369C84.8703 56.865 84.8658 56.9145 84.8535 56.9618C84.7466 57.3602 84.526 57.7158 84.3448 58.0906C84.2514 58.2808 84.2322 58.489 84.1703 58.6871C84.1602 58.7231 84.1152 58.7501 84.0893 58.7827C84.0555 58.8221 84.0128 58.8604 84.006 58.9054C83.9239 59.3792 83.6594 59.8294 83.7044 60.2818C83.6965 60.391 83.3915 60.831 83.423 60.9469C83.4433 60.9908 83.0719 61.2035 83.1383 61.2564Z" fill="url(#paint4_radial_1134_2964)"/>
<path fill-rule="evenodd" clip-rule="evenodd" d="M20.379 31.09C21.106 31.2667 21.7644 31.7518 22.0637 32.552C23.3692 36.0487 17.463 36.2546 17.4967 33.1361C17.5159 31.4637 19.0588 30.7693 20.379 31.09Z" fill="#231F20"/>
<path fill-rule="evenodd" clip-rule="evenodd" d="M29.3565 30.1283C30.0835 30.305 30.7419 30.7901 31.0413 31.5903C32.3468 35.0881 26.4405 35.2941 26.4743 32.1744C26.4934 30.502 28.0364 29.8076 29.3565 30.1283Z" fill="#231F20"/>
<path fill-rule="evenodd" clip-rule="evenodd" d="M38.3343 29.1672C39.0613 29.3439 39.7208 29.829 40.0191 30.6292C41.3246 34.1259 35.4183 34.3319 35.452 31.2133C35.4712 29.5409 37.0153 28.8454 38.3343 29.1672Z" fill="#231F20"/>
<path fill-rule="evenodd" clip-rule="evenodd" d="M66.2519 108.062C61.6016 108.213 56.9501 108.319 52.2999 108.394C50.6027 108.421 48.9078 108.514 47.2118 108.521C41.2301 108.55 35.2495 108.451 29.2746 108.325C26.6242 108.271 23.9569 108.268 21.329 108.275C19.6442 108.293 17.9538 108.308 16.2657 108.325C14.6046 108.353 12.8601 108.292 11.3599 108.374C11.1664 108.4 10.9942 108.376 10.9525 108.324C10.876 108.269 10.7848 108.189 10.7252 108.088C10.5845 107.904 10.6554 107.486 11.1078 107.095C11.9699 106.328 13.6952 105.699 15.6546 105.687C22.5963 105.695 29.4355 105.925 36.3828 106.194C40.5323 106.363 44.8517 106.188 49.0957 106.122C53.764 106.052 58.4346 105.952 63.104 105.799C65.9773 105.706 68.8527 105.599 71.7226 105.459C76.0724 105.254 80.4425 105.024 84.7518 104.683C88.1011 104.405 91.3716 103.982 94.6713 103.596C95.3972 103.507 96.1096 103.42 96.8412 103.329C99.5602 103.048 100.44 103.133 101.084 103.719C101.23 103.853 101.419 103.982 101.511 104.122C101.817 104.592 100.742 105.098 98.7567 105.419C92.8673 106.375 86.611 106.942 80.3209 107.372C75.6504 107.687 70.9506 107.917 66.2609 108.122L66.2519 108.062Z" fill="#231F20"/>
<path fill-rule="evenodd" clip-rule="evenodd" d="M64.3956 109.53C60.38 109.667 56.3633 109.781 52.3478 109.863L47.953 109.973C42.7883 110.025 37.6226 109.998 32.4614 109.925C30.17 109.912 27.8685 109.901 25.5951 109.889C22.6768 109.893 19.7428 109.933 16.8471 109.811C15.0261 109.75 17.3085 108.284 20.6972 108.311C26.6654 108.36 32.5998 108.484 38.604 108.627C42.1919 108.721 45.9272 108.589 49.5983 108.52C53.6342 108.447 57.6722 108.347 61.7091 108.201C64.1941 108.127 66.6779 108.006 69.1595 107.893C72.9196 107.709 76.6977 107.517 80.424 107.233C83.3197 107.002 86.1536 106.716 89.0099 106.406C89.6379 106.338 90.2547 106.271 90.8883 106.202C93.2404 105.985 93.9979 106.02 94.5381 106.362C94.6607 106.439 94.8194 106.514 94.8948 106.596C95.1469 106.874 94.2061 107.197 92.4864 107.426C87.3859 108.118 81.9793 108.564 76.5457 108.92C72.5111 109.19 68.4516 109.377 64.4023 109.565L64.3956 109.53Z" fill="#231F20"/>
<path fill-rule="evenodd" clip-rule="evenodd" d="M105.395 2.51952C105.34 2.87066 105.229 3.22179 105.161 3.56843C105.135 3.69448 105.178 3.81827 105.143 3.94545C105.023 4.39112 104.869 4.83454 104.766 5.27346C104.721 5.46816 104.74 5.66286 104.773 5.85644C104.815 6.10291 104.962 6.35163 104.723 6.59922C104.577 6.75341 102.511 6.55758 102.465 6.2796C102.397 5.78441 102.453 5.29259 102.739 4.7884C102.912 4.48678 102.792 4.17841 102.819 3.87342C102.861 3.54142 102.903 3.19928 102.944 2.86278C102.976 2.6557 103.013 2.44637 103.027 2.23929C103.051 1.92529 103.105 1.60567 103.049 1.29955C102.998 1.06208 102.845 0.838123 102.743 0.60966C102.72 0.559016 102.674 0.512873 102.683 0.458852C102.677 0.362065 102.745 0.291162 102.899 0.229263C103.034 0.170741 103.203 0.126849 103.433 0.080706L103.732 0.021058C104.04 -0.030712 104.381 0.0154308 104.702 0.132476C105.294 0.519625 105.445 0.986681 105.474 1.45824C105.505 1.80937 105.467 2.16501 105.456 2.51615L105.395 2.51952Z" fill="#231F20"/>
<path fill-rule="evenodd" clip-rule="evenodd" d="M121.524 11.0938C120.899 11.3245 120.273 11.5541 119.651 11.7825C119.422 11.8647 119.22 12.0042 118.986 12.0785C118.158 12.3362 117.316 12.5973 116.493 12.8528C116.13 12.9744 115.78 13.1342 115.441 13.303C115.004 13.518 114.582 13.7926 114.055 13.7858C113.735 13.7903 113.547 12.2068 113.995 11.9401C114.82 11.4888 115.659 11.078 116.617 10.8383C117.193 10.701 117.672 10.3093 118.201 10.0381C118.78 9.73424 119.394 9.48214 119.998 9.20416C120.372 9.03422 120.746 8.86428 121.117 8.69546C121.677 8.42874 122.256 8.18452 122.796 7.8784C123.222 7.65556 123.553 7.25378 123.979 7.01969C124.069 6.96342 124.158 6.90715 124.261 6.87339C124.645 6.75634 124.832 6.86326 125.114 7.2988C125.179 7.39784 125.248 7.49237 125.303 7.59254C125.49 7.92792 125.482 8.30044 125.314 8.5953C124.85 9.53729 124.116 9.93794 123.349 10.3544C122.77 10.6357 122.157 10.8743 121.553 11.1455L121.524 11.0938Z" fill="#231F20"/>
<path fill-rule="evenodd" clip-rule="evenodd" d="M79.4543 20.4472C73.5514 20.2525 67.59 20.3167 61.6465 20.3707C55.7031 20.4472 49.7631 20.6217 43.8388 20.9649C39.5149 21.217 35.2067 21.6244 30.9267 22.1208C27.1565 22.5642 23.393 23.1168 19.759 24.0171C17.9538 24.4729 16.1531 25.0131 14.5707 25.8054C13.7784 26.1948 13.066 26.6709 12.5281 27.1998L12.2152 27.6129C12.1049 27.7536 12.1015 27.8684 12.0239 28.0192C11.9125 28.4119 11.8089 28.8261 11.7324 29.2853C11.1235 32.9249 10.9412 36.7874 10.7724 40.579C10.6238 44.3897 10.5687 48.2095 10.5844 52.0292C10.6216 58.8065 10.9176 65.6267 11.4938 72.3219C11.8607 76.6244 12.3705 80.9202 13.0345 85.1788C13.6974 89.4352 14.492 93.6703 15.6928 97.7387C16.52 100.217 15.847 100.181 14.474 98.2058C13.1324 96.2239 11.4994 92.1487 10.6689 87.1517C9.24518 78.2991 8.60819 69.4093 8.32795 60.5048C8.08486 51.5959 8.12763 42.6779 8.91205 33.6936C9.05273 32.3453 9.18103 30.9982 9.40612 29.6162C9.51866 28.9229 9.63908 28.2341 9.85967 27.4745C9.97334 27.1076 10.186 26.5448 10.4561 26.2455L10.8557 25.7199L11.3036 25.3012C12.5224 24.2276 13.8606 23.6266 15.1875 23.0785C16.5222 22.5642 17.8716 22.1556 19.2267 21.8045C24.6558 20.4337 30.167 19.763 35.6299 19.2396C47.6461 18.1682 59.6883 17.9735 71.7068 17.9623C75.4106 17.9679 79.12 18.0253 82.8317 18.2166C86.5423 18.4203 90.2607 18.7152 93.9578 19.4467C95.3567 19.7337 96.7556 20.0894 98.1286 20.6408C98.8118 20.9301 99.4971 21.244 100.138 21.7179C100.775 22.2052 101.372 22.778 101.759 23.3959C102.633 24.6113 103.268 25.927 103.796 27.2617C104.348 28.592 104.757 29.9572 105.156 31.3201C106.641 36.7998 107.41 42.3775 108.017 47.9157C108.931 56.5343 109.436 65.0111 109.646 73.5666C109.687 75.4506 109.742 77.2941 109.743 79.1949C109.737 86.2401 109.456 88.482 108.773 89.9676C108.614 90.3063 108.453 90.7542 108.299 90.9478C107.77 91.5983 107.508 88.7296 107.447 83.6032C107.348 75.9964 107.139 68.187 106.666 60.2944C106.174 52.4141 105.507 44.4032 103.966 36.6242C103.374 33.7521 102.681 30.8823 101.622 28.2555C101.105 26.941 100.485 25.6783 99.7189 24.6597C99.5422 24.3705 99.325 24.2051 99.1359 23.9924L98.8613 23.7504L98.5191 23.5152C98.0239 23.2102 97.4353 22.9333 96.8029 22.7015C94.2279 21.791 91.2713 21.369 88.3565 21.0538C85.4213 20.75 82.4468 20.5947 79.4678 20.5069L79.4543 20.4472Z" fill="#231F20"/>
<path fill-rule="evenodd" clip-rule="evenodd" d="M64.8973 101.832L53.0746 101.886L48.7631 101.955C43.6953 101.965 38.6252 101.834 33.5573 101.77C31.3076 101.717 29.0477 101.742 26.8137 101.716C23.945 101.725 21.0549 101.699 18.1907 101.284C16.4158 101.056 18.7736 100.055 22.0351 99.9524C27.8503 99.976 33.6856 99.9569 39.5762 100.087C43.0999 100.159 46.7666 99.9974 50.3702 99.9546L62.2672 99.7982C64.7082 99.7554 67.1493 99.7127 69.5881 99.6699C73.284 99.5866 76.998 99.5303 80.6635 99.3762C83.5142 99.2524 86.3042 99.0194 89.1212 98.8359C89.7413 98.7966 90.3479 98.7347 90.9748 98.7257C93.2976 98.6998 94.0449 98.9226 94.5548 99.3649C94.6707 99.4696 94.8226 99.5709 94.8913 99.671C95.122 100.004 94.1834 100.346 92.4952 100.636C87.478 101.333 82.1626 101.491 76.8269 101.655C72.862 101.732 68.8791 101.808 64.9029 101.884L64.8973 101.832Z" fill="#231F20"/>
<path fill-rule="evenodd" clip-rule="evenodd" d="M7.87832 70.4604C7.64873 66.9266 7.48217 63.3927 7.34149 59.8588C7.28747 58.5691 7.15354 57.2838 7.12428 55.9952C7.02974 51.4462 7.05563 46.8938 7.19968 42.3403C7.27509 40.319 7.26834 38.2876 7.32236 36.2697C7.41689 33.6779 7.30885 31.05 8.33862 28.4041C8.68863 27.5645 9.36052 28.009 9.91648 28.8374C10.4488 29.6443 11.0115 30.8755 10.8731 32.2542C10.4601 37.2466 10.4848 42.4574 10.1258 47.6884C9.92999 50.8272 10.2046 54.0876 10.3171 57.2962C10.4376 60.8256 10.5827 64.3606 10.7943 67.8899C10.9192 70.062 11.0689 72.2352 11.2569 74.4006C11.5495 77.6812 11.7948 80.9866 12.2844 84.2144C12.6659 86.7218 13.2219 89.1539 13.8442 91.5466C13.977 92.0778 14.1447 92.5786 14.2933 93.0974C14.56 94.0563 14.73 94.6843 14.7739 95.1176C14.7952 95.5902 14.6737 95.8919 14.524 96.2227C14.4576 96.3736 14.425 96.5559 14.371 96.6707C14.2764 96.8631 14.0693 96.8327 13.6282 96.5773C13.3772 96.4523 13.187 96.2408 12.9867 95.9842C12.7638 95.7264 12.5916 95.3877 12.4341 95.023C11.4741 92.8206 10.872 90.537 10.3171 88.2119C9.78143 85.8856 9.34926 83.5143 8.98462 81.1352C8.4084 77.6047 8.0899 74.0326 7.80179 70.4717L7.87832 70.4604Z" fill="#231F20"/>
<defs>
<radialGradient id="paint0_radial_1134_2964" cx="0" cy="0" r="1" gradientUnits="userSpaceOnUse" gradientTransform="translate(85.5573 91.2607) rotate(-90) scale(11.3641 10.1734)">
<stop stop-color="#587EDB"/>
<stop offset="1" stop-color="#1445C2"/>
</radialGradient>
<radialGradient id="paint1_radial_1134_2964" cx="0" cy="0" r="1" gradientUnits="userSpaceOnUse" gradientTransform="translate(94.7297 100.716) rotate(-90) scale(12.4336 13.5708)">
<stop stop-color="#587EDB"/>
<stop offset="1" stop-color="#1445C2"/>
</radialGradient>
<radialGradient id="paint2_radial_1134_2964" cx="0" cy="0" r="1" gradientUnits="userSpaceOnUse" gradientTransform="translate(57.7155 75.2969) rotate(-90) scale(3.03384 6.20086)">
<stop stop-color="#587EDB"/>
<stop offset="1" stop-color="#1445C2"/>
</radialGradient>
<radialGradient id="paint3_radial_1134_2964" cx="0" cy="0" r="1" gradientUnits="userSpaceOnUse" gradientTransform="translate(67.2898 65.5782) rotate(-90) scale(5.68481 4.13216)">
<stop stop-color="#587EDB"/>
<stop offset="1" stop-color="#1445C2"/>
</radialGradient>
<radialGradient id="paint4_radial_1134_2964" cx="0" cy="0" r="1" gradientUnits="userSpaceOnUse" gradientTransform="translate(83.5148 62.049) rotate(-90) scale(5.53056 2.64604)">
<stop stop-color="#587EDB"/>
<stop offset="1" stop-color="#1445C2"/>
</radialGradient>
</defs>
</svg>
