<svg width="98" height="110" viewBox="0 0 98 110" fill="none" xmlns="http://www.w3.org/2000/svg">
<path fill-rule="evenodd" clip-rule="evenodd" d="M32.7309 94.1306C33.5438 94.1306 26.2521 96.3213 24.9138 94.5658C23.5756 92.8103 24.177 84.2564 24.177 84.2564C24.177 84.2564 26.8084 83.6483 27.1524 84.5204C27.5123 85.433 25.5294 88.5953 25.5294 90.1901C25.5294 94.391 32.3155 94.1306 32.7309 94.1306Z" fill="#221F1F"/>
<path fill-rule="evenodd" clip-rule="evenodd" d="M51.3343 94.1307C52.1472 94.1307 44.8545 96.3213 43.5172 94.5658C42.1789 92.8103 42.7804 84.2564 42.7804 84.2564C42.7804 84.2564 43.9908 82.9162 44.3348 83.7883C44.6947 84.6999 44.1328 88.5953 44.1328 90.1901C44.1328 94.391 50.9189 94.1307 51.3343 94.1307Z" fill="#221F1F"/>
<path fill-rule="evenodd" clip-rule="evenodd" d="M69.9019 93.6401C70.7148 93.6401 63.4221 95.8307 62.0848 94.0752C60.7465 92.3197 61.348 83.7648 61.348 83.7648C61.348 83.7648 62.5584 82.4256 62.9024 83.2978C63.2623 84.2094 62.7003 88.1038 62.7003 89.6996C62.7003 93.9004 69.4865 93.6401 69.9019 93.6401Z" fill="#221F1F"/>
<path fill-rule="evenodd" clip-rule="evenodd" d="M31.3387 68.7157C32.1516 68.7157 24.8598 70.9064 23.5216 69.1509C22.1833 67.3953 23.4342 58.4101 23.4342 58.4101C23.4342 58.4101 27.5767 57.7804 27.9207 58.6525C28.2806 59.5651 25.1192 63.1804 25.1192 64.7752C25.1192 68.9761 30.9233 68.7157 31.3387 68.7157Z" fill="url(#paint0_radial_1138_165)"/>
<path fill-rule="evenodd" clip-rule="evenodd" d="M31.3387 42.7157C32.1516 42.7157 24.8598 44.9064 23.5216 43.1509C22.1833 41.3953 23.4342 32.4101 23.4342 32.4101C23.4342 32.4101 27.5767 31.7804 27.9207 32.6525C28.2806 33.5651 25.1192 37.1804 25.1192 38.7752C25.1192 42.9761 30.9233 42.7157 31.3387 42.7157Z" fill="#221F1F"/>
<path fill-rule="evenodd" clip-rule="evenodd" d="M76.8883 3.06352C76.8141 3.10863 76.7361 3.06822 76.6562 2.97518C76.6308 2.94511 76.613 2.84173 76.6327 2.82293C76.6712 2.78628 76.7107 2.74963 76.753 2.72144C76.7784 2.70452 77.2088 2.56825 77.3554 2.5175C77.4954 2.46864 77.6401 2.43668 77.7858 2.40661C78.08 2.3474 78.3741 2.28256 78.6692 2.22147C78.734 2.20832 78.8008 2.2008 78.8675 2.1961C79.0987 2.18294 79.3233 2.13971 79.547 2.08614C79.5836 2.07675 79.6231 2.07205 79.656 2.04949C79.7095 2.01096 80.3195 1.88879 80.4012 1.88597C80.6033 1.87657 80.8034 1.8559 81.0036 1.84086C81.0328 1.83804 81.0619 1.82676 81.091 1.83992C81.1587 1.86999 81.2179 1.8512 81.279 1.84274C81.3645 1.82958 81.45 1.81925 81.5365 1.81737C81.5797 1.81549 81.6258 1.83146 81.6699 1.84274C81.7113 1.85308 81.7038 1.92168 81.6925 1.93014C81.6587 1.95833 81.6953 1.98277 81.7047 2.00814C81.7066 2.01754 81.7103 2.02788 81.7103 2.03634C81.7094 2.05325 81.2489 2.26188 81.1963 2.27222C81.1831 2.27504 80.4849 2.45454 80.4069 2.47897C80.3655 2.49213 80.3213 2.49025 80.2781 2.49307C80.2574 2.49401 79.7011 2.64719 79.6785 2.65095C79.5611 2.66975 79.4473 2.7111 79.3224 2.69606C79.2979 2.69324 79.2754 2.70076 79.2519 2.7064C79.0526 2.75339 78.8487 2.78064 78.6457 2.81166C78.5423 2.82857 78.4408 2.85489 78.3375 2.87556C78.3196 2.87932 78.2999 2.87744 78.2801 2.87838C78.2566 2.88026 78.2322 2.87932 78.2087 2.88496C77.9672 2.94041 77.72 2.96766 77.4804 3.03627C77.4249 3.05224 77.1486 3.05976 77.0857 3.0795C77.05 3.09077 76.9184 3.04472 76.8883 3.06352Z" fill="#221F1F"/>
<path fill-rule="evenodd" clip-rule="evenodd" d="M77.3109 1.31337C77.2339 1.29834 77.2141 1.21845 77.2292 1.0991C77.2329 1.06057 77.2931 0.97599 77.3184 0.97505C77.3682 0.97317 77.4171 0.97317 77.4632 0.979749C77.4904 0.983508 77.8504 1.16489 77.9753 1.22315C78.0956 1.27954 78.2075 1.35002 78.3174 1.42239C78.5411 1.56993 78.7666 1.71466 78.9903 1.86127C79.0401 1.89416 79.0871 1.93175 79.1313 1.97216C79.2835 2.11219 79.4517 2.22684 79.6265 2.3321C79.6557 2.34995 79.6829 2.37157 79.7196 2.37627C79.7788 2.38472 80.2393 2.69109 80.2919 2.74184C80.4235 2.86589 80.5607 2.98055 80.696 3.0999C80.7148 3.11682 80.7411 3.12715 80.7496 3.15535C80.7703 3.22113 80.8201 3.24557 80.8642 3.2794C80.9253 3.32545 80.9855 3.37338 81.0409 3.42788C81.0682 3.4542 81.086 3.49555 81.1058 3.53314C81.1236 3.56697 81.0719 3.61114 81.0588 3.6102C81.0184 3.60832 81.0249 3.64967 81.0118 3.67411C81.008 3.68256 81.0024 3.6929 80.9977 3.69854C80.9855 3.70982 80.5569 3.56227 80.5165 3.53502C80.5071 3.5275 79.9526 3.20421 79.8869 3.17226C79.853 3.15441 79.8267 3.12527 79.7976 3.09896C79.7844 3.08674 79.3352 2.83582 79.3192 2.8236C79.2328 2.76158 79.1341 2.71741 79.0674 2.62625C79.0542 2.60839 79.0354 2.59805 79.0166 2.58678C78.8606 2.4928 78.7168 2.38003 78.5693 2.27101C78.4941 2.21556 78.4133 2.16951 78.3353 2.11783C78.3212 2.10843 78.3108 2.09433 78.2986 2.08211C78.2827 2.06802 78.2676 2.05204 78.2498 2.04076C78.0627 1.92329 77.8898 1.78326 77.6953 1.67801C77.6502 1.65357 77.4744 1.47971 77.4218 1.45246C77.3917 1.43742 77.3419 1.31901 77.3109 1.31337Z" fill="#221F1F"/>
<path fill-rule="evenodd" clip-rule="evenodd" d="M78.1226 4.21025C78.1048 4.28355 78.0268 4.29483 77.9102 4.27039C77.8727 4.26287 77.7909 4.19803 77.7909 4.17266C77.7918 4.12567 77.7928 4.07774 77.8012 4.03545C77.8059 4.00913 77.9958 3.67927 78.0569 3.56462C78.1161 3.45372 78.1884 3.35223 78.2627 3.25355C78.4158 3.05243 78.5643 2.84756 78.7156 2.64551C78.7495 2.60134 78.788 2.55905 78.8284 2.52052C78.9703 2.38707 79.0887 2.23482 79.1987 2.076C79.2165 2.04969 79.2382 2.02525 79.2447 1.99142C79.2541 1.93503 79.5708 1.51871 79.6216 1.47266C79.7475 1.35801 79.865 1.23583 79.9853 1.11648C80.0022 1.09957 80.0135 1.07513 80.0417 1.06949C80.1075 1.0554 80.1328 1.00935 80.1667 0.970816C80.2137 0.915368 80.2635 0.861801 80.318 0.813872C80.3452 0.789438 80.3866 0.77722 80.4232 0.761244C80.4571 0.746208 80.4984 0.799775 80.4975 0.812932C80.4937 0.851463 80.5351 0.848644 80.5576 0.862741C80.5661 0.86744 80.5764 0.874018 80.5811 0.879657C80.5924 0.891874 80.4326 1.29128 80.4054 1.32605C80.3979 1.33545 80.0633 1.84011 80.0285 1.90026C80.0107 1.93127 79.9806 1.95383 79.9543 1.97826C79.9421 1.99048 79.6808 2.39929 79.6686 2.41432C79.6047 2.49138 79.5577 2.58254 79.4665 2.63799C79.4487 2.64927 79.4383 2.66712 79.4271 2.6831C79.3293 2.82501 79.2137 2.95376 79.1019 3.08533C79.0455 3.15299 78.9976 3.22723 78.9449 3.29678C78.9346 3.30993 78.9205 3.31839 78.9083 3.32967C78.8942 3.34377 78.8773 3.35598 78.866 3.37196C78.7448 3.54206 78.6019 3.69525 78.492 3.87286C78.4666 3.91422 78.2909 4.06834 78.2627 4.11627C78.2467 4.14352 78.1292 4.18111 78.1226 4.21025Z" fill="#221F1F"/>
<path fill-rule="evenodd" clip-rule="evenodd" d="M95.4802 16.6142C95.4511 16.5709 95.4793 16.5239 95.5422 16.4751C95.562 16.4591 95.6315 16.4469 95.6428 16.4582C95.6672 16.4807 95.6907 16.5042 95.7095 16.5286C95.7199 16.5437 95.8044 16.7984 95.8355 16.8848C95.8665 16.9675 95.8853 17.053 95.9031 17.1395C95.9379 17.3143 95.9774 17.4882 96.0131 17.662C96.0215 17.7015 96.0262 17.741 96.0272 17.7804C96.0328 17.9176 96.0582 18.0511 96.0911 18.1836C96.0958 18.2052 96.0986 18.2287 96.1136 18.2475C96.1381 18.2794 96.2104 18.6413 96.2114 18.6892C96.2142 18.8095 96.2255 18.9279 96.233 19.0473C96.2339 19.0651 96.2414 19.0811 96.232 19.0999C96.2104 19.1403 96.2226 19.1751 96.2273 19.2117C96.2349 19.2615 96.2405 19.3132 96.2405 19.364C96.2414 19.3903 96.2292 19.4175 96.2217 19.4448C96.2142 19.4692 96.1691 19.4655 96.1634 19.4589C96.1456 19.4391 96.1287 19.4608 96.1108 19.4673C96.1061 19.4692 96.0977 19.4711 96.093 19.4711C96.0817 19.4711 95.9492 19.1995 95.9435 19.1685C95.9417 19.16 95.8326 18.7475 95.8176 18.7014C95.8101 18.677 95.811 18.6507 95.8101 18.6253C95.8101 18.6121 95.7161 18.2832 95.7142 18.2701C95.7029 18.1996 95.6776 18.1328 95.6889 18.0586C95.6917 18.0436 95.687 18.0304 95.6832 18.0163C95.655 17.8988 95.64 17.7776 95.6212 17.6573C95.6127 17.5953 95.5968 17.5351 95.5836 17.475C95.5817 17.4637 95.5836 17.4524 95.5827 17.4412C95.5817 17.4271 95.5827 17.412 95.5798 17.3979C95.5469 17.2551 95.5319 17.1075 95.4896 16.9666C95.4802 16.9337 95.4793 16.7692 95.4661 16.7316C95.4595 16.711 95.4915 16.632 95.4802 16.6142Z" fill="#221F1F"/>
<path fill-rule="evenodd" clip-rule="evenodd" d="M94.7703 17.2704C94.7224 17.262 94.7121 17.2112 94.7233 17.1332C94.728 17.1078 94.7675 17.0505 94.7835 17.0496C94.8145 17.0477 94.8465 17.0458 94.8746 17.0496C94.8916 17.0514 95.1143 17.1605 95.1923 17.1952C95.2665 17.23 95.3361 17.2723 95.4028 17.3174C95.54 17.4086 95.68 17.4969 95.8172 17.5871C95.8473 17.6078 95.8765 17.6303 95.9037 17.6557C95.9958 17.7431 96.1001 17.8145 96.2073 17.8785C96.2261 17.8897 96.242 17.9029 96.2655 17.9057C96.3022 17.9095 96.586 18.0984 96.6179 18.1294C96.6978 18.2074 96.7824 18.2788 96.8651 18.353C96.8764 18.3643 96.8924 18.369 96.8971 18.3878C96.9083 18.4301 96.9393 18.4451 96.9666 18.4658C97.0042 18.495 97.0408 18.5241 97.0747 18.5589C97.0916 18.5758 97.101 18.6021 97.1123 18.6256C97.1235 18.6472 97.0897 18.6773 97.0813 18.6773C97.0559 18.6763 97.0596 18.7026 97.0502 18.7196C97.0474 18.7243 97.0437 18.7318 97.0408 18.7355C97.0324 18.7431 96.7655 18.6575 96.7411 18.6406C96.7354 18.6369 96.3933 18.4386 96.352 18.4188C96.3313 18.4085 96.3153 18.3897 96.2975 18.3737C96.29 18.3662 96.0118 18.213 96.0024 18.2064C95.9488 18.1679 95.8877 18.1407 95.8483 18.0833C95.8407 18.072 95.8285 18.0655 95.8172 18.0589C95.7205 18.0016 95.6321 17.9311 95.5419 17.8634C95.4958 17.8296 95.446 17.8014 95.3981 17.7694C95.3896 17.7638 95.3831 17.7544 95.3756 17.7478C95.3662 17.7384 95.3568 17.7281 95.3455 17.7215C95.2308 17.6491 95.1246 17.5627 95.0043 17.4978C94.9771 17.4837 94.8699 17.3747 94.8371 17.3588C94.8192 17.3494 94.7901 17.2732 94.7703 17.2704Z" fill="#221F1F"/>
<path fill-rule="evenodd" clip-rule="evenodd" d="M95.2815 19.0508C95.2711 19.0969 95.2213 19.1025 95.1443 19.0837C95.1208 19.0781 95.0663 19.0348 95.0663 19.0189C95.0653 18.9888 95.0644 18.9587 95.0681 18.9324C95.071 18.9155 95.1856 18.7106 95.2223 18.6401C95.258 18.5706 95.3022 18.5086 95.3482 18.4475C95.4422 18.3244 95.5343 18.1975 95.6273 18.0734C95.648 18.0462 95.6715 18.0199 95.6969 17.9964C95.7861 17.9156 95.8585 17.8216 95.9262 17.7238C95.9365 17.7079 95.9506 17.6928 95.9534 17.6712C95.9581 17.6364 96.1527 17.3799 96.1846 17.3517C96.2636 17.2821 96.3369 17.2079 96.412 17.1346C96.4224 17.1252 96.429 17.1102 96.4468 17.1064C96.4891 17.0989 96.5051 17.0716 96.5258 17.0472C96.5549 17.0134 96.5859 16.9805 96.6197 16.9513C96.6366 16.9372 96.6639 16.9297 96.6874 16.9203C96.709 16.9128 96.7363 16.9466 96.7363 16.9551C96.7353 16.9795 96.7616 16.9786 96.7767 16.9889C96.7823 16.9918 96.7889 16.9955 96.7917 16.9993C96.7992 17.0077 96.7062 17.2568 96.6893 17.2784C96.6846 17.284 96.4797 17.596 96.459 17.6327C96.4487 17.6524 96.4299 17.6656 96.413 17.6806C96.4055 17.6881 96.2466 17.9409 96.2391 17.9503C96.1996 17.9973 96.1715 18.0537 96.1132 18.0875C96.1019 18.0941 96.0953 18.1054 96.0888 18.1148C96.0286 18.2022 95.9572 18.2811 95.8886 18.362C95.8529 18.4033 95.8237 18.4484 95.7908 18.4916C95.7852 18.5001 95.7758 18.5048 95.7692 18.5123C95.7598 18.5208 95.7495 18.5283 95.742 18.5386C95.6677 18.642 95.5794 18.736 95.5127 18.8459C95.4967 18.8723 95.3867 18.9653 95.3698 18.9944C95.3604 19.0113 95.2852 19.033 95.2815 19.0508Z" fill="#221F1F"/>
<path fill-rule="evenodd" clip-rule="evenodd" d="M1.49683 15.6377C1.4583 15.5795 1.49589 15.5184 1.58047 15.4526C1.60679 15.4319 1.69795 15.4159 1.71486 15.431C1.74682 15.461 1.77783 15.4911 1.80226 15.524C1.8173 15.5437 1.92913 15.8811 1.97048 15.9958C2.01089 16.1057 2.03721 16.2194 2.05976 16.3332C2.10675 16.5653 2.15844 16.7955 2.20543 17.0277C2.21671 17.0793 2.22235 17.131 2.22422 17.1846C2.23174 17.3669 2.26558 17.5436 2.30881 17.7184C2.31632 17.7485 2.31914 17.7785 2.33888 17.8039C2.37177 17.8462 2.46763 18.3255 2.46951 18.3894C2.47327 18.5492 2.48736 18.707 2.49676 18.8659C2.49864 18.8875 2.50898 18.91 2.49582 18.9335C2.46763 18.988 2.4836 19.0341 2.49018 19.083C2.49958 19.1497 2.50616 19.2174 2.5071 19.285C2.5071 19.3188 2.493 19.3564 2.48173 19.3921C2.47139 19.4241 2.41218 19.4194 2.40372 19.4109C2.37929 19.3846 2.35767 19.4147 2.33512 19.4213C2.32666 19.4241 2.31632 19.4279 2.30974 19.4279C2.29565 19.4269 2.11897 19.067 2.11145 19.0256C2.10863 19.0153 1.96484 18.4674 1.94417 18.4063C1.93289 18.3744 1.93571 18.3387 1.93383 18.3048C1.93383 18.2888 1.80978 17.8518 1.80696 17.834C1.79192 17.741 1.75809 17.6526 1.77313 17.5539C1.77689 17.5351 1.77125 17.5163 1.76655 17.4975C1.72802 17.3415 1.70828 17.1808 1.68385 17.0211C1.67257 16.9403 1.65002 16.8604 1.63404 16.7796C1.63122 16.7645 1.63404 16.7495 1.6331 16.7344C1.63216 16.7147 1.6331 16.6959 1.6284 16.6781C1.58517 16.4873 1.5645 16.2927 1.50905 16.1057C1.49589 16.0616 1.49495 15.8435 1.47804 15.7937C1.46958 15.7665 1.51281 15.6603 1.49683 15.6377Z" fill="#221F1F"/>
<path fill-rule="evenodd" clip-rule="evenodd" d="M78.4696 0.256113C78.4245 0.18469 78.4659 0.110447 78.5599 0.0315052C78.5899 0.00613107 78.6933 -0.010785 78.7112 0.00801064C78.7488 0.0446622 78.7835 0.0831933 78.8127 0.122664C78.8286 0.147098 78.9621 0.562482 79.0119 0.70251C79.0589 0.837839 79.0908 0.976927 79.119 1.11695C79.1764 1.40077 79.2384 1.68364 79.2967 1.96746C79.3098 2.03042 79.3183 2.09433 79.3211 2.15917C79.3333 2.3819 79.3747 2.59805 79.4273 2.81326C79.4357 2.84897 79.4404 2.88657 79.463 2.91852C79.4996 2.97021 79.6181 3.55757 79.6209 3.63557C79.6284 3.83011 79.6472 4.02276 79.6613 4.2173C79.6641 4.24455 79.6754 4.27181 79.6622 4.30094C79.6303 4.36672 79.6491 4.42311 79.6575 4.48232C79.6697 4.56408 79.6791 4.64678 79.681 4.73042C79.682 4.77177 79.665 4.81594 79.6538 4.85917C79.6444 4.89864 79.5758 4.89206 79.5664 4.88078C79.5391 4.84883 79.5147 4.88454 79.4884 4.893C79.4799 4.89582 79.4686 4.89958 79.4611 4.89958C79.4442 4.89864 79.2384 4.456 79.229 4.40525C79.2262 4.39304 79.0523 3.72015 79.0279 3.64497C79.0157 3.6055 79.0175 3.56321 79.0157 3.52186C79.0147 3.50212 78.8653 2.96645 78.8615 2.94389C78.8437 2.83112 78.8033 2.72116 78.8192 2.60181C78.8221 2.57832 78.8155 2.55576 78.8098 2.53321C78.7629 2.34149 78.7384 2.14508 78.7074 1.9496C78.6924 1.84998 78.6661 1.75225 78.6463 1.65263C78.6435 1.63477 78.6454 1.61598 78.6444 1.59812C78.6426 1.57463 78.6435 1.55113 78.6388 1.52858C78.5852 1.29551 78.5589 1.05775 78.4922 0.827501C78.4772 0.773934 78.4715 0.507975 78.4518 0.446889C78.4414 0.413057 78.4875 0.284307 78.4696 0.256113Z" fill="#221F1F"/>
<path fill-rule="evenodd" clip-rule="evenodd" d="M94.5166 18.3483C94.4715 18.3783 94.4226 18.3501 94.3728 18.2872C94.3568 18.2674 94.3446 18.1979 94.3568 18.1857C94.3803 18.1612 94.4038 18.1377 94.4301 18.1199C94.4452 18.1086 94.7102 18.0221 94.7995 17.9902C94.8859 17.9592 94.9743 17.9385 95.0645 17.9207C95.2449 17.884 95.4263 17.8436 95.6077 17.8069C95.6481 17.7985 95.6894 17.7938 95.7308 17.7919C95.8727 17.7853 96.0109 17.759 96.1481 17.7252C96.1706 17.7195 96.1951 17.7167 96.2157 17.7017C96.2486 17.6772 96.6236 17.6021 96.6734 17.6002C96.7984 17.5964 96.9215 17.5852 97.0456 17.5767C97.0634 17.5748 97.0813 17.5673 97.0991 17.5767C97.1414 17.5983 97.1781 17.5852 97.2157 17.5805C97.2673 17.5729 97.3209 17.5673 97.3745 17.5664C97.4008 17.5654 97.429 17.5767 97.4572 17.5852C97.4826 17.5917 97.4779 17.6368 97.4713 17.6434C97.4506 17.6613 97.4732 17.6782 97.4797 17.6951C97.4816 17.7007 97.4835 17.7083 97.4835 17.7139C97.4835 17.7242 97.2006 17.8586 97.1687 17.8652C97.1602 17.8671 96.7307 17.9789 96.6828 17.9949C96.6584 18.0034 96.6311 18.0015 96.6039 18.0024C96.5916 18.0034 96.2496 18.0992 96.2355 18.102C96.1622 18.1133 96.0926 18.1396 96.0165 18.1283C96.0015 18.1265 95.9864 18.1312 95.9723 18.134C95.8492 18.1641 95.7242 18.18 95.5992 18.1988C95.5353 18.2092 95.4733 18.2251 95.4103 18.2383C95.3981 18.2402 95.3859 18.2392 95.3746 18.2392C95.3596 18.2402 95.3445 18.2392 95.3305 18.243C95.182 18.2768 95.0288 18.2928 94.8822 18.336C94.8483 18.3464 94.6773 18.3483 94.6388 18.3614C94.6172 18.368 94.5354 18.336 94.5166 18.3483Z" fill="#221F1F"/>
<path fill-rule="evenodd" clip-rule="evenodd" d="M0.219814 17.9385C0.159668 17.978 0.0957625 17.9404 0.0280981 17.8567C0.00648314 17.8295 -0.00949317 17.7383 0.00648314 17.7223C0.0384358 17.6895 0.0703884 17.6584 0.104221 17.634C0.124896 17.619 0.475435 17.5043 0.593847 17.4611C0.709441 17.4197 0.826914 17.3934 0.945326 17.3699C1.18591 17.3211 1.42649 17.2675 1.66708 17.2177C1.71971 17.2073 1.77421 17.2008 1.82872 17.1979C2.01856 17.1895 2.20182 17.1547 2.38413 17.1096C2.41421 17.1021 2.44616 17.0983 2.47247 17.0786C2.51664 17.0457 3.01473 16.9461 3.08051 16.9442C3.24591 16.9395 3.41038 16.9235 3.5739 16.9132C3.59739 16.9113 3.62089 16.901 3.64532 16.9132C3.70171 16.9414 3.7487 16.9254 3.79945 16.9188C3.86899 16.9085 3.93947 16.901 4.00996 16.9C4.04567 16.8991 4.08326 16.9141 4.11991 16.9245C4.15374 16.9339 4.14811 16.994 4.13871 17.0025C4.11145 17.0269 4.14247 17.0485 4.14999 17.0711C4.1528 17.0786 4.15562 17.0899 4.15562 17.0965C4.15562 17.1115 3.78065 17.29 3.73742 17.2985C3.72708 17.3004 3.15757 17.4489 3.09367 17.4695C3.05984 17.4808 3.02413 17.4789 2.98841 17.4808C2.97244 17.4818 2.51852 17.6086 2.49973 17.6115C2.40387 17.6274 2.31083 17.6622 2.20933 17.6472C2.18866 17.6443 2.16986 17.65 2.15107 17.6547C1.98848 17.6951 1.82214 17.7158 1.6558 17.7411C1.57122 17.7534 1.48852 17.7759 1.40488 17.7928C1.38984 17.7956 1.37387 17.7938 1.35789 17.7947C1.33816 17.7956 1.31842 17.7947 1.29962 17.7994C1.10133 17.8445 0.899277 17.8652 0.704742 17.9225C0.659632 17.9366 0.433145 17.9385 0.381456 17.9554C0.353263 17.9648 0.244248 17.9225 0.219814 17.9385Z" fill="#221F1F"/>
<path fill-rule="evenodd" clip-rule="evenodd" d="M0.556161 16.5082C0.492256 16.4978 0.478159 16.4292 0.494135 16.3249C0.498834 16.292 0.552402 16.2159 0.574017 16.2149C0.615367 16.2121 0.656718 16.2093 0.694309 16.214C0.717803 16.2159 1.01384 16.3615 1.11627 16.4076C1.21589 16.4518 1.30705 16.5091 1.39633 16.5683C1.57864 16.6895 1.76378 16.807 1.9461 16.9273C1.98651 16.9536 2.0241 16.9846 2.06075 17.0175C2.18292 17.134 2.32013 17.228 2.46392 17.3135C2.48741 17.3286 2.50997 17.3464 2.54004 17.3493C2.58985 17.354 2.96576 17.6049 3.00805 17.6462C3.11425 17.7496 3.22514 17.8445 3.3351 17.9432C3.35014 17.9573 3.37175 17.9648 3.37833 17.9892C3.39337 18.0466 3.43472 18.0654 3.47043 18.0936C3.5193 18.1312 3.56816 18.1706 3.61233 18.2157C3.63489 18.2383 3.64805 18.2731 3.66402 18.305C3.67812 18.3332 3.63301 18.3736 3.62173 18.3736C3.58884 18.3727 3.59166 18.4084 3.58132 18.43C3.57662 18.4375 3.57192 18.4469 3.56722 18.4516C3.55689 18.462 3.20259 18.3482 3.1697 18.3266C3.16218 18.321 2.70826 18.0588 2.65376 18.0325C2.62556 18.0184 2.60489 17.9939 2.58139 17.9723C2.57106 17.962 2.20266 17.7599 2.1895 17.7496C2.11902 17.6989 2.0382 17.6631 1.98557 17.587C1.97523 17.572 1.95926 17.5645 1.94422 17.5551C1.81641 17.478 1.69894 17.385 1.57958 17.2957C1.5185 17.2506 1.45177 17.213 1.38881 17.1707C1.37659 17.1632 1.36813 17.151 1.35874 17.1416C1.34558 17.1303 1.33336 17.1162 1.31926 17.1068C1.16608 17.0119 1.02605 16.8963 0.866289 16.8108C0.829638 16.791 0.68773 16.6463 0.6445 16.6256C0.620066 16.6134 0.581535 16.5119 0.556161 16.5082Z" fill="#221F1F"/>
<path fill-rule="evenodd" clip-rule="evenodd" d="M1.23441 18.8705C1.2222 18.9306 1.15453 18.9382 1.05397 18.9137C1.02108 18.9062 0.948719 18.8479 0.947779 18.8273C0.9459 18.7878 0.9459 18.7474 0.951539 18.7117C0.954358 18.6901 1.1066 18.4185 1.15547 18.3235C1.20246 18.2324 1.26073 18.1497 1.32275 18.0689C1.4468 17.9044 1.5671 17.7371 1.69115 17.5727C1.71934 17.536 1.75035 17.5012 1.78419 17.4702C1.9026 17.3631 1.99846 17.239 2.08774 17.1093C2.10277 17.0877 2.12063 17.068 2.12439 17.0389C2.13097 16.9919 2.38941 16.6526 2.4317 16.616C2.53601 16.5229 2.63281 16.4242 2.73337 16.3274C2.74746 16.3143 2.75592 16.2946 2.78036 16.2899C2.8358 16.2805 2.85648 16.2429 2.88467 16.2109C2.9232 16.1667 2.96361 16.1235 3.00966 16.085C3.03222 16.0652 3.06699 16.0559 3.098 16.0436C3.12714 16.0324 3.16473 16.0784 3.16379 16.0906C3.16285 16.1226 3.19762 16.1216 3.21829 16.1339C3.22487 16.1386 3.23427 16.1442 3.23897 16.1489C3.24837 16.1602 3.12526 16.49 3.1027 16.5201C3.09706 16.5267 2.82547 16.9402 2.79821 16.99C2.78318 17.0154 2.75874 17.0332 2.73619 17.053C2.72585 17.0633 2.51534 17.3988 2.50594 17.411C2.45237 17.474 2.41572 17.5482 2.33866 17.5924C2.32362 17.6009 2.31516 17.6159 2.30671 17.629C2.22682 17.7456 2.13191 17.8499 2.03981 17.9561C1.99376 18.0115 1.95523 18.0717 1.91106 18.129C1.90354 18.1393 1.89132 18.1459 1.88192 18.1553C1.86971 18.1666 1.85561 18.1769 1.84621 18.1901C1.74753 18.3292 1.63006 18.4532 1.54172 18.5989C1.52105 18.6327 1.37444 18.7558 1.35189 18.7953C1.33967 18.8179 1.23911 18.8461 1.23441 18.8705Z" fill="#221F1F"/>
<path fill-rule="evenodd" clip-rule="evenodd" d="M25.7426 71.1881L24.8884 71.159L24.4486 71.1317L24.1976 71.111C24.0811 71.1101 23.9514 71.081 23.8358 71.0518C23.3396 70.9992 22.927 70.6872 22.6977 70.254C22.5549 70.0651 22.4337 69.8254 22.3961 69.6647C22.3387 69.504 22.2833 69.3414 22.2542 69.1958C22.1404 68.7531 22.0211 68.3443 21.9638 67.9214C21.867 67.1809 21.835 66.4554 21.8115 65.7298C21.8181 65.0043 21.8491 64.2835 21.8848 63.5665C21.9149 62.9293 21.9093 62.2912 21.9205 61.6587C21.913 60.8486 21.9469 60.0225 22.2213 59.2256C22.3068 58.9766 22.5793 59.0574 22.8509 59.3036C23.1159 59.5498 23.411 59.9492 23.4402 60.3938C23.5163 61.9717 23.5153 63.558 23.4674 65.1669C23.4129 66.1302 23.5595 67.1264 23.7108 68.0558C23.7456 68.3171 23.8029 68.5567 23.8574 68.7992C23.8828 68.9185 23.9279 69.021 23.9542 69.1196C23.973 69.2033 23.9918 69.2268 24.0153 69.285C24.0595 69.3941 24.1657 69.4457 24.2813 69.4551C24.4025 69.4758 24.7577 69.4993 24.9983 69.5087C25.6628 69.5284 26.3413 69.5651 27.017 69.5642C28.0413 69.5341 29.0751 69.5125 30.091 69.4082C30.8804 69.3264 31.6454 69.1441 32.417 68.9899C32.5871 68.9561 32.7515 68.9063 32.9226 68.88C33.5588 68.7776 33.774 68.8997 33.9601 69.3292C34.0024 69.4288 34.0541 69.5256 34.0832 69.6262C34.1819 69.9626 33.9498 70.2812 33.4846 70.4494C32.1012 70.8808 30.6116 71.0171 29.1118 71.0941C27.9972 71.1486 26.877 71.1364 25.7445 71.2295L25.7426 71.1881Z" fill="url(#paint1_radial_1138_165)"/>
<path fill-rule="evenodd" clip-rule="evenodd" d="M44.5714 71.3708L43.7171 71.3416L43.2773 71.3144L43.0254 71.2937C42.9089 71.2928 42.7801 71.2636 42.6636 71.2345C42.1683 71.1828 41.7558 70.8699 41.5255 70.4366C41.3827 70.2477 41.2624 70.0081 41.2239 69.8474C41.1675 69.6867 41.112 69.5241 41.0829 69.3784C40.9692 68.9367 40.8498 68.527 40.7925 68.1041C40.6957 67.3645 40.6638 66.638 40.6403 65.9135C40.6468 65.187 40.6779 64.4662 40.7126 63.7491C40.7436 63.112 40.738 62.4739 40.7493 61.8414C40.7418 61.0313 40.7756 60.2052 41.05 59.4083C41.1355 59.1602 41.4081 59.2401 41.6787 59.4863C41.9447 59.7325 42.2398 60.1319 42.2689 60.5764C42.345 62.1543 42.3441 63.7407 42.2962 65.3496C42.2416 66.3138 42.3883 67.309 42.5396 68.2385C42.5743 68.5007 42.6317 68.7394 42.6862 68.9818C42.7115 69.1012 42.7557 69.2036 42.783 69.3033C42.8018 69.386 42.8206 69.4104 42.844 69.4677C42.8873 69.5767 42.9944 69.6284 43.11 69.6378C43.2303 69.6585 43.5865 69.682 43.8271 69.6914C44.4915 69.7121 45.17 69.7478 45.8457 69.7468C46.8701 69.7177 47.9038 69.6951 48.9197 69.5908C49.7092 69.51 50.4741 69.3267 51.2457 69.1726C51.4158 69.1397 51.5793 69.089 51.7513 69.0627C52.3866 68.9602 52.6028 69.0824 52.7879 69.5119C52.8302 69.6115 52.8828 69.7092 52.9119 69.8089C53.0106 70.1453 52.7785 70.4639 52.3133 70.633C50.9299 71.0635 49.4394 71.2007 47.9405 71.2768C46.825 71.3313 45.7057 71.32 44.5732 71.4121L44.5714 71.3708Z" fill="url(#paint2_radial_1138_165)"/>
<path fill-rule="evenodd" clip-rule="evenodd" d="M44.5714 45.3708L43.7171 45.3416L43.2773 45.3144L43.0254 45.2937C42.9089 45.2928 42.7801 45.2636 42.6636 45.2345C42.1683 45.1828 41.7558 44.8699 41.5255 44.4366C41.3827 44.2477 41.2624 44.0081 41.2239 43.8474C41.1675 43.6867 41.112 43.5241 41.0829 43.3784C40.9692 42.9367 40.8498 42.527 40.7925 42.1041C40.6957 41.3645 40.6638 40.638 40.6403 39.9135C40.6468 39.187 40.6779 38.4662 40.7126 37.7491C40.7436 37.112 40.738 36.4739 40.7493 35.8414C40.7418 35.0313 40.7756 34.2052 41.05 33.4083C41.1355 33.1602 41.4081 33.2401 41.6787 33.4863C41.9447 33.7325 42.2398 34.1319 42.2689 34.5764C42.345 36.1543 42.3441 37.7407 42.2962 39.3496C42.2416 40.3138 42.3883 41.309 42.5396 42.2385C42.5743 42.5007 42.6317 42.7394 42.6862 42.9818C42.7115 43.1012 42.7557 43.2036 42.783 43.3033C42.8018 43.386 42.8206 43.4104 42.844 43.4677C42.8873 43.5767 42.9944 43.6284 43.11 43.6378C43.2303 43.6585 43.5865 43.682 43.8271 43.6914C44.4915 43.7121 45.17 43.7478 45.8457 43.7468C46.8701 43.7177 47.9038 43.6951 48.9197 43.5908C49.7092 43.51 50.4741 43.3267 51.2457 43.1726C51.4158 43.1397 51.5793 43.089 51.7513 43.0627C52.3866 42.9602 52.6028 43.0824 52.7879 43.5119C52.8302 43.6115 52.8828 43.7092 52.9119 43.8089C53.0106 44.1453 52.7785 44.4639 52.3133 44.633C50.9299 45.0635 49.4394 45.2007 47.9405 45.2768C46.825 45.3313 45.7057 45.32 44.5732 45.4121L44.5714 45.3708Z" fill="#231F20"/>
<path fill-rule="evenodd" clip-rule="evenodd" d="M63.059 71.0918L62.2047 71.0626L61.7649 71.0363L61.5131 71.0156C61.3965 71.0138 61.2678 70.9846 61.1512 70.9555C60.655 70.9038 60.2434 70.5908 60.0141 70.1576C59.8703 69.9687 59.75 69.73 59.7115 69.5684C59.6551 69.4077 59.5987 69.2451 59.5705 69.0994C59.4568 68.6577 59.3375 68.248 59.2801 67.826C59.1833 67.0855 59.1514 66.359 59.127 65.6344C59.1345 64.908 59.1655 64.1872 59.2012 63.4701C59.2313 62.8329 59.2256 62.1958 59.2369 61.5633C59.2294 60.7523 59.2632 59.9271 59.5376 59.1293C59.6232 58.8812 59.8957 58.961 60.1673 59.2073C60.4314 59.4535 60.7274 59.8538 60.7565 60.2974C60.8327 61.8753 60.8317 63.4626 60.7838 65.0715C60.7293 66.0348 60.8759 67.03 61.0272 67.9595C61.062 68.2217 61.1193 68.4604 61.1738 68.7028C61.1992 68.8222 61.2433 68.9246 61.2706 69.0242C61.2894 69.1069 61.3082 69.1314 61.3317 69.1887C61.3749 69.2977 61.482 69.3494 61.5976 69.3588C61.7179 69.3795 62.0732 69.403 62.3147 69.4124C62.9782 69.433 63.6576 69.4688 64.3333 69.4678C65.3577 69.4387 66.3915 69.4161 67.4074 69.3118C68.1968 69.231 68.9618 69.0477 69.7333 68.8936C69.9025 68.8607 70.067 68.81 70.2389 68.7836C70.8742 68.6812 71.0904 68.8034 71.2755 69.2338C71.3178 69.3325 71.3704 69.4302 71.3996 69.5298C71.4983 69.8663 71.2661 70.1849 70.8009 70.354C69.4176 70.7844 67.928 70.9217 66.4281 70.9987C65.3126 71.0523 64.1933 71.041 63.0609 71.1331L63.059 71.0918Z" fill="url(#paint3_radial_1138_165)"/>
<path fill-rule="evenodd" clip-rule="evenodd" d="M63.059 45.0918L62.2047 45.0626L61.7649 45.0363L61.5131 45.0156C61.3965 45.0138 61.2678 44.9846 61.1512 44.9555C60.655 44.9038 60.2434 44.5908 60.0141 44.1576C59.8703 43.9687 59.75 43.73 59.7115 43.5684C59.6551 43.4077 59.5987 43.2451 59.5705 43.0994C59.4568 42.6577 59.3375 42.248 59.2801 41.826C59.1833 41.0855 59.1514 40.359 59.127 39.6344C59.1345 38.908 59.1655 38.1872 59.2012 37.4701C59.2313 36.8329 59.2256 36.1958 59.2369 35.5633C59.2294 34.7523 59.2632 33.9271 59.5376 33.1293C59.6232 32.8812 59.8957 32.961 60.1673 33.2073C60.4314 33.4535 60.7274 33.8538 60.7565 34.2974C60.8327 35.8753 60.8317 37.4626 60.7838 39.0715C60.7293 40.0348 60.8759 41.03 61.0272 41.9595C61.062 42.2217 61.1193 42.4604 61.1738 42.7028C61.1992 42.8222 61.2433 42.9246 61.2706 43.0242C61.2894 43.1069 61.3082 43.1314 61.3317 43.1887C61.3749 43.2977 61.482 43.3494 61.5976 43.3588C61.7179 43.3795 62.0732 43.403 62.3147 43.4124C62.9782 43.433 63.6576 43.4688 64.3333 43.4678C65.3577 43.4387 66.3915 43.4161 67.4074 43.3118C68.1968 43.231 68.9618 43.0477 69.7333 42.8936C69.9025 42.8607 70.067 42.81 70.2389 42.7836C70.8742 42.6812 71.0904 42.8034 71.2755 43.2338C71.3178 43.3325 71.3704 43.4302 71.3996 43.5298C71.4983 43.8663 71.2661 44.1849 70.8009 44.354C69.4176 44.7844 67.928 44.9217 66.4281 44.9987C65.3126 45.0523 64.1933 45.041 63.0609 45.1331L63.059 45.0918Z" fill="#231F20"/>
<path fill-rule="evenodd" clip-rule="evenodd" d="M64.059 96.3034L63.2047 96.2743L62.7649 96.247L62.513 96.2264C62.3965 96.2254 62.2678 96.1963 62.1512 96.1672C61.656 96.1155 61.2434 95.8025 61.0141 95.3693C60.8712 95.1804 60.75 94.9407 60.7115 94.78C60.6551 94.6193 60.5996 94.4568 60.5705 94.3111C60.4568 93.8694 60.3374 93.4596 60.2801 93.0367C60.1833 92.2962 60.1514 91.5707 60.1279 90.8452C60.1344 90.1197 60.1655 89.3988 60.2012 88.6818C60.2312 88.0446 60.2256 87.4065 60.2369 86.774C60.2294 85.9639 60.2632 85.1379 60.5376 84.3409C60.6231 84.0919 60.8957 84.1727 61.1673 84.4189C61.4323 84.6652 61.7274 85.0646 61.7565 85.5091C61.8326 87.087 61.8317 88.6733 61.7838 90.2822C61.7293 91.2455 61.8759 92.2417 62.0272 93.1711C62.0619 93.4333 62.1193 93.672 62.1738 93.9145C62.1991 94.0339 62.2433 94.1363 62.2706 94.2359C62.2894 94.3186 62.3082 94.343 62.3317 94.4004C62.3749 94.5094 62.482 94.5611 62.5976 94.5705C62.7179 94.5911 63.0741 94.6146 63.3147 94.624C63.9791 94.6438 64.6576 94.6804 65.3333 94.6795C66.3577 94.6494 67.3914 94.6278 68.4074 94.5235C69.1968 94.4417 69.9618 94.2594 70.7333 94.1053C70.9034 94.0714 71.0669 94.0216 71.2389 93.9953C71.8752 93.8929 72.0904 94.0151 72.2764 94.4445C72.3178 94.5442 72.3704 94.641 72.3996 94.7415C72.4982 95.0779 72.2661 95.3965 71.8009 95.5657C70.4175 95.9961 68.9271 96.1333 67.4281 96.2094C66.3126 96.264 65.1933 96.2517 64.0609 96.3448L64.059 96.3034Z" fill="#231F20"/>
<path fill-rule="evenodd" clip-rule="evenodd" d="M44.9563 96.8908C44.617 96.8842 44.2796 96.8729 43.9291 96.8523L43.3427 96.809C43.0495 96.7602 42.7609 96.7019 42.4903 96.5995C42.3503 96.4679 42.198 96.3448 42.0721 96.2019L41.7535 95.717C41.6511 95.5413 41.6238 95.389 41.5759 95.2716C41.528 95.1409 41.4913 95.0159 41.4678 94.8985C41.3541 94.4568 41.2347 94.047 41.1774 93.6241C41.0806 92.8836 41.0487 92.1581 41.0242 91.4325C41.0317 90.707 41.0628 89.9862 41.0975 89.2692C41.1285 88.632 41.1229 87.9939 41.1342 87.3614C41.1267 86.5513 41.1605 85.7252 41.4349 84.9283C41.5204 84.6793 41.793 84.7601 42.0636 85.0063C42.3286 85.2525 42.6247 85.6519 42.6538 86.0965C42.7299 87.6743 42.729 89.2607 42.6811 90.8696C42.6266 91.8329 42.7732 92.8291 42.9245 93.7585C42.9696 94.078 43.0391 94.3872 43.1171 94.6635C43.1698 94.8148 43.182 94.8975 43.2111 94.9473C43.2327 95.0112 43.275 95.0686 43.3295 95.1109C43.4197 95.1484 43.4545 95.1541 43.6152 95.1719C43.8041 95.1926 44.0109 95.2001 44.212 95.2114C44.8755 95.2311 45.5549 95.2678 46.2306 95.2669C47.255 95.2368 48.2888 95.2152 49.3047 95.1109C50.0941 95.0291 50.8591 94.8468 51.6306 94.6926C51.7998 94.6588 51.9642 94.609 52.1362 94.5827C52.7715 94.4803 52.9877 94.6024 53.1728 95.0319C53.2151 95.1315 53.2677 95.2283 53.2969 95.3289C53.3955 95.6653 53.1625 95.9839 52.6982 96.1531C51.3149 96.5835 49.8244 96.7207 48.3254 96.7968C47.2099 96.8513 46.0906 96.8391 44.9582 96.9321L44.9563 96.8908Z" fill="#231F20"/>
<path fill-rule="evenodd" clip-rule="evenodd" d="M26.1299 96.8752L25.2756 96.846L24.8368 96.8197L24.5849 96.799C24.4684 96.7972 24.3387 96.768 24.2231 96.7389C23.7269 96.6872 23.3143 96.3743 23.085 95.941C22.9422 95.7521 22.8209 95.5134 22.7833 95.3518C22.726 95.1911 22.6706 95.0285 22.6414 94.8828C22.5277 94.4411 22.4084 94.0314 22.351 93.6085C22.2552 92.8689 22.2223 92.1424 22.1988 91.4179C22.2063 90.6914 22.2364 89.9706 22.2721 89.2535C22.3022 88.6164 22.2965 87.9792 22.3078 87.3467C22.3003 86.5357 22.3341 85.7106 22.6085 84.9127C22.6941 84.6646 22.9675 84.7445 23.2382 84.9907C23.5032 85.2369 23.7983 85.6372 23.8274 86.0808C23.9045 87.6587 23.9026 89.246 23.8547 90.8549C23.8002 91.8182 23.9468 92.8134 24.0981 93.7429C24.1329 94.0051 24.1902 94.2438 24.2447 94.4862C24.2701 94.6056 24.3152 94.708 24.3415 94.8076C24.3603 94.8904 24.3791 94.9148 24.4035 94.9721C24.4468 95.0811 24.5529 95.1328 24.6685 95.1422C24.7898 95.1629 25.145 95.1864 25.3865 95.1958C26.05 95.2165 26.7285 95.2522 27.4042 95.2512C28.4296 95.2221 29.4633 95.1995 30.4783 95.0952C31.2677 95.0144 32.0327 94.8311 32.8042 94.677C32.9743 94.6441 33.1388 94.5934 33.3098 94.5671C33.9461 94.4646 34.1613 94.5868 34.3474 95.0172C34.3897 95.1159 34.4413 95.2136 34.4705 95.3133C34.5692 95.6497 34.337 95.9683 33.8718 96.1374C32.4885 96.5679 30.9989 96.7051 29.499 96.7812C28.3844 96.8357 27.2642 96.8244 26.1318 96.9165L26.1299 96.8752Z" fill="#231F20"/>
<path fill-rule="evenodd" clip-rule="evenodd" d="M81.7381 70.71C81.7363 67.0984 81.6958 63.4821 81.5943 59.8658C81.5643 58.5464 81.4562 57.2307 81.413 55.9121C81.2917 51.2612 81.1263 46.6064 80.9064 41.9545C80.803 39.8907 80.6226 37.8204 80.4459 35.7764C80.3332 34.4635 80.2194 33.1459 80.1067 31.8302C80.0371 30.507 80.0531 29.1894 80.227 27.8342C80.3059 26.9931 80.5803 27.1144 80.9882 27.791C81.1921 28.1303 81.459 28.5945 81.7644 29.1734C82.0407 29.7514 82.2607 30.4309 82.3997 31.1808C83.0275 36.5272 83.2427 41.9197 83.2991 47.3611C83.3179 50.6165 83.6111 53.9893 83.7324 57.3134C83.8564 60.9691 83.9335 64.6286 83.9729 68.2891C83.9805 70.5417 83.987 72.7963 83.9936 75.0471C83.9692 76.7537 83.9447 78.4632 83.9194 80.1708C83.8724 81.8793 83.8263 83.5831 83.7793 85.2775C83.6609 87.9146 83.7098 90.5074 83.4852 93.1332C83.4438 93.7121 83.4335 94.2797 83.3724 94.8624C83.0313 97.0248 82.7653 97.6892 82.084 98.0135C81.9317 98.0877 81.7767 98.1948 81.6366 98.2249C81.1714 98.3264 80.9045 97.3848 81.0418 95.8661C81.3434 91.3297 81.5605 86.5039 81.6329 81.6246C81.6968 78.0055 81.7297 74.3582 81.6808 70.7156L81.7381 70.71Z" fill="#231F20"/>
<path fill-rule="evenodd" clip-rule="evenodd" d="M11.9428 79.5131C11.3018 68.4321 11.1054 57.3577 11.221 46.2795C11.2699 42.2366 11.3 38.1927 11.5048 34.1488C11.7012 30.5795 11.908 27.0253 12.486 23.4108C12.5574 22.9588 12.6673 22.4946 12.7566 22.0369C12.8873 21.5745 12.9963 21.0623 13.1964 20.6235C13.5498 19.7194 14.0094 18.8416 14.5948 18.0428C15.7667 16.433 17.4565 15.247 19.2252 14.5327C21.0013 13.8034 22.8461 13.4651 24.6505 13.2603C26.4605 13.0554 28.2518 12.9802 30.011 12.8693C33.5803 12.6231 37.1506 12.5911 40.7058 12.5611C47.0211 12.5319 53.3656 12.5733 59.632 12.7819C63.6609 12.9398 67.6869 13.0667 71.7534 13.6465C73.7842 13.9444 75.8931 14.5572 77.6693 15.8174C78.5536 16.4442 79.3327 17.2506 79.8966 18.1866C80.4651 19.1198 80.8138 20.1639 80.9773 21.2108C81.061 21.8677 81.0704 22.3376 81.0253 22.6374C80.9933 22.9372 80.9397 23.0669 80.8702 23.05C80.7133 23.019 80.5742 22.3855 80.218 21.4007C79.8534 20.4299 79.2077 19.0954 77.9531 18.0578C76.7182 17.0034 74.9101 16.2929 72.7993 15.9048C68.9782 15.2451 64.8243 15.074 60.7711 14.9068C56.6933 14.7564 52.6015 14.6868 48.506 14.6586C40.3233 14.6201 32.071 14.653 24.0124 15.4904C21.6695 15.8061 19.3793 16.4743 17.6529 17.8755C16.809 18.5907 16.1333 19.4779 15.6032 20.474C15.4078 21.0031 15.1117 21.5191 15.0008 22.0594C14.9191 22.3169 14.858 22.6055 14.8044 22.9052C14.7527 23.2032 14.6804 23.486 14.6437 23.7962C13.952 28.6943 13.8223 33.8255 13.6626 38.8496C13.3835 49.9362 13.5282 61.0604 14.0178 72.1527C14.343 78.9764 14.7621 85.8105 15.6446 92.5535C15.9979 95.0975 16.3964 97.6537 17.0608 100.077C17.261 100.63 17.4255 101.355 17.6567 101.63C17.9226 102.005 18.3793 102.352 18.8812 102.64C19.8962 103.228 21.1075 103.621 22.3123 103.962C27.2208 105.231 32.4103 105.623 37.5096 105.876C45.4686 106.207 53.3026 105.887 61.1413 105.267C62.8677 105.125 64.5509 104.942 66.2829 104.758C72.7129 104.076 74.63 103.77 76.1168 104.056C76.456 104.11 76.8902 104.099 77.1355 104.12C77.346 104.151 77.3845 104.271 77.1994 104.517C77.0143 104.754 76.6149 105.057 76.0444 105.338C74.9016 105.923 73.0465 106.436 70.6604 106.86C63.5754 108.035 56.2733 108.471 48.8499 108.632C45.1378 108.696 41.3956 108.66 37.6327 108.489C33.8688 108.315 30.0862 108.02 26.2829 107.425C24.8695 107.199 23.4542 106.927 22.0285 106.557C20.6029 106.179 19.1697 105.743 17.6989 104.936C16.9734 104.516 16.1925 104.013 15.5205 103.072C15.3495 102.855 15.2123 102.557 15.0826 102.278C14.9877 102.043 14.951 101.897 14.8834 101.701C14.7696 101.337 14.6259 100.961 14.5403 100.605C14.1569 99.1667 13.8571 97.7505 13.6297 96.3436C12.6965 90.7134 12.2651 85.1254 11.8817 79.5319L11.9428 79.5131Z" fill="#231F20"/>
<path fill-rule="evenodd" clip-rule="evenodd" d="M47.9477 109.945C44.775 109.979 41.5948 109.995 38.4117 109.914C37.2502 109.89 36.0867 109.905 34.9261 109.847C30.8315 109.627 26.7321 109.213 22.6892 108.414C20.8998 108.036 19.0945 107.67 17.3503 107.111C15.1192 106.43 12.8412 105.517 11.0584 103.902C10.5077 103.395 10.7972 103.22 11.5114 103.256C11.8695 103.273 12.3318 103.334 12.8309 103.466C13.3543 103.565 13.8928 103.77 14.4698 104.016C18.5447 105.82 23.0905 106.683 27.7067 107.349C30.4772 107.754 33.4083 107.767 36.2813 107.816C39.4446 107.869 42.6182 107.855 45.7956 107.792C47.7513 107.755 49.7098 107.703 51.6674 107.632C54.638 107.524 57.6218 107.417 60.5709 107.309C62.8686 107.214 65.1222 107.008 67.436 106.994C67.9444 106.987 68.4463 106.965 68.965 107.017C69.9198 107.078 70.5608 107.237 70.9846 107.404C71.4113 107.617 71.6293 107.859 71.7684 108.183C71.8323 108.331 71.9225 108.481 71.9451 108.617C72.0062 109.078 71.2205 109.286 69.9114 109.314C66.0113 109.387 61.7851 109.55 57.5222 109.702C54.3401 109.802 51.1439 109.901 47.9534 110L47.9477 109.945Z" fill="url(#paint4_radial_1138_165)"/>
<path fill-rule="evenodd" clip-rule="evenodd" d="M19.6759 106.606C19.1017 106.417 18.5256 106.228 17.9532 106.04C17.7437 105.976 17.5238 105.962 17.3151 105.887C16.5812 105.619 15.8453 105.348 15.1264 105.024C14.8059 104.886 14.4732 104.788 14.1424 104.682C13.7195 104.556 13.2637 104.445 12.916 104.096C12.807 103.989 12.9715 103.723 13.2111 103.48C13.4545 103.239 13.7505 103.006 13.9705 103.045C14.7542 103.214 15.5784 103.328 16.366 103.729C16.8387 103.97 17.3875 103.984 17.9053 104.104C18.4758 104.24 19.049 104.378 19.6214 104.514C19.9766 104.595 20.329 104.685 20.6871 104.753C21.2293 104.854 21.7669 105.009 22.3157 105.06C22.7414 105.102 23.1784 105.018 23.6154 104.993C23.7122 104.988 23.81 104.962 23.9049 104.968C24.263 104.993 24.3541 105.155 24.3269 105.725C24.3203 105.854 24.3193 105.984 24.3062 106.113C24.2601 106.548 24.0571 106.881 23.794 106.966C23.0093 107.225 22.2189 107.172 21.4257 107.059C20.8337 106.991 20.2557 106.798 19.6684 106.657L19.6759 106.606Z" fill="#231F20"/>
<path fill-rule="evenodd" clip-rule="evenodd" d="M22.4516 68.2288C22.0832 66.3765 22.0588 64.6351 22.0804 62.8608C22.0964 62.2161 22.0719 61.5695 22.133 60.9201C22.1866 60.3469 22.2599 59.7736 22.3811 59.1853L22.4845 58.7351C22.5493 58.5209 22.6001 58.284 22.7072 58.0933C22.8754 57.6638 23.3275 57.4645 23.7447 57.3198C24.4646 57.1253 24.9683 57.1074 25.5613 57.051C26.1309 57.0087 26.6938 56.9862 27.2558 56.9702C28.2491 56.942 29.2444 56.9129 30.2302 56.8847C31.5017 56.8603 32.7535 56.8217 34.0767 57.2268C34.5588 57.4298 34.29 57.6384 33.9395 57.8461C33.5824 58.0632 32.9978 58.3451 32.3005 58.3733C29.8383 58.4776 27.2586 58.5274 24.8678 58.7774C24.6949 58.7981 24.5257 58.83 24.3735 58.8629C24.3152 58.8676 24.2569 58.878 24.2015 58.9043C24.1 58.9879 24.1141 59.0349 24.0173 59.4747C23.8867 60.189 23.8368 60.9624 23.7861 61.7236C23.6874 63.4012 23.6987 65.1191 23.8923 66.7816C23.9534 67.2909 24.0408 67.7956 24.1545 68.2683C24.3114 68.7683 24.3641 69.0511 24.6733 69.0699C24.739 69.085 24.9627 69.0906 25.1525 69.1019L25.7437 69.1141L26.9438 69.1056C27.7454 69.0878 28.548 69.0568 29.344 68.9966C30.5826 68.9055 31.7893 68.7015 33.0044 68.522C33.2713 68.4844 33.5307 68.4262 33.8014 68.3942C34.7994 68.2645 35.1274 68.3764 35.3905 68.7974C35.4507 68.8951 35.5259 68.99 35.5653 69.0897C35.6997 69.4205 35.3163 69.7588 34.5814 69.9477C32.3945 70.4401 30.0667 70.613 27.7116 70.692C26.8319 70.7164 25.9664 70.7324 25.0369 70.6901L24.6667 70.6685L24.0464 70.5595C23.6292 70.4909 23.3087 70.1817 23.0737 69.8424C22.7899 69.4449 22.7335 69.2128 22.632 68.9628C22.5409 68.7128 22.4713 68.475 22.4121 68.241L22.4516 68.2288Z" fill="#231F20"/>
<path fill-rule="evenodd" clip-rule="evenodd" d="M22.4516 68.2288C22.0832 66.3765 22.0588 64.6351 22.0804 62.8608C22.0964 62.2161 22.0719 61.5695 22.133 60.9201C22.1866 60.3469 22.2599 59.7736 22.3811 59.1853L22.4845 58.7351C22.5493 58.5209 22.6001 58.284 22.7072 58.0933C22.8754 57.6638 23.3275 57.4645 23.7447 57.3198C24.4646 57.1253 24.9683 57.1074 25.5613 57.051C26.1309 57.0087 26.6938 56.9862 27.2558 56.9702C28.2491 56.942 29.2444 56.9129 30.2302 56.8847C31.5017 56.8603 32.7535 56.8217 34.0767 57.2268C34.5588 57.4298 34.29 57.6384 33.9395 57.8461C33.5824 58.0632 32.9978 58.3451 32.3005 58.3733C29.8383 58.4776 27.2586 58.5274 24.8678 58.7774C24.6949 58.7981 24.5257 58.83 24.3735 58.8629C24.3152 58.8676 24.2569 58.878 24.2015 58.9043C24.1 58.9879 24.1141 59.0349 24.0173 59.4747C23.8867 60.189 23.8368 60.9624 23.7861 61.7236C23.6874 63.4012 23.6987 65.1191 23.8923 66.7816C23.9534 67.2909 24.0408 67.7956 24.1545 68.2683C24.3114 68.7683 24.3641 69.0511 24.6733 69.0699C24.739 69.085 24.9627 69.0906 25.1525 69.1019L25.7437 69.1141L26.9438 69.1056C27.7454 69.0878 28.548 69.0568 29.344 68.9966C30.5826 68.9055 31.7893 68.7015 33.0044 68.522C33.2713 68.4844 33.5307 68.4262 33.8014 68.3942C34.7994 68.2645 35.1274 68.3764 35.3905 68.7974C35.4507 68.8951 35.5259 68.99 35.5653 69.0897C35.6997 69.4205 35.3163 69.7588 34.5814 69.9477C32.3945 70.4401 30.0667 70.613 27.7116 70.692C26.8319 70.7164 25.9664 70.7324 25.0369 70.6901L24.6667 70.6685L24.0464 70.5595C23.6292 70.4909 23.3087 70.1817 23.0737 69.8424C22.7899 69.4449 22.7335 69.2128 22.632 68.9628C22.5409 68.7128 22.4713 68.475 22.4121 68.241L22.4516 68.2288Z" fill="url(#paint5_radial_1138_165)"/>
<path fill-rule="evenodd" clip-rule="evenodd" d="M22.4516 42.2288C22.0832 40.3765 22.0588 38.6351 22.0804 36.8608C22.0964 36.2161 22.0719 35.5695 22.133 34.9201C22.1866 34.3469 22.2599 33.7736 22.3811 33.1853L22.4845 32.7351C22.5493 32.5209 22.6001 32.284 22.7072 32.0933C22.8754 31.6638 23.3275 31.4645 23.7447 31.3198C24.4646 31.1253 24.9683 31.1074 25.5613 31.051C26.1309 31.0087 26.6938 30.9862 27.2558 30.9702C28.2491 30.942 29.2444 30.9129 30.2302 30.8847C31.5017 30.8603 32.7535 30.8217 34.0767 31.2268C34.5588 31.4298 34.29 31.6384 33.9395 31.8461C33.5824 32.0632 32.9978 32.3451 32.3005 32.3733C29.8383 32.4776 27.2586 32.5274 24.8678 32.7774C24.6949 32.7981 24.5257 32.83 24.3735 32.8629C24.3152 32.8676 24.2569 32.878 24.2015 32.9043C24.1 32.9879 24.1141 33.0349 24.0173 33.4747C23.8867 34.189 23.8368 34.9624 23.7861 35.7236C23.6874 37.4012 23.6987 39.1191 23.8923 40.7816C23.9534 41.2909 24.0408 41.7956 24.1545 42.2683C24.3114 42.7683 24.3641 43.0511 24.6733 43.0699C24.739 43.085 24.9627 43.0906 25.1525 43.1019L25.7437 43.1141L26.9438 43.1056C27.7454 43.0878 28.548 43.0568 29.344 42.9966C30.5826 42.9055 31.7893 42.7015 33.0044 42.522C33.2713 42.4844 33.5307 42.4262 33.8014 42.3942C34.7994 42.2645 35.1274 42.3764 35.3905 42.7974C35.4507 42.8951 35.5259 42.99 35.5653 43.0897C35.6997 43.4205 35.3163 43.7588 34.5814 43.9477C32.3945 44.4401 30.0667 44.613 27.7116 44.692C26.8319 44.7164 25.9664 44.7324 25.0369 44.6901L24.6667 44.6685L24.0464 44.5595C23.6292 44.4909 23.3087 44.1817 23.0737 43.8424C22.7899 43.4449 22.7335 43.2128 22.632 42.9628C22.5409 42.7128 22.4713 42.475 22.4121 42.241L22.4516 42.2288Z" fill="#231F20"/>
<path fill-rule="evenodd" clip-rule="evenodd" d="M36.1275 62.1294C36.0927 62.6144 36.0551 63.1031 36.0373 63.5927C36.0307 63.7712 36.0645 63.946 36.0542 64.1255C36.0185 64.7561 35.9818 65.3989 35.9461 66.0248C35.9236 66.3068 35.9377 66.5887 35.9527 66.8678C35.9715 67.2306 36.0354 67.5821 35.8916 67.9787C35.8474 68.0999 35.6209 68.0538 35.3888 67.9495C35.1595 67.8443 34.9076 67.7042 34.8663 67.5069C34.7394 66.8199 34.5956 66.1019 34.7394 65.3614C34.8062 64.9187 34.7047 64.4686 34.6896 64.0193C34.6849 63.5269 34.6802 63.0288 34.6755 62.5335C34.6793 62.2272 34.683 61.9189 34.6877 61.6154C34.6877 61.1511 34.715 60.685 34.6887 60.2207C34.668 59.8599 34.5693 59.5009 34.5252 59.1156C34.5176 59.0282 34.5214 58.9408 34.5355 58.8534C34.59 58.5376 34.7733 58.3844 35.1097 58.4493C35.1877 58.4596 35.2638 58.4671 35.3352 58.4859C35.5655 58.5479 35.7835 58.7378 35.8681 58.875C36.0382 59.1541 36.0955 59.4332 36.1209 59.7377C36.1604 60.0459 36.1632 60.3551 36.1717 60.6784C36.1688 61.1586 36.167 61.6436 36.1641 62.1276L36.1275 62.1294Z" fill="#231F20"/>
<path fill-rule="evenodd" clip-rule="evenodd" d="M36.1275 62.1294C36.0927 62.6144 36.0551 63.1031 36.0373 63.5927C36.0307 63.7712 36.0645 63.946 36.0542 64.1255C36.0185 64.7561 35.9818 65.3989 35.9461 66.0248C35.9236 66.3068 35.9377 66.5887 35.9527 66.8678C35.9715 67.2306 36.0354 67.5821 35.8916 67.9787C35.8474 68.0999 35.6209 68.0538 35.3888 67.9495C35.1595 67.8443 34.9076 67.7042 34.8663 67.5069C34.7394 66.8199 34.5956 66.1019 34.7394 65.3614C34.8062 64.9187 34.7047 64.4686 34.6896 64.0193C34.6849 63.5269 34.6802 63.0288 34.6755 62.5335C34.6793 62.2272 34.683 61.9189 34.6877 61.6154C34.6877 61.1511 34.715 60.685 34.6887 60.2207C34.668 59.8599 34.5693 59.5009 34.5252 59.1156C34.5176 59.0282 34.5214 58.9408 34.5355 58.8534C34.59 58.5376 34.7733 58.3844 35.1097 58.4493C35.1877 58.4596 35.2638 58.4671 35.3352 58.4859C35.5655 58.5479 35.7835 58.7378 35.8681 58.875C36.0382 59.1541 36.0955 59.4332 36.1209 59.7377C36.1604 60.0459 36.1632 60.3551 36.1717 60.6784C36.1688 61.1586 36.167 61.6436 36.1641 62.1276L36.1275 62.1294Z" fill="url(#paint6_radial_1138_165)"/>
<path fill-rule="evenodd" clip-rule="evenodd" d="M36.1275 36.1294C36.0927 36.6144 36.0551 37.1031 36.0373 37.5927C36.0307 37.7712 36.0645 37.946 36.0542 38.1255C36.0185 38.7561 35.9818 39.3989 35.9461 40.0248C35.9236 40.3068 35.9377 40.5887 35.9527 40.8678C35.9715 41.2306 36.0354 41.5821 35.8916 41.9787C35.8474 42.0999 35.6209 42.0538 35.3888 41.9495C35.1595 41.8443 34.9076 41.7042 34.8663 41.5069C34.7394 40.8199 34.5956 40.1019 34.7394 39.3614C34.8062 38.9187 34.7047 38.4686 34.6896 38.0193C34.6849 37.5269 34.6802 37.0288 34.6755 36.5335C34.6793 36.2272 34.683 35.9189 34.6877 35.6154C34.6877 35.1511 34.715 34.685 34.6887 34.2207C34.668 33.8599 34.5693 33.5009 34.5252 33.1156C34.5176 33.0282 34.5214 32.9408 34.5355 32.8534C34.59 32.5376 34.7733 32.3844 35.1097 32.4493C35.1877 32.4596 35.2638 32.4671 35.3352 32.4859C35.5655 32.5479 35.7835 32.7378 35.8681 32.875C36.0382 33.1541 36.0955 33.4332 36.1209 33.7377C36.1604 34.0459 36.1632 34.3551 36.1717 34.6784C36.1688 35.1586 36.167 35.6436 36.1641 36.1276L36.1275 36.1294Z" fill="#231F20"/>
<path fill-rule="evenodd" clip-rule="evenodd" d="M41.2256 67.9457C40.8573 66.0934 40.8338 64.3519 40.8544 62.5776C40.8704 61.9329 40.846 61.2864 40.9071 60.637C40.9456 60.2207 40.9973 59.8025 41.0659 59.3805C41.1007 59.17 41.142 58.9567 41.189 58.7414L41.2736 58.3947C41.3234 58.234 41.3657 58.0714 41.4211 57.9144C41.6128 57.3647 42.2312 57.1015 42.7331 56.9765C43.1296 56.8891 43.498 56.8468 43.8664 56.8083C44.5985 56.7378 45.3146 56.7068 46.0298 56.6871C47.0241 56.6589 48.0184 56.6297 49.0042 56.6016C50.2767 56.5771 51.5275 56.5386 52.8508 56.9436C53.3329 57.1466 53.0641 57.3553 52.7136 57.563C52.3564 57.78 51.7719 58.062 51.0746 58.0902C48.6123 58.1945 46.0326 58.2443 43.6418 58.4943C43.0789 58.6042 42.9765 58.5469 42.9003 58.7217C42.8862 58.7715 42.8806 58.7706 42.859 58.8655C42.8336 58.9783 42.8082 59.0901 42.7876 59.2095C42.7434 59.4435 42.7124 59.6887 42.6832 59.935C42.6278 60.4284 42.593 60.9349 42.5601 61.4396C42.4624 63.118 42.4727 64.8359 42.6663 66.4984C42.7208 66.9617 42.8007 67.4194 42.8985 67.8536C42.9473 68.0716 43.0112 68.2765 43.0836 68.4588C43.1353 68.58 43.1879 68.6947 43.3026 68.7529C43.3486 68.7699 43.3965 68.784 43.4473 68.7868C43.5131 68.8018 43.7367 68.8075 43.9266 68.8187L44.5186 68.8309L45.7178 68.8225C46.5194 68.8046 47.322 68.7736 48.118 68.7135C49.3566 68.6223 50.5643 68.4184 51.7785 68.2389C52.0463 68.2013 52.3057 68.143 52.5754 68.1111C53.5735 67.9814 53.9024 68.0932 54.1646 68.5142C54.2247 68.612 54.2999 68.7078 54.3394 68.8065C54.4747 69.1373 54.0903 69.4756 53.3554 69.6645C51.1685 70.157 48.8416 70.3299 46.4866 70.4079C45.9086 70.4258 45.3325 70.4361 44.7442 70.4305L43.8486 70.4088L43.6127 70.3957C43.5385 70.39 43.467 70.3938 43.3073 70.3619C43.0347 70.3149 42.7603 70.2745 42.5009 70.1871C42.2744 70.0226 42.0404 69.8553 41.8854 69.61C41.8027 69.4944 41.7125 69.3845 41.6476 69.2426C41.5875 69.127 41.5536 69.0499 41.516 68.9597C41.3657 68.6045 41.2679 68.2784 41.1862 67.9579L41.2256 67.9457Z" fill="#231F20"/>
<path fill-rule="evenodd" clip-rule="evenodd" d="M41.2256 67.9457C40.8573 66.0934 40.8338 64.3519 40.8544 62.5776C40.8704 61.9329 40.846 61.2864 40.9071 60.637C40.9456 60.2207 40.9973 59.8025 41.0659 59.3805C41.1007 59.17 41.142 58.9567 41.189 58.7414L41.2736 58.3947C41.3234 58.234 41.3657 58.0714 41.4211 57.9144C41.6128 57.3647 42.2312 57.1015 42.7331 56.9765C43.1296 56.8891 43.498 56.8468 43.8664 56.8083C44.5985 56.7378 45.3146 56.7068 46.0298 56.6871C47.0241 56.6589 48.0184 56.6297 49.0042 56.6016C50.2767 56.5771 51.5275 56.5386 52.8508 56.9436C53.3329 57.1466 53.0641 57.3553 52.7136 57.563C52.3564 57.78 51.7719 58.062 51.0746 58.0902C48.6123 58.1945 46.0326 58.2443 43.6418 58.4943C43.0789 58.6042 42.9765 58.5469 42.9003 58.7217C42.8862 58.7715 42.8806 58.7706 42.859 58.8655C42.8336 58.9783 42.8082 59.0901 42.7876 59.2095C42.7434 59.4435 42.7124 59.6887 42.6832 59.935C42.6278 60.4284 42.593 60.9349 42.5601 61.4396C42.4624 63.118 42.4727 64.8359 42.6663 66.4984C42.7208 66.9617 42.8007 67.4194 42.8985 67.8536C42.9473 68.0716 43.0112 68.2765 43.0836 68.4588C43.1353 68.58 43.1879 68.6947 43.3026 68.7529C43.3486 68.7699 43.3965 68.784 43.4473 68.7868C43.5131 68.8018 43.7367 68.8075 43.9266 68.8187L44.5186 68.8309L45.7178 68.8225C46.5194 68.8046 47.322 68.7736 48.118 68.7135C49.3566 68.6223 50.5643 68.4184 51.7785 68.2389C52.0463 68.2013 52.3057 68.143 52.5754 68.1111C53.5735 67.9814 53.9024 68.0932 54.1646 68.5142C54.2247 68.612 54.2999 68.7078 54.3394 68.8065C54.4747 69.1373 54.0903 69.4756 53.3554 69.6645C51.1685 70.157 48.8416 70.3299 46.4866 70.4079C45.9086 70.4258 45.3325 70.4361 44.7442 70.4305L43.8486 70.4088L43.6127 70.3957C43.5385 70.39 43.467 70.3938 43.3073 70.3619C43.0347 70.3149 42.7603 70.2745 42.5009 70.1871C42.2744 70.0226 42.0404 69.8553 41.8854 69.61C41.8027 69.4944 41.7125 69.3845 41.6476 69.2426C41.5875 69.127 41.5536 69.0499 41.516 68.9597C41.3657 68.6045 41.2679 68.2784 41.1862 67.9579L41.2256 67.9457Z" fill="url(#paint7_radial_1138_165)"/>
<path fill-rule="evenodd" clip-rule="evenodd" d="M41.2256 41.9457C40.8573 40.0934 40.8338 38.3519 40.8544 36.5776C40.8704 35.9329 40.846 35.2864 40.9071 34.637C40.9456 34.2207 40.9973 33.8025 41.0659 33.3805C41.1007 33.17 41.142 32.9567 41.189 32.7414L41.2736 32.3947C41.3234 32.234 41.3657 32.0714 41.4211 31.9144C41.6128 31.3647 42.2312 31.1015 42.7331 30.9765C43.1296 30.8891 43.498 30.8468 43.8664 30.8083C44.5985 30.7378 45.3146 30.7068 46.0298 30.6871C47.0241 30.6589 48.0184 30.6297 49.0042 30.6016C50.2767 30.5771 51.5275 30.5386 52.8508 30.9436C53.3329 31.1466 53.0641 31.3553 52.7136 31.563C52.3564 31.78 51.7719 32.062 51.0746 32.0902C48.6123 32.1945 46.0326 32.2443 43.6418 32.4943C43.0789 32.6042 42.9765 32.5469 42.9003 32.7217C42.8862 32.7715 42.8806 32.7706 42.859 32.8655C42.8336 32.9783 42.8082 33.0901 42.7876 33.2095C42.7434 33.4435 42.7124 33.6887 42.6832 33.935C42.6278 34.4284 42.593 34.9349 42.5601 35.4396C42.4624 37.118 42.4727 38.8359 42.6663 40.4984C42.7208 40.9617 42.8007 41.4194 42.8985 41.8536C42.9473 42.0716 43.0112 42.2765 43.0836 42.4588C43.1353 42.58 43.1879 42.6947 43.3026 42.7529C43.3486 42.7699 43.3965 42.784 43.4473 42.7868C43.5131 42.8018 43.7367 42.8075 43.9266 42.8187L44.5186 42.8309L45.7178 42.8225C46.5194 42.8046 47.322 42.7736 48.118 42.7135C49.3566 42.6223 50.5643 42.4184 51.7785 42.2389C52.0463 42.2013 52.3057 42.143 52.5754 42.1111C53.5735 41.9814 53.9024 42.0932 54.1646 42.5142C54.2247 42.612 54.2999 42.7078 54.3394 42.8065C54.4747 43.1373 54.0903 43.4756 53.3554 43.6645C51.1685 44.157 48.8416 44.3299 46.4866 44.4079C45.9086 44.4258 45.3325 44.4361 44.7442 44.4305L43.8486 44.4088L43.6127 44.3957C43.5385 44.39 43.467 44.3938 43.3073 44.3619C43.0347 44.3149 42.7603 44.2745 42.5009 44.1871C42.2744 44.0226 42.0404 43.8553 41.8854 43.61C41.8027 43.4944 41.7125 43.3845 41.6476 43.2426C41.5875 43.127 41.5536 43.0499 41.516 42.9597C41.3657 42.6045 41.2679 42.2784 41.1862 41.9579L41.2256 41.9457Z" fill="#231F20"/>
<path fill-rule="evenodd" clip-rule="evenodd" d="M54.9016 61.8463C54.8669 62.3312 54.8293 62.8199 54.8114 63.3095C54.8048 63.4881 54.8387 63.6629 54.8283 63.8424C54.7926 64.473 54.756 65.1158 54.7203 65.7417C54.6977 66.0236 54.7118 66.3055 54.7268 66.5847C54.7456 66.9474 54.8095 67.2989 54.6657 67.6955C54.6216 67.8167 54.396 67.7707 54.163 67.6663C53.9337 67.5611 53.6827 67.4211 53.6404 67.2237C53.5136 66.5367 53.3707 65.8187 53.5136 65.0782C53.5803 64.6355 53.4788 64.1854 53.4638 63.7371C53.4591 63.2437 53.4544 62.7456 53.4506 62.2504C53.4534 61.944 53.4572 61.6358 53.4619 61.3322C53.4619 60.868 53.4901 60.4018 53.4628 59.9376C53.4422 59.5767 53.3435 59.2177 53.2993 58.8324C53.2918 58.744 53.2965 58.6576 53.3096 58.5702C53.3641 58.2544 53.5474 58.1012 53.8838 58.1661C53.9619 58.1764 54.0389 58.1839 54.1094 58.2018C54.3396 58.2648 54.5577 58.4546 54.6423 58.5909C54.8124 58.8709 54.8697 59.15 54.8951 59.4545C54.9345 59.7628 54.9373 60.072 54.9458 60.3952C54.943 60.8755 54.9411 61.3604 54.9383 61.8435L54.9016 61.8463Z" fill="#231F20"/>
<path fill-rule="evenodd" clip-rule="evenodd" d="M54.9016 61.8463C54.8669 62.3312 54.8293 62.8199 54.8114 63.3095C54.8048 63.4881 54.8387 63.6629 54.8283 63.8424C54.7926 64.473 54.756 65.1158 54.7203 65.7417C54.6977 66.0236 54.7118 66.3055 54.7268 66.5847C54.7456 66.9474 54.8095 67.2989 54.6657 67.6955C54.6216 67.8167 54.396 67.7707 54.163 67.6663C53.9337 67.5611 53.6827 67.4211 53.6404 67.2237C53.5136 66.5367 53.3707 65.8187 53.5136 65.0782C53.5803 64.6355 53.4788 64.1854 53.4638 63.7371C53.4591 63.2437 53.4544 62.7456 53.4506 62.2504C53.4534 61.944 53.4572 61.6358 53.4619 61.3322C53.4619 60.868 53.4901 60.4018 53.4628 59.9376C53.4422 59.5767 53.3435 59.2177 53.2993 58.8324C53.2918 58.744 53.2965 58.6576 53.3096 58.5702C53.3641 58.2544 53.5474 58.1012 53.8838 58.1661C53.9619 58.1764 54.0389 58.1839 54.1094 58.2018C54.3396 58.2648 54.5577 58.4546 54.6423 58.5909C54.8124 58.8709 54.8697 59.15 54.8951 59.4545C54.9345 59.7628 54.9373 60.072 54.9458 60.3952C54.943 60.8755 54.9411 61.3604 54.9383 61.8435L54.9016 61.8463Z" fill="url(#paint8_radial_1138_165)"/>
<path fill-rule="evenodd" clip-rule="evenodd" d="M54.9016 35.8463C54.8669 36.3312 54.8293 36.8199 54.8114 37.3095C54.8048 37.4881 54.8387 37.6629 54.8283 37.8424C54.7926 38.473 54.756 39.1158 54.7203 39.7417C54.6977 40.0236 54.7118 40.3055 54.7268 40.5847C54.7456 40.9474 54.8095 41.2989 54.6657 41.6955C54.6216 41.8167 54.396 41.7707 54.163 41.6663C53.9337 41.5611 53.6827 41.4211 53.6404 41.2237C53.5136 40.5367 53.3707 39.8187 53.5136 39.0782C53.5803 38.6355 53.4788 38.1854 53.4638 37.7371C53.4591 37.2437 53.4544 36.7456 53.4506 36.2504C53.4534 35.944 53.4572 35.6358 53.4619 35.3322C53.4619 34.868 53.4901 34.4018 53.4628 33.9376C53.4422 33.5767 53.3435 33.2177 53.2993 32.8324C53.2918 32.744 53.2965 32.6576 53.3096 32.5702C53.3641 32.2544 53.5474 32.1012 53.8838 32.1661C53.9619 32.1764 54.0389 32.1839 54.1094 32.2018C54.3396 32.2648 54.5577 32.4546 54.6423 32.5909C54.8124 32.8709 54.8697 33.15 54.8951 33.4545C54.9345 33.7628 54.9373 34.072 54.9458 34.3952C54.943 34.8755 54.9411 35.3604 54.9383 35.8435L54.9016 35.8463Z" fill="#231F20"/>
<path fill-rule="evenodd" clip-rule="evenodd" d="M59.8672 67.6649C59.4988 65.8116 59.4744 64.0702 59.496 62.2959C59.512 61.6512 59.4875 61.0046 59.5486 60.3552C59.5871 59.9389 59.6388 59.5216 59.7074 59.0997C59.7422 58.8882 59.7836 58.6758 59.8305 58.4606L59.9151 58.1129C59.9649 57.9531 60.0072 57.7906 60.0627 57.6336C60.2544 57.0838 60.8718 56.8207 61.3746 56.6957C61.7712 56.6083 62.1396 56.566 62.508 56.5275C63.2401 56.4561 63.9562 56.426 64.6714 56.4063C65.6657 56.3771 66.6599 56.3489 67.6458 56.3207C68.9173 56.2954 70.1691 56.2578 71.4923 56.6628C71.9744 56.8658 71.7056 57.0744 71.3551 57.2821C70.998 57.4983 70.4134 57.7802 69.7161 57.8084C67.2539 57.9137 64.6742 57.9635 62.2834 58.2125C61.7204 58.3234 61.6171 58.2651 61.5419 58.4399C61.5278 58.4907 61.5222 58.4898 61.5005 58.5837C61.4752 58.6965 61.4488 58.8093 61.4291 58.9286C61.3849 59.1617 61.3539 59.407 61.3248 59.6541C61.2693 60.1475 61.2346 60.6541 61.2017 61.1587C61.103 62.8372 61.1143 64.5551 61.3079 66.2176C61.3699 66.727 61.4564 67.2316 61.5701 67.7034C61.727 68.2043 61.7797 68.4872 62.0888 68.506C62.1546 68.521 62.3783 68.5266 62.5681 68.537L63.1593 68.5492L64.3594 68.5407C65.161 68.5238 65.9636 68.4919 66.7596 68.4317C67.9982 68.3415 69.2058 68.1376 70.42 67.9581C70.6869 67.9195 70.9463 67.8622 71.217 67.8303C72.215 67.7006 72.543 67.8124 72.8061 68.2334C72.8653 68.3312 72.9415 68.4261 72.9809 68.5248C73.1153 68.8565 72.7319 69.1948 71.997 69.3837C69.8101 69.8762 67.4823 70.0491 65.1272 70.1271C64.2475 70.1515 63.382 70.1675 62.4535 70.1261L62.0823 70.1045L61.462 69.9955C61.0447 69.926 60.7243 69.6168 60.4893 69.2775C60.2055 68.8809 60.1491 68.6479 60.0476 68.3979C59.9565 68.1488 59.8869 67.9111 59.8277 67.6771L59.8672 67.6649Z" fill="#231F20"/>
<path fill-rule="evenodd" clip-rule="evenodd" d="M59.8672 67.6649C59.4988 65.8116 59.4744 64.0702 59.496 62.2959C59.512 61.6512 59.4875 61.0046 59.5486 60.3552C59.5871 59.9389 59.6388 59.5216 59.7074 59.0997C59.7422 58.8882 59.7836 58.6758 59.8305 58.4606L59.9151 58.1129C59.9649 57.9531 60.0072 57.7906 60.0627 57.6336C60.2544 57.0838 60.8718 56.8207 61.3746 56.6957C61.7712 56.6083 62.1396 56.566 62.508 56.5275C63.2401 56.4561 63.9562 56.426 64.6714 56.4063C65.6657 56.3771 66.6599 56.3489 67.6458 56.3207C68.9173 56.2954 70.1691 56.2578 71.4923 56.6628C71.9744 56.8658 71.7056 57.0744 71.3551 57.2821C70.998 57.4983 70.4134 57.7802 69.7161 57.8084C67.2539 57.9137 64.6742 57.9635 62.2834 58.2125C61.7204 58.3234 61.6171 58.2651 61.5419 58.4399C61.5278 58.4907 61.5222 58.4898 61.5005 58.5837C61.4752 58.6965 61.4488 58.8093 61.4291 58.9286C61.3849 59.1617 61.3539 59.407 61.3248 59.6541C61.2693 60.1475 61.2346 60.6541 61.2017 61.1587C61.103 62.8372 61.1143 64.5551 61.3079 66.2176C61.3699 66.727 61.4564 67.2316 61.5701 67.7034C61.727 68.2043 61.7797 68.4872 62.0888 68.506C62.1546 68.521 62.3783 68.5266 62.5681 68.537L63.1593 68.5492L64.3594 68.5407C65.161 68.5238 65.9636 68.4919 66.7596 68.4317C67.9982 68.3415 69.2058 68.1376 70.42 67.9581C70.6869 67.9195 70.9463 67.8622 71.217 67.8303C72.215 67.7006 72.543 67.8124 72.8061 68.2334C72.8653 68.3312 72.9415 68.4261 72.9809 68.5248C73.1153 68.8565 72.7319 69.1948 71.997 69.3837C69.8101 69.8762 67.4823 70.0491 65.1272 70.1271C64.2475 70.1515 63.382 70.1675 62.4535 70.1261L62.0823 70.1045L61.462 69.9955C61.0447 69.926 60.7243 69.6168 60.4893 69.2775C60.2055 68.8809 60.1491 68.6479 60.0476 68.3979C59.9565 68.1488 59.8869 67.9111 59.8277 67.6771L59.8672 67.6649Z" fill="url(#paint9_radial_1138_165)"/>
<path fill-rule="evenodd" clip-rule="evenodd" d="M59.8672 41.6649C59.4988 39.8116 59.4744 38.0702 59.496 36.2959C59.512 35.6512 59.4875 35.0046 59.5486 34.3552C59.5871 33.9389 59.6388 33.5216 59.7074 33.0997C59.7422 32.8882 59.7836 32.6758 59.8305 32.4606L59.9151 32.1129C59.9649 31.9531 60.0072 31.7906 60.0627 31.6336C60.2544 31.0838 60.8718 30.8207 61.3746 30.6957C61.7712 30.6083 62.1396 30.566 62.508 30.5275C63.2401 30.4561 63.9562 30.426 64.6714 30.4063C65.6657 30.3771 66.6599 30.3489 67.6458 30.3207C68.9173 30.2954 70.1691 30.2578 71.4923 30.6628C71.9744 30.8658 71.7056 31.0744 71.3551 31.2821C70.998 31.4983 70.4134 31.7802 69.7161 31.8084C67.2539 31.9137 64.6742 31.9635 62.2834 32.2125C61.7204 32.3234 61.6171 32.2651 61.5419 32.4399C61.5278 32.4907 61.5222 32.4898 61.5005 32.5837C61.4752 32.6965 61.4488 32.8093 61.4291 32.9286C61.3849 33.1617 61.3539 33.407 61.3248 33.6541C61.2693 34.1475 61.2346 34.6541 61.2017 35.1587C61.103 36.8372 61.1143 38.5551 61.3079 40.2176C61.3699 40.727 61.4564 41.2316 61.5701 41.7034C61.727 42.2043 61.7797 42.4872 62.0888 42.506C62.1546 42.521 62.3783 42.5266 62.5681 42.537L63.1593 42.5492L64.3594 42.5407C65.161 42.5238 65.9636 42.4919 66.7596 42.4317C67.9982 42.3415 69.2058 42.1376 70.42 41.9581C70.6869 41.9195 70.9463 41.8622 71.217 41.8303C72.215 41.7006 72.543 41.8124 72.8061 42.2334C72.8653 42.3312 72.9415 42.4261 72.9809 42.5248C73.1153 42.8565 72.7319 43.1948 71.997 43.3837C69.8101 43.8762 67.4823 44.0491 65.1272 44.1271C64.2475 44.1515 63.382 44.1675 62.4535 44.1261L62.0823 44.1045L61.462 43.9955C61.0447 43.926 60.7243 43.6168 60.4893 43.2775C60.2055 42.8809 60.1491 42.6479 60.0476 42.3979C59.9565 42.1488 59.8869 41.9111 59.8277 41.6771L59.8672 41.6649Z" fill="#231F20"/>
<path fill-rule="evenodd" clip-rule="evenodd" d="M73.5431 61.5655C73.5083 62.0504 73.4707 62.5391 73.4528 63.0287C73.4463 63.2073 73.4801 63.3821 73.4697 63.5616C73.434 64.1912 73.3974 64.835 73.3617 65.4609C73.3391 65.7428 73.3532 66.0247 73.3683 66.3039C73.387 66.6657 73.451 67.0181 73.3072 67.4147C73.263 67.5359 73.0365 67.4899 72.8044 67.3846C72.5751 67.2794 72.3242 67.1403 72.2819 66.9429C72.155 66.2559 72.0121 65.5379 72.155 64.7965C72.2217 64.3538 72.1202 63.9046 72.1052 63.4554C72.1005 62.9629 72.0958 62.4648 72.0911 61.9696C72.0948 61.6632 72.0986 61.355 72.1033 61.0514C72.1033 60.5872 72.1315 60.1201 72.1042 59.6568C72.0836 59.2959 71.9849 58.9369 71.9407 58.5516C71.9332 58.4633 71.9379 58.3768 71.9511 58.2894C72.0056 57.9736 72.1888 57.8204 72.5253 57.8853C72.6033 57.8956 72.6803 57.9031 72.7508 57.921C72.9811 57.984 73.1991 58.1738 73.2837 58.3101C73.4538 58.5901 73.5111 58.8692 73.5365 59.1737C73.5759 59.482 73.5788 59.7912 73.5872 60.1145C73.5844 60.5937 73.5825 61.0796 73.5797 61.5627L73.5431 61.5655Z" fill="#231F20"/>
<path fill-rule="evenodd" clip-rule="evenodd" d="M73.5431 61.5655C73.5083 62.0504 73.4707 62.5391 73.4528 63.0287C73.4463 63.2073 73.4801 63.3821 73.4697 63.5616C73.434 64.1912 73.3974 64.835 73.3617 65.4609C73.3391 65.7428 73.3532 66.0247 73.3683 66.3039C73.387 66.6657 73.451 67.0181 73.3072 67.4147C73.263 67.5359 73.0365 67.4899 72.8044 67.3846C72.5751 67.2794 72.3242 67.1403 72.2819 66.9429C72.155 66.2559 72.0121 65.5379 72.155 64.7965C72.2217 64.3538 72.1202 63.9046 72.1052 63.4554C72.1005 62.9629 72.0958 62.4648 72.0911 61.9696C72.0948 61.6632 72.0986 61.355 72.1033 61.0514C72.1033 60.5872 72.1315 60.1201 72.1042 59.6568C72.0836 59.2959 71.9849 58.9369 71.9407 58.5516C71.9332 58.4633 71.9379 58.3768 71.9511 58.2894C72.0056 57.9736 72.1888 57.8204 72.5253 57.8853C72.6033 57.8956 72.6803 57.9031 72.7508 57.921C72.9811 57.984 73.1991 58.1738 73.2837 58.3101C73.4538 58.5901 73.5111 58.8692 73.5365 59.1737C73.5759 59.482 73.5788 59.7912 73.5872 60.1145C73.5844 60.5937 73.5825 61.0796 73.5797 61.5627L73.5431 61.5655Z" fill="url(#paint10_radial_1138_165)"/>
<path fill-rule="evenodd" clip-rule="evenodd" d="M73.5431 35.5655C73.5083 36.0504 73.4707 36.5391 73.4528 37.0287C73.4463 37.2073 73.4801 37.3821 73.4697 37.5616C73.434 38.1912 73.3974 38.835 73.3617 39.4609C73.3391 39.7428 73.3532 40.0247 73.3683 40.3039C73.387 40.6657 73.451 41.0181 73.3072 41.4147C73.263 41.5359 73.0365 41.4899 72.8044 41.3846C72.5751 41.2794 72.3242 41.1403 72.2819 40.9429C72.155 40.2559 72.0121 39.5379 72.155 38.7965C72.2217 38.3538 72.1202 37.9046 72.1052 37.4554C72.1005 36.9629 72.0958 36.4648 72.0911 35.9696C72.0948 35.6632 72.0986 35.355 72.1033 35.0514C72.1033 34.5872 72.1315 34.1201 72.1042 33.6568C72.0836 33.2959 71.9849 32.9369 71.9407 32.5516C71.9332 32.4633 71.9379 32.3768 71.9511 32.2894C72.0056 31.9736 72.1888 31.8204 72.5253 31.8853C72.6033 31.8956 72.6803 31.9031 72.7508 31.921C72.9811 31.984 73.1991 32.1738 73.2837 32.3101C73.4538 32.5901 73.5111 32.8692 73.5365 33.1737C73.5759 33.482 73.5788 33.7912 73.5872 34.1145C73.5844 34.5937 73.5825 35.0796 73.5797 35.5627L73.5431 35.5655Z" fill="#231F20"/>
<path fill-rule="evenodd" clip-rule="evenodd" d="M22.893 93.5538C22.5246 91.7015 22.5002 89.9591 22.5218 88.1848C22.5378 87.5411 22.5133 86.8945 22.5744 86.2442C22.613 85.8278 22.6646 85.4106 22.7332 84.9886C22.768 84.7781 22.8094 84.5648 22.8554 84.3496L22.94 84.0028C22.9907 83.8421 23.033 83.6795 23.0885 83.5226C23.2802 82.9728 23.8976 82.7097 24.4004 82.5847C24.797 82.4973 25.1645 82.455 25.5338 82.4164C26.2659 82.346 26.982 82.3149 27.6972 82.2952C28.6905 82.267 29.6858 82.2379 30.6716 82.2097C31.9431 82.1843 33.194 82.1467 34.5181 82.5518C35.0002 82.7548 34.7315 82.9634 34.3809 83.1711C34.0238 83.3882 33.4383 83.6692 32.7419 83.6983C30.2797 83.8026 27.7 83.8524 25.3092 84.1024C24.7463 84.2124 24.6429 84.155 24.5677 84.3289C24.5527 84.3796 24.548 84.3787 24.5264 84.4736C24.501 84.5864 24.4747 84.6982 24.4549 84.8176C24.4108 85.0516 24.3797 85.2959 24.3506 85.5431C24.2952 86.0365 24.2604 86.543 24.2275 87.0477C24.1288 88.7261 24.1401 90.4441 24.3337 92.1065C24.3882 92.5699 24.4681 93.0275 24.5658 93.4617C24.6147 93.6797 24.6786 93.8846 24.75 94.0669C24.8017 94.1872 24.8553 94.3028 24.969 94.3601C25.016 94.378 25.0639 94.3921 25.1147 94.3949C25.1804 94.4099 25.4041 94.4156 25.5939 94.4269L26.1851 94.4381L27.3852 94.4306C28.1868 94.4128 28.9894 94.3818 29.7854 94.3216C31.024 94.2304 32.2307 94.0265 33.4449 93.847C33.7127 93.8094 33.9721 93.7512 34.2428 93.7192C35.2408 93.5895 35.5688 93.7013 35.8319 94.1224C35.8911 94.2201 35.9673 94.315 36.0067 94.4146C36.1411 94.7454 35.7577 95.0838 35.0228 95.2727C32.8359 95.7651 30.5081 95.938 28.153 96.016C27.5759 96.0339 26.9999 96.0442 26.4116 96.0386L25.515 96.017L25.2801 96.0038C25.2058 95.9982 25.1335 96.0019 24.9746 95.97C24.7012 95.9221 24.4267 95.8826 24.1674 95.7952C23.9418 95.6307 23.7078 95.4634 23.5527 95.2182C23.47 95.1026 23.3789 94.9926 23.315 94.8498C23.2548 94.7351 23.2201 94.658 23.1834 94.5678C23.033 94.2126 22.9353 93.8865 22.8535 93.566L22.893 93.5538Z" fill="#231F20"/>
<path fill-rule="evenodd" clip-rule="evenodd" d="M36.5689 87.4544C36.5341 87.9394 36.4965 88.428 36.4787 88.9177C36.4721 89.0962 36.5059 89.271 36.4956 89.4505C36.4599 90.0802 36.4232 90.7239 36.3875 91.3498C36.365 91.6318 36.3791 91.9137 36.3941 92.1928C36.4129 92.5556 36.4768 92.907 36.333 93.3036C36.2888 93.4249 36.0623 93.3788 35.8302 93.2736C35.6009 93.1683 35.3491 93.0292 35.3077 92.8319C35.1799 92.1449 35.037 91.4269 35.1808 90.6863C35.2476 90.2437 35.1461 89.7935 35.131 89.3443C35.1263 88.8519 35.1216 88.3538 35.1169 87.8585C35.1207 87.5522 35.1244 87.2439 35.1291 86.9404C35.1291 86.4761 35.1564 86.01 35.1301 85.5457C35.1094 85.1848 35.0107 84.8259 34.9666 84.4405C34.959 84.3522 34.9628 84.2657 34.9769 84.1783C35.0314 83.8626 35.2147 83.7094 35.5511 83.7742C35.6291 83.7846 35.7052 83.7921 35.7767 83.8099C36.006 83.8729 36.2249 84.0627 36.3095 84.199C36.4796 84.4791 36.5369 84.7582 36.5623 85.0627C36.6008 85.3709 36.6046 85.6801 36.6131 86.0034C36.6102 86.4836 36.6084 86.9686 36.6055 87.4516L36.5689 87.4544Z" fill="#231F20"/>
<path fill-rule="evenodd" clip-rule="evenodd" d="M41.6671 93.2707C41.2987 91.4184 41.2742 89.6761 41.2958 87.9027C41.3118 87.2571 41.2874 86.6114 41.3485 85.9611C41.387 85.5448 41.4387 85.1275 41.5073 84.7055C41.5421 84.495 41.5834 84.2817 41.6304 84.0665L41.715 83.7197C41.7648 83.559 41.8071 83.3964 41.8625 83.2395C42.0542 82.6897 42.6717 82.4266 43.1745 82.3016C43.5711 82.2142 43.9395 82.1719 44.3078 82.1334C45.0399 82.0629 45.7561 82.0319 46.4712 82.0121C47.4655 81.9839 48.4598 81.9548 49.4456 81.9266C50.7181 81.9012 51.969 81.8636 53.2922 82.2687C53.7743 82.4717 53.5055 82.6803 53.155 82.888C52.7978 83.1051 52.2133 83.3861 51.516 83.4152C49.0538 83.5195 46.474 83.5693 44.0832 83.8193C43.5203 83.9293 43.4169 83.872 43.3418 84.0458C43.3277 84.0966 43.322 84.0956 43.3004 84.1905C43.275 84.3033 43.2497 84.4151 43.229 84.5345C43.1848 84.7685 43.1538 85.0129 43.1247 85.26C43.0692 85.7534 43.0344 86.2599 43.0016 86.7646C42.9029 88.4431 42.9142 90.161 43.1077 91.8235C43.1623 92.2868 43.2421 92.7444 43.3399 93.1786C43.3887 93.3967 43.4526 93.6015 43.525 93.7838C43.5767 93.9041 43.6293 94.0197 43.744 94.0771C43.79 94.0949 43.838 94.109 43.8887 94.1118C43.9545 94.1269 44.1782 94.1325 44.368 94.1428L44.9591 94.156L46.1592 94.1475C46.9609 94.1297 47.7634 94.0987 48.5594 94.0385C49.7981 93.9474 51.0057 93.7434 52.2199 93.5639C52.4868 93.5263 52.7462 93.4681 53.0168 93.4361C54.0149 93.3064 54.3428 93.4183 54.606 93.8393C54.6661 93.937 54.7413 94.0319 54.7808 94.1316C54.9161 94.4624 54.5317 94.8007 53.7968 94.9896C51.61 95.482 49.2831 95.655 46.927 95.733C46.35 95.7508 45.7739 95.7611 45.1856 95.7555L44.2891 95.7339L44.0541 95.7207C43.9799 95.7151 43.9084 95.7189 43.7487 95.6869C43.4752 95.639 43.2017 95.5995 42.9414 95.5121C42.7159 95.3476 42.4819 95.1804 42.3268 94.9351C42.2441 94.8195 42.1539 94.7095 42.089 94.5667C42.0289 94.452 41.995 94.375 41.9575 94.2847C41.8071 93.9295 41.7093 93.6034 41.6276 93.2829L41.6671 93.2707Z" fill="#231F20"/>
<path fill-rule="evenodd" clip-rule="evenodd" d="M55.343 87.1713C55.3083 87.6562 55.2707 88.1449 55.2528 88.6345C55.2462 88.8131 55.2801 88.9879 55.2697 89.1674C55.234 89.797 55.1974 90.4408 55.1617 91.0667C55.1391 91.3486 55.1532 91.6305 55.1682 91.9096C55.187 92.2715 55.2509 92.6239 55.1072 93.0205C55.063 93.1417 54.8365 93.0956 54.6044 92.9904C54.3751 92.8851 54.1241 92.746 54.0819 92.5487C53.955 91.8617 53.8121 91.1437 53.955 90.4032C54.0217 89.9605 53.9202 89.5104 53.9052 89.0612C53.9005 88.5687 53.8958 88.0706 53.892 87.5754C53.8948 87.269 53.8986 86.9607 53.9033 86.6572C53.9033 86.1929 53.9315 85.7268 53.9042 85.2626C53.8836 84.9017 53.7849 84.5427 53.7407 84.1574C53.7332 84.069 53.7379 83.9826 53.751 83.8952C53.8056 83.5794 53.9888 83.4262 54.3253 83.4911C54.4033 83.5014 54.4803 83.5089 54.5508 83.5268C54.781 83.5897 54.9991 83.7796 55.0837 83.9158C55.2538 84.1959 55.3111 84.475 55.3365 84.7795C55.3759 85.0878 55.3788 85.3969 55.3872 85.7202C55.3844 86.1995 55.3825 86.6854 55.3797 87.1684L55.343 87.1713Z" fill="#231F20"/>
<path fill-rule="evenodd" clip-rule="evenodd" d="M60.3086 92.9895C59.9402 91.1372 59.9158 89.3957 59.9374 87.6214C59.9534 86.9767 59.9289 86.3302 59.99 85.6808C60.0285 85.2645 60.0802 84.8462 60.1488 84.4243C60.1836 84.2138 60.225 84.0004 60.271 83.7852L60.3556 83.4385C60.4063 83.2778 60.4486 83.1152 60.5041 82.9582C60.6958 82.4085 61.3132 82.1453 61.816 82.0203C62.2126 81.9329 62.581 81.8906 62.9494 81.8521C63.6815 81.7816 64.3976 81.7506 65.1128 81.7318C66.1061 81.7027 67.1013 81.6735 68.0872 81.6453C69.3587 81.6209 70.6105 81.5824 71.9328 81.9874C72.4158 82.1904 72.147 82.3991 71.7965 82.6067C71.4394 82.8238 70.8548 83.1058 70.1575 83.134C67.6953 83.2383 65.1156 83.2881 62.7248 83.5381C62.1619 83.648 62.0585 83.5907 61.9833 83.7655C61.9692 83.8153 61.9636 83.8144 61.9419 83.9093C61.9166 84.0221 61.8903 84.1339 61.8705 84.2532C61.8263 84.4873 61.7953 84.7325 61.7662 84.9788C61.7108 85.4721 61.676 85.9787 61.6431 86.4833C61.5444 88.1618 61.5557 89.8797 61.7493 91.5422C61.8038 92.0065 61.8837 92.4632 61.9814 92.8974C62.0303 93.1154 62.0942 93.3203 62.1666 93.5026C62.2173 93.6238 62.2709 93.7385 62.3846 93.7967C62.4316 93.8137 62.4795 93.8278 62.5293 93.8306C62.596 93.8456 62.8197 93.8512 63.0095 93.8625L63.6007 93.8747L64.8008 93.8663C65.6024 93.8484 66.405 93.8174 67.201 93.7573C68.4396 93.6661 69.6472 93.4622 70.8614 93.2827C71.1283 93.2451 71.3877 93.1868 71.6574 93.1549C72.6564 93.0252 72.9844 93.137 73.2475 93.558C73.3067 93.6558 73.3829 93.7516 73.4223 93.8503C73.5567 94.1811 73.1733 94.5194 72.4374 94.7083C70.2515 95.2008 67.9237 95.3737 65.5686 95.4517C64.9915 95.4696 64.4155 95.4799 63.8271 95.4743L62.9306 95.4526L62.6956 95.4395C62.6214 95.4338 62.549 95.4376 62.3902 95.4056C62.1167 95.3587 61.8423 95.3182 61.5829 95.2308C61.3574 95.0664 61.1234 94.8991 60.9683 94.6538C60.8847 94.5382 60.7954 94.4283 60.7306 94.2864C60.6704 94.1708 60.6356 94.0937 60.599 94.0035C60.4486 93.6483 60.3509 93.3221 60.2691 93.0017L60.3086 92.9895Z" fill="#231F20"/>
<path fill-rule="evenodd" clip-rule="evenodd" d="M73.984 86.89C73.9502 87.3749 73.9126 87.8636 73.8947 88.3532C73.8872 88.5318 73.922 88.7066 73.9116 88.8861C73.875 89.5167 73.8383 90.1595 73.8036 90.7854C73.7801 91.0673 73.7942 91.3493 73.8092 91.6284C73.828 91.9911 73.8928 92.3426 73.7481 92.7392C73.7039 92.8604 73.4784 92.8144 73.2463 92.7101C73.017 92.6048 72.7651 92.4648 72.7228 92.2674C72.5959 91.5805 72.4531 90.8625 72.5959 90.1219C72.6627 89.6793 72.5612 89.2291 72.5471 88.7808C72.5424 88.2875 72.5377 87.7894 72.533 87.2941C72.5367 86.9877 72.5405 86.6795 72.5442 86.3759C72.5442 85.9117 72.5724 85.4456 72.5461 84.9813C72.5245 84.6204 72.4258 84.2614 72.3826 83.8771C72.3741 83.7878 72.3788 83.7013 72.392 83.6139C72.4475 83.2982 72.6307 83.145 72.9672 83.2098C73.0452 83.2201 73.1213 83.2277 73.1918 83.2465C73.422 83.3085 73.64 83.4983 73.7246 83.6355C73.8947 83.9146 73.952 84.1938 73.9774 84.4983C74.0169 84.8065 74.0197 85.1157 74.0291 85.439C74.0263 85.9192 74.0235 86.4041 74.0206 86.8872L73.984 86.89Z" fill="#231F20"/>
<path fill-rule="evenodd" clip-rule="evenodd" d="M9.7999 75.9536C9.58845 72.1164 9.40707 68.2793 9.25577 64.4412C9.2022 63.04 9.04807 61.6472 9.018 60.246C8.89113 55.3065 8.81595 50.367 8.89301 45.4228C8.89019 43.2284 8.88831 41.0237 8.88643 38.8462C8.88455 37.446 8.91932 36.0382 8.95691 34.6332C9.01424 33.2301 9.31591 31.8223 9.56026 30.4399C9.73599 29.5762 10.0884 29.7444 10.4549 30.5198C10.8205 31.2998 11.2462 32.6653 11.3233 34.2422C11.2124 39.8443 11.3834 45.5008 11.3195 51.2147C11.2575 54.6365 11.5949 58.186 11.7744 61.6801C11.983 65.5229 12.2057 69.3685 12.4595 73.2122C12.6362 75.5767 12.7847 77.945 12.9923 80.3047C13.2987 83.8816 13.5863 87.479 14.044 91.0117C14.4001 93.7577 14.9518 96.4267 15.4818 99.0995C15.6021 99.6868 15.7487 100.256 15.853 100.85C16.0607 101.947 16.1246 102.648 16.0589 103.185C16.0213 103.471 15.9621 103.632 15.8643 103.796C15.7619 103.965 15.6247 104.133 15.4621 104.313C15.3136 104.478 15.1849 104.689 15.0429 104.831C14.8014 105.069 14.5082 105.029 14.1238 104.638C13.9378 104.462 13.7113 104.109 13.5712 103.816C13.4246 103.516 13.2827 103.157 13.1521 102.746C11.7537 97.8881 11.1898 92.7493 10.6513 87.5589C10.266 83.7077 9.99819 79.832 9.72848 75.9648L9.7999 75.9536Z" fill="url(#paint11_radial_1138_165)"/>
<defs>
<radialGradient id="paint0_radial_1138_165" cx="0" cy="0" r="1" gradientUnits="userSpaceOnUse" gradientTransform="translate(27.1525 69.8323) rotate(-90) scale(5.93085 3.92529)">
<stop stop-color="#587EDB"/>
<stop offset="1" stop-color="#1445C2"/>
</radialGradient>
<radialGradient id="paint1_radial_1138_165" cx="0" cy="0" r="1" gradientUnits="userSpaceOnUse" gradientTransform="translate(27.9586 71.2295) rotate(-90) scale(6.1923 5.67841)">
<stop stop-color="#587EDB"/>
<stop offset="1" stop-color="#1445C2"/>
</radialGradient>
<radialGradient id="paint2_radial_1138_165" cx="0" cy="0" r="1" gradientUnits="userSpaceOnUse" gradientTransform="translate(46.7873 71.4121) rotate(-90) scale(6.1921 5.67841)">
<stop stop-color="#587EDB"/>
<stop offset="1" stop-color="#1445C2"/>
</radialGradient>
<radialGradient id="paint3_radial_1138_165" cx="0" cy="0" r="1" gradientUnits="userSpaceOnUse" gradientTransform="translate(65.2745 71.1331) rotate(-90) scale(6.1921 5.67885)">
<stop stop-color="#587EDB"/>
<stop offset="1" stop-color="#1445C2"/>
</radialGradient>
<radialGradient id="paint4_radial_1138_165" cx="0" cy="0" r="1" gradientUnits="userSpaceOnUse" gradientTransform="translate(41.3597 110) rotate(-90) scale(3.43784 28.2567)">
<stop stop-color="#587EDB"/>
<stop offset="1" stop-color="#1445C2"/>
</radialGradient>
<radialGradient id="paint5_radial_1138_165" cx="0" cy="0" r="1" gradientUnits="userSpaceOnUse" gradientTransform="translate(28.8333 70.7163) rotate(-90) scale(7.05338 6.2433)">
<stop stop-color="#587EDB"/>
<stop offset="1" stop-color="#1445C2"/>
</radialGradient>
<radialGradient id="paint6_radial_1138_165" cx="0" cy="0" r="1" gradientUnits="userSpaceOnUse" gradientTransform="translate(35.3465 68.051) rotate(-90) scale(4.8989 0.76224)">
<stop stop-color="#587EDB"/>
<stop offset="1" stop-color="#1445C2"/>
</radialGradient>
<radialGradient id="paint7_radial_1138_165" cx="0" cy="0" r="1" gradientUnits="userSpaceOnUse" gradientTransform="translate(47.6077 70.432) rotate(-90) scale(7.05277 6.24328)">
<stop stop-color="#587EDB"/>
<stop offset="1" stop-color="#1445C2"/>
</radialGradient>
<radialGradient id="paint8_radial_1138_165" cx="0" cy="0" r="1" gradientUnits="userSpaceOnUse" gradientTransform="translate(54.1208 67.7678) rotate(-90) scale(4.8989 0.762145)">
<stop stop-color="#587EDB"/>
<stop offset="1" stop-color="#1445C2"/>
</radialGradient>
<radialGradient id="paint9_radial_1138_165" cx="0" cy="0" r="1" gradientUnits="userSpaceOnUse" gradientTransform="translate(66.2489 70.1516) rotate(-90) scale(7.05319 6.2433)">
<stop stop-color="#587EDB"/>
<stop offset="1" stop-color="#1445C2"/>
</radialGradient>
<radialGradient id="paint10_radial_1138_165" cx="0" cy="0" r="1" gradientUnits="userSpaceOnUse" gradientTransform="translate(72.7622 67.4869) rotate(-90) scale(4.89886 0.762145)">
<stop stop-color="#587EDB"/>
<stop offset="1" stop-color="#1445C2"/>
</radialGradient>
<radialGradient id="paint11_radial_1138_165" cx="0" cy="0" r="1" gradientUnits="userSpaceOnUse" gradientTransform="translate(12.4728 104.979) rotate(-90) scale(38.2671 3.3356)">
<stop stop-color="#587EDB"/>
<stop offset="1" stop-color="#1445C2"/>
</radialGradient>
</defs>
</svg>
