<svg width="142" height="110" viewBox="0 0 142 110" fill="none" xmlns="http://www.w3.org/2000/svg">
<mask id="mask0_1134_3035" style="mask-type:luminance" maskUnits="userSpaceOnUse" x="87" y="0" width="19" height="18">
<path fill-rule="evenodd" clip-rule="evenodd" d="M87.3541 0H105.35V17.0811H87.3541V0Z" fill="white"/>
</mask>
<g mask="url(#mask0_1134_3035)">
<path fill-rule="evenodd" clip-rule="evenodd" d="M90.701 15.7937C91.0464 13.8142 91.7373 11.9473 92.7883 10.2327C93.2451 9.48952 93.7792 8.79184 94.378 8.11688C94.6598 7.79872 94.9541 7.48965 95.2575 7.19081C95.6234 6.83287 95.6461 6.81129 95.9995 6.50903C96.6335 5.96816 97.3017 5.46705 97.9937 5.00345C98.2993 4.79891 98.6107 4.60347 98.9243 4.41144C98.9845 4.37508 99.197 4.25463 98.9039 4.4228C98.98 4.37962 99.055 4.33531 99.1311 4.29326C99.2981 4.20009 99.4652 4.10578 99.6345 4.01601C100.197 3.71376 100.772 3.43309 101.356 3.17515C101.601 3.06607 101.848 2.96267 102.096 2.86154C102.209 2.81609 102.323 2.77063 102.437 2.72632C102.515 2.69678 102.94 2.52974 102.617 2.65587C102.298 2.782 102.687 2.63201 102.763 2.60587C102.868 2.56951 102.974 2.53315 103.081 2.49793C103.233 2.44793 103.385 2.39907 103.539 2.35362C103.677 2.31157 103.817 2.27067 103.958 2.23544C103.305 1.91842 102.654 1.60139 102 1.28323C101.547 3.55354 101.682 5.99656 101.959 8.27369C102.056 9.07023 103.352 9.06796 103.897 8.92138C104.608 8.73048 105.35 8.20097 105.252 7.39193C104.998 5.30797 104.916 3.08539 105.331 1.01166C105.539 -0.0269131 103.968 -0.0882729 103.374 0.0594449C101.681 0.481009 100.015 1.20369 98.4709 2.00591C95.1711 3.72285 92.2156 6.08747 90.1146 9.18272C88.7102 11.2519 87.8 13.6029 87.3705 16.0664C87.0921 17.664 90.4521 17.2243 90.701 15.7937Z" fill="#221F1F"/>
</g>
<path fill-rule="evenodd" clip-rule="evenodd" d="M18.5554 57.791C18.3123 55.2627 18.2816 52.7152 18.5032 50.1846C18.7418 47.6575 19.2065 45.152 19.9031 42.7101C21.278 37.8218 23.6903 33.2085 26.989 29.2985C28.64 27.3429 30.541 25.5851 32.6557 24.117C33.7158 23.3898 34.8067 22.6989 35.9623 22.1262C36.2509 21.9808 36.5259 21.8194 36.827 21.6876L37.7576 21.3319C38.3792 21.1047 38.9996 20.8445 39.6245 20.6524C44.6663 19.3127 49.6466 19.3116 54.5315 19.3502C61.6674 19.4786 68.6999 19.8786 75.695 19.8582C79.9822 19.8945 84.2433 19.6661 88.4669 19.2116L91.6235 18.798C92.6734 18.6503 93.7029 18.406 94.7437 18.2162L96.3016 17.9128C96.8186 17.8049 97.3208 17.6435 97.8322 17.5117L100.463 16.797L101.137 15.9311C101.464 15.5198 101.8 15.1176 102.141 14.721C102.823 13.9267 103.531 13.1575 104.261 12.4098C105.723 10.9122 107.29 9.51338 108.96 8.23051C112.299 5.69658 116.162 3.60012 120.482 2.89448C121.559 2.74449 122.65 2.63314 123.744 2.68086C124.018 2.69222 124.292 2.682 124.563 2.71381L125.485 2.80813C125.684 2.82403 125.879 2.86153 126.074 2.89448L126.592 3.06266L127.628 3.39672C128.018 3.41831 128.146 3.82852 128.237 4.13872C128.33 4.46597 128.31 4.84322 128.309 5.21138C128.268 5.59204 128.184 5.98406 128.122 6.36926C128.087 6.55902 128.026 6.76924 127.987 6.91809L127.883 7.3067C127.595 8.3305 127.259 9.30885 126.917 10.2861C125.507 14.1597 123.909 17.9106 122.269 21.6456L121.915 22.4591L122.614 23.7545C122.929 24.3488 123.227 24.9499 123.526 25.5498C124.112 26.7555 124.687 27.9656 125.217 29.1973C126.291 31.6529 127.256 34.155 128.106 36.6969C129.784 41.784 131.005 47.053 131.353 52.4174C131.583 56.0138 131.422 59.6761 130.652 63.2577C129.888 66.8347 128.485 70.3197 126.421 73.3934C124.346 76.4602 121.632 79.0487 118.626 81.1167C117.149 82.2076 115.52 83.0223 113.921 83.8802C113.107 84.279 112.261 84.5983 111.432 84.9574C110.603 85.3153 109.769 85.6596 108.904 85.9073C104.617 87.2777 105.037 86.305 108.258 84.3893C111.397 82.386 117.421 79.1964 122.234 73.4104C124.924 70.1049 126.744 66.1495 127.59 61.9191C128.394 57.6773 128.414 53.2344 127.788 48.8404C127.176 44.4395 126.043 40.0773 124.538 35.8265C123.785 33.7016 122.954 31.5995 122.036 29.5325C121.572 28.5019 121.098 27.4759 120.595 26.4646L119.83 24.959L119.373 24.1045L118.541 22.6489L120.482 18.231C120.983 17.0504 121.508 15.8732 121.99 14.688C122.975 12.3246 123.94 9.93494 124.715 7.56918L124.992 6.68742L125.161 6.08519C125.184 5.98747 125.235 5.8727 125.201 5.76362C125.102 5.73521 125.001 5.70112 124.876 5.68635C124.719 5.67385 124.337 5.61136 124.076 5.60908L123.206 5.58068C120.874 5.58863 118.521 6.15337 116.292 7.12717C113.602 8.29187 111.08 10.0168 108.767 12.0269C107.61 13.0347 106.5 14.1154 105.443 15.2573C104.916 15.8277 104.402 16.4141 103.903 17.0129L103.17 17.9208L102.784 18.4242L102.186 19.2571C100.655 19.6832 99.1207 20.1093 97.5833 20.5377C96.1811 20.882 94.7562 21.124 93.3404 21.424C90.4951 21.9126 87.6237 22.2898 84.7466 22.4944C78.9936 22.9375 73.2349 22.8977 67.5534 22.7148C62.6617 22.566 57.7916 22.2944 52.9623 22.258C48.1694 22.2546 43.2618 22.4001 39.0132 24.0056C34.7442 25.6737 30.9944 28.8031 28.1889 32.5312C25.3618 36.2753 23.3597 40.6659 22.3097 45.277C20.9848 50.9471 21.0178 56.9422 22.412 62.6111C23.7926 68.2857 26.564 73.6002 30.3581 78.0544C31.2058 78.9976 32.0432 79.952 32.975 80.8168C33.4261 81.2633 33.8783 81.7087 34.3692 82.111L36.2054 83.6984L36.1293 84.7006L36.085 85.521L36.0475 86.8539C36.0339 87.7436 36.0384 88.6344 36.0714 89.523C36.1373 91.3002 36.2861 93.0739 36.577 94.8113C36.8577 96.551 37.2929 98.2543 37.9315 99.8474C38.5848 101.425 39.4836 102.887 40.7211 103.903C41.9437 104.878 43.5675 105.446 45.1219 105.275C46.69 105.136 48.1569 104.365 49.1898 103.128C50.2534 101.907 50.9113 100.303 51.3408 98.6531C51.4408 98.235 51.567 97.8259 51.6488 97.4021L51.8431 96.1146C52.0112 95.2067 52.0067 94.5761 52.1101 93.1273C52.1817 92.7774 52.2271 92.3637 52.3533 92.0899C52.3749 91.9342 52.5498 91.8047 52.7032 91.7479C52.8578 91.6797 53.0225 91.6342 53.1964 91.599C53.5452 91.5308 53.9327 91.5206 54.3236 91.5297L55.4178 91.5899C62.4458 92.2285 69.3113 92.8637 76.1529 92.4808C77.8562 92.3876 79.5527 92.2354 81.2287 91.999L82.5354 91.7956C83.1422 91.6956 83.8308 91.549 84.4319 91.5263C84.6932 91.5752 84.9625 91.557 85.2182 91.6649C85.4568 91.849 85.5852 92.0763 85.7114 92.3387C85.9591 92.8603 86.05 93.5512 86.1409 94.2148L86.3284 95.6306L86.5147 96.885C86.6499 97.7145 86.8102 98.5315 87.0101 99.3281C87.4101 100.915 87.9737 102.447 88.8271 103.681C89.577 104.77 90.5474 105.555 91.6951 105.915C91.9803 106.011 92.2791 106.075 92.5848 106.122C92.7257 106.146 92.9154 106.164 93.0257 106.172C93.0791 106.178 93.1813 106.164 93.3381 106.147C93.9256 106.065 94.5472 105.886 95.1153 105.607C96.1891 105.11 97.014 104.362 97.6833 103.594C97.9685 103.161 98.2924 102.788 98.5173 102.361C98.7298 101.924 98.9787 101.538 99.1446 101.122C99.3059 100.701 99.4593 100.3 99.6059 99.9167C99.7525 99.5337 99.8207 99.1338 99.9286 98.7724C100.021 98.4054 100.137 98.0645 100.205 97.7259C100.266 97.3827 100.323 97.0578 100.379 96.7487C100.655 95.5226 100.724 94.5102 100.899 93.6773C101.089 92.8421 101.177 92.1615 101.363 91.5479C101.523 90.99 101.672 90.2446 101.842 89.9048C102.128 89.3298 102.455 90.1934 102.78 92.3058C102.978 94.4045 103.327 97.8623 101.749 102.22C101.5 102.853 101.165 103.47 100.856 104.091C100.44 104.665 100.122 105.304 99.6025 105.821C98.6844 106.934 97.4572 107.846 96.0868 108.45C95.3971 108.75 94.679 108.981 93.9029 109.101C93.7097 109.137 93.5177 109.16 93.2859 109.176C93.0427 109.207 92.6893 109.168 92.5473 109.154C92.1689 109.118 91.7882 109.052 91.4087 108.967C89.8861 108.621 88.4169 107.772 87.3522 106.647C85.2034 104.361 84.3717 101.563 83.7978 98.9531C83.5183 97.6339 83.3365 96.3101 83.174 95.0443C83.149 94.8636 83.1536 94.9352 83.1422 94.8761C83.1354 94.8465 83.1286 94.8193 83.1172 94.7931C83.0808 94.7363 83.024 94.8056 82.9411 94.8091L82.8422 94.8295L82.3661 94.9034L81.3787 95.0454C80.7196 95.134 80.0594 95.2067 79.3993 95.2738C78.0789 95.4011 76.7574 95.4874 75.437 95.5385C72.794 95.6408 70.1555 95.6101 67.5239 95.4965C64.8911 95.3829 62.2651 95.1806 59.6562 94.9443L55.7792 94.5943L55.0042 94.5363L54.9951 94.5375C54.9883 94.5375 54.9883 94.5443 54.9895 94.5511V94.5716L54.9826 94.7136C54.9531 95.0613 54.9508 95.4067 54.8997 95.759L54.5804 97.8714C54.452 98.5781 54.235 99.2917 54.0623 100.002C53.8725 100.712 53.5475 101.421 53.2862 102.129C52.5896 103.512 51.7988 104.942 50.4659 106.059C49.1864 107.19 47.5206 107.979 45.8014 108.213C45.0594 108.295 44.3265 108.332 43.555 108.237C43.3538 108.206 43.1368 108.178 42.955 108.133L42.4505 108.014C42.1176 107.94 41.7789 107.85 41.4267 107.703C40.0302 107.195 38.7803 106.311 37.8178 105.279C35.8827 103.184 34.9146 100.713 34.2567 98.335C33.6056 95.9351 33.2852 93.533 33.1261 91.1456C33.0466 89.9503 33.0113 88.7583 33.0125 87.5675C33.0125 86.9709 33.0238 86.3755 33.0431 85.7778L33.0761 85.0176L33.0784 85.0029C33.075 84.9983 33.0704 84.9938 33.0761 84.9994L32.3682 84.3904C31.8444 83.9597 31.358 83.4836 30.874 83.0053C29.8774 82.0803 28.9752 81.0599 28.0673 80.0441C26.3106 77.9601 24.7323 75.7228 23.3813 73.3468C20.7542 68.5607 19.0054 63.2622 18.4827 57.8239L18.5554 57.791Z" fill="#221F1F"/>
<path fill-rule="evenodd" clip-rule="evenodd" d="M50.8504 104.368C50.8504 104.368 57.5 104.368 58.9862 107.001C60.5032 109.687 40.5829 111.06 40.5829 106.281C40.5829 106.281 49.5755 106.917 50.8504 104.368Z" fill="url(#paint0_radial_1134_3035)"/>
<path fill-rule="evenodd" clip-rule="evenodd" d="M99.5117 104.923C99.5117 104.923 105.952 104.923 107.438 107.555C108.957 110.242 89.0363 111.614 89.0363 106.835C89.0363 106.835 98.2368 107.471 99.5117 104.923Z" fill="url(#paint1_radial_1134_3035)"/>
<path fill-rule="evenodd" clip-rule="evenodd" d="M7.53929 52.6721C7.45294 52.338 7.30863 52.1005 7.31204 52.0562C7.29954 52.0789 7.35067 52.0039 7.38589 51.9278C7.42339 51.8312 7.43362 51.8414 7.45294 51.7949C7.46884 51.7574 7.48248 51.7142 7.4893 51.6642C7.49157 51.6449 7.49271 51.6562 7.49498 51.6415C7.49271 51.5676 7.5018 51.7699 7.61429 51.9142C7.62452 51.8983 7.37908 52.0346 7.27795 52.346C7.17568 52.6471 7.08591 53.0266 7.11659 53.4538C7.13818 54.0811 7.35862 54.7447 7.58929 55.3685C7.80632 55.9185 8.08358 56.4446 8.42219 56.9025C8.76876 57.3434 9.17555 57.6877 9.56985 57.8786C9.963 58.074 10.3403 58.116 10.7834 57.974C11.2277 57.8217 11.6833 57.4252 12.097 56.9661C12.7958 56.1446 13.1992 54.9753 13.3378 53.8288C13.4866 52.3346 13.3094 50.8631 12.9003 49.52C12.7753 49.1109 13.2367 48.786 13.9764 48.9075C14.7047 49.0121 15.7172 49.7518 15.9763 50.9131C16.4399 52.9346 16.1808 54.9765 15.3672 56.8854C14.957 57.8456 14.3014 58.766 13.481 59.516C12.6833 60.2841 11.3379 60.9431 9.96527 60.8022C8.33243 60.6159 7.15523 59.6796 6.32119 58.7296C5.49397 57.7467 4.91446 56.6332 4.59857 55.4446C4.2895 54.1561 4.11338 52.7175 4.71902 51.2415C5.01105 50.5256 5.51783 49.7473 6.46664 49.3246C6.92911 49.1087 7.50521 49.0666 8.02449 49.1689C8.53582 49.3007 8.96875 49.5564 9.29259 49.8563C10.0687 50.6108 10.3937 51.4653 10.5982 52.2562C10.8379 53.1073 10.8334 53.9924 10.7175 54.7867C10.5414 56.0071 10.1187 57.1116 9.59484 58.1467C9.06533 59.1807 8.44151 60.1511 7.54498 61.0477C6.86775 61.7181 5.85531 62.4033 4.59971 62.3987C3.36343 62.3703 2.34758 61.7681 1.60445 61.1204C1.27492 60.825 0.957898 60.5375 0.70905 60.1989C-0.210209 58.933 -0.153394 58.3649 0.411342 57.7558C0.544288 57.6149 0.668144 57.4593 0.814725 57.349C1.32037 56.9763 1.98851 57.2581 2.61916 57.8592C3.50887 58.7728 4.74629 59.3751 4.84174 59.1239C4.88037 59.066 5.02923 59.0342 5.35421 58.7205C5.6576 58.4353 6.02803 57.9501 6.34505 57.4138C6.81775 56.6207 7.21431 55.7332 7.43021 54.8958C7.54157 54.4776 7.58475 54.0743 7.60861 53.7243C7.61543 53.5493 7.60974 53.3879 7.59156 53.2425C7.56429 53.0834 7.50975 52.8698 7.46884 52.7016L7.53929 52.6721Z" fill="url(#paint2_radial_1134_3035)"/>
<path fill-rule="evenodd" clip-rule="evenodd" d="M120.2 40.7693C120.26 41.1182 120.273 41.467 120.246 41.817C120.248 42.1658 120.168 42.5045 120.093 42.8374C120.042 43.1794 119.867 43.4737 119.751 43.7851L119.656 44.0157L119.476 44.2873L119.115 44.8259C118.729 45.2975 118.259 45.7349 117.667 45.8963C116.604 46.1758 115.529 45.5827 114.872 44.7895C114.27 43.976 114.071 43.2271 114.018 42.3942C113.954 41.6693 114.123 40.9341 114.398 40.2671C114.786 39.4251 115.444 38.6877 116.29 38.4774C116.555 38.4002 116.756 38.924 116.879 39.4944C117.011 40.0796 117.056 40.6375 116.916 40.8273C116.572 41.1523 116.486 41.4602 116.383 41.7875C116.292 42.1102 116.319 42.5692 116.405 42.9874C116.461 43.418 116.813 43.5067 117.088 43.3726C117.148 43.3249 117.237 43.2885 117.284 43.2146C117.34 43.1453 117.399 43.101 117.473 42.8897C117.548 42.7192 117.62 42.5442 117.643 42.3613C117.698 42.1818 117.722 41.9965 117.716 41.8091C117.741 41.3489 117.648 40.8637 117.42 40.4421C117.104 39.808 116.53 39.2047 115.87 39.1297C115.353 39.057 114.954 39.3683 114.663 39.6899C114.6 39.7819 114.558 39.8864 114.488 39.958C114.325 40.0444 114.225 40.1728 114.032 40.1387C113.813 40.0944 113.587 40.0092 113.305 39.8785L112.934 39.7171C112.744 39.6206 112.615 39.4808 112.518 39.2569C112.423 39.0399 112.334 38.7036 112.459 38.4422C112.78 37.6252 113.573 36.8401 114.708 36.5503C115.832 36.2674 117.048 36.5639 117.923 37.1355C119.257 37.9877 120.015 39.3433 120.263 40.7534L120.2 40.7693Z" fill="url(#paint3_radial_1134_3035)"/>
<path fill-rule="evenodd" clip-rule="evenodd" d="M137.699 52.2892C137.718 52.2563 137.719 52.329 137.761 52.1642C137.797 52.0336 137.839 51.912 137.869 51.7722C137.936 51.4995 137.998 51.2177 138.051 50.9257C138.156 50.345 138.241 49.7462 138.299 49.1428C138.336 48.7042 138.305 48.2633 138.339 47.8327C138.377 47.4804 138.386 46.9986 138.408 46.8748C138.358 46.4885 138.308 46.118 138.228 45.7965C138.147 45.4749 138.044 45.2135 137.933 45.0476C137.819 44.8897 137.675 44.7715 137.406 44.692C136.925 44.5568 136.231 44.6579 135.623 44.8192C134.821 45.0465 134.125 45.4556 133.389 45.7055C133.169 45.7828 132.811 45.4022 132.688 44.8249C132.558 44.2579 132.752 43.4659 133.33 43.15C134.345 42.616 135.379 42.2614 136.572 42.2171C137.169 42.2069 137.874 42.2399 138.639 42.6103C139.017 42.7944 139.364 43.0739 139.633 43.383C139.884 43.6954 140.074 44.0261 140.184 44.3284C140.456 45.0613 140.609 45.659 140.792 46.2453C140.917 46.7418 140.928 47.0066 140.971 47.3361C141.003 47.6486 141.026 47.9531 141.031 48.2542C141.043 49.5837 140.944 50.8859 140.735 52.2392L140.607 52.921C140.526 53.2096 140.469 53.5039 140.35 53.7675C140.144 54.2936 139.827 54.8118 139.272 55.0027C139.082 55.0981 138.882 55.1743 138.669 55.2265C138.569 55.2686 138.452 55.2583 138.365 55.3367L138.135 55.397C137.824 55.4674 137.521 55.5129 137.217 55.5697C136.614 55.6708 136.018 55.7719 135.432 55.8935C134.52 56.0856 133.654 56.448 132.733 56.7037C132.531 56.7605 132.333 56.8457 132.117 56.8798C131.325 57.0048 130.952 56.7821 130.774 55.8526C130.751 55.6435 130.746 55.4367 130.788 55.239L130.83 55.0822C130.855 55.0106 130.88 54.9402 130.905 54.872L130.968 54.6572L130.995 54.547C131.01 54.4754 131.016 54.4073 131.015 54.3448C131.058 54.0902 131.213 53.9062 131.44 53.7903C132.825 53.1085 134.492 52.7869 136.073 52.5017L136.941 52.3415C137.088 52.3199 137.213 52.2813 137.352 52.2676L137.532 52.2597L137.539 52.2665C137.561 52.2904 137.605 52.2938 137.628 52.2642L137.699 52.2892Z" fill="#221F1F"/>
<path fill-rule="evenodd" clip-rule="evenodd" d="M60.8128 29.397C67.2442 30.6219 74.0938 30.6014 80.5241 29.4208C81.1683 29.3027 82.066 28.6448 81.8819 27.8993C81.6785 27.0824 80.5513 27.1483 79.9457 27.2596C74.1006 28.3323 67.8056 28.1959 61.9741 27.0846C60.406 26.7858 58.6221 28.98 60.8128 29.397Z" fill="url(#paint4_radial_1134_3035)"/>
<defs>
<radialGradient id="paint0_radial_1134_3035" cx="0" cy="0" r="1" gradientUnits="userSpaceOnUse" gradientTransform="translate(49.8258 109.446) rotate(-90) scale(2.58661 8.53825)">
<stop stop-color="#587EDB"/>
<stop offset="1" stop-color="#1445C2"/>
</radialGradient>
<radialGradient id="paint1_radial_1134_3035" cx="0" cy="0" r="1" gradientUnits="userSpaceOnUse" gradientTransform="translate(98.2786 110) rotate(-90) scale(2.58661 8.53778)">
<stop stop-color="#587EDB"/>
<stop offset="1" stop-color="#1445C2"/>
</radialGradient>
<radialGradient id="paint2_radial_1134_3035" cx="0" cy="0" r="1" gradientUnits="userSpaceOnUse" gradientTransform="translate(8.1026 62.3987) rotate(-90) scale(6.88603 7.48488)">
<stop stop-color="#587EDB"/>
<stop offset="1" stop-color="#1445C2"/>
</radialGradient>
<radialGradient id="paint3_radial_1134_3035" cx="0" cy="0" r="1" gradientUnits="userSpaceOnUse" gradientTransform="translate(116.33 45.9665) rotate(-90) scale(4.85222 3.63287)">
<stop stop-color="#587EDB"/>
<stop offset="1" stop-color="#1445C2"/>
</radialGradient>
<radialGradient id="paint4_radial_1134_3035" cx="0" cy="0" r="1" gradientUnits="userSpaceOnUse" gradientTransform="translate(70.849 30.311) rotate(-90) scale(1.65781 10.2143)">
<stop stop-color="#587EDB"/>
<stop offset="1" stop-color="#1445C2"/>
</radialGradient>
</defs>
</svg>
