<svg width="113" height="111" viewBox="0 0 113 111" fill="none" xmlns="http://www.w3.org/2000/svg">
<path fill-rule="evenodd" clip-rule="evenodd" d="M7.82177 96.304L7.56146 90.9481C7.52456 90.2953 7.41695 89.6517 7.38313 88.9989C7.26835 86.6971 7.15971 84.3891 7.00189 82.0862C6.92605 81.0655 6.81229 80.0427 6.69238 79.0342C6.53763 77.7398 6.32753 76.4403 6.40645 75.1203C6.43104 74.7083 6.81741 74.7288 7.2417 75.0342C7.66292 75.3386 8.14152 75.9228 8.26553 76.6586C8.48485 77.9643 8.6929 79.273 8.86302 80.59C9.01265 81.91 9.12333 83.2382 9.17458 84.5818C9.23299 86.1887 9.56915 87.8305 9.75874 89.4611C9.96576 91.2556 10.1349 93.0563 10.2763 94.861L10.5335 98.1949C10.6729 99.8767 10.7426 101.574 10.9148 103.243C11.0378 104.543 11.3196 105.81 11.502 107.105C11.5451 107.39 11.5984 107.668 11.6055 107.958C11.6342 109.031 11.4385 109.376 10.7139 109.606C10.5489 109.658 10.3849 109.726 10.2199 109.755C9.66548 109.856 9.19097 109.429 8.98293 108.674C8.32805 106.438 8.26553 104.077 8.07798 101.68C7.9714 99.8961 7.86481 98.1027 7.75823 96.3133L7.82177 96.304Z" fill="#231F20"/>
<path fill-rule="evenodd" clip-rule="evenodd" d="M29.5088 108.141C32.899 108.259 36.2903 108.396 39.6825 108.456L43.3925 108.45C47.7522 108.535 52.1161 108.617 56.4717 108.532C58.4015 108.479 60.3415 108.383 62.2478 108.242C63.4704 108.144 64.6951 108.018 65.9044 107.881C67.1025 107.738 68.3549 107.632 69.434 107.405C70.0971 107.274 70.2632 107.652 69.763 108.276C69.637 108.432 69.4668 108.605 69.2526 108.785C69.0477 108.935 68.8099 109.084 68.5404 109.23C67.9962 109.535 67.3382 109.783 66.6229 109.898C64.0659 110.347 61.5365 110.61 58.9949 110.79C56.4512 110.904 53.9065 110.931 51.3515 110.861C48.2964 110.788 45.1276 110.976 42.009 110.998C38.5808 111.009 35.1517 110.978 31.7246 110.922L25.3981 110.786C22.2047 110.711 19.001 110.596 15.825 110.558C13.3571 110.526 10.9282 110.641 8.4655 110.541C7.92438 110.502 7.39351 110.483 6.84828 110.419C4.82727 110.164 4.20314 109.857 3.85981 109.217C3.7809 109.071 3.67226 108.922 3.63537 108.785C3.51444 108.323 4.36814 108.079 5.82036 108.007C10.136 107.634 14.6525 107.821 19.248 107.862C22.6587 107.931 26.0858 108.002 29.5047 108.073L29.5088 108.141Z" fill="#231F20"/>
<path fill-rule="evenodd" clip-rule="evenodd" d="M76.3119 80.607L76.3908 86.9652C76.4062 87.7379 76.4933 88.5066 76.5036 89.2793C76.5425 92.0054 76.5651 94.7336 76.6481 97.4566C76.6891 98.6649 76.7864 99.8763 76.9074 101.068C77.0662 102.578 77.2517 104.183 77.1779 105.615C77.1718 105.711 77.138 105.788 77.0836 105.849C77.057 105.88 77.0252 105.907 76.9894 105.928C76.9484 105.946 77.0058 105.932 76.8797 105.974C76.7752 106.01 76.7413 106.021 76.7752 106.01C76.7752 106.01 76.8654 105.98 76.8367 105.989L76.8018 105.994L76.729 106C76.6778 106.001 76.6245 105.995 76.5671 105.982C76.4544 105.957 76.3294 105.902 76.1971 105.812C75.6724 105.415 75.118 104.724 74.9909 103.827C74.7531 102.255 74.6496 100.682 74.5799 99.1015C74.5061 97.5232 74.4856 95.9388 74.5184 94.3441C74.5635 92.4379 74.3299 90.4712 74.2458 88.5291L74.0255 82.1186L73.9066 78.173C73.8328 76.1817 73.8103 74.1801 73.6986 72.2032C73.6063 70.6679 73.387 69.1665 73.2435 67.6395C73.2138 67.3034 73.1564 66.9734 73.1636 66.6331C73.1708 65.3674 73.3685 64.9462 73.9558 64.6961C74.089 64.6377 74.2182 64.5608 74.3452 64.5291C74.7593 64.4245 75.1733 64.9421 75.3496 65.8296C75.9286 68.4912 76.0291 71.3403 76.1828 74.1996C76.2894 76.3251 76.2996 78.4661 76.3703 80.6019L76.3119 80.607Z" fill="#231F20"/>
<path fill-rule="evenodd" clip-rule="evenodd" d="M93.2549 91.5896C94.2624 90.6939 95.2811 89.8074 96.3203 88.9383C96.6995 88.5755 96.5283 88.9936 96.5908 88.0231L96.6195 86.0226L96.5662 83.1028C96.5632 79.6675 96.4771 76.224 96.3685 72.7784C96.3223 71.2483 96.226 69.7131 96.1307 68.1983C96.0026 66.2511 95.8314 64.2977 95.8909 62.3403C95.9165 61.1217 97.1227 62.6047 97.3564 64.8358C97.6977 68.7979 98.0882 72.76 98.0933 76.7907C98.1107 79.1981 98.33 81.6967 98.3936 84.1625C98.4233 85.5184 98.4428 86.8743 98.4366 88.2322L98.4356 88.8123C98.4315 89.0797 98.4458 89.3564 98.4069 89.6086L97.4005 90.5012L95.896 91.8427C94.6662 92.9527 93.4425 94.0749 92.2301 95.2104C90.3833 96.9281 88.5283 98.6549 86.6959 100.36C85.2734 101.694 83.9339 103.073 82.493 104.381C82.1732 104.667 81.8801 104.969 81.5419 105.241C80.928 105.758 80.4842 106.051 80.1009 106.159C79.733 106.286 79.4481 106.257 79.155 106.143C79.0228 106.091 78.8752 106.06 78.7768 105.998C78.4571 105.807 78.7287 105.087 79.5219 104.257C81.9754 101.919 84.6072 99.5209 87.2565 97.0582C89.2396 95.2278 91.2309 93.3903 93.2181 91.5558L93.2549 91.5896Z" fill="#231F20"/>
<path fill-rule="evenodd" clip-rule="evenodd" d="M91.2793 58.2118C92.916 57.4124 94.5373 56.5699 96.094 55.6507C96.3779 55.4836 96.6485 55.2991 96.918 55.1167L97.288 54.8584L97.5114 54.633C98.1694 53.9812 98.6336 52.9737 98.897 51.9243C99.1717 50.8687 99.2578 49.7362 99.1573 48.6212C99.0682 47.6322 98.8048 46.6442 98.3538 45.7782C97.7881 44.6478 96.9488 43.7316 95.9977 42.9332C95.7118 42.6709 95.8962 42.4013 96.3749 42.3265C96.6157 42.2896 96.9344 42.303 97.2931 42.3911C97.6201 42.5161 97.9921 42.715 98.3118 43.0173C100.49 45.2873 101.209 48.5279 100.701 51.4631C100.569 52.3496 100.303 53.2402 99.9588 54.1185C99.5867 54.9927 99.0733 55.8536 98.1755 56.5085C96.587 57.5753 94.9595 58.4895 93.3095 59.3821C92.297 59.9294 91.269 60.449 90.2452 60.9707C88.6915 61.7578 87.0989 62.4813 85.5514 63.2479C84.3441 63.8362 83.2086 64.5249 82.0187 65.1336C81.7563 65.2669 81.5083 65.4175 81.2388 65.5415C80.2344 65.9853 79.8532 65.975 79.4207 65.5128C79.3223 65.4073 79.2096 65.3078 79.1317 65.1931C78.8704 64.8067 79.143 64.2922 79.8224 63.8761C81.8322 62.6248 84.0684 61.6348 86.2975 60.5761C87.9526 59.7931 89.6221 59.0132 91.2537 58.1687L91.2793 58.2118Z" fill="#231F20"/>
<path fill-rule="evenodd" clip-rule="evenodd" d="M15.9306 47.0295C17.1532 46.7651 18.3697 46.4607 19.5811 46.1215C20.0218 45.9934 20.443 45.813 20.8858 45.6859C22.4497 45.2298 24.0198 44.7707 25.5816 44.3146C26.2775 44.1066 26.959 43.8494 27.6313 43.5921C28.4902 43.2519 29.3388 42.8665 30.2939 42.7845C30.5891 42.7528 30.6424 43.0172 30.5204 43.3913C30.3923 43.7499 30.1207 44.3044 29.6493 44.5524C27.9368 45.3251 26.2273 46.103 24.3651 46.5662C23.2532 46.8419 22.1781 47.3564 21.0682 47.7336C19.8486 48.1476 18.6085 48.5145 17.3664 48.867L15.0636 49.4758C13.8993 49.774 12.7156 50.0098 11.5668 50.3203C10.6741 50.5622 9.81837 50.8881 8.93084 51.1145C8.7351 51.1637 8.54755 51.2283 8.34873 51.2652C7.60776 51.4036 7.34437 51.3123 7.09328 50.8819C7.03691 50.7835 6.96825 50.6882 6.92623 50.5888C6.78685 50.2537 7.02462 49.8909 7.52474 49.6306C9.01181 48.8517 10.6014 48.2583 12.2524 47.8914C13.4689 47.588 14.6926 47.2826 15.9132 46.9782L15.9306 47.0295Z" fill="#231F20"/>
<path fill-rule="evenodd" clip-rule="evenodd" d="M77.3937 38.5804C78.4422 38.7075 79.4926 38.8356 80.539 38.9617C80.9213 39.0037 81.3056 38.9873 81.6879 39.0344C83.0355 39.2066 84.3904 39.3798 85.734 39.552C86.3325 39.6268 86.9361 39.6514 87.5316 39.6709C88.2961 39.6862 89.0648 39.6493 89.8252 39.9178C90.0619 39.9947 90.0261 40.2499 89.8201 40.5389C89.6141 40.8136 89.2359 41.2092 88.7932 41.2614C87.2272 41.328 85.6612 41.3742 84.0901 41.0913C83.1503 40.9212 82.1665 40.9827 81.2021 40.9253L78.023 40.6947L76.0676 40.5522C75.0806 40.4815 74.0896 40.3811 73.1078 40.377C72.3443 40.3657 71.592 40.4764 70.8377 40.4743C70.6707 40.4764 70.5077 40.4948 70.3407 40.4846C69.7206 40.4467 69.528 40.3032 69.4111 39.8441C69.3845 39.7395 69.3476 39.636 69.3343 39.5335C69.2871 39.1892 69.5505 38.9032 70.0086 38.7731C71.3707 38.3683 72.7952 38.2156 74.2167 38.3088C75.2754 38.3437 76.3361 38.4287 77.3937 38.5281V38.5804Z" fill="#231F20"/>
<path fill-rule="evenodd" clip-rule="evenodd" d="M22.0798 72.2535C24.6645 72.2996 27.2625 72.2658 29.8615 72.1818L32.7044 72.0291C36.0516 71.9245 39.407 71.8272 42.7603 71.6704C44.2474 71.6027 45.7416 71.4992 47.2174 71.4018C49.1123 71.2768 51.0206 71.1303 52.9289 71.2174C53.5233 71.243 53.4454 71.489 52.9535 71.7554C52.4605 72.0168 51.5556 72.3232 50.4723 72.4113C46.6291 72.7239 42.7808 73.1123 38.8761 73.2794C36.5405 73.3737 34.1228 73.6852 31.7308 73.8164C29.1031 73.9712 26.4672 74.0788 23.8272 74.1239C22.2017 74.1546 20.5732 74.1423 18.9458 74.1167C16.479 74.0572 13.9978 73.8943 11.5392 73.5346C10.584 73.3788 9.62986 73.2466 8.67572 72.9781C7.7267 72.7147 6.74797 72.4062 5.84302 71.7237C5.63498 71.6027 5.45973 71.3998 5.27013 71.2307L4.85301 70.8187C4.48817 70.4487 3.99111 70.1351 3.7103 69.6801C3.41514 69.2199 3.45101 68.7475 3.70415 68.5046C3.80766 68.3867 3.94294 68.2719 4.06593 68.2309C4.28524 68.1561 4.48304 68.3047 4.66956 68.3652C4.86839 68.4144 4.97087 68.3847 5.4751 68.6747C5.8297 68.8787 6.30933 69.1707 6.70287 69.6268C6.96421 69.8543 7.13639 70.0173 7.44282 70.1864C8.00239 70.5153 8.69109 70.7951 9.45051 70.997C10.956 71.4234 12.6368 71.6734 14.335 71.8456C16.8653 72.0987 19.4715 72.1941 22.0757 72.2064L22.0798 72.2535Z" fill="#231F20"/>
<path fill-rule="evenodd" clip-rule="evenodd" d="M92.1716 61.5165C91.4747 61.8578 90.7491 62.1355 90.0389 62.4256C89.7786 62.526 89.5378 62.6705 89.2744 62.7627C88.353 63.0753 87.4214 63.392 86.5032 63.7025C86.0922 63.8337 85.6976 63.9997 85.3082 64.1678C84.8091 64.3871 84.3254 64.6382 83.7801 64.7499C83.443 64.8288 83.4881 63.8993 84.0282 63.5498C85.0059 62.9892 85.9969 62.4666 87.0884 62.1806C87.7371 61.9961 88.3356 61.6405 88.9485 61.3566C89.6249 61.0471 90.2951 60.7294 90.9562 60.3912C91.361 60.1811 91.774 59.9803 92.1655 59.7445C92.7671 59.4012 93.3687 59.0446 93.9159 58.6234C94.3566 58.3179 94.7 57.8978 95.1078 57.5637C95.197 57.4878 95.2769 57.4048 95.3723 57.3351C95.7258 57.0809 95.9021 57.0779 96.188 57.2787C96.2536 57.3249 96.3233 57.3659 96.3807 57.4161C96.5734 57.5841 96.5703 57.866 96.3879 58.1632C96.1204 58.607 95.815 59.0374 95.4348 59.3858C95.073 59.7579 94.662 60.0868 94.2213 60.3707C93.5695 60.8001 92.8849 61.1865 92.1921 61.5503L92.1716 61.5165Z" fill="#231F20"/>
<path fill-rule="evenodd" clip-rule="evenodd" d="M39.6894 92.4313L39.5275 88.0081C39.5121 87.469 39.4291 86.9361 39.4199 86.397C39.3973 84.4918 39.3973 82.5866 39.4117 80.6763C39.4066 79.8246 39.4025 78.976 39.3973 78.1315C39.4178 77.0401 39.3328 75.9384 39.7919 74.81C39.9241 74.4636 40.2346 74.6337 40.5308 74.9863C40.8178 75.3429 41.1252 75.8113 41.1632 76.4006C41.1908 77.4182 41.2964 78.4882 41.364 79.552C41.4419 80.6209 41.403 81.7052 41.3794 82.8028C41.3282 84.1157 41.567 85.4654 41.6756 86.8028L41.9748 91.2292L42.1644 93.9584C42.2751 95.3347 42.3469 96.7224 42.516 98.0875C42.6359 99.1503 42.9403 100.175 43.094 101.237C43.1299 101.471 43.1903 101.697 43.2129 101.934C43.2918 102.821 43.0663 103.116 42.433 103.317C42.2946 103.363 42.1644 103.422 42.0415 103.449C41.6633 103.538 41.1078 103.199 40.9028 102.595C40.3033 100.793 40.1014 98.8469 39.9344 96.871C39.8063 95.4034 39.7345 93.9204 39.63 92.4395L39.6894 92.4313Z" fill="#231F20"/>
<path fill-rule="evenodd" clip-rule="evenodd" d="M46.1518 87.7089C43.3888 87.7171 40.6227 87.753 37.8586 87.8268C36.8502 87.8544 35.8448 87.9477 34.8374 87.9692C31.2822 88.0522 27.7228 88.1301 24.1717 88.3197C22.5975 88.4089 21.0162 88.5493 19.4635 88.7307C17.4784 88.95 15.4533 89.3005 13.5378 89.3846C12.9619 89.4245 12.8748 89.032 13.3093 88.5011C13.5276 88.2316 13.8965 87.9272 14.3219 87.6894C14.7513 87.4384 15.2883 87.219 15.8673 87.1524C19.9934 86.5847 24.101 86.2803 28.2681 86.2167C30.7574 86.186 33.3319 85.9072 35.8725 85.7914C38.6652 85.6715 41.462 85.5957 44.2578 85.5332L49.42 85.4481C52.0272 85.4235 54.6457 85.3979 57.2335 85.3733C59.2443 85.3323 61.2202 85.1806 63.2197 85.1253C63.6593 85.1119 64.0898 85.0812 64.5346 85.0976C66.1825 85.1427 66.7001 85.3261 67.0168 85.9533C67.0885 86.0948 67.1859 86.2383 67.2238 86.3797C67.3519 86.8562 66.6662 87.218 65.4764 87.3174C63.7167 87.4527 61.9038 87.5767 60.0734 87.588C58.2368 87.6526 56.3777 87.6403 54.5084 87.6731C51.7352 87.6946 48.9435 87.7038 46.1569 87.7643L46.1518 87.7089Z" fill="#231F20"/>
<path fill-rule="evenodd" clip-rule="evenodd" d="M90.9025 75.5833L90.9148 79.6601C90.9219 80.1562 90.9732 80.6491 90.9691 81.1451C90.9517 82.8976 90.925 84.6501 90.9476 86.4016C90.9599 87.1784 90.9906 87.9594 91.0398 88.728C91.129 89.717 91.0839 90.7121 91.0152 91.7227C90.9404 92.3376 90.0867 91.5689 89.8663 90.4631C89.4031 88.4841 89.2924 86.4703 89.3191 84.4288C89.3447 83.2061 89.15 81.9496 89.0721 80.7055C88.9891 79.3383 88.9645 77.965 88.9194 76.5927L88.8487 74.0593C88.8025 72.7813 88.7964 71.4941 88.7164 70.2233C88.6519 69.2353 88.491 68.2689 88.4028 67.2758C88.3844 67.0565 88.3424 66.8413 88.3639 66.6209C88.4008 65.7928 88.6601 65.5264 89.1233 65.3931C89.2289 65.3614 89.3303 65.3173 89.4277 65.304C89.5927 65.2794 89.7372 65.3552 89.8848 65.5069C90.0293 65.6596 90.1933 65.8892 90.2537 66.1689C90.5407 67.0134 90.5991 67.8815 90.7098 68.7731C90.8082 69.6616 90.8399 70.5717 90.8676 71.4849C90.8963 72.8459 90.925 74.2141 90.9527 75.5781L90.9025 75.5833Z" fill="#231F20"/>
<path fill-rule="evenodd" clip-rule="evenodd" d="M86.7194 79.9814C87.4788 79.4977 88.2331 78.9822 88.9587 78.4154C89.2252 78.2125 89.4588 77.9717 89.7232 77.7616C90.661 77.0186 91.6049 76.2704 92.5406 75.5295C92.9536 75.1923 93.3512 74.8295 93.7396 74.4687C94.2408 74.0065 94.7337 73.5228 95.3384 73.1764C95.7043 72.9509 95.818 73.9358 95.3118 74.5056C94.375 75.4997 93.4517 76.5205 92.3561 77.3988C91.6817 77.9051 91.0996 78.563 90.454 79.1359C89.7376 79.76 88.9976 80.3637 88.228 80.9345C87.7576 81.2891 87.2697 81.6232 86.7768 81.9512C86.0338 82.4554 85.2334 82.8766 84.4575 83.3286C83.8416 83.6576 83.2656 84.0624 82.6169 84.3688C82.4775 84.4436 82.3443 84.5328 82.1834 84.5523C81.8964 84.6209 81.6925 84.6086 81.5316 84.5133C81.3738 84.4334 81.2692 84.3155 81.1708 84.1464C81.1268 84.0696 81.0745 83.9988 81.0437 83.9271C80.9423 83.6965 81.1032 83.3727 81.3963 83.0252C82.3279 82.2822 83.3712 81.9276 84.4012 81.325C85.1698 80.9099 85.9466 80.4621 86.6927 79.9486L86.7194 79.9814Z" fill="#231F20"/>
<path fill-rule="evenodd" clip-rule="evenodd" d="M0.145379 59.0505C0.259138 57.9047 0.569668 56.7528 1.04725 55.6429C1.51971 54.535 2.27195 53.4589 3.29988 52.6534C3.43823 52.5478 3.5233 52.4536 3.70675 52.3408C3.92299 52.2219 4.15051 52.1133 4.38007 52.0221C4.74595 51.9083 5.04213 51.853 5.36291 51.7874C5.93683 51.7075 6.50152 51.6439 7.03342 51.6203C8.11362 51.5507 9.15794 51.5466 10.2033 51.5435C14.3683 51.5732 18.4728 51.7884 22.5825 51.9893C25.5781 52.1276 28.5717 52.265 31.5633 52.4023C42.1008 52.967 52.6415 53.5881 63.1544 53.3769C65.4849 53.3237 67.8195 53.2089 70.1285 52.9742C70.7086 52.927 71.2805 52.8502 71.8544 52.7784C72.128 52.7395 72.458 52.7149 72.6845 52.6626C72.7768 52.6247 72.8434 52.6186 72.9623 52.5704L73.3322 52.4085C74.3397 51.9452 75.3707 51.3816 76.3842 50.8333C81.6059 47.9688 86.8224 44.8994 92.5534 42.8804C94.3684 42.2962 94.2474 42.8363 92.949 43.8161C91.6525 44.8102 89.2574 46.3977 86.2485 48.0036C83.5726 49.4149 80.9305 50.9019 78.2372 52.3531C76.869 53.0818 75.5879 53.8125 74.0332 54.4981C73.7739 54.6529 72.8034 54.9101 72.5738 54.8937L71.4096 55.0321C70.6328 55.1243 69.86 55.1766 69.0852 55.2494C62.8961 55.7064 56.7439 55.604 50.5784 55.3764C43.2087 55.0844 35.5469 54.865 28.0306 54.5094C23.8994 54.3147 19.7693 54.1118 15.6473 53.9724C13.5884 53.9088 11.5284 53.8586 9.48692 53.8822C8.46617 53.8894 7.45259 53.9324 6.47385 54.0206L5.7626 54.1118C5.56173 54.1589 5.32396 54.204 5.16819 54.2522C5.12002 54.2747 5.0821 54.3044 5.01548 54.2973C4.95604 54.3608 4.85868 54.4356 4.78182 54.5033C4.62296 54.6478 4.43542 54.7584 4.30628 54.9398C2.83459 56.5396 2.34779 59.0649 2.48717 61.4231C2.56301 62.616 2.79258 63.8069 3.17792 64.9301C3.26708 65.215 3.37264 65.4917 3.49973 65.7582C3.61553 66.0308 3.73442 66.3004 3.88507 66.5484C4.02445 66.8056 4.16383 67.0628 4.33806 67.2893L4.58505 67.6429C4.66703 67.7567 4.74595 67.7987 4.82076 67.8848C5.33421 68.3521 6.21969 68.678 7.07646 68.926C7.95066 69.1771 8.88021 69.338 9.80975 69.4805C11.677 69.7541 13.5874 69.8925 15.4977 69.9837C19.3224 70.161 23.1656 70.1354 26.9832 70.0431C32.9202 69.8986 38.7373 69.4415 44.621 69.172C45.9174 69.1105 47.1851 69.0295 48.4949 68.9926C53.3507 68.8563 54.9115 69.0644 55.9466 69.7521C56.1823 69.9099 56.4929 70.0667 56.6281 70.2225C57.0811 70.7574 55.1155 71.1448 51.593 71.357C41.1303 72.0242 30.0701 72.761 18.8203 72.6032C16.7296 72.5643 14.6307 72.4853 12.5113 72.308C10.3878 72.1143 8.26222 71.8797 6.02906 71.2248L5.17741 70.9296C4.88738 70.8097 4.59017 70.6642 4.29911 70.5279C4.0019 70.3711 3.68727 70.1497 3.39109 69.9509C3.23326 69.8115 3.07749 69.6619 2.92683 69.5102C2.769 69.3534 2.6286 69.1976 2.55993 69.0828C1.79027 68.0856 1.29834 66.9952 0.891473 65.8976C0.113609 63.6901 -0.152853 61.38 0.0828629 59.0557L0.145379 59.0505Z" fill="#231F20"/>
<path fill-rule="evenodd" clip-rule="evenodd" d="M97.9864 79.8602C97.9864 79.8602 110.112 79.7742 112.177 85.3576C114.662 92.0837 96.5362 102.177 80.2831 104.976L97.6441 89.2387L97.9864 79.8602Z" fill="url(#paint0_radial_1134_2902)"/>
<path fill-rule="evenodd" clip-rule="evenodd" d="M55.3564 14.6751C55.5665 13.9966 56.288 13.6164 56.9665 13.8265C60.3311 14.8677 54.2619 18.2088 55.3564 14.6751Z" fill="#231F20"/>
<path fill-rule="evenodd" clip-rule="evenodd" d="M42.8605 1.90642C43.0706 1.22797 43.7911 0.84775 44.4705 1.05785C47.8341 2.0991 41.7659 5.44012 42.8605 1.90642Z" stroke="#231F20"/>
<path fill-rule="evenodd" clip-rule="evenodd" d="M18.2781 22.0152C18.4882 21.3367 19.2097 20.9565 19.8881 21.1666C23.2527 22.2079 17.1835 25.5489 18.2781 22.0152Z" stroke="#231F20"/>
<path fill-rule="evenodd" clip-rule="evenodd" d="M86.9717 14.6751C87.1818 13.9966 87.9022 13.6164 88.5817 13.8265C91.9463 14.8677 85.8771 18.2088 86.9717 14.6751Z" stroke="#231F20"/>
<path fill-rule="evenodd" clip-rule="evenodd" d="M30.6007 39.4162C30.0452 37.9947 29.6906 36.5025 29.6691 34.9017C29.6599 33.3378 30.0237 31.4859 31.3079 30.1146C32.2425 29.1266 33.2735 28.48 34.5249 28.1735C35.6133 27.9235 36.7252 27.9809 37.7183 28.2207C38.7175 28.4605 39.6204 28.8622 40.4403 29.3388C42.0709 30.3083 43.436 31.5238 44.6474 32.8387C45.7286 33.9998 46.7442 35.2122 47.6758 36.4748C48.8523 38.0921 50.0668 39.8148 50.3999 41.9486C50.4941 42.625 49.7296 42.6721 48.8974 42.4108C48.057 42.1433 47.1285 41.6514 46.6704 40.769C44.9917 37.6258 42.695 34.5573 39.9463 32.2709C39.1193 31.5914 38.1426 31.1149 37.1772 30.9119C36.2067 30.7172 35.2945 30.8217 34.4798 31.2184C33.5123 31.6662 32.963 32.3283 32.6617 33.3521C32.3983 34.3718 32.4608 35.5904 32.7437 36.7669C33.0778 38.2396 33.7511 39.6047 34.6868 40.8161C36.0919 42.6639 38.0411 44.1776 40.1646 45.2845C41.8218 46.1505 43.6092 46.667 45.3975 47.1425C45.7942 47.2368 46.1846 47.3311 46.5843 47.4264C48.054 47.8261 48.4742 48.1182 48.6043 48.9555C48.634 49.1451 48.6884 49.3409 48.6884 49.5233C48.6914 50.1361 47.9402 50.4702 46.7545 50.3124C43.2515 49.84 39.6225 48.5415 36.3686 46.3083C33.9592 44.6767 31.7813 42.3493 30.5361 39.4479L30.6007 39.4162Z" fill="#221F1F"/>
<path fill-rule="evenodd" clip-rule="evenodd" d="M66.3386 33.1164C66.8408 31.7421 67.1708 30.2294 67.0273 29.0949C66.9576 28.5168 66.7762 28.2073 66.5702 28.0352C66.3632 27.8466 65.8538 27.7297 65.2277 27.7687C64.7685 27.8107 64.2581 27.9122 63.7857 28.1069L63.0632 28.357L62.3488 28.7013C60.6496 29.5048 59.0498 30.751 57.5956 32.1551C56.1382 33.5653 54.8069 35.1548 53.6345 36.8591C52.5933 38.3698 51.6863 39.9952 50.9617 41.6657C50.0117 43.8128 49.3834 46.0531 48.5728 48.2043C48.3135 48.8725 47.5951 48.6614 47.0345 47.8753C46.4564 47.0903 46.0916 45.6801 46.5661 44.2811C48.2756 39.3834 50.9617 34.9181 54.6512 31.246C55.7765 30.1709 56.8905 29.0487 58.1746 28.0526C59.4167 27.0257 60.8567 26.1341 62.4585 25.5509C63.3532 25.2394 64.2479 24.9954 65.2738 24.9616C66.2597 24.9175 67.5182 25.1061 68.4785 25.968C69.4398 26.8248 69.7657 27.9972 69.859 28.9667C69.9481 29.9619 69.8477 30.8894 69.6725 31.7748C69.2236 33.9537 68.3719 35.9337 67.2835 37.7918C66.4411 39.1702 65.4818 40.482 64.3781 41.6708C63.2825 42.8648 62.0363 43.903 60.7583 44.8448C58.7701 46.3073 56.7521 47.6006 54.7803 48.8735C54.3519 49.1574 53.9317 49.4372 53.5003 49.7241C51.8841 50.7398 51.303 50.9201 50.522 50.502C50.3458 50.4077 50.1418 50.3308 49.9963 50.215C49.5044 49.8338 49.8897 48.9575 51.0447 48.0341C54.4841 45.2773 58.5323 43.4356 61.3957 40.6193C62.4739 39.5791 63.426 38.4118 64.2622 37.1338C65.1201 35.8753 65.7811 34.5194 66.2689 33.0979L66.3386 33.1164Z" fill="#221F1F"/>
<defs>
<radialGradient id="paint0_radial_1134_2902" cx="0" cy="0" r="1" gradientUnits="userSpaceOnUse" gradientTransform="translate(96.3448 104.976) rotate(-90) scale(12.795 14.8372)">
<stop stop-color="#587EDB"/>
<stop offset="1" stop-color="#1445C2"/>
</radialGradient>
</defs>
</svg>
