<svg width="99" height="110" viewBox="0 0 99 110" fill="none" xmlns="http://www.w3.org/2000/svg">
<path fill-rule="evenodd" clip-rule="evenodd" d="M74.5864 106.009L67.2611 107.104C66.3707 107.238 65.4903 107.427 64.5988 107.549C61.4538 107.986 58.3077 108.406 55.1556 108.788C53.7582 108.962 52.3597 109.184 50.9795 109.402C49.2086 109.692 47.4317 110.035 45.6143 109.997C45.0497 109.995 45.0891 109.691 45.5141 109.294C45.9422 108.912 46.7406 108.349 47.7494 108.14C51.3468 107.541 54.9431 106.921 58.6204 106.566C60.8193 106.352 63.0668 105.881 65.295 105.527L72.6475 104.362L77.1688 103.612C79.4476 103.217 81.7406 102.84 83.987 102.369C85.7346 102.004 87.4225 101.525 89.1286 101.079C89.505 100.982 89.8693 100.867 90.2498 100.778C91.6685 100.482 92.1582 100.574 92.5711 101.011C92.6632 101.102 92.7755 101.179 92.8342 101.257C93.0244 101.481 92.5438 102.067 91.5329 102.443C88.5194 103.499 85.2458 104.142 81.9602 104.778C79.5184 105.238 77.0544 105.643 74.5985 106.057L74.5864 106.009Z" fill="#231F20"/>
<path fill-rule="evenodd" clip-rule="evenodd" d="M62.44 25.8283L56.6772 26.4941L54.5785 26.7724C52.1064 27.0557 49.6302 27.3391 47.1601 27.6224C46.0612 27.756 44.9612 27.8896 43.8714 28.0211C42.4669 28.178 41.0795 28.4421 39.5981 28.2549C39.1276 28.185 39.252 28.0292 39.6315 27.8643C39.9938 27.7357 40.6424 27.4231 41.4357 27.3765C44.2731 27.074 47.0954 26.7734 49.9965 26.4638C51.7208 26.2978 53.5008 26.0064 55.2574 25.7726L61.0577 25.0279L64.6318 24.5897C66.4411 24.3904 68.2575 24.188 70.0516 23.9896C70.7508 23.9148 71.445 23.8419 72.1402 23.767L72.7059 23.7124L72.9042 23.6972L73.0792 23.7923C73.226 23.8743 73.2482 23.8773 73.3383 23.9239L74.2703 24.3388C74.5496 24.4582 74.8238 24.5816 75.1021 24.7192C76.1514 25.208 76.3761 25.5996 76.4894 25.8799C76.5137 25.9487 76.5541 26.0226 76.5602 26.0722C76.5896 26.2229 76.1119 26.1268 75.3216 25.8839C74.758 25.6522 74.165 25.4589 73.5781 25.1989C73.2837 25.0714 72.9862 24.9398 72.6775 24.78C72.6178 24.7597 72.6795 24.7719 72.5763 24.781L72.1038 24.8204C70.8439 24.9176 69.5456 25.0572 68.2504 25.1958C66.3197 25.4144 64.3808 25.634 62.4451 25.8526L62.44 25.8283Z" fill="#231F20"/>
<path fill-rule="evenodd" clip-rule="evenodd" d="M36.66 76.4333L37.2722 67.1258L37.4615 63.7288L38.3003 51.7629C38.4056 49.991 38.5108 48.2121 38.6151 46.4544C38.7679 44.1968 38.8316 41.9241 39.1817 39.6797C39.3011 38.9814 39.463 39.0897 39.6452 39.7009C39.8465 40.3141 40.0287 41.4242 39.9771 42.7255C39.8385 47.3408 39.4428 51.939 39.0208 56.5786C38.7537 59.3512 38.6201 62.2473 38.4167 65.0898L37.7397 74.4641L37.3279 80.2341C37.1235 83.1474 36.9181 86.0728 36.7147 88.9638C36.5841 91.2103 36.4566 93.4193 36.3271 95.6435C36.2988 96.1332 36.2694 96.6139 36.2401 97.1077C36.0964 98.9362 35.9942 99.514 35.7443 99.8874C35.6886 99.9724 35.6309 100.087 35.5803 100.134C35.4103 100.295 35.3213 99.5383 35.382 98.1985C35.5469 94.2217 35.7908 90.0334 36.0499 85.8279C36.2441 82.7052 36.4405 79.5672 36.6358 76.4353L36.66 76.4333Z" fill="#231F20"/>
<path fill-rule="evenodd" clip-rule="evenodd" d="M62.4891 35.5596L57.1158 36.3276L55.1598 36.6332C52.8536 36.9307 50.5414 37.2292 48.2373 37.5277C47.2122 37.6573 46.1851 37.8121 45.1702 37.9608C43.8587 38.1308 42.5665 38.3595 41.1893 38.2917C40.7562 38.2654 40.8453 38.0458 41.1873 37.8151C41.5202 37.5996 42.1152 37.3061 42.8549 37.213C45.4849 36.8032 48.1503 36.5006 50.8409 36.2163C52.4529 36.0534 54.1094 35.7478 55.7467 35.5039L61.1493 34.7035L64.4724 34.1955C66.1491 33.9294 67.835 33.6754 69.4925 33.3738C70.7807 33.1401 72.0334 32.8466 73.2993 32.5744C73.5776 32.5147 73.8488 32.4459 74.1321 32.3963C75.1795 32.2051 75.5265 32.2202 75.8008 32.455C75.8625 32.5076 75.9414 32.5582 75.9819 32.6149C76.1205 32.8072 75.7239 33.0591 74.968 33.2676C72.7246 33.8838 70.3192 34.3048 67.9028 34.7217C66.1056 35.0091 64.2984 35.2975 62.4961 35.5849L62.4891 35.5596Z" fill="#231F20"/>
<path fill-rule="evenodd" clip-rule="evenodd" d="M74.624 43.1864C74.543 43.1682 74.033 42.9355 73.7244 42.554C73.3935 42.2049 73.2549 41.8062 73.2276 41.8113C73.2073 41.7961 73.2559 41.7354 73.35 41.6483C73.4907 41.5188 73.6849 41.3842 73.8226 41.3104C73.9147 41.2628 73.9986 41.2203 74.0199 41.2233C74.1069 41.2355 74.1757 41.2537 74.2294 41.2851C74.2992 41.3235 74.3478 41.3822 74.4034 41.4288C74.458 41.45 74.4813 41.5178 74.5663 41.4925C74.6918 41.4389 74.7009 41.6028 74.8244 41.5067C74.9306 41.4237 74.9812 41.4642 75.051 41.4348C75.1472 41.3701 75.2271 41.3377 75.3 41.3144C75.3222 41.3093 75.3445 41.2395 75.3688 41.2284C75.4012 41.2142 75.4416 41.2507 75.475 41.2395C75.5175 41.2213 75.5489 41.1798 75.5884 41.1495C75.6501 41.0989 75.7159 41.0665 75.7756 41.025C75.7938 41.0129 75.7917 40.9612 75.812 40.9562C75.8373 40.944 75.8838 40.9663 75.9101 40.9521C75.9516 40.9319 75.982 40.8945 76.0154 40.8631C76.0154 40.8631 76.0073 40.8337 76.0032 40.8196C75.9648 40.6809 75.9982 40.6678 76.0326 40.6405C76.0933 40.5939 76.1398 40.5302 76.1915 40.4735C76.2107 40.4614 76.4576 40.3096 76.6701 40.1102C76.9059 39.92 77.0435 39.6731 77.0587 39.6599C77.0577 39.6549 77.0627 39.6518 77.0617 39.6468C77.0566 39.6286 77.1487 39.6437 76.9757 39.5678C76.9129 39.5405 76.9575 39.5476 76.9686 39.5436C76.9797 39.5405 77.0344 39.5527 76.917 39.5071C76.8634 39.4879 76.8887 39.4889 76.919 39.494C77.085 39.5223 77.2499 39.5375 77.0688 39.4586C77.0162 39.4363 77.091 39.4474 77.0769 39.4343C77.0071 39.3796 77.1497 39.3695 76.9899 39.3007C76.9322 39.2754 77.0566 39.2865 77.0951 39.2774C77.1103 39.2744 77.1406 39.2734 77.1153 39.2643C77.0131 39.2278 77.0273 39.2127 77.088 39.1975C77.171 39.1772 77.0981 39.1398 77.0931 39.1125C77.088 39.0852 77.0759 39.0599 77.0799 39.0336C77.086 38.9992 77.1012 38.9678 77.0668 38.9384C77.0536 38.9283 77.006 38.9243 77.002 38.9142C76.9899 38.8889 76.9362 38.8716 76.9221 38.8494C76.9119 38.8393 76.9686 38.816 76.9807 38.7998C77.0364 38.7249 77.0384 38.6561 77.0647 38.5741C77.0718 38.5428 77.0334 38.5306 77.0657 38.4861C77.1254 38.4112 77.1224 38.3495 77.0668 38.3242C77.0202 38.3111 77.1082 38.2119 77.1477 38.134C77.1862 38.051 77.2125 37.969 77.2327 37.886C77.2489 37.7555 78.1525 37.1291 78.2183 37.1453C78.2426 37.1838 78.5917 37.3275 78.8518 37.6017C79.0896 37.882 79.379 38.219 79.3709 38.3009C79.4012 38.4983 79.3921 38.6986 79.4124 38.8929C79.4286 39.0275 79.4397 39.157 79.4367 39.2906C79.4275 39.4262 79.3759 39.5547 79.378 39.6903C79.3739 39.7945 79.4144 39.9068 79.4265 40.0202C79.4286 40.0364 79.4114 40.0485 79.4033 40.0627C79.3921 40.0799 79.3729 40.0951 79.3709 40.1143C79.3689 40.1446 79.378 40.177 79.382 40.2104C79.383 40.2226 79.381 40.2347 79.3881 40.2489C79.3931 40.259 79.4377 40.2812 79.4215 40.2843C79.2677 40.3076 79.2667 40.3764 79.2707 40.4502C79.2727 40.4674 79.2444 40.4735 79.2454 40.4897C79.2636 40.6506 79.3385 40.855 79.1483 40.9309C79.1118 40.9461 79.0886 40.9633 79.1584 41.0321C79.1989 41.0715 79.1978 41.0928 79.1624 41.0938C78.9955 41.0989 79.125 41.2648 79.0521 41.3195C78.9843 41.3751 78.9924 41.4804 78.9024 41.5208C78.8083 41.5633 78.8447 41.6929 78.7779 41.7536C78.7243 41.8234 78.4804 42.1533 78.4005 42.2423C78.3448 42.3051 78.2709 42.3506 78.2143 42.4103C78.0635 42.5378 77.9147 42.6643 77.7569 42.7989C77.5808 42.9669 77.3511 43.0974 77.1396 43.234C77.0668 43.2846 76.4809 43.4495 75.8737 43.4323C75.2747 43.4597 74.6817 43.2097 74.624 43.1864Z" fill="#231F20"/>
<path fill-rule="evenodd" clip-rule="evenodd" d="M49.2038 43.5234C49.2179 43.4951 49.3151 43.2785 49.4142 43.0326C49.482 42.7837 49.5215 42.5064 49.5215 42.5064C49.5144 42.4923 49.5873 42.467 49.7117 42.4316C49.899 42.3789 50.1297 42.3314 50.2794 42.3263C50.3816 42.3223 50.4727 42.3253 50.4879 42.3415C50.5496 42.4063 50.5941 42.4761 50.6194 42.5489C50.6538 42.6451 50.664 42.7442 50.6822 42.8424C50.7024 42.9233 50.6559 43.0084 50.7135 43.0923C50.8076 43.2229 50.7044 43.3484 50.7985 43.486C50.8967 43.6226 50.839 43.7491 50.8613 43.8877C50.8815 44.0719 50.8785 44.254 50.8471 44.4392C50.839 44.4969 50.8734 44.5738 50.8562 44.6315C50.8309 44.7063 50.7631 44.762 50.7378 44.8359C50.7095 44.932 50.7004 45.0403 50.6559 45.1324C50.5921 45.273 50.5112 45.4056 50.4393 45.5462C50.4211 45.5887 50.4241 45.6484 50.3938 45.6828C50.3523 45.7274 50.2794 45.7425 50.2369 45.785C50.1752 45.8468 50.1256 45.9216 50.071 45.9935C50.0659 46.0006 50.0781 46.0269 50.0811 46.0431C50.1125 46.205 50.0406 46.2627 49.9688 46.3153C49.8403 46.4104 49.7249 46.5207 49.6014 46.6249C49.5529 46.6522 49.0348 46.9224 48.4964 47.0105C47.9601 47.1238 47.4349 47.057 47.4066 47.057C47.3924 47.059 47.3945 47.058 47.3813 47.06C47.3499 47.0681 47.3206 46.9791 47.2902 47.1572C47.2801 47.2209 47.2629 47.1784 47.2488 47.1683C47.2346 47.1582 47.2224 47.1046 47.2073 47.224C47.2002 47.2776 47.186 47.2543 47.1769 47.225C47.1253 47.0651 47.0868 46.9072 47.0211 47.0833C47.0018 47.1339 46.9877 47.0611 46.9695 47.0752C46.8845 47.14 46.8207 47.0095 46.7205 47.1633C46.6821 47.2199 46.6659 47.0924 46.6406 47.054C46.6305 47.0388 46.6224 47.0084 46.6072 47.0317C46.5445 47.1208 46.4979 47.1046 46.4615 47.0378C46.4139 46.9467 46.336 46.9993 46.2692 46.9892C46.2085 46.9811 46.1458 46.9781 46.0861 46.9609C46.0071 46.9386 45.9383 46.886 45.8503 46.89C45.823 46.889 45.7825 46.9184 45.7562 46.9103C45.6864 46.887 45.5993 46.9002 45.5255 46.8799C45.489 46.8688 45.4759 46.8101 45.4445 46.7889C45.2978 46.6947 45.1592 46.5905 45.0347 46.465C44.9912 46.4104 44.9203 46.3942 44.894 46.3183C44.8525 46.1949 44.7999 46.0987 44.7099 46.0421C44.6421 46.0016 44.6704 45.8619 44.6512 45.779C44.6198 45.6919 44.6259 45.5746 44.6289 45.4693C44.6309 45.3823 44.8627 45.2012 45.1065 45.0231C45.3504 44.847 45.6317 44.6547 45.6317 44.6547C45.6853 44.6426 45.8685 44.7347 46.0881 44.7154C46.2024 44.7003 46.2965 44.6932 46.3552 44.7104C46.4251 44.7104 46.4757 44.7053 46.4868 44.7154C46.5515 44.7519 46.6011 44.8268 46.6801 44.8399C46.7317 44.8541 46.7924 44.8359 46.843 44.849C46.8915 44.8672 46.9401 44.9097 46.9978 44.8986C47.0433 44.8905 47.0939 44.8288 47.1364 44.7944C47.1425 44.7893 47.1486 44.8025 47.1546 44.8075C47.1607 44.8126 47.1678 44.8268 47.1759 44.8247C47.188 44.8197 47.2002 44.8055 47.2123 44.7903C47.2164 44.7853 47.2214 44.7832 47.2265 44.7721C47.2295 44.765 47.2336 44.7185 47.2366 44.7316C47.2599 44.8622 47.2892 44.8409 47.3155 44.8136C47.3216 44.8075 47.3287 44.8298 47.3348 44.8217C47.3945 44.7326 47.4319 44.594 47.5017 44.7063C47.5169 44.7286 47.5291 44.7377 47.526 44.6466C47.525 44.595 47.5301 44.5859 47.5412 44.6143C47.5958 44.7509 47.5948 44.5657 47.6282 44.5879C47.6646 44.6072 47.6819 44.5475 47.7233 44.5859C47.7679 44.6254 47.7689 44.5191 47.8043 44.5293C47.8417 44.5384 47.9682 44.4554 47.9976 44.4271C48.0229 44.4129 48.0583 44.419 48.0866 44.4078C48.1564 44.3876 48.204 44.339 48.2566 44.2975C48.3275 44.251 48.3669 44.1771 48.4175 44.1184C48.4438 44.1043 48.6452 44.0506 48.8435 43.913C49.0429 43.7825 49.2088 43.5578 49.2038 43.5234Z" fill="#231F20"/>
<path fill-rule="evenodd" clip-rule="evenodd" d="M26.7055 106.06C26.0802 105.77 25.4538 105.48 24.8305 105.191C24.5957 105.094 24.3701 105.002 24.1343 104.904C23.3247 104.545 22.5476 104.099 21.7452 103.719C21.391 103.546 21.0277 103.39 20.6695 103.231C20.2091 103.033 19.7416 102.836 19.3145 102.557C19.0474 102.391 19.5776 102.216 20.119 102.388C21.0753 102.727 22.0406 103.053 22.9746 103.486C23.5362 103.739 24.1505 103.928 24.7303 104.175C25.3668 104.446 26.0073 104.718 26.6448 104.99C27.0385 105.159 27.4321 105.329 27.8227 105.497C28.4228 105.742 29.0036 106.04 29.5956 106.291C30.056 106.49 30.5144 106.668 30.9637 106.884C31.0608 106.933 31.164 106.984 31.2581 107.03C31.6184 107.232 31.7105 107.349 31.7236 107.502C31.7256 107.538 31.7347 107.576 31.7297 107.607C31.7155 107.709 31.5273 107.707 31.245 107.626C30.401 107.384 29.4762 107.21 28.612 106.878C27.9522 106.675 27.337 106.349 26.6974 106.082L26.7055 106.06Z" fill="#231F20"/>
<path fill-rule="evenodd" clip-rule="evenodd" d="M83.5099 103.733L78.4928 104.429L76.6704 104.712C74.5211 104.985 72.3677 105.257 70.2204 105.529C69.2672 105.653 68.313 105.807 67.3749 105.972C66.1687 106.186 64.9676 106.45 63.7331 106.486C63.3485 106.502 63.3657 106.306 63.647 106.037C63.9304 105.78 64.4677 105.386 65.1578 105.226C67.6188 104.75 70.0848 104.321 72.6025 104.081C74.1072 103.938 75.6483 103.635 77.1753 103.411L82.2096 102.671L85.2999 102.183C86.8563 101.918 88.4217 101.654 89.9467 101.309C91.1326 101.038 92.274 100.684 93.4125 100.319L94.1562 100.07C95.0963 99.8005 95.4221 99.8126 95.7307 100.067C95.7985 100.118 95.8795 100.159 95.925 100.205C96.0697 100.334 95.7783 100.744 95.0983 101.062C93.0684 101.948 90.8139 102.44 88.5644 102.893C86.8897 103.225 85.1998 103.493 83.517 103.763L83.5099 103.733Z" fill="#231F20"/>
<path fill-rule="evenodd" clip-rule="evenodd" d="M17.6364 72.1534L20.3139 62.5423L21.2145 59.0158L24.6368 46.6452C25.1356 44.8126 25.5728 42.9557 26.0029 41.1191C26.2649 39.9372 26.5523 38.7583 26.8711 37.5845C27.1696 36.3945 27.5673 35.2834 28.1036 34.0964C28.476 33.3284 28.6814 33.6451 28.8554 34.3595C28.9991 35.0314 29.331 36.3388 29.0204 37.6867C28.5579 40.1062 27.9305 42.4963 27.2819 44.8834C26.6353 47.2715 25.9512 49.6576 25.2125 52.0407C24.3302 54.8912 23.6714 57.9239 22.8922 60.8726L20.2663 70.585L18.626 76.5563C17.7952 79.5718 16.9614 82.5994 16.1377 85.5926C15.5113 87.9241 15.0347 90.2464 14.4225 92.5657C14.291 93.0778 14.1807 93.5837 14.036 94.0957C13.7577 95.0439 13.5189 95.6602 13.2639 96.0568C12.9765 96.4434 12.7124 96.6296 12.3936 96.7419C12.2479 96.7925 12.0972 96.8734 11.9737 96.8876C11.7622 96.9119 11.6469 96.7075 11.5892 96.3139C11.5355 95.9202 11.5102 95.3272 11.6954 94.6442C12.6092 90.5126 13.7567 86.1866 14.9376 81.8455C15.818 78.6196 16.7014 75.3784 17.5837 72.1443L17.6364 72.1534Z" fill="#231F20"/>
<path fill-rule="evenodd" clip-rule="evenodd" d="M36.5829 79.3777L37.3398 68.6889L37.5493 64.7859L38.628 51.0452C38.7939 49.0143 38.8698 46.9641 38.9872 44.9443C39.0702 43.6461 39.1542 42.3437 39.2371 41.0444C39.2837 40.3948 39.3525 39.7431 39.4345 39.0925C39.5104 38.4418 39.5974 37.8033 39.8068 37.1233C40.0457 36.2895 40.3553 36.5151 40.7246 37.2488C41.1173 37.95 41.5686 39.2503 41.5129 40.7307C41.4765 46.0281 40.9189 51.3073 40.3067 56.6289C39.9121 59.8093 39.7876 63.1385 39.5255 66.4009L38.6421 77.1667C38.4661 79.3767 38.289 81.5867 38.1119 83.7937C37.8539 87.1381 37.5614 90.4986 37.3368 93.8217C37.186 96.4072 37.0383 98.9481 36.8895 101.508C36.8551 102.072 36.8328 102.625 36.7671 103.197C36.5718 105.291 36.2935 106.024 35.7875 106.365C35.6752 106.445 35.5588 106.554 35.4576 106.586C35.2866 106.641 35.1763 106.436 35.1126 106.047C35.0377 105.646 35.0822 105.12 35.0964 104.337C35.2968 99.8062 35.5437 94.9875 35.8442 90.1627C36.0739 86.5775 36.3046 82.974 36.5353 79.3787L36.5829 79.3777Z" fill="#231F20"/>
<path fill-rule="evenodd" clip-rule="evenodd" d="M74.9995 104.921L66.123 106.292L62.8919 106.831C59.0811 107.372 55.2662 107.896 51.4411 108.351C49.7452 108.559 48.0452 108.812 46.3624 109.042C44.1888 109.33 42.0668 109.751 39.7364 109.46C38.9956 109.351 39.2092 109.073 39.795 108.753C40.3455 108.49 41.3291 107.93 42.5394 107.773C46.8896 107.213 51.2641 106.487 55.7134 106.027C58.3758 105.747 61.1079 105.205 63.8087 104.771L72.7227 103.333L78.2022 102.405C80.9647 101.917 83.7444 101.444 86.4675 100.868C88.5854 100.426 90.6345 99.8585 92.7009 99.3211C93.1552 99.2007 93.5964 99.0651 94.0568 98.9548C95.7669 98.5754 96.3427 98.6199 96.8355 99.0368C96.9448 99.1218 97.0794 99.1906 97.1502 99.2655C97.3779 99.476 96.792 100.102 95.5575 100.557C91.8893 101.814 87.9196 102.599 83.9367 103.384C80.9748 103.952 77.9897 104.455 75.0126 104.969L74.9995 104.921Z" fill="#231F20"/>
<path fill-rule="evenodd" clip-rule="evenodd" d="M25.5773 104.922L21.9152 102.879C21.47 102.63 21.0025 102.424 20.5603 102.169C18.9938 101.288 17.4729 100.321 15.9308 99.3925C15.2477 98.9766 14.5414 98.5982 13.8442 98.2177C12.9578 97.7127 12.0764 97.1896 11.2982 96.4802C11.0564 96.2617 11.2143 96.118 11.5694 96.0653C11.9236 96.0188 12.4751 96.0249 13.0165 96.2465C13.482 96.458 13.9656 96.6462 14.4301 96.8688L15.78 97.6196C16.6755 98.1327 17.5691 98.6609 18.4464 99.2296C19.5008 99.9015 20.6716 100.465 21.7867 101.086L25.462 103.151L27.7347 104.405C28.8883 105.023 30.0378 105.665 31.1945 106.259C32.0941 106.72 33.0169 107.089 33.9145 107.526C34.1088 107.63 34.302 107.725 34.4933 107.837C35.2027 108.257 35.3949 108.457 35.4526 108.737C35.4657 108.8 35.491 108.869 35.49 108.923C35.489 109.102 35.1217 109.087 34.5287 108.925C34.0814 108.797 33.6403 108.672 33.2001 108.545L31.9058 108.034C31.0427 107.677 30.1785 107.291 29.3194 106.895C28.0494 106.291 26.8129 105.606 25.5611 104.956L25.5773 104.922Z" fill="#231F20"/>
<path fill-rule="evenodd" clip-rule="evenodd" d="M63.281 35.4163L54.7465 36.325L51.6399 36.6984L46.1513 37.2458L43.4121 37.5373L42.05 37.6982L41.3711 37.7832L40.6243 37.8995C40.3298 37.9724 39.9797 37.771 39.8168 37.7417C39.6113 37.6749 39.4171 37.5939 39.2167 37.5221C38.8231 37.3683 38.4335 37.2084 38.053 37.0374C37.29 36.6964 36.5442 36.3351 35.8197 35.9496C33.9568 34.969 32.1313 33.8954 30.5082 32.5415C30.0053 32.1124 30.2329 31.9667 30.833 32.0648C31.4341 32.165 32.4288 32.4615 33.464 33.0241C35.2945 34.0249 37.1797 34.9528 39.076 35.6764C39.5486 35.8484 40.0232 36.0194 40.4877 36.1418C40.5109 36.1489 40.5079 36.1712 40.5231 36.1651C40.5352 36.1661 40.5372 36.1611 40.4796 36.1783L40.7265 36.1327C41.0877 36.0629 41.2931 36.0528 41.5805 36.0123C42.6592 35.8737 43.7187 35.7775 44.7923 35.6794C47.3515 35.4639 49.9845 35.0176 52.5861 34.7019C55.4468 34.3447 58.3165 34.0563 61.1813 33.7375L66.4705 33.1526C69.1389 32.841 71.8185 32.5283 74.4667 32.2197C76.5208 31.9515 78.5224 31.5913 80.5452 31.2766C80.9905 31.2067 81.4236 31.1207 81.8769 31.0803C83.5546 30.9052 84.0889 30.9528 84.5008 31.2401C84.5949 31.3059 84.7153 31.3666 84.777 31.4354C84.9926 31.656 84.3257 32.0112 83.1215 32.3249C79.5434 33.2619 75.7204 33.8144 71.8863 34.4135C69.0327 34.798 66.1558 35.1147 63.2901 35.4628L63.281 35.4163Z" fill="#231F20"/>
<path fill-rule="evenodd" clip-rule="evenodd" d="M66.3548 24.8258C63.6561 25.0666 60.9522 25.3479 58.2504 25.6485L55.3007 26.029C51.8218 26.4115 48.3408 26.793 44.8639 27.1755C43.3197 27.3485 41.7704 27.5569 40.2404 27.7644C39.2538 27.8838 38.2743 28.0437 37.2755 28.1348C36.2727 28.245 35.2972 28.2896 34.2115 28.1256C33.5213 28.0062 33.7379 27.7189 34.2651 27.4042C34.5181 27.2584 34.854 27.0702 35.2912 26.879C35.7121 26.6938 36.208 26.5511 36.7706 26.4944C40.7312 26.0816 44.7444 25.5402 48.8012 25.2002C51.2298 24.9887 53.7292 24.5587 56.2023 24.2369C58.9203 23.8847 61.6454 23.5589 64.3735 23.2523C66.0533 23.0641 67.7371 22.8951 69.424 22.7382L71.3486 22.5834L72.3191 22.5358L72.8665 22.5075L73.2095 22.4883C73.3087 22.5409 73.4069 22.6097 73.501 22.6684L75.1737 23.7592L76.7846 24.7863C78.4583 25.8357 80.1624 26.7677 81.8573 27.7502C82.2317 27.9647 82.592 28.1823 82.9563 28.4191C84.3325 29.258 84.546 29.852 84.6421 30.3174C84.6603 30.4298 84.7028 30.5492 84.6998 30.6332C84.6947 30.7748 84.5268 30.7981 84.2009 30.7597C83.8791 30.7151 83.3793 30.6382 82.8298 30.4055C81.2289 29.6749 79.6858 28.7864 78.1477 27.8403C76.6065 26.9002 75.0684 25.9106 73.5334 24.9078L73.1063 24.6285L72.8928 24.4878C72.8129 24.4362 72.743 24.3897 72.7613 24.3927C72.6833 24.3603 72.9313 24.3694 72.4425 24.3866C71.7807 24.4129 71.1118 24.4504 70.4328 24.5101C69.084 24.6001 67.7209 24.7378 66.3639 24.8703L66.3548 24.8258Z" fill="#231F20"/>
<path fill-rule="evenodd" clip-rule="evenodd" d="M65.1103 8.83334C63.7411 7.30434 62.0533 6.12546 60.2339 5.7804C59.3333 5.59825 58.378 5.67617 57.4693 5.94129C56.5687 6.20641 55.6934 6.63344 54.9335 7.27803C53.7981 8.18166 52.9025 9.42733 52.1112 10.7388C50.7219 13.0753 49.7393 15.7255 48.9854 18.4364C48.2599 21.1615 47.7418 23.9624 47.4392 26.7928C47.163 29.3043 47.0861 31.8523 47.1255 34.3598C47.161 35.9708 47.2692 37.5818 47.4018 39.1877C47.5435 40.7926 47.7185 42.3873 47.8015 44.0034C47.8652 45.0092 47.5505 44.9465 47.0122 44.1663C46.7349 43.7777 46.4132 43.206 46.0873 42.4946C45.7908 41.7792 45.5642 40.914 45.4539 39.9638C44.6737 33.2275 44.9742 26.3789 46.5842 19.7134C47.593 15.768 48.7153 11.5432 51.329 7.99547C52.7285 6.07891 54.7645 4.36068 57.2578 3.77276C58.4812 3.49246 59.7886 3.45502 61.0201 3.74746C62.2486 4.0308 63.392 4.57521 64.3746 5.28051C66.8204 7.01695 68.5072 9.42227 69.9219 11.8701C72.0135 15.6384 73.3624 19.7357 74.3581 23.8329C75.1252 27.0225 75.7212 30.1989 75.9883 33.4532C76.049 34.1686 76.1037 34.8708 76.1269 35.5964C76.1249 38.2911 75.7525 39.1371 75.2547 39.6683C75.1393 39.7898 75.026 39.9506 74.9268 40.0174C74.5929 40.2411 74.3409 39.1442 74.1527 37.2509C73.7834 31.6439 72.9 25.7808 71.0826 20.1748C69.7195 16.0584 67.893 11.948 65.0738 8.87482L65.1103 8.83334Z" fill="#231F20"/>
<path fill-rule="evenodd" clip-rule="evenodd" d="M31.0169 106.633C29.1884 107.033 17.685 104.503 12.9715 103.465C8.25801 102.426 -1.67492 99.15 0.242655 94.2777C2.16023 89.4043 13.61 89.1371 13.61 89.1371L12.1539 96.6132L31.0169 106.633Z" fill="url(#paint0_radial_1134_2924)"/>
<path fill-rule="evenodd" clip-rule="evenodd" d="M91.5099 72.6871L89.5913 63.0132C89.3555 61.8374 89.0509 60.6757 88.8233 59.4999L86.4999 47.0291C86.1559 45.1843 85.7218 43.3487 85.3423 41.5253C85.0863 40.3565 84.808 39.1888 84.5753 38.0089C84.3223 36.8168 84.1756 35.6794 84.1472 34.3599C84.1472 33.5018 84.6309 33.7022 85.2249 34.2476C85.7713 34.7444 86.6851 35.7665 86.9674 37.0911C87.5047 39.4579 88.1058 41.8228 88.5349 44.2271C88.969 46.6314 89.3656 49.0509 89.7087 51.4926C90.1215 54.412 90.8693 57.385 91.4391 60.3418L93.3101 70.0996L94.4879 76.1003C95.1012 79.1239 95.6861 82.1697 96.3559 85.1599C96.8771 87.4833 97.5126 89.7358 98.0883 92.0227C98.2138 92.5267 98.3575 93.0164 98.4729 93.5274C98.9009 95.4217 98.8604 96.0694 98.3605 96.5864C98.2462 96.7048 98.1369 96.8526 98.0145 96.9315C97.5996 97.1966 97.0744 96.4944 96.6686 95.1394C95.4391 91.112 94.4363 86.7901 93.4932 82.4389C92.8153 79.2008 92.1342 75.9485 91.4552 72.7033L91.5099 72.6871Z" fill="#231F20"/>
<path fill-rule="evenodd" clip-rule="evenodd" d="M52.6822 5.1439C51.9608 4.07937 51.0865 3.13424 50.0766 2.55239C49.0636 1.97358 47.9627 1.7631 46.799 2.10007C45.9348 2.31358 45.1496 2.76085 44.4119 3.2921C43.1035 4.23723 42.0268 5.60736 41.1677 7.11308C40.2954 8.61881 39.6296 10.2743 39.0821 11.9692C38.5995 13.477 38.2777 15.0475 38.0146 16.6028C37.6513 18.6013 37.5157 20.6363 37.117 22.6348C37.0158 23.25 36.7426 23.1853 36.4158 22.6257C36.1264 22.0722 35.6406 21.0097 35.7307 19.7964C35.8552 17.6521 36.0839 15.5008 36.6627 13.4082C37.2071 11.3125 37.9336 9.23607 38.984 7.28106C39.6124 6.11534 40.2964 4.93848 41.1495 3.83752C42.0015 2.74769 43.0276 1.70846 44.3046 1.01429C45.0028 0.638868 45.7496 0.33327 46.5308 0.168328C47.313 -0.0188754 48.1782 -0.057328 48.9928 0.0904112C50.6534 0.378806 52.0063 1.36846 53.0577 2.45626C54.3458 3.83246 55.2697 5.43027 56.0165 7.06755C57.1458 9.55887 57.8379 12.1959 58.3925 14.8067C58.8053 16.8396 59.2404 18.8411 59.3993 20.8923C59.4398 21.3436 59.4823 21.7838 59.5046 22.2402C59.5288 23.9321 59.3518 24.4734 58.9278 24.8337C58.8397 24.9167 58.7649 25.0239 58.6991 25.0715C58.52 25.2304 58.0919 24.5524 57.9017 23.3563C57.7499 22.4688 57.5961 21.5753 57.4423 20.6757C57.2794 19.7772 57.1043 18.8776 56.9667 17.9699C56.6692 16.1576 56.3059 14.3371 55.8192 12.5582C55.0926 9.93025 54.1445 7.3104 52.6438 5.17527L52.6822 5.1439Z" fill="#231F20"/>
<path fill-rule="evenodd" clip-rule="evenodd" d="M48.0233 47.1748C47.0963 47.2972 45.9337 47.1444 45.0796 46.4988C44.7851 46.256 44.4785 46.0303 44.2711 45.7186C43.5334 44.6359 43.4049 43.3477 43.667 42.2184C43.7661 41.7105 43.9544 41.2247 44.1739 40.7593C44.4876 40.1895 44.8924 39.5935 45.5248 39.3436C45.7161 39.2566 45.8628 39.5642 45.9377 39.9254C46.0187 40.2998 46.0156 40.6591 45.8729 40.8675C45.2779 41.5506 44.9582 42.4319 44.9217 43.4125C44.8985 44.0115 45.2314 44.5732 45.6068 44.9668C46.0318 45.4171 46.5944 45.6286 47.2937 45.6326C47.7328 45.6458 48.1589 45.579 48.5221 45.412C49.0797 45.1823 49.4946 44.6784 49.6079 44.047C49.6949 43.5552 49.5593 43.0452 49.3893 42.5767C49.3458 42.4755 49.3013 42.3702 49.2598 42.2721C49.1445 41.8794 49.1839 41.7256 49.53 41.4716C49.6069 41.415 49.6808 41.3502 49.7597 41.2996C50.0248 41.1286 50.3476 41.2075 50.5955 41.5415C51.2614 42.524 51.5053 44.0126 50.7736 45.4272C50.4903 45.9352 50.0643 46.3885 49.5644 46.688C49.0676 46.9694 48.5323 47.1556 48.0314 47.2142L48.0233 47.1748Z" fill="#231F20"/>
<path fill-rule="evenodd" clip-rule="evenodd" d="M75.4135 42.0861C76.0166 42.076 76.6966 41.827 77.2218 41.4C77.407 41.2371 77.5274 41.0216 77.6519 40.8333C77.8816 40.4984 78.0121 40.1392 78.0334 39.7688C78.0769 39.3934 77.9858 39.0119 77.7338 38.5768C77.5264 38.2054 77.2036 37.8958 76.8929 37.661C76.6896 37.5173 76.469 37.4262 76.2959 37.3817C76.1259 37.3281 76.0004 37.2593 75.7687 37.2613C75.6321 37.2491 75.4186 37.0306 75.4196 36.644C75.37 36.2575 75.8062 35.6351 76.4922 35.626C77.6175 35.7576 78.3036 36.3334 78.8075 36.9344C79.275 37.5578 79.6949 38.2661 79.7486 39.2284C79.8143 40.296 79.45 41.3686 78.8044 42.0709C78.1002 42.8501 77.2077 43.3753 76.221 43.5888C75.6159 43.7193 74.9653 43.7163 74.352 43.5412C73.415 43.2781 72.6783 42.6032 72.2058 41.824C71.8455 41.2138 71.5764 40.5186 71.6057 39.7597C71.6017 39.5937 71.6371 39.4329 71.6806 39.272C71.882 38.679 72.1167 38.5707 72.4223 38.6142C72.4942 38.6253 72.567 38.6304 72.6308 38.6517C72.8463 38.7306 72.904 38.9998 72.9293 39.3104C72.988 39.7799 73.0932 40.1614 73.2693 40.5176C73.4676 40.8617 73.6821 41.1784 73.9341 41.4577C74.3379 41.8544 74.8205 42.08 75.4085 42.0456L75.4135 42.0861Z" fill="#231F20"/>
<defs>
<radialGradient id="paint0_radial_1134_2924" cx="0" cy="0" r="1" gradientUnits="userSpaceOnUse" gradientTransform="translate(15.5085 106.676) rotate(-90) scale(8.93465 14.3261)">
<stop stop-color="#587EDB"/>
<stop offset="1" stop-color="#1445C2"/>
</radialGradient>
</defs>
</svg>
