<svg width="30" height="37" viewBox="0 0 30 37" fill="none" xmlns="http://www.w3.org/2000/svg">
<g filter="url(#filter0_i_1109_116)">
<path d="M29.5825 29.67C29.5825 33.7201 23.016 37.0033 14.9158 37.0033C6.81565 37.0033 0.24916 33.7201 0.24916 29.67V22.2889C1.16989 23.4194 2.47657 24.3586 3.93001 25.0853C6.81257 26.5266 10.6986 27.3783 14.9158 27.3783C19.1331 27.3783 23.0191 26.5266 25.9016 25.0853C27.3551 24.3586 28.6618 23.4194 29.5825 22.2889V29.67Z" fill="white"/>
<path d="M14.6669 16.0417C18.8842 16.0417 22.7702 15.1899 25.6527 13.7486C27.1062 13.0219 28.4129 12.0828 29.3336 10.9523V18.3333C29.3336 19.25 26.0598 21.2504 24.4229 22.2889C21.9972 23.5018 18.5498 24.2917 14.6669 24.2917C10.784 24.2917 7.33666 23.5018 4.91093 22.2889C2.75025 21.2086 0.000244141 19.25 0.000244141 18.3333V10.9523C0.92097 12.0828 2.22765 13.0219 3.68109 13.7486C6.56365 15.1899 10.4496 16.0417 14.6669 16.0417Z" fill="#1445C2"/>
<path d="M24.4229 11.2889C21.9972 12.5018 18.5498 13.2917 14.6669 13.2917C10.784 13.2917 7.33666 12.5018 4.91093 11.2889C3.92984 10.9046 1.67498 9.64949 0.197169 7.61605C0.0659599 7.43551 0.00782049 7.21224 0.0344507 6.99065C0.0754789 6.64926 0.147058 6.21673 0.249182 5.98081C1.51853 2.57682 7.49087 0 14.6669 0C21.843 0 27.8153 2.57682 29.0846 5.98081C29.1868 6.21673 29.2583 6.64926 29.2994 6.99065C29.326 7.21224 29.2679 7.43551 29.1367 7.61605C27.6588 9.64949 25.404 10.9046 24.4229 11.2889Z" fill="#1445C2"/>
</g>
<defs>
<filter id="filter0_i_1109_116" x="0.000244141" y="0" width="29.5823" height="39.0034" filterUnits="userSpaceOnUse" color-interpolation-filters="sRGB">
<feFlood flood-opacity="0" result="BackgroundImageFix"/>
<feBlend mode="normal" in="SourceGraphic" in2="BackgroundImageFix" result="shape"/>
<feColorMatrix in="SourceAlpha" type="matrix" values="0 0 0 0 0 0 0 0 0 0 0 0 0 0 0 0 0 0 127 0" result="hardAlpha"/>
<feOffset dy="2"/>
<feGaussianBlur stdDeviation="2"/>
<feComposite in2="hardAlpha" operator="arithmetic" k2="-1" k3="1"/>
<feColorMatrix type="matrix" values="0 0 0 0 0.235294 0 0 0 0 0.4 0 0 0 0 0.811765 0 0 0 1 0"/>
<feBlend mode="normal" in2="shape" result="effect1_innerShadow_1109_116"/>
</filter>
</defs>
</svg>
