<svg width="71" height="75" viewBox="0 0 71 75" fill="none" xmlns="http://www.w3.org/2000/svg">
<g id="Group-2" clip-path="url(#clip0_123_346)">
<path id="Vector" d="M51.577 28.4234C52.0861 21.1869 52.4134 13.2233 52.1224 5.95059C52.0861 4.64149 51.8679 3.11422 50.777 2.38695C50.3406 2.09603 49.8315 1.98694 49.3225 1.91422C48.6315 1.80513 47.9043 1.7324 47.177 1.7324C32.8133 1.04149 18.4498 1.04149 4.04972 1.62331L1.21335 12.3506C0.81335 9.62331 1.03153 6.78694 1.90426 4.16876C2.1588 3.44149 2.70425 2.31422 3.39517 1.91422C4.37699 1.3324 5.39517 1.69604 6.08608 2.64149C6.77699 3.58695 7.10426 5.29604 7.24971 6.45967C8.41335 15.3688 8.19517 24.4233 7.97699 33.4051C7.72244 44.1688 7.46789 54.896 7.21335 65.6597L7.10426 65.7324C16.8861 66.387 26.7042 66.7506 36.5224 66.8234L51.577 28.4234Z" fill="white"/>
<path id="Vector_2" d="M51.9042 28.4233C52.2315 23.6597 52.4497 18.8961 52.5224 14.0961C52.5588 11.7324 52.5588 9.36881 52.486 7.04154C52.4497 5.36881 52.5224 2.96881 50.777 2.02336C50.3042 1.76881 49.7952 1.65972 49.286 1.58699C48.7043 1.51426 48.086 1.44154 47.5043 1.40517C46.2315 1.36881 44.9587 1.29608 43.6861 1.25972C41.177 1.15063 38.6679 1.0779 36.1588 1.00518C31.1042 0.896082 26.0497 0.859719 20.9952 0.896082C15.977 0.932446 10.9224 1.04154 5.90423 1.22336C5.28605 1.25972 4.66786 1.25972 4.01332 1.29608C3.86786 1.29608 3.72241 1.40517 3.68604 1.55063C2.84969 4.6779 2.04968 7.80517 1.21332 10.9688C1.10423 11.4051 0.995137 11.8415 0.849683 12.2779H1.50422C1.14059 9.87786 1.32241 7.36881 1.97696 5.00517C2.2315 4.09608 2.59513 3.04153 3.32241 2.38699C4.15878 1.62335 5.24969 2.05972 5.8315 2.85972C6.37695 3.62336 6.59514 4.64154 6.77695 5.55063C6.99513 6.6779 7.10423 7.84154 7.21332 8.9688C7.46786 11.5507 7.64969 14.1324 7.72241 16.7143C7.90423 21.9143 7.79514 27.0779 7.68605 32.2779C7.57695 37.5143 7.43149 42.7142 7.3224 47.9506C7.21331 53.187 7.06786 58.4597 6.95877 63.6961C6.95877 64.3507 6.92241 65.0052 6.92241 65.6597L7.10423 65.3688L6.99514 65.4416C6.70423 65.6233 6.81332 66.0597 7.17695 66.0961C14.8133 66.6051 22.4497 66.9324 30.086 67.1143C32.2315 67.1506 34.4133 67.187 36.5587 67.187C36.7043 67.187 36.8497 67.0779 36.886 66.9324C37.3951 65.6598 37.9043 64.387 38.377 63.0779C39.577 60.0234 40.777 56.9688 41.9406 53.9143C43.3951 50.2052 44.8496 46.4961 46.2678 42.8233C47.5043 39.6234 48.7769 36.4234 50.0133 33.2233C50.4133 32.1688 50.8496 31.1143 51.2497 30.0597C51.4315 29.5507 51.6497 29.0779 51.8315 28.5688C51.8315 28.5324 51.8315 28.5324 51.8679 28.4961C52.0133 28.096 51.3588 27.9143 51.2133 28.3142C50.7042 29.587 50.1951 30.8597 49.7224 32.1688C48.5224 35.2234 47.3224 38.2779 46.1587 41.3325C44.7042 45.0416 43.2497 48.7507 41.8315 52.4233C40.5951 55.6234 39.3224 58.8234 38.086 62.0233C37.6861 63.0779 37.2497 64.1325 36.8497 65.187C36.6678 65.6598 36.4133 66.1688 36.2679 66.6779C36.2679 66.7142 36.2679 66.7142 36.2315 66.7507L36.5587 66.496C28.9224 66.4597 21.2497 66.2052 13.6133 65.8052C11.4678 65.6961 9.28604 65.5507 7.14059 65.4051L7.3224 66.0597C7.46786 65.9506 7.57695 65.8779 7.61332 65.6597C7.64969 65.3325 7.61332 64.9688 7.64969 64.6052C7.64969 63.9143 7.68605 63.2233 7.68605 62.5324C7.72241 61.1506 7.75878 59.7688 7.79514 58.387C7.86787 55.6234 7.94059 52.8961 7.97696 50.1324C8.12241 44.6052 8.2315 39.0779 8.37695 33.5506C8.52241 28.096 8.6315 22.6052 8.44968 17.1506C8.37695 14.4234 8.19514 11.7324 7.94059 9.00517C7.8315 7.80517 7.72241 6.56881 7.46786 5.40517C7.28604 4.42336 7.0315 3.36881 6.44969 2.56881C5.86786 1.76881 4.95877 1.15063 3.94059 1.40517C2.92241 1.62335 2.30423 2.56881 1.90423 3.44154C1.39513 4.49609 1.14059 5.69609 0.958773 6.85972C0.740591 8.09609 0.667864 9.36881 0.74059 10.6052C0.776954 11.2234 0.849681 11.8779 0.922409 12.496C0.958772 12.8597 1.50422 12.787 1.57696 12.496C2.41332 9.36881 3.21332 6.24154 4.04969 3.0779C4.15878 2.64154 4.26787 2.20518 4.41332 1.76881L4.08605 2.02336C9.0315 1.80517 13.9769 1.69608 18.9224 1.62335C23.8679 1.55063 28.8133 1.58699 33.7588 1.65972C36.2315 1.69608 38.6679 1.76881 41.1406 1.84153C42.377 1.8779 43.6133 1.91426 44.8133 1.987C46.0496 2.02336 47.2496 2.05972 48.4861 2.16881C49.4679 2.2779 50.6315 2.38699 51.2133 3.29609C51.686 4.02335 51.7588 4.93245 51.7951 5.80518C51.9042 8.09609 51.9042 10.4233 51.9042 12.7142C51.8679 17.4051 51.6497 22.096 51.3588 26.787C51.3224 27.3324 51.286 27.9143 51.2497 28.4597C51.2133 28.8597 51.8679 28.8597 51.9042 28.4233Z" fill="black"/>
<path id="Vector_3" d="M36.5588 67.3688C34.377 67.3688 32.1952 67.3325 30.0861 67.296C22.5588 67.1506 14.8861 66.8233 7.32246 66.3142L7.24973 66.3505L7.21337 66.2779C7.177 66.2779 7.177 66.2779 7.14064 66.2779C6.92246 66.2779 6.70428 66.1324 6.66792 65.9142C6.63155 65.7324 6.66792 65.5506 6.77701 65.4415L7.54065 32.3506C7.6861 26.8596 7.75883 21.8779 7.57701 16.8233C7.46792 14.0597 7.32246 11.5142 7.06791 9.07787L7.03155 8.75059C6.92246 7.7324 6.81337 6.67787 6.63156 5.65968C6.44974 4.78695 6.23156 3.80513 5.72246 3.0415C5.39519 2.60513 4.92246 2.27786 4.4861 2.2415L1.79519 12.4596V12.5324H1.75883V12.5687C1.6861 12.8233 1.43156 12.9688 1.21337 12.9324C0.958826 12.9324 0.813372 12.7506 0.777007 12.5324C0.777007 12.5324 0.777007 12.5324 0.777007 12.4961H0.740643L0.777007 12.387C0.704281 11.7688 0.631553 11.187 0.59519 10.6415C0.522462 9.40514 0.595189 8.13241 0.813371 6.85968C0.958825 5.95059 1.21337 4.60514 1.79519 3.40514C2.34064 2.20514 2.99519 1.51422 3.83156 1.29604C3.90428 1.22331 4.01337 1.18695 4.12246 1.18695C4.74064 1.15059 5.35883 1.15059 6.01337 1.11422C11.0679 0.932406 16.1224 0.823316 21.1043 0.786952C26.1588 0.750588 31.2497 0.786952 36.2679 0.896043C38.777 0.96877 41.2861 1.0415 43.7952 1.15059C44.3406 1.18695 44.8498 1.18695 45.3952 1.22332C46.1224 1.25968 46.8861 1.29604 47.6134 1.33241C48.1951 1.36877 48.8134 1.40513 49.4316 1.51422C49.9406 1.58695 50.486 1.69604 50.9952 1.95059C52.7043 2.85968 52.7406 5.07786 52.777 6.71423V7.11423C52.8497 9.33241 52.8497 11.6597 52.8134 14.2051C52.7406 18.4596 52.5588 23.1142 52.1952 28.4233C52.1952 28.496 52.1952 28.6051 52.1588 28.6778C52.1588 28.7142 52.1588 28.7142 52.1224 28.7506C52.0133 29.0779 51.8679 29.4415 51.7225 29.7688C51.6497 29.9506 51.577 30.096 51.5406 30.2415L37.1406 67.1143C36.9588 67.2234 36.777 67.3688 36.5588 67.3688ZM36.1951 67.0051C36.3042 67.0051 36.4133 67.0051 36.5588 67.0051C36.6315 67.0051 36.7043 66.9324 36.7043 66.8597L36.8497 66.4961L36.1951 67.0051ZM7.6861 65.9506C15.1406 66.4596 22.6679 66.787 30.0497 66.9324C31.977 66.9688 33.9407 67.0051 35.9043 67.0051L36.0134 66.6778H36.1225C28.5952 66.6052 21.0315 66.387 13.5407 65.9869C11.6134 65.8778 9.64973 65.7688 7.72247 65.6233V65.6597C7.75883 65.8052 7.72246 65.8778 7.6861 65.9506ZM36.5588 66.3142H36.9225L51.1043 29.9869C51.177 29.8051 51.2497 29.6597 51.3224 29.4778C51.3952 29.2961 51.4679 29.1142 51.5406 28.896H51.5043C51.3952 28.896 51.3224 28.8597 51.2497 28.7869L36.9952 65.2596C36.9225 65.4415 36.8497 65.5869 36.777 65.7688C36.7043 65.9506 36.6315 66.1324 36.5588 66.3142ZM7.83155 65.2961C9.75882 65.4415 11.7225 65.5506 13.6498 65.6597C21.1043 66.0597 28.7043 66.3142 36.1951 66.3505C36.2679 66.096 36.377 65.8778 36.4861 65.6597C36.5588 65.5142 36.6315 65.3324 36.7043 65.187L51.1043 28.3506C51.1406 27.8415 51.177 27.296 51.2134 26.787C51.5406 21.5506 51.7225 16.9324 51.7588 12.7142C51.7588 10.5324 51.7588 8.20514 51.6497 5.8415C51.6134 5.04149 51.5406 4.1324 51.0679 3.4415C50.5225 2.60513 49.4679 2.49604 48.5224 2.42332C47.6497 2.35059 46.7406 2.31422 45.9042 2.27786C45.5406 2.27786 45.2134 2.2415 44.8498 2.2415C43.6133 2.20514 42.377 2.13241 41.177 2.09604C38.7407 2.02332 36.2679 1.95059 33.7951 1.91423C28.8861 1.80514 23.9043 1.80514 18.9588 1.87787C14.8133 1.91423 10.5952 2.02332 6.37701 2.16877C6.4861 2.27786 6.55883 2.38695 6.66792 2.53241C7.24973 3.36877 7.50429 4.42332 7.72247 5.44149C7.94065 6.5324 8.04973 7.69604 8.15882 8.78695L8.19519 9.07787C8.44973 11.6233 8.63156 14.2778 8.70428 17.2233C8.8861 22.6778 8.74065 28.2052 8.63156 33.5506V33.6233L7.90428 64.7142C7.90428 64.8233 7.90428 64.9324 7.90428 65.0415C7.83156 65.0779 7.83155 65.187 7.83155 65.2961ZM6.99519 65.7324C6.99519 65.7688 6.99519 65.7688 6.99519 65.8051C6.99519 65.8415 7.03155 65.8778 7.06791 65.9142L7.03155 65.7688L6.99519 65.7324ZM7.39518 65.6233L7.43156 65.7324C7.43156 65.696 7.43156 65.6961 7.43156 65.6597C7.43156 65.6597 7.43156 65.6597 7.43156 65.6233H7.39518ZM7.10428 65.2233C7.24973 65.2233 7.32246 65.2233 7.43156 65.2596C7.43156 65.1505 7.43156 65.0779 7.43156 64.9688C7.43156 64.8597 7.43156 64.7506 7.43156 64.6051L8.15882 33.4415C8.26791 28.0961 8.41337 22.5688 8.23155 17.1505C8.12246 14.2051 7.97701 11.5506 7.72247 9.0415L7.6861 8.75059C7.57701 7.65968 7.46792 6.5324 7.24973 5.44149C7.06791 4.45968 6.81337 3.4415 6.26792 2.67786C6.12246 2.45968 5.94064 2.27786 5.79519 2.13241C5.61337 2.13241 5.46792 2.13241 5.2861 2.16877C5.54064 2.35059 5.79519 2.56877 5.977 2.82331C6.55883 3.62331 6.77701 4.67786 6.95882 5.58696C7.14064 6.60513 7.24973 7.69604 7.35883 8.71422L7.39518 9.0415C7.64974 11.4778 7.79519 14.0233 7.90428 16.7869C8.0861 21.8779 7.97701 26.8596 7.86792 32.3506L7.10428 65.2233ZM51.3952 28.3869V28.4233C51.3952 28.496 51.4315 28.5688 51.5043 28.5688C51.577 28.5688 51.6861 28.5324 51.6861 28.4233C51.6861 28.3869 51.6861 28.3869 51.6861 28.3506C51.6861 28.3142 51.6497 28.3142 51.6134 28.3142C51.577 28.2778 51.4679 28.2778 51.3952 28.3869ZM51.577 27.9142C51.6497 27.9142 51.6861 27.9142 51.7588 27.9505C52.0861 22.7869 52.3043 18.2779 52.3406 14.096C52.377 11.5506 52.377 9.25968 52.3043 7.0415V6.6415C52.2679 5.00513 52.2315 3.00514 50.7042 2.16877C50.3043 1.95059 49.8315 1.8415 49.2497 1.76877C48.6315 1.69604 48.0497 1.62331 47.4679 1.58695C46.7406 1.55059 45.977 1.51422 45.2497 1.47786C44.7042 1.44149 44.1952 1.4415 43.6498 1.40513C41.177 1.29604 38.6316 1.22332 36.1588 1.15059C31.177 1.0415 26.0861 1.00514 21.0315 1.0415C16.0498 1.07786 10.9951 1.18695 5.94064 1.36877C5.79519 1.36877 5.64973 1.36877 5.50428 1.36877C5.64973 1.44149 5.79519 1.55058 5.94064 1.65967C10.3043 1.51422 14.6316 1.40513 18.8861 1.33241C23.8315 1.25968 28.8134 1.29604 33.7225 1.36877C36.1588 1.40513 38.6679 1.47786 41.1042 1.55058C42.3407 1.58695 43.577 1.62331 44.8133 1.69604C45.177 1.69604 45.5043 1.7324 45.8679 1.7324C46.7406 1.76876 47.6134 1.80514 48.4861 1.87787C49.5042 1.98696 50.7042 2.09605 51.3224 3.07787C51.8316 3.8415 51.9042 4.82331 51.9407 5.65968C52.0498 8.05968 52.0498 10.3869 52.0498 12.5687C52.0133 16.7869 51.8316 21.4051 51.5043 26.6415C51.4679 27.0415 51.4679 27.4051 51.4315 27.8051C51.4679 27.9505 51.5406 27.9142 51.577 27.9142ZM1.10428 12.4596C1.10428 12.4961 1.14064 12.5324 1.21337 12.5324C1.28609 12.5324 1.32246 12.4961 1.39519 12.4596H1.10428ZM1.14064 12.096H1.35883C1.32246 11.9142 1.32246 11.7324 1.28609 11.5506L1.14064 12.096ZM1.57701 10.4597C1.57701 10.7869 1.61337 11.1142 1.64974 11.4415L4.0861 2.20513C3.94065 2.2415 3.83156 2.27786 3.72246 2.35059L1.57701 10.4597ZM3.50428 1.7324C2.95883 2.02332 2.44973 2.60513 2.04973 3.51423C1.50428 4.67786 1.24973 5.98695 1.10428 6.89605C0.886097 8.13241 0.813371 9.40513 0.886098 10.6051C0.886098 10.8597 0.922463 11.1505 0.958826 11.4052L1.21337 10.4597C1.14064 8.6415 1.35883 6.78696 1.86792 5.00513C2.12246 4.05968 2.48609 3.00514 3.24973 2.31423C3.2861 2.27786 3.35882 2.2415 3.39519 2.20513L3.50428 1.7324ZM3.21337 2.85968C2.70428 3.47786 2.44973 4.31423 2.23155 5.07786C1.86792 6.35059 1.64974 7.69604 1.57701 9.0415L3.21337 2.85968ZM3.94065 1.58695L3.90428 1.62331L3.83156 1.95059C3.86792 1.95059 3.86792 1.95059 3.90428 1.91423L4.41337 1.51422C4.26792 1.51422 4.12246 1.51422 3.94065 1.58695C3.97701 1.55059 3.94065 1.55059 3.94065 1.58695ZM4.63155 1.55058L4.55882 1.80514C4.81337 1.80514 5.06792 1.76877 5.32246 1.76877C5.10428 1.65968 4.88609 1.58695 4.63155 1.55058Z" fill="black"/>
<path id="Vector_4" d="M12.777 56.7142C14.1952 55.4051 15.6134 54.096 16.9589 52.6778C17.6134 51.987 18.268 51.2961 18.8861 50.5324C19.4316 49.8779 20.0135 49.1143 20.0135 48.2051C20.0135 48.0597 19.9044 47.9143 19.7588 47.8778C19.1407 47.6233 18.4862 48.3142 18.0498 48.6779C17.577 49.0778 17.1771 49.5506 16.8134 50.0596C16.0862 51.0415 15.5407 52.2051 15.177 53.3688C14.9953 53.9506 14.8497 54.5688 14.7771 55.1869C14.668 55.8051 14.5589 56.4597 14.668 57.0779C14.7771 57.696 15.2135 58.1688 15.868 58.2051C16.5225 58.2415 17.068 57.8779 17.5044 57.4415C18.0498 56.8597 18.4862 56.1687 18.9225 55.5142C19.3952 54.787 19.7953 54.0597 20.1589 53.296L19.5771 52.9688C19.2134 53.7687 19.068 54.6779 19.1771 55.5506C19.2498 56.2052 19.5771 56.9688 20.3043 57.0779C21.1044 57.187 21.6498 56.4233 22.0134 55.8051C22.4861 55.0415 22.8861 54.2415 23.2134 53.3688L22.5225 53.2597C22.2316 54.096 22.1953 54.9687 22.3407 55.8415C22.4135 56.2052 22.5225 56.7142 22.8134 57.0051C23.068 57.2596 23.4679 57.2961 23.7952 57.187C24.4862 57.0051 24.9589 56.4233 25.3225 55.8051C25.7588 55.0778 26.0861 54.2415 26.4498 53.4779C26.6316 53.0779 26.0498 52.7506 25.8679 53.1506C25.5407 53.8052 25.2498 54.4597 24.9225 55.1143C24.6679 55.587 24.4134 56.1324 23.9407 56.3869C23.7589 56.496 23.4316 56.6415 23.2862 56.4597C23.2134 56.3506 23.1771 56.1687 23.1407 56.0596C23.1043 55.8779 23.068 55.696 23.0316 55.5506C22.9225 54.8233 22.9952 54.1324 23.2134 53.4415C23.3588 53.0051 22.7043 52.8597 22.5589 53.2597C22.3044 53.9143 21.9771 54.5324 21.6134 55.1506C21.3589 55.5506 20.9953 56.3506 20.4498 56.4597C19.9407 56.5324 19.8316 55.8051 19.7953 55.4415C19.7588 54.7506 19.8679 54.0233 20.1225 53.3688C20.3043 52.9688 19.7225 52.6052 19.5407 53.0415C18.9952 54.2051 18.3407 55.296 17.577 56.3143C17.2497 56.7506 16.8861 57.3324 16.377 57.5506C15.9043 57.7324 15.3952 57.5869 15.3225 57.0779C15.2498 56.5688 15.3589 56.0233 15.4316 55.5142C15.5043 54.9687 15.6134 54.4597 15.7589 53.9506C16.0497 52.896 16.4861 51.9142 17.068 51.0051C17.3953 50.496 17.7589 50.0596 18.1589 49.6233C18.3771 49.4051 18.5953 49.1869 18.8498 49.0052C19.0316 48.8596 19.3589 48.5324 19.6134 48.6051L19.3589 48.2779C19.3589 49.1143 18.7044 49.8051 18.1952 50.3869C17.577 51.0779 16.9589 51.7688 16.3044 52.4233C15.0316 53.7324 13.6862 55.0052 12.3043 56.2415C11.9407 56.5324 12.4497 57.0051 12.777 56.7142Z" fill="url(#paint0_radial_123_346)"/>
<path id="Vector_5" d="M15.9407 58.4961C15.9043 58.4961 15.8316 58.4961 15.7952 58.4961C15.0679 58.4234 14.5225 57.9143 14.4134 57.187C14.3406 56.6052 14.4134 55.987 14.5225 55.3688V55.2961C13.977 55.8052 13.3952 56.3506 12.8498 56.8597C12.5952 57.0779 12.2679 57.0052 12.0861 56.8234C11.9043 56.6416 11.868 56.3506 12.1225 56.0961C13.068 55.2234 14.0134 54.3507 14.9588 53.4416C14.9588 53.4052 14.9588 53.4052 14.9952 53.3688C15.3952 52.0961 15.9407 50.9688 16.668 49.987C17.0679 49.4416 17.4679 48.9689 17.9043 48.5688L18.0134 48.4597C18.3043 48.2052 18.7043 47.8415 19.1406 47.6961V47.6598L19.1771 47.6961C19.3952 47.6234 19.6134 47.6234 19.8316 47.6961C20.0498 47.7689 20.1952 47.9871 20.1952 48.2052C20.1952 48.4597 20.1589 48.6779 20.0861 48.8961L20.1224 48.9324H20.0861C19.9043 49.5507 19.4679 50.0961 19.0315 50.6416C18.4497 51.3324 17.8315 52.0234 17.1043 52.7871C16.7043 53.187 16.3407 53.587 15.9407 53.9506C15.7952 54.4234 15.6861 54.9324 15.6134 55.4416L15.5771 55.587C15.5043 56.0234 15.4315 56.5325 15.5043 56.9688C15.5406 57.1507 15.6134 57.2598 15.7225 57.3324C15.8679 57.4052 16.0861 57.4052 16.3043 57.3324C16.7043 57.1507 17.0316 56.7143 17.3225 56.3143L17.4316 56.1324C18.2316 55.0415 18.8861 53.9506 19.3588 52.8961L19.4316 52.7143L19.4679 52.7506C19.6134 52.6415 19.7952 52.6052 19.977 52.678C20.1952 52.7871 20.3406 53.0052 20.3043 53.2597H20.3406L20.268 53.4052C20.0134 54.0234 19.9043 54.7143 19.9407 55.3688C19.977 55.6597 20.0498 56.0598 20.2315 56.1689C20.268 56.2052 20.3406 56.2052 20.4134 56.2052C20.8134 56.1324 21.1407 55.5507 21.3224 55.1871C21.3589 55.1143 21.3952 55.078 21.4315 55.0052C21.7952 54.387 22.0861 53.7689 22.3407 53.1507L22.377 53.0052H22.4134C22.5589 52.8234 22.8497 52.7506 23.0316 52.8234C23.2134 52.8961 23.3588 53.0416 23.3588 53.2597H23.3952L23.3225 53.4416C23.1043 54.0961 23.0316 54.8233 23.1407 55.4416C23.177 55.587 23.2134 55.7688 23.2497 55.9507L23.2861 56.0234C23.3225 56.0961 23.3225 56.2415 23.3952 56.278C23.4316 56.3143 23.6134 56.278 23.8315 56.1689C24.2679 55.9143 24.5225 55.4416 24.777 54.9689C24.9952 54.5325 25.2134 54.0597 25.4316 53.6234L25.7225 53.0416C25.7952 52.8961 25.9407 52.7871 26.1224 52.7506C26.3043 52.7506 26.4861 52.8234 26.6316 53.0052C26.7407 53.1507 26.7407 53.3688 26.6679 53.5507C26.5588 53.7689 26.4497 53.9871 26.3406 54.2416C26.0861 54.787 25.8316 55.3688 25.5043 55.9143C25.0315 56.7143 24.4861 57.187 23.868 57.3689C23.3952 57.478 22.9952 57.4052 22.7043 57.1143C22.377 56.787 22.2679 56.2415 22.1952 55.8416C22.1588 55.8779 22.1588 55.9143 22.1225 55.9507C21.6861 56.6779 21.1043 57.4052 20.2315 57.2961C19.577 57.2234 19.1043 56.6416 18.9589 55.7688C18.5225 56.4597 18.0861 57.0779 17.6134 57.6234C17.2497 58.0234 16.668 58.4961 15.9407 58.4961ZM14.9952 54.8598C14.9588 55.0052 14.9588 55.1506 14.9225 55.2597L14.8861 55.4052C14.8134 55.987 14.7043 56.5688 14.777 57.1143C14.8497 57.6597 15.2861 58.0597 15.7952 58.0961C16.4498 58.1325 16.9588 57.7325 17.2497 57.3689C17.7589 56.8234 18.1588 56.1689 18.6316 55.4416C18.7043 55.3325 18.7407 55.2597 18.8134 55.1506C18.8134 54.9324 18.8134 54.7143 18.8498 54.4961C18.4861 55.1143 18.0861 55.7325 17.6134 56.3871L17.5043 56.5688C17.2134 57.0052 16.8497 57.478 16.3407 57.6961C16.0497 57.8416 15.6861 57.8416 15.468 57.6961C15.2498 57.5871 15.1043 57.3689 15.0679 57.0779C14.9952 56.6052 15.0679 56.0598 15.1407 55.587L15.177 55.4416C15.2134 55.1143 15.2861 54.787 15.3589 54.4597C15.2861 54.6052 15.1407 54.7507 14.9952 54.8598ZM22.4498 55.3688C22.4498 55.5143 22.4861 55.6597 22.5224 55.8052C22.5952 56.1324 22.668 56.6416 22.9225 56.8961C23.1043 57.0779 23.4316 57.1143 23.7589 57.0416C24.3043 56.8961 24.7407 56.4961 25.1771 55.7688C25.4679 55.2597 25.7225 54.6779 25.977 54.1325C26.0861 53.9143 26.1952 53.6961 26.3043 53.4416C26.3406 53.3688 26.3406 53.3325 26.3043 53.2597C26.268 53.187 26.1952 53.187 26.1589 53.187C26.1224 53.187 26.0861 53.187 26.0861 53.2597L25.7952 53.8415C25.577 54.3143 25.3588 54.7507 25.1406 55.2234C24.8861 55.7325 24.5588 56.278 24.0861 56.5688C23.6861 56.787 23.3952 56.8234 23.2134 56.6052C23.1043 56.4961 23.0679 56.3143 23.0316 56.2052L22.9952 56.1324C22.9588 55.9507 22.8861 55.7688 22.8861 55.587C22.8497 55.3325 22.8134 55.078 22.8134 54.8234C22.668 55.0052 22.5589 55.1871 22.4498 55.3688ZM19.2497 55.2961C19.2497 55.4052 19.2497 55.4779 19.2861 55.587C19.3225 55.9507 19.5043 56.8597 20.268 56.9325C20.9225 57.0052 21.4315 56.3871 21.7952 55.7688C21.9043 55.6234 21.977 55.4416 22.0861 55.2961C22.0861 55.078 22.0497 54.8598 22.0861 54.6416C21.977 54.8598 21.8679 55.0415 21.7588 55.2597C21.7225 55.2961 21.6861 55.3688 21.6497 55.4416C21.3952 55.9143 21.0316 56.5688 20.4497 56.6416C20.268 56.6779 20.1224 56.6416 20.0134 56.5325C19.7225 56.278 19.6134 55.7688 19.6134 55.4779C19.6134 55.2597 19.577 55.0052 19.6134 54.787C19.4679 54.9324 19.3588 55.1143 19.2497 55.2961ZM12.6316 56.5688C13.3225 55.9507 13.977 55.2961 14.6679 54.6779C14.7043 54.4961 14.7407 54.3143 14.777 54.1325C13.977 54.8961 13.1771 55.6234 12.377 56.3871C12.3043 56.4597 12.3407 56.5325 12.377 56.5688C12.4134 56.5688 12.5225 56.6779 12.6316 56.5688ZM22.6315 53.4779C22.5224 53.8415 22.4498 54.2416 22.4498 54.6052C22.6315 54.2779 22.7771 53.9143 22.9225 53.5507L22.6315 53.4779ZM19.6134 53.2597C19.4679 53.6961 19.3588 54.0961 19.2861 54.5325C19.5043 54.1688 19.6861 53.8052 19.8679 53.4416L19.6134 53.2597ZM15.2861 53.6234C15.2134 53.8052 15.177 54.0234 15.1407 54.2052C15.2861 54.0597 15.4315 53.9143 15.5771 53.7689C15.6497 53.5507 15.7225 53.3325 15.7952 53.1143C15.6134 53.3325 15.468 53.4779 15.2861 53.6234ZM16.4498 52.4961C16.3407 52.7506 16.2316 53.0052 16.1588 53.2597C16.377 53.0416 16.5952 52.7871 16.8497 52.5689C17.577 51.8416 18.1952 51.1507 18.777 50.4597C19.2134 49.9143 19.6134 49.4052 19.7952 48.8598L19.577 48.787C19.5407 48.787 19.5407 48.787 19.5043 48.787C19.3225 49.4052 18.8861 49.9143 18.4861 50.3506L18.3407 50.5325C17.7224 51.1507 17.1407 51.8052 16.4498 52.4961ZM19.1406 48.1325C18.8134 48.2779 18.5225 48.5325 18.2679 48.787L18.1588 48.8961C17.7224 49.2597 17.3225 49.7325 16.9588 50.2415C16.377 51.0052 15.9043 51.9143 15.5406 52.8961C15.7225 52.7143 15.9407 52.4961 16.1225 52.3143C16.3407 51.8052 16.5952 51.3324 16.8861 50.8597C17.2134 50.3506 17.577 49.8779 18.0134 49.4779C18.2316 49.2597 18.4497 49.0415 18.7043 48.8234L18.777 48.7507C18.8861 48.6779 18.9952 48.5688 19.1043 48.4961C19.1043 48.4234 19.1406 48.3507 19.1406 48.2416V48.1325ZM18.8861 49.1506C18.6679 49.3325 18.4861 49.5143 18.3043 49.6961C17.9043 50.0961 17.5407 50.5688 17.2497 51.0416C17.177 51.1507 17.1043 51.2598 17.0679 51.3689C17.4316 51.0052 17.7589 50.6052 18.0497 50.2415L18.1952 50.0598C18.4134 49.8052 18.6679 49.4779 18.8861 49.1506ZM19.3952 48.0597L19.7952 48.5688C19.7952 48.4597 19.8316 48.3507 19.8316 48.2416C19.8316 48.1688 19.7952 48.1325 19.6861 48.0961C19.6134 48.0597 19.5043 48.0597 19.3952 48.0597Z" fill="url(#paint1_radial_123_346)"/>
<path id="Vector_6" d="M7.68603 12.387C5.54057 12.4234 3.39513 12.4234 1.24967 12.3506C1.24967 12.3506 0.595124 4.75062 2.63149 2.82334C4.66786 0.85971 6.48603 1.91425 7.10422 5.33244C7.75876 8.71426 7.68603 12.387 7.68603 12.387Z" fill="black"/>
<path id="Vector_7" d="M7.68611 12.0596C5.54065 12.096 3.3952 12.096 1.24975 12.0233L1.57702 12.3505C1.50429 11.5142 1.46793 10.6779 1.46793 9.84146C1.46793 8.27783 1.50429 6.67783 1.86792 5.15056C2.01338 4.53238 2.23157 3.87784 2.5952 3.33238C2.95883 2.78693 3.68611 2.27783 4.37701 2.2051C5.06793 2.13238 5.61338 2.6051 5.97702 3.15056C6.5952 4.13238 6.77701 5.29602 6.92247 6.42329C7.21338 8.38692 7.35884 10.4232 7.32247 12.4233C7.32247 12.8597 8.01338 12.8597 8.01338 12.4233C8.04974 10.6051 7.90429 8.78693 7.68611 7.00511C7.50429 5.73238 7.35884 4.42329 6.77701 3.25965C6.41338 2.49601 5.83157 1.76874 4.9952 1.58693C4.15883 1.4051 3.32248 1.80511 2.66793 2.35056C2.08611 2.82329 1.72247 3.4051 1.46793 4.13238C0.886108 5.69601 0.813382 7.44146 0.777018 9.07783C0.740655 10.2051 0.777018 11.296 0.886109 12.4233C0.886109 12.6051 1.03156 12.7506 1.21338 12.7506C3.35884 12.8232 5.50429 12.8597 7.64974 12.7869C8.15884 12.7142 8.15884 12.0596 7.68611 12.0596Z" fill="black"/>
<path id="Vector_8" d="M22.5951 9.11422C20.886 7.76877 18.5223 7.55059 16.6314 8.6415C15.7587 9.15059 14.9951 9.95063 14.5587 10.8597C14.086 11.8415 13.9405 13.1143 14.6678 14.0961C15.3587 15.0415 16.486 15.4052 17.5405 15.5506C17.7587 15.5869 17.9769 15.6234 18.2315 15.6234C18.2678 15.6234 18.3041 15.6234 18.3406 15.6234C18.5951 15.6597 18.886 15.696 19.1405 15.7324C19.6497 15.8051 20.1587 15.9506 20.5587 16.2415C21.286 16.7143 21.6133 17.6961 21.6496 18.5688C21.686 19.4415 21.4679 20.2778 20.8497 20.8233C20.0496 21.5506 18.7769 21.8415 17.686 21.696C16.6678 21.5506 15.686 21.0051 15.1042 20.1687C14.9223 19.9142 14.5587 19.7688 14.2314 19.9506C14.086 20.0233 13.9769 20.1687 13.9405 20.3506C13.9042 20.496 13.9042 20.6779 14.0133 20.8597C15.3224 22.7506 17.7587 23.4415 19.9042 22.7506C20.9224 22.4233 21.9406 21.8051 22.4497 20.787C22.9224 19.8779 22.9951 18.8233 22.8133 17.8052C22.6314 16.7143 22.086 15.6597 21.1042 15.0779C20.2678 14.5688 19.286 14.4597 18.3769 14.3869C18.195 14.3506 18.0133 14.3506 17.8314 14.3143C17.3951 14.2415 16.9224 14.1687 16.486 13.987C16.0497 13.8051 15.7224 13.5506 15.5405 13.1506C15.3587 12.7506 15.3587 12.3142 15.5042 11.8778C15.6496 11.4415 15.9041 11.0051 16.1587 10.6778C16.8133 9.9142 17.7224 9.36878 18.7042 9.22333C19.686 9.07786 20.8497 9.36878 21.6496 10.0233C21.9041 10.2051 22.2678 10.2779 22.5224 10.0233C22.6314 9.9142 22.7042 9.73241 22.7042 9.58696C22.7769 9.44151 22.7405 9.25969 22.5951 9.11422Z" fill="url(#paint2_radial_123_346)"/>
<path id="Vector_9" d="M18.2679 23.2233C16.5225 23.2233 14.8861 22.4234 13.9043 20.9688C13.7587 20.787 13.7587 20.5324 13.7952 20.3142C13.8678 20.096 13.9769 19.9143 14.1588 19.8052C14.5224 19.587 14.8861 19.6961 15.1406 19.9506L15.2497 20.096C15.7951 20.8961 16.7042 21.4416 17.686 21.5506C18.8134 21.6961 19.9769 21.3688 20.7042 20.7142C21.3588 20.1325 21.4679 19.2233 21.4315 18.6052C21.3951 17.5869 20.9952 16.787 20.4133 16.3869C20.0497 16.1688 19.6497 16.0233 19.0679 15.9142C18.8134 15.8779 18.5587 15.8415 18.3042 15.8052H18.1951C17.9406 15.7688 17.7225 15.7688 17.5043 15.7324C16.0861 15.5506 15.1043 15.0415 14.4861 14.2051C13.5406 12.9325 14.086 11.4052 14.377 10.787C14.8133 9.84149 15.577 9.04153 16.5225 8.45971C18.4133 7.33244 20.8861 7.51426 22.6679 8.93244C22.8497 9.07789 22.9224 9.29607 22.9224 9.55062C22.9224 9.76883 22.8133 9.98701 22.6679 10.1324C22.3043 10.496 21.8315 10.3869 21.5406 10.1688C20.777 9.58698 19.6861 9.29607 18.7043 9.40516C17.7951 9.51425 16.9224 10.0233 16.2678 10.787C15.977 11.1506 15.7588 11.5506 15.6133 11.9142C15.4679 12.3506 15.4679 12.7506 15.6497 13.0779C15.7951 13.4052 16.0861 13.6597 16.5225 13.8415C16.8497 13.9869 17.2861 14.096 17.8315 14.1688C18.0133 14.2051 18.1951 14.2051 18.3406 14.2416C19.2497 14.3506 20.2679 14.4597 21.1406 14.9688C22.0861 15.5142 22.7042 16.5325 22.9588 17.8416C23.177 18.9688 23.0315 20.0234 22.5951 20.9324C22.0133 22.0961 20.8133 22.7142 19.9406 23.0052C19.4315 23.1506 18.8497 23.2233 18.2679 23.2233ZM14.5951 20.096C14.5224 20.096 14.4497 20.1325 14.377 20.1688C14.2679 20.2416 14.1951 20.3142 14.1588 20.4597C14.1588 20.5324 14.1225 20.6779 14.1951 20.787C15.4315 22.5688 17.7588 23.2961 19.8678 22.6051C20.6679 22.3506 21.7588 21.8052 22.3043 20.7506C22.8133 19.7324 22.777 18.6415 22.6315 17.9142C22.5225 17.2233 22.1224 15.987 20.9952 15.296C20.1951 14.8233 19.2497 14.7142 18.3406 14.6052C18.1588 14.5688 17.977 14.5688 17.7951 14.5324C17.2133 14.4597 16.777 14.3506 16.4134 14.1688C15.9042 13.9506 15.577 13.6233 15.3588 13.2233C15.1769 12.8234 15.1406 12.3506 15.3225 11.8051C15.4679 11.3688 15.7224 10.9324 16.0133 10.5688C16.7042 9.73244 17.686 9.18698 18.6678 9.07789C19.7587 8.93244 20.9224 9.25971 21.7588 9.91425C21.9406 10.0597 22.1952 10.1324 22.4134 9.91425C22.486 9.84149 22.5225 9.73244 22.5588 9.58698C22.5588 9.51425 22.5588 9.3688 22.4497 9.25971C20.777 7.95062 18.4861 7.7688 16.7042 8.82335C15.8315 9.33244 15.1406 10.0961 14.7042 10.9688C14.4497 11.5143 13.9406 12.896 14.777 13.9869C15.3225 14.7506 16.2315 15.1869 17.5406 15.3688C17.7588 15.4051 17.977 15.4051 18.1951 15.4416H18.3406C18.5952 15.4779 18.886 15.5142 19.1406 15.5506C19.7587 15.6597 20.2315 15.8052 20.6315 16.0597C21.286 16.496 21.7224 17.4415 21.7951 18.5324C21.8315 19.5506 21.5406 20.387 20.9587 20.9324C20.1588 21.6597 18.886 22.0233 17.6497 21.8415C16.5588 21.6961 15.5406 21.1143 14.9587 20.2416C14.8861 20.2051 14.7406 20.096 14.5951 20.096Z" fill="url(#paint3_radial_123_346)"/>
<path id="Vector_10" d="M30.5225 9.58691C34.4134 9.58691 38.268 9.44145 42.1225 9.25963C42.5588 9.22327 42.5588 8.56873 42.1225 8.56873C38.268 8.78691 34.4134 8.896 30.5225 8.896C30.0861 8.93236 30.0861 9.58691 30.5225 9.58691Z" fill="black"/>
<path id="Vector_11" fill-rule="evenodd" clip-rule="evenodd" d="M30.5224 9.95064C30.3042 9.95064 30.1224 9.87788 30.0133 9.73243C29.9042 9.58698 29.8315 9.40516 29.8315 9.2597C29.8315 9.11425 29.8679 8.93243 30.0133 8.78697C30.1224 8.64152 30.3042 8.56879 30.5224 8.56879C34.3769 8.56879 38.2679 8.42334 42.1224 8.24152C42.3406 8.24152 42.5224 8.31425 42.6678 8.45971C42.7769 8.60516 42.8497 8.78697 42.8497 8.93243C42.8497 9.2597 42.6315 9.62334 42.1951 9.6597C38.3042 9.84155 34.4133 9.95064 30.5224 9.95064ZM42.1588 9.2597C38.3042 9.47789 34.4133 9.58698 30.5587 9.58698C30.1224 9.58698 30.1224 8.89607 30.5587 8.89607C34.4497 8.89607 38.3042 8.75061 42.1588 8.56879C42.5952 8.53243 42.5952 9.22334 42.1588 9.2597Z" fill="black"/>
<path id="Vector_12" d="M14.1952 30.6416C18.4134 30.6416 22.668 30.4961 26.8862 30.3143C27.3589 30.2779 27.3589 29.6234 26.8862 29.6234C22.668 29.8415 18.4134 29.9506 14.1952 29.9506C13.7225 29.9506 13.7225 30.6416 14.1952 30.6416Z" fill="black"/>
<path id="Vector_13" fill-rule="evenodd" clip-rule="evenodd" d="M14.1952 31.0051C13.977 31.0051 13.7588 30.9324 13.6133 30.7869C13.4679 30.6415 13.4316 30.4597 13.4316 30.3142C13.4316 30.1688 13.5042 29.987 13.6133 29.8415C13.7588 29.696 13.9406 29.6234 14.1952 29.6234C18.4133 29.6234 22.6315 29.4778 26.8497 29.2961C27.0679 29.2961 27.2861 29.3687 27.4315 29.5143C27.577 29.6597 27.6134 29.8415 27.6134 29.987C27.6134 30.3142 27.3952 30.6778 26.8861 30.7143C22.6679 30.896 18.4497 31.0051 14.1952 31.0051ZM26.8861 30.3142C22.6679 30.5324 18.4133 30.6415 14.1952 30.6415C13.7224 30.6415 13.7224 29.9506 14.1952 29.9506C18.4133 29.9506 22.6679 29.8051 26.8861 29.6234C27.3588 29.5869 27.3588 30.2779 26.8861 30.3142Z" fill="black"/>
<path id="Vector_14" d="M30.7406 15.0051C35.8315 15.0051 40.8861 14.8597 45.977 14.6779C46.5588 14.6415 46.5588 13.987 45.977 13.987C40.9224 14.2052 35.8315 14.3143 30.7406 14.3143C30.1588 14.3143 30.1588 15.0051 30.7406 15.0051Z" fill="black"/>
<path id="Vector_15" fill-rule="evenodd" clip-rule="evenodd" d="M30.7406 15.3688C30.4496 15.3688 30.2315 15.296 30.0497 15.1506C29.9042 15.0052 29.8315 14.8233 29.8315 14.6779C29.8315 14.5324 29.9042 14.3506 30.0497 14.2051C30.2315 14.0597 30.4496 13.9869 30.7406 13.9869C35.7951 13.9869 40.886 13.8415 45.9406 13.6597C46.2315 13.6597 46.486 13.7324 46.6315 13.8778C46.7769 14.0234 46.8497 14.2051 46.8497 14.3506C46.8497 14.6779 46.5588 15.0415 45.977 15.0779C40.9224 15.2597 35.8315 15.3688 30.7406 15.3688ZM45.977 14.6779C40.9224 14.8961 35.8315 15.0052 30.7406 15.0052C30.1588 15.0052 30.1588 14.3142 30.7406 14.3142C35.8315 14.3142 40.886 14.1688 45.977 13.9869C46.5588 13.9506 46.5588 14.6415 45.977 14.6779Z" fill="black"/>
<path id="Vector_16" d="M18.8498 24.1324C19.0316 18.3142 19.1043 12.4961 19.068 6.67786C19.068 6.02332 18.3771 5.98696 18.3771 6.6415C18.4134 12.4596 18.3407 18.2779 18.1589 24.096C18.1589 24.7506 18.8498 24.7869 18.8498 24.1324Z" fill="url(#paint4_radial_123_346)"/>
<path id="Vector_17" fill-rule="evenodd" clip-rule="evenodd" d="M19.2134 24.1325C19.2134 24.4597 19.1043 24.7142 18.9588 24.8961C18.8133 25.0778 18.6315 25.1506 18.4861 25.1506C18.3407 25.1506 18.1588 25.0778 18.0134 24.8961C17.8679 24.7142 17.7952 24.4233 17.7952 24.096C17.9769 18.2779 18.0497 12.4597 18.0134 6.67789C18.0134 6.35062 18.086 6.05972 18.2679 5.87789C18.4133 5.69607 18.5952 5.62335 18.7406 5.62335C19.0679 5.62335 19.4316 5.95062 19.4316 6.64153C19.4679 12.4961 19.3951 18.3142 19.2134 24.1325ZM19.0679 6.67789C19.1043 12.4961 19.0315 18.3142 18.8497 24.1325C18.8133 24.787 18.1588 24.787 18.1588 24.096C18.3407 18.2779 18.4133 12.4597 18.377 6.64153C18.377 5.98698 19.0679 6.02335 19.0679 6.67789Z" fill="url(#paint5_radial_123_346)"/>
<path id="Vector_18" d="M14.4134 35.9506C19.977 36.0234 25.5042 35.9506 31.0679 35.8052C31.6861 35.8052 31.7224 35.1143 31.0679 35.1143C25.5407 35.2597 19.977 35.2961 14.4134 35.2597C13.7952 35.2597 13.7952 35.9506 14.4134 35.9506Z" fill="black"/>
<path id="Vector_19" fill-rule="evenodd" clip-rule="evenodd" d="M14.4134 36.3142C14.1224 36.3142 13.8315 36.2051 13.6498 36.0596C13.4679 35.9142 13.3951 35.7323 13.3951 35.5869C13.3951 35.4415 13.4679 35.2596 13.6498 35.1142C13.8315 34.9687 14.0861 34.896 14.4134 34.896C19.9406 34.9687 25.5042 34.896 31.0315 34.7505C31.3225 34.7505 31.6133 34.8232 31.7952 34.9687C31.977 35.1142 32.0497 35.2959 32.0497 35.4415C32.0497 35.7687 31.7224 36.1323 31.0679 36.1687C25.5407 36.3505 19.977 36.3869 14.4134 36.3142ZM31.0679 35.8414C25.5407 35.9869 19.977 36.0232 14.4134 35.9869C13.7952 35.9869 13.7952 35.2959 14.4134 35.2959C19.977 35.3687 25.5042 35.2959 31.0679 35.1505C31.7224 35.1142 31.6861 35.8051 31.0679 35.8414Z" fill="black"/>
<path id="Vector_20" d="M30.777 19.7687C36.1225 19.8415 41.4679 19.7687 46.8134 19.6596C47.4315 19.6596 47.4315 18.9688 46.8134 18.9688C41.4679 19.1142 36.1225 19.1506 30.777 19.0778C30.1951 19.0778 30.1951 19.7324 30.777 19.7687Z" fill="black"/>
<path id="Vector_21" fill-rule="evenodd" clip-rule="evenodd" d="M30.7769 20.1324C30.4861 20.1324 30.2315 20.0233 30.0497 19.8779C29.9042 19.7325 29.8315 19.5507 29.8315 19.4052C29.8315 19.2597 29.9042 19.078 30.086 18.9324C30.2679 18.787 30.5224 18.7143 30.8133 18.7143C36.1588 18.787 41.5043 18.7143 46.8497 18.6052C47.1406 18.6052 47.3952 18.6779 47.5769 18.8233C47.7588 18.9689 47.8315 19.1506 47.7951 19.2961C47.7951 19.6234 47.5043 19.987 46.8497 20.0233C41.5043 20.1324 36.1588 20.1689 30.7769 20.1324ZM46.8497 19.6234C41.5043 19.7688 36.1588 19.8052 30.8133 19.7325C30.1951 19.7325 30.2315 19.0415 30.8133 19.0415C36.1588 19.1143 41.5043 19.0415 46.8497 18.9324C47.4678 18.9324 47.4315 19.6234 46.8497 19.6234Z" fill="black"/>
<path id="Vector_22" d="M14.486 40.8233C20.3406 40.896 26.1588 40.8233 32.0133 40.7142C32.6679 40.7142 32.6679 40.0233 32.0133 40.0233C26.1588 40.1687 20.3406 40.2051 14.486 40.1324C13.8315 40.1324 13.8315 40.787 14.486 40.8233Z" fill="black"/>
<path id="Vector_23" fill-rule="evenodd" clip-rule="evenodd" d="M14.486 41.187C14.1588 41.187 13.9043 41.0779 13.6861 40.9325C13.5042 40.787 13.4316 40.6051 13.4316 40.4597C13.4316 40.3143 13.5042 40.1324 13.6861 39.987C13.8679 39.8415 14.1588 39.7688 14.486 39.7688C20.3043 39.8415 26.1588 39.7688 31.977 39.6597C32.3043 39.6597 32.5951 39.7324 32.777 39.8779C32.9588 40.0233 33.0315 40.2052 33.0315 40.3506C33.0315 40.6779 32.7042 41.0415 32.0133 41.0779C26.1952 41.187 20.3406 41.2233 14.486 41.187ZM32.0133 40.6779C26.1588 40.8233 20.3406 40.8597 14.486 40.787C13.8315 40.787 13.8315 40.0961 14.486 40.0961C20.3406 40.1689 26.1588 40.0961 32.0133 39.987C32.6679 39.987 32.6679 40.6779 32.0133 40.6779Z" fill="black"/>
<path id="Vector_24" d="M38.1952 74.0598C37.577 73.9507 37.1406 73.4052 36.9225 72.8233C36.7043 72.2416 36.7043 71.6233 36.6678 71.0052C36.377 58.2416 36.6315 45.478 37.0679 32.7506C37.1043 31.8779 37.1406 30.9689 37.4679 30.1325C37.7952 29.2961 38.8133 28.6052 39.3588 28.4233C39.8679 28.2416 42.0497 27.987 43.5042 28.0597C51.2861 28.4233 59.1042 28.787 66.8861 29.1506C67.5407 29.1506 68.2679 29.4779 68.6679 30.3143C69.0678 31.1506 69.0679 32.0961 69.0679 33.0052C68.9224 46.0961 68.777 59.187 68.6316 72.2779C68.5951 73.1143 68.0134 73.5506 67.2497 73.8779C66.4861 74.2052 65.6497 74.2415 64.8134 74.2415C57.177 74.4234 49.577 74.4234 41.9406 74.3143C40.5225 74.278 39.0679 74.2415 37.7224 73.8416" fill="white"/>
<path id="Vector_25" d="M38.3042 73.7324C37.177 73.4778 37.0315 72.1324 37.0315 71.1869C36.9951 69.9142 36.9951 68.6415 36.9588 67.3687C36.9225 64.8233 36.9225 62.2414 36.9225 59.696C36.9225 54.5687 36.9951 49.4778 37.1042 44.3505C37.177 41.8051 37.2133 39.2597 37.3224 36.7142C37.3588 35.4415 37.3951 34.1687 37.4315 32.896C37.4679 31.8778 37.4315 30.6051 38.086 29.7688C38.5224 29.2233 39.1406 28.7869 39.8315 28.6779C40.6679 28.496 41.5043 28.4597 42.3406 28.4232C43.4679 28.3869 44.5951 28.4597 45.7224 28.5323C46.9951 28.6051 48.2679 28.6414 49.5406 28.7142C54.6315 28.9687 59.7224 29.1869 64.8133 29.4415C65.4315 29.4778 66.0861 29.5142 66.7043 29.5142C67.1042 29.5506 67.4679 29.5869 67.8315 29.8051C68.7406 30.4233 68.777 31.7324 68.777 32.7142C68.777 35.2233 68.7042 37.7687 68.7042 40.2778C68.6315 45.4051 68.5951 50.496 68.5224 55.6233C68.4497 60.7506 68.4133 65.8414 68.3406 70.9687C68.3406 71.2596 68.3406 71.5869 68.3406 71.8779C68.3406 72.1324 68.3406 72.4233 68.2679 72.6415C68.1224 73.0051 67.7952 73.2233 67.4315 73.4051C66.4133 73.9142 65.2861 73.8778 64.1952 73.8778C61.6497 73.9506 59.1042 73.9869 56.5224 73.9869C51.4315 74.0232 46.3769 74.0232 41.2861 73.9142C40.1224 73.8778 38.9587 73.8051 37.8315 73.4778C37.3951 73.3687 37.2133 74.0232 37.6497 74.1323C38.8497 74.496 40.0861 74.5687 41.2861 74.6051C42.5952 74.6415 43.9043 74.6415 45.2134 74.6778C47.8679 74.7142 50.4861 74.7142 53.1406 74.7142C55.7587 74.7142 58.3769 74.6778 60.9951 74.6415C62.3042 74.6051 63.6133 74.6051 64.9224 74.5687C66.0133 74.5324 67.1406 74.4596 68.086 73.8415C68.4497 73.5869 68.7406 73.296 68.9224 72.8597C69.1043 72.3505 69.0315 71.696 69.0315 71.1505C69.0315 69.8415 69.0678 68.5324 69.0678 67.2233C69.1043 64.6051 69.1406 61.9869 69.1406 59.3324C69.2134 54.0596 69.2497 48.7506 69.3224 43.4778C69.3588 40.8596 69.3951 38.2414 69.3951 35.5869L69.4315 33.6233C69.4315 33.0051 69.4679 32.4233 69.4315 31.8051C69.3588 30.7506 69.0315 29.6232 68.0497 29.0778C67.6497 28.8233 67.2133 28.7869 66.7406 28.7869C66.1224 28.7505 65.4678 28.7142 64.8497 28.7142C63.5406 28.6414 62.2315 28.6051 60.9224 28.5323C58.3043 28.4232 55.6861 28.2778 53.0315 28.1687C50.4133 28.0596 47.7951 27.9142 45.1406 27.8051C44.0497 27.7687 42.9588 27.696 41.8315 27.7687C41.0315 27.8051 40.1952 27.8778 39.4315 28.0596C38.6679 28.2778 37.9406 28.8233 37.4679 29.4778C36.8134 30.3869 36.7769 31.6596 36.7406 32.7506C36.6678 35.3687 36.5587 37.9869 36.4861 40.6414C36.3406 45.9142 36.2679 51.1869 36.2315 56.4596C36.2315 59.1142 36.2315 61.7324 36.2315 64.3869C36.2315 65.696 36.2679 67.0051 36.2679 68.3142C36.2679 68.9687 36.3042 69.6233 36.3042 70.2778C36.3042 70.896 36.3042 71.5142 36.377 72.1324C36.5224 73.1142 37.0315 74.1688 38.086 74.4233C38.5588 74.496 38.7406 73.8415 38.3042 73.7324Z" fill="black"/>
<path id="Vector_26" d="M51.977 74.896C49.7224 74.896 47.4679 74.896 45.177 74.8596H44.7042C43.577 74.8596 42.377 74.8233 41.2133 74.7869C40.3043 74.7505 39.3588 74.7142 38.377 74.5323C38.2679 74.5687 38.1588 74.6051 38.0134 74.5687C37.0315 74.3505 36.3407 73.4414 36.1588 72.1324C36.0861 71.6232 36.0861 71.0778 36.0861 70.6051V70.2415C36.0861 69.5869 36.0497 68.9324 36.0497 68.2778C36.0134 66.9688 36.0134 65.6597 36.0134 64.3506C35.977 61.7687 35.977 59.0778 36.0134 56.4233C36.0497 51.4778 36.1225 46.3141 36.2679 40.6051C36.3407 37.9506 36.4133 35.3324 36.5224 32.7142V32.5687C36.5588 31.4778 36.5952 30.2414 37.2861 29.3324C37.8315 28.6051 38.5951 28.0596 39.3588 27.8414C40.1224 27.6233 40.9588 27.5869 41.7588 27.5142H41.7952C42.777 27.4414 43.7952 27.5142 44.777 27.5505L66.7043 28.5687C67.1406 28.6051 67.6498 28.6414 68.1224 28.896C68.9952 29.3687 69.5043 30.3869 69.6134 31.7687C69.6497 32.2778 69.6497 32.7505 69.6497 33.2597L69.5406 43.805L69.2497 71.1142C69.2497 71.2233 69.2497 71.3687 69.2497 71.4778C69.2497 71.9505 69.2861 72.4233 69.1043 72.8597C68.9588 73.2596 68.6316 73.6233 68.1952 73.9141C67.177 74.5687 66.0134 74.6414 64.9588 74.6778C63.6497 74.7142 62.3406 74.7505 61.0315 74.7505C58.377 74.7869 55.7588 74.8233 53.177 74.8233C52.7406 74.896 52.377 74.896 51.977 74.896ZM38.7042 74.2051C39.577 74.3505 40.4497 74.3869 41.2861 74.4233C42.4498 74.4596 43.6133 74.4596 44.777 74.496H45.2497C47.9043 74.5323 50.5588 74.5323 53.177 74.5323C55.7588 74.5323 58.4134 74.496 61.0315 74.4596C62.3406 74.4233 63.6497 74.4233 64.9588 74.3869C65.9406 74.3505 67.1043 74.2778 68.0134 73.696C68.377 73.4414 68.6316 73.1505 68.777 72.8232C68.9224 72.4596 68.9224 72.0233 68.8861 71.5869C68.8861 71.4415 68.8861 71.3324 68.8861 71.1869L69.3224 33.3323C69.3224 32.8596 69.3224 32.3505 69.2861 31.8778C69.2134 31.0051 68.9588 29.8414 68.0134 29.296C67.6498 29.0778 67.286 29.0414 66.777 29.0051L44.8498 27.9869C43.9043 27.9505 42.8861 27.8778 41.9043 27.9505H41.8679C41.0679 27.9869 40.2679 28.0596 39.5406 28.2415C38.8498 28.4232 38.1588 28.9323 37.6861 29.5869C37.0679 30.4233 37.0315 31.5869 36.9952 32.6051V32.7505C36.9224 35.3324 36.8134 37.9869 36.7406 40.6051C36.5952 46.2778 36.4861 51.4414 36.4861 56.3869C36.4861 59.0414 36.4861 61.7324 36.4861 64.3141C36.4861 65.6232 36.5224 66.9323 36.5224 68.2414C36.5224 68.896 36.5588 69.5505 36.5588 70.205V70.5687C36.5588 71.0778 36.5588 71.5869 36.6315 72.0596C36.6679 72.3505 36.8134 73.0778 37.2861 73.6233C37.3225 73.5505 37.3588 73.4778 37.4316 73.4051L37.4679 73.3687C36.9224 72.7141 36.9224 71.6597 36.8861 71.1869C36.8497 70.0233 36.8497 68.8233 36.8134 67.6596V67.3687C36.777 64.8596 36.777 62.2778 36.777 59.696C36.777 54.8232 36.8497 49.805 36.9588 44.3505C37.0315 41.9142 37.0679 39.3687 37.177 36.7141C37.2134 35.4415 37.2497 34.1687 37.2861 32.896V32.5687C37.3225 31.5869 37.3588 30.4596 37.977 29.6597C38.4497 29.0414 39.1406 28.6414 39.8316 28.496C40.7406 28.3141 41.6861 28.2778 42.377 28.2415C43.2497 28.205 44.1224 28.2415 44.9952 28.3141C45.2497 28.3141 45.5043 28.3506 45.7588 28.3506L66.7406 29.3324C67.1406 29.3687 67.577 29.405 67.9406 29.6597C68.8861 30.3142 68.9588 31.5869 68.9588 32.7142C68.9588 34.4232 68.9224 36.1323 68.9224 37.805C68.9224 38.6414 68.8861 39.4778 68.8861 40.3141L68.5225 72.0233C68.5225 72.2414 68.5225 72.496 68.4134 72.7506C68.2315 73.1869 67.8315 73.4414 67.5042 73.6233C66.5952 74.096 65.5406 74.096 64.5588 74.1323H64.1588C61.6133 74.2051 59.0316 74.2414 56.4861 74.2414C52.0133 74.2778 46.6679 74.3142 41.2498 74.1687C40.4134 74.1323 39.5406 74.096 38.7042 73.9506C38.7407 74.0232 38.7407 74.1323 38.7042 74.2414C38.7042 74.1687 38.7042 74.2051 38.7042 74.2051ZM37.6861 73.6596C37.6498 73.6596 37.6133 73.6596 37.6133 73.696C37.577 73.7324 37.5407 73.805 37.577 73.8778C37.577 73.9141 37.6133 73.9506 37.6861 73.9869C37.9043 74.0597 38.1224 74.096 38.3406 74.1687C38.3406 74.1323 38.377 74.1323 38.377 74.1323C38.377 74.096 38.377 73.9869 38.2679 73.9506L38.0497 73.9141C37.9043 73.805 37.7952 73.7324 37.6861 73.6596ZM37.8315 73.296C38.9588 73.6233 40.1588 73.696 41.2498 73.7324C46.6679 73.8778 51.977 73.8415 56.4861 73.805C59.0316 73.7687 61.6133 73.7324 64.1588 73.696H64.5588C65.5043 73.696 66.4861 73.6596 67.3225 73.2233C67.6133 73.0778 67.9406 72.896 68.0497 72.5687C68.1224 72.3869 68.1224 72.2051 68.1224 71.9869V70.9687L68.4497 40.2778C68.4497 39.4414 68.486 38.6051 68.486 37.7687C68.5225 36.096 68.5225 34.3869 68.5225 32.6778C68.5225 31.6233 68.4497 30.496 67.6861 29.9142C67.3588 29.696 67.0315 29.6597 66.6679 29.6597L45.6861 28.6778C45.4315 28.6778 45.177 28.6414 44.9224 28.6414C44.0861 28.6051 43.2134 28.5323 42.3407 28.5687C41.6497 28.6051 40.7043 28.6414 39.8316 28.8233C39.2134 28.9323 38.6316 29.3324 38.1952 29.8778C37.6133 30.5687 37.6133 31.6596 37.577 32.5687V32.896C37.5407 34.1687 37.5042 35.4415 37.4679 36.7141C37.3951 39.3323 37.3225 41.9142 37.2497 44.3505C37.1406 49.805 37.0679 54.8232 37.0679 59.696C37.0679 62.2778 37.0679 64.8596 37.1043 67.3687V67.6596C37.1043 68.8233 37.1406 70.0233 37.177 71.1869C37.2134 71.9505 37.3225 72.8597 37.8315 73.296Z" fill="black"/>
<path id="Vector_27" d="M48.9588 33.9143C53.7951 33.8779 58.6315 33.9143 63.4679 34.0961C63.7588 34.0961 64.0496 34.1325 64.2678 34.3142C64.4497 34.4598 64.5224 34.6779 64.5951 34.8961C65.1406 36.6052 64.9224 38.4597 64.7042 40.2779C64.6679 40.6415 64.5951 41.0052 64.4133 41.2961C63.9042 42.1688 62.7406 42.2052 61.7587 42.1688C58.7406 42.0234 56.4497 41.987 53.4315 41.8415C49.6861 41.7689 45.9406 41.6598 42.1951 41.587C42.0133 41.587 41.8679 41.587 41.7224 41.5142C41.3224 41.3325 41.2861 40.787 41.2861 40.3142C41.3224 38.9688 41.3587 37.587 41.3952 36.2416C41.4315 35.5142 41.5043 34.6415 42.1588 34.2779C42.4496 34.0961 42.8133 34.0961 43.1406 34.0961C45.2133 34.0234 47.2861 33.987 49.3588 33.9506" fill="url(#paint6_radial_123_346)"/>
<path id="Vector_28" d="M48.9588 34.2779C53.1042 34.2415 57.2134 34.2779 61.3588 34.387C61.8679 34.387 62.4134 34.4233 62.9224 34.4233C63.2497 34.4233 63.9042 34.3506 64.1224 34.6415C64.2315 34.7869 64.3043 35.0051 64.3406 35.187C64.4134 35.4415 64.4497 35.6597 64.4861 35.9143C64.5588 36.387 64.5952 36.8597 64.5952 37.3325C64.5952 38.2779 64.4861 39.2233 64.3406 40.1688C64.3043 40.5688 64.2315 40.9688 63.977 41.2597C63.7588 41.5142 63.4315 41.6233 63.1406 41.6961C62.377 41.8779 61.5407 41.7688 60.777 41.7324C59.8315 41.6961 58.8861 41.6597 57.9407 41.6233C56.0134 41.5506 54.0861 41.4779 52.1588 41.4052C50.0861 41.3688 48.0497 41.2961 45.977 41.2597C44.9588 41.2233 43.9043 41.2233 42.8861 41.187C42.6679 41.187 42.4133 41.187 42.1951 41.187C42.0134 41.187 41.8315 41.187 41.7225 41.0416C41.5406 40.7869 41.6134 40.3142 41.6134 40.0233C41.6497 39.0052 41.6861 37.987 41.7225 36.9324C41.7588 36.2416 41.6497 35.2961 42.0861 34.7143C42.3407 34.387 42.8134 34.387 43.2134 34.387C43.7224 34.387 44.2315 34.3506 44.777 34.3506C45.7951 34.3143 46.8497 34.3143 47.8679 34.2779C48.377 34.2779 48.8861 34.2415 49.3588 34.2415C49.7952 34.2415 49.7952 33.5506 49.3588 33.5506C48.2679 33.5869 47.1407 33.5869 46.0498 33.6234C45.4679 33.6234 44.9224 33.6597 44.3406 33.6597C43.8315 33.6597 43.2861 33.6597 42.7406 33.696C42.3042 33.7325 41.8679 33.8779 41.577 34.2052C41.3224 34.4961 41.177 34.8597 41.1042 35.2597C41.0316 35.6961 41.0316 36.1325 40.9951 36.5688C40.9951 37.1143 40.9588 37.6597 40.9588 38.2052C40.9588 38.7506 40.9225 39.2961 40.9225 39.8416C40.9225 40.2779 40.8861 40.7143 40.9951 41.1142C41.1407 41.5143 41.4315 41.7688 41.8679 41.8415C42.377 41.9143 42.9225 41.8779 43.4679 41.8779C45.6861 41.9143 47.8679 41.9869 50.0861 42.0234C52.2315 42.0597 54.377 42.1688 56.5225 42.2416C57.5043 42.2779 58.4861 42.3142 59.4679 42.3506C60.4133 42.387 61.3951 42.4961 62.377 42.4597C63.1043 42.4233 63.977 42.3142 64.4861 41.6961C64.777 41.3688 64.886 40.9688 64.9588 40.5324C65.0316 40.0233 65.1042 39.5143 65.1407 38.9688C65.2498 37.9506 65.2861 36.9324 65.1407 35.9143C65.0679 35.4415 64.9588 34.9325 64.777 34.4961C64.5952 34.0597 64.2679 33.8051 63.7951 33.7325C63.2861 33.6597 62.7042 33.6597 62.1952 33.6597C61.6498 33.6597 61.1043 33.6234 60.5952 33.6234C59.4679 33.5869 58.3406 33.5869 57.2134 33.5506C54.9952 33.5143 52.777 33.5143 50.5588 33.5143C50.0134 33.5143 49.4679 33.5143 48.8861 33.5143C48.5224 33.5869 48.5224 34.2779 48.9588 34.2779Z" fill="url(#paint7_radial_123_346)"/>
<path id="Vector_29" d="M47.9406 36.4232C47.3588 37.2233 46.777 38.0597 46.2679 38.9324C46.0497 39.296 46.6315 39.6596 46.8497 39.2596C47.3588 38.3869 47.9406 37.5506 48.5225 36.7505C48.777 36.4232 48.1952 36.0959 47.9406 36.4232Z" fill="white"/>
<path id="Vector_30" d="M46.5589 39.6233C46.3407 39.6233 46.1588 39.5142 46.0861 39.3324C46.0134 39.1869 46.0134 39.0051 46.0861 38.8233C46.5952 37.9506 47.177 37.1142 47.7589 36.3142C47.9771 36.0233 48.3043 36.0233 48.5225 36.2052C48.7407 36.3869 48.777 36.6415 48.6316 36.8597C48.0497 37.6597 47.4679 38.4961 46.9588 39.3688C46.9225 39.5505 46.7406 39.6233 46.5589 39.6233ZM48.0861 36.5324C47.5043 37.3324 46.9225 38.1688 46.4134 39.0415C46.377 39.0778 46.377 39.1506 46.4134 39.1869C46.4498 39.2597 46.5224 39.296 46.5589 39.296C46.5952 39.296 46.668 39.2597 46.668 39.2233C47.177 38.3505 47.7589 37.5142 48.3407 36.7142C48.377 36.6778 48.4134 36.6051 48.3043 36.5688C48.3043 36.4597 48.1588 36.4233 48.0861 36.5324Z" fill="white"/>
<path id="Vector_31" d="M53.4679 36.0597C52.668 37.2233 51.8679 38.3506 51.0679 39.5142C50.8134 39.8779 51.3952 40.2051 51.6497 39.8414C52.4498 38.6779 53.2497 37.5505 54.0497 36.387C54.3043 36.0597 53.7224 35.7324 53.4679 36.0597Z" fill="white"/>
<path id="Vector_32" d="M51.3589 40.1688C51.2498 40.1688 51.1043 40.1324 51.0316 40.0597C50.8134 39.9142 50.7407 39.6234 50.9225 39.3689L53.3225 35.9143C53.4316 35.7689 53.6134 35.6597 53.7952 35.6961C53.9771 35.6961 54.1588 35.8415 54.2679 35.987C54.3407 36.1325 54.3043 36.3143 54.2316 36.4597L51.8316 39.9143C51.6497 40.1325 51.5043 40.1688 51.3589 40.1688ZM53.7589 36.0961C53.6861 36.0961 53.6498 36.1325 53.6133 36.1688L51.2134 39.6234C51.2134 39.6597 51.1407 39.7325 51.2498 39.8051C51.3224 39.8415 51.4315 39.8779 51.5043 39.7688L53.9043 36.3142C53.9406 36.2415 53.9406 36.2415 53.9406 36.2052C53.9043 36.1688 53.8315 36.0961 53.7589 36.0961Z" fill="white"/>
<path id="Vector_33" d="M60.7406 47.2233C60.6678 50.8961 60.6315 54.5688 60.5587 58.2415C60.5587 58.6779 61.2496 58.6779 61.2496 58.2415C61.3224 54.5688 61.3587 50.8961 61.4315 47.2233C61.4315 46.787 60.7406 46.787 60.7406 47.2233Z" fill="black"/>
<path id="Vector_34" d="M60.9225 58.7505C60.6678 58.7505 60.4133 58.5688 60.4133 58.2415L60.5952 47.2233C60.5952 47.0415 60.7043 46.8596 60.8497 46.787C61.0315 46.6779 61.2497 46.6779 61.3952 46.787C61.5406 46.896 61.6497 47.0415 61.6133 47.2233L61.4315 58.2415C61.4315 58.3869 61.3588 58.5323 61.2497 58.6414C61.177 58.7142 61.0315 58.7505 60.9225 58.7505ZM61.1042 47.0778C61.0679 47.0778 61.0315 47.0778 60.9951 47.1142C60.9588 47.1506 60.9225 47.1869 60.9225 47.2233V47.3687L60.7406 58.2415C60.7406 58.2778 60.7406 58.3142 60.7769 58.3506C60.8134 58.3869 60.8497 58.3869 60.886 58.3869C60.9225 58.3869 60.9588 58.3869 60.9951 58.3506C61.0315 58.3142 61.0315 58.2778 61.0315 58.2415L61.2133 47.2233C61.2133 47.1506 61.2133 47.1142 61.1406 47.1142C61.1406 47.0778 61.1042 47.0778 61.1042 47.0778Z" fill="black"/>
<path id="Vector_35" d="M64.886 47.3324C64.9588 50.8597 64.9588 54.387 64.8497 57.9506C64.8497 58.3869 65.5043 58.3869 65.5406 57.9506C65.6497 54.4233 65.6497 50.8961 65.5769 47.3324C65.5406 46.8597 64.886 46.8597 64.886 47.3324Z" fill="black"/>
<path id="Vector_36" d="M65.177 58.4233C64.9225 58.4233 64.6678 58.2415 64.6678 57.9142C64.7769 54.4233 64.7769 50.8597 64.7043 47.3324C64.7043 47.0052 64.9588 46.8233 65.2133 46.8233C65.4679 46.8233 65.7588 47.0052 65.7588 47.3324C65.8315 50.8597 65.8315 54.4233 65.7224 57.9506C65.7224 58.2415 65.4315 58.4233 65.177 58.4233ZM65.0679 47.296C65.1406 50.8233 65.1406 54.3869 65.0315 57.9142C65.0315 58.0233 65.1042 58.0597 65.177 58.0597C65.177 58.0597 65.3588 58.0597 65.3588 57.9142C65.4679 54.4233 65.4679 50.8597 65.3952 47.3324C65.3952 47.1869 65.2497 47.1869 65.2133 47.1869C65.177 47.1506 65.0679 47.1869 65.0679 47.296Z" fill="black"/>
<path id="Vector_37" d="M61.068 47.4778C62.3771 47.4778 63.7225 47.4778 65.0316 47.4778C65.4679 47.4778 65.4679 46.7869 65.0316 46.7869C63.7225 46.7869 62.3771 46.7869 61.068 46.7869C60.6316 46.7869 60.6316 47.4778 61.068 47.4778Z" fill="black"/>
<path id="Vector_38" d="M65.0316 47.6597H61.068C60.7407 47.6597 60.5588 47.4052 60.5588 47.1506C60.5588 46.8961 60.7407 46.6415 61.068 46.6415H65.0316C65.3588 46.6415 65.5407 46.8961 65.5407 47.1506C65.5407 47.4052 65.3952 47.6597 65.0316 47.6597ZM61.068 46.9688C60.9224 46.9688 60.9224 47.0779 60.9224 47.1142C60.9224 47.1506 60.9224 47.2597 61.068 47.2597H65.0316C65.177 47.2597 65.177 47.1506 65.177 47.1142C65.177 47.0779 65.177 46.9688 65.0316 46.9688H61.068Z" fill="black"/>
<path id="Vector_39" d="M60.7044 58.0233L60.6316 58.1324C60.5953 58.1687 60.5953 58.2051 60.5953 58.2415C60.5953 58.2778 60.5953 58.3141 60.5953 58.3869C60.5953 58.4232 60.6316 58.4597 60.6679 58.496C60.7044 58.5323 60.7407 58.5688 60.777 58.5688C60.8498 58.6051 60.9589 58.6414 61.0316 58.6051C61.1043 58.5688 61.2134 58.5323 61.2498 58.4597L61.3225 58.3506C61.3589 58.3141 61.3589 58.2778 61.3589 58.2415C61.3589 58.2051 61.3589 58.1687 61.3589 58.096C61.3589 58.0596 61.3225 58.0233 61.2862 57.9869C61.2498 57.9505 61.2134 57.9142 61.1771 57.9142C61.1043 57.8778 60.9952 57.8414 60.9225 57.8778C60.8498 57.8778 60.777 57.9142 60.7044 58.0233Z" fill="black"/>
<path id="Vector_40" d="M60.9588 58.6415C61.6861 58.6778 62.4133 58.6415 63.1406 58.5687C63.8679 58.5324 64.5588 58.4596 65.2861 58.4233C65.7224 58.3869 65.7224 57.696 65.2861 57.7323C64.5588 57.7688 63.8679 57.8414 63.1406 57.8779C62.4133 57.9142 61.6861 57.987 60.9588 57.9505C60.5224 57.9505 60.5224 58.6051 60.9588 58.6415Z" fill="black"/>
<path id="Vector_41" d="M61.5406 58.8596C61.3224 58.8596 61.1406 58.8596 60.9225 58.8233C60.5588 58.787 60.4133 58.496 60.4133 58.2415C60.4497 57.9506 60.6678 57.7687 60.9225 57.7687C61.577 57.8052 62.2679 57.7687 62.9224 57.7324L65.2133 57.587C65.5043 57.587 65.7225 57.7687 65.7225 58.0597C65.7588 58.3142 65.5769 58.6051 65.2133 58.6415L62.9224 58.787C62.5224 58.8233 62.0497 58.8596 61.5406 58.8596ZM60.9225 58.1324C60.8497 58.1324 60.8134 58.1688 60.8134 58.2415C60.8134 58.3142 60.8497 58.4233 60.9588 58.4233C61.6133 58.4597 62.3042 58.4233 62.9588 58.3869L65.2497 58.2415C65.3952 58.2415 65.3952 58.096 65.3952 58.0597C65.3952 57.9869 65.3587 57.9142 65.2497 57.9506L62.9588 58.096C62.3042 58.1324 61.6133 58.2051 60.9225 58.1324Z" fill="black"/>
<path id="Vector_42" d="M61.068 53.1869C62.4497 53.0778 63.8316 53.0051 65.2133 53.0051C65.6497 53.0051 65.6497 52.3141 65.2133 52.3141C63.8316 52.3141 62.4497 52.3869 61.068 52.496C60.6316 52.5323 60.6316 53.2233 61.068 53.1869Z" fill="black"/>
<path id="Vector_43" d="M61.0315 53.3687C60.886 53.3687 60.7406 53.296 60.6315 53.187C60.5224 53.0414 60.5224 52.8232 60.5952 52.6415C60.6678 52.4596 60.8497 52.3506 61.0315 52.3506C62.4133 52.2415 63.7951 52.1687 65.177 52.1687C65.5043 52.1687 65.686 52.4233 65.686 52.6778C65.686 52.9323 65.5043 53.187 65.177 53.187C63.7951 53.187 62.4133 53.2596 61.0315 53.3687C61.0679 53.3687 61.0679 53.3687 61.0315 53.3687ZM65.2133 52.496C63.8315 52.496 62.4497 52.5687 61.0679 52.6778C60.9951 52.6778 60.9588 52.7142 60.9224 52.7869C60.886 52.8597 60.886 52.9323 60.9224 52.9688C60.9224 52.9688 60.9588 53.0051 61.0315 53.0051C62.4133 52.896 63.7951 52.8232 65.177 52.8232C65.3224 52.8232 65.3224 52.7142 65.3224 52.6778C65.3588 52.6051 65.3588 52.496 65.2133 52.496Z" fill="black"/>
<path id="Vector_44" d="M60.8133 61.0416C60.7043 63.8779 60.7043 67.1142 60.886 69.9142L60.9588 70.0233C61.1042 70.2779 62.5588 69.9142 62.777 69.8779C63.286 69.8415 63.7951 69.8415 64.3043 69.8415C64.486 69.8415 64.9588 69.9506 65.1042 69.8779C65.2861 69.8052 65.2861 69.5142 65.2496 69.3325C65.177 68.0597 65.1406 66.7869 65.1406 65.4778C65.1406 63.987 65.2133 62.5324 65.2861 61.0416L65.2133 60.7506C63.7588 60.896 62.3042 60.9688 60.8133 61.0416Z" fill="url(#paint8_radial_123_346)"/>
<path id="Vector_45" d="M60.4861 61.0415C60.4133 62.787 60.4133 64.5324 60.4133 66.2779C60.4133 67.1506 60.4497 68.0597 60.4861 68.9324C60.5224 69.4778 60.377 70.3506 61.0679 70.4233C61.5406 70.4961 62.0497 70.3506 62.5224 70.2779C62.5952 70.2779 62.6679 70.2415 62.7406 70.2415C62.6679 70.2415 62.7406 70.2415 62.8133 70.2415C62.9588 70.2415 63.0678 70.2415 63.2134 70.2051C63.6133 70.2051 64.0497 70.1688 64.4497 70.2051C64.7406 70.2415 65.0679 70.3142 65.3224 70.0961C65.6134 69.8415 65.5769 69.4778 65.5769 69.1142C65.5406 68.1687 65.5043 67.2234 65.4678 66.3142C65.4678 65.2597 65.4678 64.2051 65.5043 63.1506C65.5406 62.6415 65.5406 62.0961 65.5769 61.587C65.5769 61.3688 65.6497 61.1506 65.5769 60.9324C65.5406 60.8233 65.5406 60.7506 65.5043 60.6415C65.4678 60.4961 65.3224 60.387 65.177 60.387C63.6861 60.5324 62.2315 60.6051 60.7406 60.6779C60.3042 60.6779 60.3042 61.3688 60.7406 61.3688C62.2315 61.296 63.6861 61.2234 65.177 61.0778L64.8497 60.8233C64.8861 60.8961 64.8861 60.9687 64.9224 61.0415C64.9588 61.1506 64.9224 61.296 64.9224 61.4415C64.8861 61.8779 64.8861 62.3143 64.8497 62.7142C64.8133 63.5869 64.777 64.4597 64.777 65.3324C64.777 66.2051 64.777 67.0415 64.8133 67.9142C64.8133 68.3506 64.8497 68.787 64.8861 69.187C64.8861 69.2597 64.8497 69.5143 64.8861 69.5869C64.9224 69.6597 64.8497 69.5506 64.9224 69.5869C64.9224 69.5869 64.8861 69.5869 64.8497 69.5869C64.777 69.5869 64.7042 69.5869 64.6315 69.5869C63.977 69.5143 63.2497 69.4778 62.5588 69.5869C62.1588 69.6597 61.7588 69.7325 61.3588 69.7688C61.2861 69.7688 61.177 69.7688 61.1042 69.7688C61.177 69.7688 61.0679 69.7688 61.0679 69.7688C61.0679 69.8051 61.2497 69.9142 61.1406 69.8051C61.1042 69.7325 61.1042 69.7688 61.1406 69.8051C61.177 69.9142 61.1406 69.7688 61.1406 69.7688C61.1406 69.696 61.1406 69.5869 61.1406 69.5143C61.1406 69.2961 61.1042 69.1142 61.1042 68.8961C61.0679 68.0961 61.0315 67.296 61.0315 66.4961C60.9951 64.6778 61.0315 62.8961 61.1042 61.0778C61.177 60.6051 60.4861 60.6051 60.4861 61.0415Z" fill="url(#paint9_radial_123_346)"/>
<path id="Vector_46" d="M40.7406 46.5688C40.5225 51.2597 40.4134 55.9506 40.4134 60.6415C40.4134 61.9869 40.4134 63.3325 40.4497 64.6779C40.4497 65.1142 41.1406 65.1142 41.1406 64.6779C41.0679 59.987 41.1042 55.2961 41.2861 50.6051C41.3224 49.2597 41.3952 47.9142 41.4678 46.6051C41.4315 46.1324 40.7406 46.1324 40.7406 46.5688Z" fill="black"/>
<path id="Vector_47" d="M40.777 65.1506C40.5224 65.1506 40.2678 64.9688 40.2315 64.6415C40.1952 63.3324 40.1952 61.9869 40.1952 60.6052C40.1952 55.9506 40.3043 51.2233 40.5224 46.5324C40.5224 46.2052 40.8133 46.0233 41.1042 46.0233C41.3587 46.0233 41.6134 46.2052 41.5769 46.5324C41.5043 47.8779 41.4678 49.2233 41.3952 50.5324C41.2497 55.187 41.177 59.9142 41.2497 64.6051C41.2861 64.9688 41.0315 65.1506 40.777 65.1506ZM40.7406 46.5688H40.9224C40.7042 51.2597 40.5951 55.9869 40.5951 60.6415C40.5951 61.9869 40.5951 63.3324 40.6315 64.6779C40.6315 64.8233 40.777 64.8233 40.8133 64.8233C40.8497 64.8233 40.9588 64.8233 40.9588 64.6779C40.8861 59.987 40.9224 55.2597 41.1042 50.6051C41.1406 49.296 41.2133 47.9506 41.2861 46.5688C41.2861 46.4597 41.2133 46.4233 41.1406 46.4233C41.1406 46.4233 40.9588 46.4233 40.9588 46.5688H40.7406Z" fill="black"/>
<path id="Vector_48" d="M56.6316 47.3324C56.5952 51.9142 56.6316 56.5324 56.7407 61.1142C56.777 62.4233 56.8134 63.6961 56.8498 65.0052C56.8498 65.4415 57.5406 65.4415 57.5406 65.0052C57.4315 60.4233 57.3589 55.8052 57.3225 51.2234C57.3225 49.9143 57.3225 48.6415 57.3225 47.3324C57.3225 46.8597 56.6316 46.8597 56.6316 47.3324Z" fill="black"/>
<path id="Vector_49" d="M57.177 65.5142C57.0679 65.5142 56.9952 65.4779 56.9225 65.4415C56.777 65.3688 56.6679 65.187 56.6679 65.0051C56.6316 63.696 56.5952 62.4234 56.5588 61.1143C56.4497 56.5688 56.4134 51.9142 56.4497 47.3324C56.4497 47.1506 56.5588 46.9688 56.7043 46.896C56.8861 46.7869 57.1043 46.7869 57.2498 46.896C57.3952 46.9688 57.5043 47.1506 57.5043 47.3324C57.5043 48.6415 57.5043 49.9142 57.5043 51.2233C57.5043 55.8052 57.5771 60.4597 57.7225 65.0051C57.7225 65.187 57.6497 65.3688 57.5043 65.4415C57.3952 65.4779 57.2861 65.5142 57.177 65.5142ZM56.9588 47.1506C56.9225 47.1506 56.8861 47.1506 56.8497 47.187C56.8134 47.2233 56.777 47.2597 56.777 47.2961C56.7407 51.8779 56.777 56.5325 56.8861 61.0778C56.9225 62.3869 56.9588 63.6597 56.9952 64.9688C56.9952 65.0415 57.0316 65.0779 57.0679 65.1142C57.1407 65.1506 57.2134 65.1506 57.2498 65.1142C57.2861 65.1142 57.3224 65.0779 57.3224 65.0051C57.2134 60.4233 57.1407 55.8052 57.1043 51.2233C57.1043 49.9142 57.1043 48.6415 57.1043 47.3324C57.1043 47.2597 57.0679 47.2233 57.0316 47.2233C57.0316 47.187 56.9952 47.1506 56.9588 47.1506Z" fill="black"/>
<path id="Vector_50" d="M41.1771 46.8961C45.2498 47.0052 49.3226 47.1506 53.3953 47.2962C54.5589 47.3325 55.7225 47.4052 56.8499 47.4416C57.2862 47.4779 57.2862 46.787 56.8499 46.7507C52.7771 46.5325 48.7044 46.387 44.6317 46.2779C43.468 46.2416 42.3043 46.2053 41.1771 46.1688C40.7407 46.2053 40.7407 46.8961 41.1771 46.8961Z" fill="black"/>
<path id="Vector_51" d="M56.8861 47.6597C55.6861 47.587 54.5588 47.5506 53.3952 47.5143C49.3588 47.3324 45.2498 47.187 41.177 47.1142C40.9952 47.1142 40.8134 47.0051 40.7406 46.8597C40.6315 46.6779 40.668 46.4597 40.7406 46.3143C40.8497 46.1688 40.9952 46.0961 41.177 46.0961C42.3407 46.1325 43.5043 46.1688 44.6679 46.2052C48.7043 46.3143 52.8134 46.4961 56.8861 46.6779C57.2134 46.6779 57.3952 46.9688 57.3952 47.2597C57.3589 47.4415 57.177 47.6597 56.8861 47.6597ZM41.177 46.4233C41.1407 46.4233 41.1043 46.4233 41.0679 46.4598C41.0316 46.4961 41.0316 46.5324 41.0316 46.5689C41.0316 46.6052 41.0316 46.6779 41.0679 46.6779C41.1043 46.7143 41.1407 46.7143 41.177 46.7143C45.2498 46.8234 49.3952 46.9688 53.3952 47.1142C54.5588 47.1507 55.7225 47.2233 56.8497 47.2597C56.9588 47.2597 56.9952 47.187 56.9952 47.1142C56.9952 47.1142 56.9952 46.9325 56.8497 46.9325C52.7771 46.7506 48.6679 46.5688 44.6316 46.4598C43.4679 46.4598 42.3407 46.4233 41.177 46.4233Z" fill="black"/>
<path id="Vector_52" d="M40.777 64.9325C44.9952 65.0052 49.2134 65.078 53.3952 65.1871C54.5952 65.2234 55.7952 65.2234 56.9952 65.2597C57.4315 65.2597 57.4315 64.5689 56.9952 64.5689C52.777 64.4961 48.5588 64.4234 44.377 64.3143C43.177 64.2779 41.977 64.2779 40.777 64.2416C40.3043 64.2416 40.3043 64.9325 40.777 64.9325Z" fill="black"/>
<path id="Vector_53" d="M56.9953 65.4052L40.7407 65.1143C40.5589 65.1143 40.377 65.0052 40.3043 64.8597C40.1952 64.678 40.1952 64.4598 40.3043 64.3143C40.4134 64.1688 40.5225 64.0598 40.7407 64.0961L56.9953 64.387C57.3225 64.387 57.5043 64.678 57.5043 64.9325C57.5043 65.187 57.3225 65.4052 56.9953 65.4052ZM40.7407 64.4234C40.7043 64.4234 40.668 64.4234 40.6316 64.4961C40.5952 64.5325 40.5952 64.6415 40.6316 64.678C40.668 64.7143 40.7043 64.7506 40.7771 64.7506L57.0316 65.0416C57.1407 65.0416 57.177 64.9325 57.177 64.8962C57.177 64.8597 57.177 64.7143 57.0316 64.7143L40.7407 64.4234Z" fill="black"/>
<path id="Vector_54" d="M46.0133 46.7506C45.8315 51.3324 45.6496 55.9506 45.5042 60.5324C45.4679 61.8415 45.4314 63.1142 45.3951 64.4233C45.3951 64.8597 46.0497 64.8597 46.086 64.4233C46.1951 59.8415 46.3406 55.2233 46.5224 50.6415C46.5588 49.3324 46.6314 48.0597 46.6679 46.7506C46.7042 46.3142 46.0497 46.3142 46.0133 46.7506Z" fill="black"/>
<path id="Vector_55" d="M45.7588 64.9324C45.5042 64.9324 45.2497 64.7506 45.2497 64.4234C45.286 63.1143 45.3224 61.8415 45.3588 60.5324C45.5042 55.9869 45.6497 51.3688 45.8679 46.7506C45.8679 46.4234 46.1587 46.2415 46.4133 46.2415C46.6679 46.2415 46.9224 46.4234 46.886 46.7506C46.8133 48.0597 46.7769 49.3324 46.7406 50.6415C46.5588 55.187 46.4133 59.8415 46.3043 64.4234C46.2678 64.787 46.0133 64.9324 45.7588 64.9324ZM46.3769 46.6051C46.3406 46.6051 46.1952 46.6051 46.1952 46.7506C46.0133 51.3688 45.8315 55.9869 45.686 60.5324C45.6497 61.8415 45.6133 63.1143 45.577 64.4234C45.577 64.5325 45.686 64.5688 45.7224 64.5688C45.7588 64.5688 45.9042 64.5688 45.9042 64.4234C46.0133 59.8415 46.1587 55.187 46.3406 50.6415C46.3769 49.3324 46.4497 48.0597 46.486 46.7506C46.5224 46.6415 46.4497 46.6051 46.3769 46.6051Z" fill="black"/>
<path id="Vector_56" d="M51.4315 46.9688C51.3952 51.5142 51.2861 56.096 51.0679 60.6415C50.9952 61.9506 50.9588 63.2234 50.8861 64.5325C50.8498 64.9688 51.5406 64.9688 51.577 64.5325C51.8316 59.987 52.0133 55.4415 52.0861 50.8597C52.1224 49.5506 52.1224 48.2779 52.1224 46.9688C52.1224 46.5324 51.4315 46.5324 51.4315 46.9688Z" fill="black"/>
<path id="Vector_57" d="M51.177 65.0051C50.8497 65.0051 50.6679 64.7869 50.6679 64.496C50.7407 63.1869 50.8134 61.9142 50.8497 60.6052C51.0679 56.096 51.177 51.5142 51.2133 46.9324C51.2133 46.6051 51.468 46.4233 51.7225 46.4233C51.977 46.4233 52.2316 46.6051 52.2316 46.9324C52.2316 48.2415 52.1952 49.5142 52.1952 50.8233C52.1225 55.3324 51.9407 59.9506 51.6861 64.496C51.7225 64.8596 51.4315 65.0051 51.177 65.0051ZM51.6134 46.9688C51.577 51.5506 51.468 56.1324 51.2498 60.6415C51.177 61.9506 51.1407 63.2233 51.0679 64.5324C51.0679 64.6415 51.1407 64.6779 51.2133 64.6779C51.2133 64.6779 51.3952 64.6779 51.3952 64.5324C51.6497 59.9869 51.8316 55.4051 51.9043 50.8961C51.9407 49.587 51.9407 48.3142 51.9407 47.0051C51.9407 46.8597 51.8316 46.8597 51.7952 46.8597C51.7588 46.8233 51.6134 46.8233 51.6134 46.9688Z" fill="black"/>
<path id="Vector_58" d="M40.8134 52.4232C44.9588 52.3869 49.1043 52.3505 53.2497 52.3142C54.4133 52.3142 55.577 52.3142 56.777 52.2778C57.2134 52.2778 57.2134 51.5869 56.777 51.5869C52.6315 51.6233 48.4861 51.6596 44.3406 51.6959C43.177 51.6959 42.0134 51.6959 40.8134 51.7324C40.377 51.7324 40.377 52.4232 40.8134 52.4232Z" fill="black"/>
<path id="Vector_59" d="M40.8134 52.6051C40.4861 52.6051 40.3043 52.3506 40.3043 52.0959C40.3043 51.8414 40.4861 51.5505 40.8134 51.5505L56.777 51.4414C57.1043 51.4414 57.2861 51.696 57.2861 51.9505C57.2861 52.205 57.1043 52.496 56.777 52.496L40.8134 52.6051ZM56.8134 51.8051L40.8497 51.9142C40.7043 51.9142 40.7043 52.0596 40.7043 52.0596C40.7043 52.0959 40.7043 52.205 40.8497 52.205L56.8134 52.0959C56.9588 52.0959 56.9588 51.9505 56.9588 51.9142C56.9588 51.9142 56.9225 51.8051 56.8134 51.8051Z" fill="black"/>
<path id="Vector_60" d="M40.7769 58.8234C44.9952 58.6779 49.2134 58.6779 53.3952 58.7869C54.5952 58.8234 55.7952 58.8597 56.9952 58.9325C57.4315 58.9688 57.4315 58.2779 56.9952 58.2415C52.7769 58.0597 48.5588 57.987 44.377 58.0597C43.177 58.0961 41.9769 58.0961 40.7769 58.1324C40.3406 58.1688 40.3406 58.8597 40.7769 58.8234Z" fill="black"/>
<path id="Vector_61" d="M57.0315 59.1143C55.7952 59.0415 54.5588 59.0051 53.3952 58.9688C49.2497 58.8597 44.9952 58.8597 40.777 59.0051C40.4497 59.0051 40.2679 58.7506 40.2679 58.4961C40.2679 58.2415 40.4497 57.9506 40.777 57.9506C41.977 57.9142 43.2134 57.8779 44.377 57.8779C48.5588 57.8051 52.8134 57.8779 57.0315 58.0597C57.3588 58.0597 57.5406 58.3506 57.5406 58.6052C57.5043 58.8597 57.3224 59.1143 57.0315 59.1143ZM47.6861 58.5324C49.6133 58.5324 51.5043 58.5687 53.3952 58.6052C54.5588 58.6415 55.7952 58.6779 56.9952 58.7506C57.1043 58.7506 57.1406 58.6778 57.1406 58.6052C57.1406 58.6052 57.1406 58.4233 56.9952 58.4233C52.777 58.2415 48.5588 58.1688 44.377 58.2415C43.177 58.2779 41.977 58.2779 40.777 58.3142C40.6315 58.3142 40.6315 58.4596 40.6315 58.4961C40.6315 58.5324 40.6679 58.6415 40.777 58.6415C43.0679 58.5687 45.3952 58.5324 47.6861 58.5324Z" fill="black"/>
</g>
<defs>
<radialGradient id="paint0_radial_123_346" cx="0" cy="0" r="1" gradientUnits="userSpaceOnUse" gradientTransform="translate(19.3316 58.2076) rotate(-90) scale(5.29038 6.6076)">
<stop stop-color="#587EDB"/>
<stop offset="1" stop-color="#1445C2"/>
</radialGradient>
<radialGradient id="paint1_radial_123_346" cx="0" cy="0" r="1" gradientUnits="userSpaceOnUse" gradientTransform="translate(19.3296 58.4961) rotate(-90) scale(5.52969 6.82565)">
<stop stop-color="#587EDB"/>
<stop offset="1" stop-color="#1445C2"/>
</radialGradient>
<radialGradient id="paint2_radial_123_346" cx="0" cy="0" r="1" gradientUnits="userSpaceOnUse" gradientTransform="translate(18.4119 23.0126) rotate(-90) scale(7.67547 4.15054)">
<stop stop-color="#587EDB"/>
<stop offset="1" stop-color="#1445C2"/>
</radialGradient>
<radialGradient id="paint3_radial_123_346" cx="0" cy="0" r="1" gradientUnits="userSpaceOnUse" gradientTransform="translate(18.417 23.2233) rotate(-90) scale(7.89499 4.28816)">
<stop stop-color="#587EDB"/>
<stop offset="1" stop-color="#1445C2"/>
</radialGradient>
<radialGradient id="paint4_radial_123_346" cx="0" cy="0" r="1" gradientUnits="userSpaceOnUse" gradientTransform="translate(18.618 24.6055) rotate(-90) scale(9.39248 0.424072)">
<stop stop-color="#587EDB"/>
<stop offset="1" stop-color="#1445C2"/>
</radialGradient>
<radialGradient id="paint5_radial_123_346" cx="0" cy="0" r="1" gradientUnits="userSpaceOnUse" gradientTransform="translate(18.6179 25.1506) rotate(-90) scale(9.94785 0.759998)">
<stop stop-color="#587EDB"/>
<stop offset="1" stop-color="#1445C2"/>
</radialGradient>
<radialGradient id="paint6_radial_123_346" cx="0" cy="0" r="1" gradientUnits="userSpaceOnUse" gradientTransform="translate(53.1118 42.1777) rotate(-90) scale(4.21613 10.9241)">
<stop stop-color="#587EDB"/>
<stop offset="1" stop-color="#1445C2"/>
</radialGradient>
<radialGradient id="paint7_radial_123_346" cx="0" cy="0" r="1" gradientUnits="userSpaceOnUse" gradientTransform="translate(53.0766 42.467) rotate(-90) scale(4.56084 11.2329)">
<stop stop-color="#587EDB"/>
<stop offset="1" stop-color="#1445C2"/>
</radialGradient>
<radialGradient id="paint8_radial_123_346" cx="0" cy="0" r="1" gradientUnits="userSpaceOnUse" gradientTransform="translate(63.0125 70.1131) rotate(-90) scale(4.76959 2.10026)">
<stop stop-color="#587EDB"/>
<stop offset="1" stop-color="#1445C2"/>
</radialGradient>
<radialGradient id="paint9_radial_123_346" cx="0" cy="0" r="1" gradientUnits="userSpaceOnUse" gradientTransform="translate(63.0113 70.4432) rotate(-90) scale(5.12297 2.39991)">
<stop stop-color="#587EDB"/>
<stop offset="1" stop-color="#1445C2"/>
</radialGradient>
<clipPath id="clip0_123_346">
<rect width="70.1299" height="75" fill="white" transform="translate(0.184814)"/>
</clipPath>
</defs>
</svg>
