<svg width="66" height="75" viewBox="0 0 66 75" fill="none" xmlns="http://www.w3.org/2000/svg">
<g clip-path="url(#clip0_123_595)">
<path d="M7.08933 66.1277V71.9864L21.9758 71.1875V64.7962L22.322 62.2663L23.9375 60.5353L26.9379 55.7419L27.8611 52.6793V49.4837L26.5917 47.2201L25.4377 46.5544L23.9375 47.7527L23.4759 50.9484L22.322 53.4782L20.591 54.9429L18.1676 54.5435L15.8596 52.0135L14.244 48.9511L13.3209 46.0217V44.2907L14.244 43.0924H16.8982L18.3984 42.2935L18.86 39.4973L16.8982 38.1658H13.7824L10.8975 40.0298L9.16653 43.3587L7.08933 45.4891L5.47375 46.5544H3.16578L1.5502 48.6848L0.973206 52.6793L2.70418 57.4728L7.08933 66.1277Z" fill="white"/>
<path d="M39.8187 10.3635C39.8187 10.8535 39.8095 11.181 39.821 11.5086C39.8926 13.5858 40.0495 15.6656 40.0241 17.7428C39.9872 20.752 39.8164 23.7613 39.7079 26.7705C39.6918 27.1887 39.6848 27.6147 39.7218 28.0301C39.761 28.4615 39.5994 28.6213 39.2579 28.6932C37.4207 29.0767 35.5697 29.1087 33.7141 29.0101C32.8648 28.9649 32.6178 28.7092 32.4448 27.7505C32.3916 27.4576 32.3663 27.1566 32.3362 26.8557C31.9716 23.0396 32.0224 19.2128 32.0778 15.3833C32.1008 13.8201 32.0501 12.2543 32.0293 10.5899C31.6323 10.5153 31.2838 10.4195 30.933 10.3875C30.3075 10.3289 29.6798 10.3129 29.0543 10.2756C28.7405 10.257 28.4497 10.1159 28.4196 9.74039C28.4012 9.522 28.5397 9.22901 28.6851 9.06124C30.9445 6.4222 33.2156 3.7991 35.4843 1.17068C36.5991 -0.120897 36.6683 -0.104914 37.7208 1.25057C39.7264 3.83373 41.7505 6.39823 43.7676 8.97075C43.8207 9.03727 43.8784 9.09857 43.9292 9.16779C44.3239 9.71105 44.2754 9.99605 43.7122 10.2303C43.4745 10.3316 43.2068 10.3794 42.9529 10.3848C42.2213 10.3981 41.4896 10.3741 40.758 10.3662C40.4742 10.3609 40.1926 10.3635 39.8187 10.3635Z" fill="url(#paint0_radial_123_595)"/>
<path d="M43.1306 9.49259C42.1036 9.57778 41.2312 9.60974 40.3633 9.4846C38.637 9.23694 38.9809 9.68433 39.0409 10.9279C39.1955 14.121 39.3433 17.3139 39.1563 20.5176C39.034 22.624 39.004 24.7358 38.9324 26.845C38.9232 27.1406 38.9047 27.4335 38.8885 27.7664C38.4385 27.8569 38.0323 27.9981 37.6238 28.0141C36.4214 28.0673 35.2189 28.0913 34.0141 28.0886C33.2848 28.086 33.1925 28.0061 33.1464 27.1592C33.0309 25.0501 32.9017 22.941 32.8786 20.8292C32.8394 17.3007 32.8694 13.7695 32.8902 10.2383C32.8924 9.76952 32.7332 9.57248 32.3547 9.54052C31.5007 9.46601 30.6491 9.38604 29.6959 9.30085C32.0847 6.62982 34.3857 4.05467 36.7399 1.42358C38.7732 3.99342 40.8988 6.67776 43.1306 9.49259Z" fill="url(#paint1_radial_123_595)"/>
<path d="M32.7171 25.5429C31.4547 23.9079 28.4312 26.001 28.4312 29.5721C28.4312 33.1433 27.9557 36.9887 30.8107 41.1084C33.668 45.2282 36.366 46.9671 36.4445 47.9764C36.523 48.983 36.2067 57.132 36.2067 57.132L54.2205 56.1253C54.2205 56.1253 52.9511 50.722 53.3481 50.0829C53.745 49.4411 58.2686 41.2016 59.2195 40.4693C60.1727 39.737 62.79 36.8076 63.4246 34.9755C64.0594 33.1433 64.6155 29.6653 63.5031 27.6521C62.393 25.6388 61.202 24.6295 59.8519 24.9065C58.5041 25.1807 56.2007 26.0063 56.2007 26.0063L51.2017 22.7095C51.2017 22.7095 51.5202 18.9546 48.7413 16.4833C45.9648 14.0119 43.4238 13.4607 41.2035 14.1931C38.9809 14.9254 38.1893 16.9386 38.427 18.0385C38.6647 19.1383 38.8494 19.9239 40.3311 19.8707C42.7914 19.7801 45.9648 21.5191 45.4086 26.3712C44.8524 31.2232 43.5045 33.1459 41.7574 34.52C40.0126 35.8942 39.5349 36.8103 38.4247 36.6265C37.3145 36.4428 34.4573 35.5267 33.7418 32.9648C33.0333 30.395 33.6933 26.8105 32.7171 25.5429Z" fill="white"/>
<path d="M19.1393 50.0136C18.6361 49.654 18.5046 49.0921 18.5023 48.4584C18.5 47.8245 18.4954 47.1934 18.5046 46.5596C18.5484 43.4545 18.5946 40.3493 18.6408 37.2442C18.643 37.1537 18.643 37.0632 18.643 36.9726C18.6384 35.8461 18.6223 35.8249 17.6437 35.7636C17.5399 35.7583 17.4337 35.7583 17.3322 35.7397C16.7713 35.6384 16.6351 35.3136 16.9051 34.7197C16.979 34.5599 17.0713 34.4108 17.1706 34.2723C18.4192 32.528 19.6586 30.7784 20.9233 29.0501C21.408 28.387 21.7427 28.395 22.105 29.0367C23.2013 30.9808 24.2838 32.9381 25.3708 34.8901C25.4124 34.9673 25.4585 35.0419 25.4954 35.1191C25.7978 35.7662 25.5993 36.1764 24.9715 36.1764C24.6899 36.1764 24.4084 36.1417 24.0298 36.1152C24.0322 37.0259 24.0229 37.8568 24.0391 38.685C24.0668 39.9499 24.1384 41.2148 24.1499 42.4798C24.1637 44.1682 24.1453 45.8565 24.1245 47.5449C24.1153 48.3891 24.0968 49.2386 23.6929 49.9922C22.802 49.9949 21.9135 49.9976 21.0226 50.0029C20.7087 49.8085 20.3948 49.8138 20.0809 50.0056C19.767 50.0109 19.4531 50.0136 19.1393 50.0136Z" fill="black"/>
<path d="M24.6114 35.2176C24.2722 35.199 24.0783 35.191 23.8821 35.1776C23.2751 35.1404 23.1528 35.2629 23.1367 35.9979C23.1251 36.5704 23.1321 37.143 23.1482 37.7182C23.2105 39.9472 23.2913 42.1788 23.3398 44.4077C23.3675 45.6754 23.3513 46.943 23.3374 48.2106C23.3282 48.9775 23.2775 49.0574 22.615 49.0467C21.6019 49.0308 20.5887 48.9536 19.5154 48.8976C19.4508 48.4635 19.3562 48.1147 19.3562 47.7712C19.3585 45.6594 19.3862 43.5502 19.3977 41.4385C19.407 39.6276 19.4139 37.8167 19.4023 36.0059C19.3977 35.2362 19.2523 35.0818 18.5715 34.9753C18.3661 34.9433 18.156 34.9326 17.7245 34.8901C19.0284 33.0845 20.224 31.4307 21.4934 29.6731C22.4951 31.6198 23.6652 33.2416 24.6114 35.2176Z" fill="black"/>
<path opacity="0.4" d="M18.6707 55.0253C20.4524 55.6751 21.6849 54.4768 22.4789 53.0121C23.2728 51.5474 23.2728 48.0668 24.2237 47.2439C25.1769 46.421 25.89 46.2373 26.684 47.2439C27.4779 48.2505 28.1126 49.9896 27.7941 52.4635C27.4756 54.9348 27.0809 56.6765 25.8093 58.0479C24.5399 59.422 22.2388 60.4287 22.0795 62.7163C21.9203 65.0064 22.2388 70.7746 22.2388 70.7746L6.92312 70.8652C6.92312 70.8652 7.47935 66.6522 7.00159 65.8293C6.52615 65.0064 1.92406 56.1252 1.52708 54.7511C1.13011 53.377 0.416952 50.0827 1.68633 48.16C2.95572 46.2373 5.1783 46.2373 5.1783 46.2373L6.92312 45.7792L9.14568 43.2148C9.14568 43.2148 10.0181 40.0111 11.7652 39.0018C13.5101 37.9952 15.4165 37.7209 16.4481 38.0858C17.4798 38.4533 18.433 38.9086 18.5115 40.376C18.5899 41.8407 18.2737 43.2148 15.9727 43.3053C13.6717 43.3958 13.1154 43.3053 13.2747 45.1375C13.4339 46.9697 14.7817 51.2731 15.8134 52.4608C16.8474 53.6512 17.1636 54.4768 18.6707 55.0253Z" fill="white"/>
<path d="M6.76624 73.6534C6.4662 73.2513 6.4662 72.772 6.50082 72.2819C6.6093 70.7188 6.75008 69.1582 6.80547 67.5923C6.82394 67.0438 6.727 66.4312 6.51698 65.9439C5.93768 64.5937 5.28913 63.2809 4.63598 61.976C3.98282 60.671 3.32274 59.3662 2.60497 58.1039C1.65639 56.4315 0.996307 54.6339 0.802438 52.6553C0.659346 51.2066 0.777052 49.7339 1.33558 48.4024C2.01182 46.7913 3.27197 46.035 4.75369 45.9258C5.51993 45.8699 6.1777 45.6569 6.81009 45.2148C6.94164 45.1216 7.09166 45.0337 7.18397 44.8979C7.71944 44.1123 8.2641 43.3506 9.0027 42.7914C9.17805 42.6582 9.27499 42.3599 9.365 42.115C9.90047 40.6636 10.6113 39.38 11.8969 38.677C13.3648 37.8754 14.8949 37.4174 16.5359 37.7556C16.8428 37.8195 17.1452 37.9314 17.436 38.0618C18.9685 38.7516 19.3631 40.0937 18.9962 41.7901C18.8 42.7035 18.2022 43.2335 17.436 43.3773C16.7205 43.5104 15.9589 43.6249 15.2572 43.4838C14.1749 43.2654 13.5609 44.2001 13.7363 45.4305C14.1356 48.2134 15.1419 50.6686 16.7759 52.7618C17.1544 53.2465 17.6391 53.6406 18.1168 54.0028C19.2985 54.9003 20.5725 54.5833 21.5188 53.6433C22.5366 52.6287 23.0397 51.2918 23.2105 49.7713C23.2544 49.3824 23.2959 48.9936 23.3305 48.6021C23.4021 47.7952 23.7667 47.2014 24.3184 46.7274C25.2785 45.9018 26.2524 46.003 27.0164 47.0842C27.8911 48.3225 28.3296 49.7845 28.2996 51.3637C28.2488 53.9761 27.4965 56.3409 26.047 58.3569C25.2646 59.4461 24.4107 60.474 23.5291 61.462C22.8274 62.2476 22.4697 63.1024 22.4951 64.2608C22.5459 66.7055 22.5089 69.1502 22.5066 71.5949C22.5066 71.8053 22.5089 72.0183 22.4974 72.2287C22.4836 72.5429 22.4282 72.8971 22.1073 72.9078C21.7334 72.9211 21.6826 72.5456 21.6619 72.1967C21.6573 72.1062 21.6504 72.0156 21.6504 71.9251C21.6619 69.2993 21.6642 66.6736 21.6896 64.0478C21.7012 62.916 22.045 61.9413 22.7628 61.1318C23.3975 60.4154 24.0114 59.6671 24.5953 58.8948C25.7608 57.3609 26.7486 55.6965 27.1664 53.6752C27.358 52.7405 27.4641 51.7898 27.4065 50.7805C25.8439 50.4583 25.0939 49.3185 24.9092 47.5609C24.3807 47.7553 24.1798 48.1894 24.0922 48.7033C24.0114 49.1774 23.9791 49.6594 23.9214 50.1388C23.7529 51.5129 23.289 52.7219 22.5505 53.835C21.4957 55.4222 19.0123 56.0533 17.316 54.5887C16.132 53.5661 15.3057 52.2319 14.5856 50.7885C13.7986 49.2066 13.2539 47.505 12.9955 45.7048C12.9193 45.1641 12.9701 44.5544 13.1086 44.0271C13.3739 43.0125 13.8794 42.6476 14.8049 42.6343C15.4857 42.6236 16.1689 42.6742 16.8452 42.6103C17.9668 42.5064 18.4654 41.7102 18.2369 40.4213C18.073 40.4053 17.8953 40.376 17.7176 40.376C16.8844 40.3707 16.2266 39.9552 15.8573 39.1164C15.6127 38.5545 15.2619 38.4986 14.8303 38.5625C11.8161 39.0099 9.9305 40.8873 9.6397 44.786C9.52891 46.256 9.75966 47.6727 10.2282 49.0389C10.3436 49.3744 10.4567 49.7153 10.5467 50.0615C10.6506 50.4663 10.5421 50.7619 10.0621 50.9297C9.61426 49.8777 9.17805 48.8152 9.03039 47.6594C8.88725 46.5357 8.89417 45.3852 8.83419 44.2667C8.13947 44.6236 7.4771 45.8566 7.39168 46.9697C7.28323 48.3891 7.53709 49.7313 8.00099 51.0308C8.04027 51.1427 8.09566 51.2466 8.13721 51.3584C8.25258 51.662 8.43027 52.0268 8.06097 52.2159C7.71711 52.3943 7.53249 52.0295 7.41246 51.7366C6.86778 50.413 6.56544 49.0149 6.54698 47.5423C6.54236 47.2493 6.54698 46.9564 6.54698 46.5223C5.72996 46.9138 5.27067 47.473 5.0768 48.3572C4.79292 49.6567 4.95679 50.935 5.18066 52.2132C5.22682 52.4796 5.33299 52.7432 5.32606 53.0042C5.32145 53.1719 5.18758 53.4356 5.06757 53.4728C4.94756 53.5102 4.68214 53.361 4.63829 53.2279C4.31748 52.2479 3.96436 51.2652 3.77511 50.2479C3.68741 49.7713 3.89743 49.1933 4.04975 48.6927C4.22055 48.1361 4.47904 47.6168 4.70291 47.0655C4.56443 46.9777 4.4975 46.8978 4.43749 46.9058C3.10118 47.0842 2.00027 48.3572 1.75563 49.8857C1.31481 52.626 1.97489 55.0786 3.1658 57.4009C4.21824 59.4514 5.28221 61.4966 6.33003 63.5498C6.67392 64.2236 7.00626 64.9107 7.30167 65.6137C7.44708 65.9598 7.54634 66.3513 7.57863 66.7348C7.76791 68.9105 7.44941 71.0703 7.36399 73.2379C7.3594 73.3817 7.28323 73.5229 7.23936 73.6667C7.08012 73.6534 6.92318 73.6534 6.76624 73.6534ZM26.0332 47.4065C25.6662 48.4371 26.1809 49.4038 27.1549 49.4437C26.8779 48.6581 26.744 47.8592 26.0332 47.4065ZM16.7898 38.7329C16.7597 38.7915 16.7298 38.8474 16.7021 38.906C16.9352 39.191 17.1798 39.4466 17.6276 39.1963C17.3483 39.0419 17.069 38.8874 16.7898 38.7329Z" fill="black"/>
<path d="M51.9633 23.6043C52.4249 26.2487 52.3787 28.664 51.7187 31.0368C51.6402 31.3164 51.5317 31.5827 51.4348 31.8623C50.964 31.8197 50.8485 31.5294 50.8739 31.1193C50.8809 31.0021 50.9201 30.885 50.9547 30.7704C51.5802 28.8185 51.6217 26.8265 51.3193 24.7946C51.0839 23.2128 50.7862 21.6522 50.2069 20.1848C49.0829 17.3434 47.1511 15.5831 44.594 14.6883C44.3216 14.5924 44.0262 14.5924 43.74 14.5552C43.1307 14.4726 42.6899 14.6218 42.2998 15.3062C41.6605 16.4273 40.7073 17.0291 39.4794 16.8348C39.3548 16.8161 39.2233 16.8454 39.0894 16.8534C38.8309 17.4605 38.9117 18.0598 39.0848 18.627C39.2856 19.2847 39.6018 19.4418 40.2457 19.306C40.9635 19.1542 41.6444 19.2421 42.3044 19.6283C43.3245 20.2275 44.2154 21.0158 44.9009 22.065C45.7618 23.3859 45.9279 24.9597 45.8864 26.5416C45.8264 28.7785 45.1756 30.7785 43.9477 32.5414C42.8053 34.1819 41.5312 35.6252 39.948 36.6958C39.1148 37.2603 38.2309 37.2869 37.37 36.9594C34.9674 36.0406 33.4233 34.1578 32.9664 31.2525C32.7956 30.1632 32.851 29.0315 32.7933 27.9184C32.7702 27.4683 32.7425 27.0156 32.6732 26.5708C32.6409 26.3605 32.5094 26.1714 32.3478 25.8013C31.8401 27.9157 30.9723 29.3537 28.9321 29.4442C28.8905 30.094 28.782 30.7811 28.8189 31.4575C28.9505 33.9181 29.4929 36.2643 30.3238 38.5385C31.5078 41.7875 33.2595 44.5411 35.7128 46.6183C36.763 47.5077 37.2015 48.3865 36.9107 49.9231C36.5437 51.8698 36.6545 53.8804 36.6984 55.8777C36.7514 58.2584 36.7053 60.6418 36.643 63.0225C36.5668 65.9466 36.4307 68.8707 36.3152 71.792C36.306 72.0317 36.3199 72.3033 36.2252 72.4977C36.1399 72.6734 35.9298 72.8412 35.7613 72.8625C35.6644 72.8758 35.4843 72.6095 35.4405 72.4364C35.3828 72.2154 35.4151 71.9598 35.4267 71.7201C35.5375 69.7015 35.7152 67.6856 35.7567 65.667C35.8513 61.1132 35.8721 56.554 35.9482 52.0002C35.9644 51.0389 36.0291 50.0696 36.1652 49.1241C36.246 48.5623 36.1375 48.2347 35.7567 47.8965C34.2565 46.5703 32.911 45.055 31.7201 43.356C30.4807 41.5851 29.7998 39.4866 29.1005 37.4094C28.3158 35.0819 27.8911 32.6665 28.085 30.1447C28.175 28.9569 28.4543 27.8224 28.9066 26.7653C29.6498 25.0316 31.053 24.6801 32.3409 24.9091C33.0518 25.0369 33.4718 25.7852 33.5018 26.8158C33.5387 27.9929 33.5157 29.1753 33.6195 30.3417C33.8295 32.7092 34.9328 34.4188 36.6914 35.6092C37.2707 36.0007 37.9055 36.1738 38.5586 36.227C38.8056 36.2457 39.0894 36.1791 39.3063 36.0433C41.4436 34.725 43.0961 32.8024 44.227 30.355C45.231 28.1846 45.3279 25.8491 44.6793 23.5003C44.5708 23.1115 44.3539 22.736 44.1185 22.4272C43.4353 21.5324 42.6068 20.8266 41.649 20.3926C41.2612 20.2169 40.7789 20.2142 40.3565 20.2807C39.3595 20.4379 38.7617 20.089 38.3832 19.0025C37.7185 17.0984 38.4732 15.0106 40.1372 14.1984C41.4551 13.5538 42.8491 13.4687 44.227 13.7243C47.4904 14.3342 49.6645 16.5977 51.0493 19.9745C51.1393 20.1928 51.2247 20.4192 51.2686 20.6509C51.4878 21.8386 51.8317 22.8772 53.0457 23.1488C53.3019 23.2047 53.5535 23.479 53.7381 23.7214C54.4328 24.6295 55.4506 24.9677 56.1984 25.716C58.451 23.9877 60.5905 24.0889 62.6676 25.9716C63.9232 27.1088 64.334 28.6774 64.424 30.4323C64.5902 33.6093 63.4085 36.1605 61.6729 38.4613C61.3291 38.9167 60.9621 39.3534 60.5651 39.7422C59.4181 40.8687 58.4972 42.2082 57.6594 43.6436C56.4754 45.6702 55.259 47.6728 54.0335 49.6674C53.7243 50.168 53.6227 50.6261 53.7312 51.2546C54.2643 54.3304 54.7836 57.4089 55.2337 60.5007C55.6699 63.5046 56.0184 66.5272 56.4061 69.5391C56.4131 69.5976 56.4223 69.6589 56.4246 69.7201C56.4315 70.0584 56.45 70.4498 56.0715 70.5057C55.6468 70.5697 55.6653 70.1276 55.626 69.8187C55.4183 68.1463 55.2544 66.4659 55.0167 64.7988C54.5666 61.6138 54.0797 58.4368 53.602 55.2571C53.4012 53.9203 53.2026 52.5808 52.958 51.2546C52.8242 50.5302 52.9049 49.9204 53.2835 49.2999C54.8529 46.7381 56.3646 44.1256 57.964 41.5851C58.5271 40.6903 59.2519 39.9234 59.9558 39.159C61.3498 37.6465 62.4415 35.9048 63.1408 33.8409C63.6947 32.2085 63.7109 30.5414 63.36 28.861C63.0207 27.2339 61.4952 25.7027 59.995 25.4763C59.2657 25.3672 58.5271 25.3645 57.8278 25.6867C57.5255 25.8252 57.2531 26.0542 56.9208 26.2699C57.3409 27.0875 57.6709 27.7586 58.4994 27.9823C59.3557 28.2113 59.7042 28.9037 59.725 29.9422C59.7457 31.1087 59.3372 32.1153 58.8226 33.074C58.5756 33.5294 58.2456 33.9208 58.1602 34.4881C58.1164 34.781 57.9271 35.0233 57.6616 34.8769C57.5301 34.805 57.4147 34.4907 57.4309 34.3016C57.5486 32.9169 57.6109 31.5375 57.4586 30.1474C57.2855 28.5735 56.7546 27.2499 55.5684 26.3578C55.4853 26.2939 55.3906 26.2486 55.206 26.1394C55.3306 26.925 55.4506 27.6121 55.5498 28.3019C55.7645 29.8251 55.6191 31.3111 55.176 32.7598C55.1067 32.9861 55.0214 33.2098 54.9059 33.4095C54.7559 33.6706 54.4974 33.769 54.3013 33.5613C54.1951 33.4495 54.1535 33.0953 54.2251 32.9382C54.8483 31.5667 54.9359 30.1047 54.779 28.616C54.6336 27.2553 54.3035 25.9557 53.5512 24.8505C53.1888 24.3232 52.7434 23.9318 51.9633 23.6043ZM31.2908 25.9051C30.3445 25.9823 29.3936 27.0529 29.3498 28.0488C29.3359 28.3764 29.5229 28.5388 29.8091 28.4003C30.3792 28.1234 30.7946 27.6254 31.1361 27.0475C31.3254 26.7253 31.4916 26.3738 31.2908 25.9051ZM58.3864 31.6919C58.7949 31.106 58.901 30.4403 58.878 29.7479C58.8618 29.2206 58.5964 28.9516 58.1071 28.8371C58.204 29.8251 58.2964 30.7598 58.3864 31.6919ZM41.7505 14.6351C40.7927 14.7816 40.0934 15.0745 39.5002 15.9586C40.5573 16.0651 41.1574 15.5618 41.7505 14.6351Z" fill="black"/>
<path d="M5.55225 71.7014C5.63995 71.2673 5.74381 70.8359 5.80843 70.3992C5.90999 69.7254 5.96768 69.6642 6.55852 69.6508C8.90803 69.5949 11.2599 69.5976 13.6048 69.4538C15.8689 69.3153 18.1261 69.0251 20.3879 68.796C21.0456 68.7295 21.6872 68.7694 22.3173 69.0384C22.7074 69.2061 22.9359 69.5017 22.9612 69.9624C23.019 70.985 23.0836 72.0076 23.0836 73.0329C23.0813 73.7812 22.8597 74.0049 22.0589 74.0848C20.9926 74.1914 19.9216 74.234 18.8531 74.3005C17.0298 74.4151 15.2042 74.5269 13.3809 74.6467C13.2285 74.6574 13.0808 74.7373 12.9308 74.7826C11.1514 74.7826 9.37193 74.7826 7.59248 74.7826C6.91164 74.5402 6.23079 74.3005 5.55225 74.0582C5.55225 73.2726 5.55225 72.487 5.55225 71.7014Z" fill="url(#paint2_radial_123_595)"/>
<path d="M34.628 68.4258C34.7734 65.7467 34.9303 63.0704 35.0573 60.3914C35.0965 59.5791 35.048 58.7642 35.0573 57.9493C35.0619 57.5898 35.1011 57.2276 35.1381 56.8681C35.1889 56.3835 35.4243 56.1118 35.8558 56.0719C38.2492 55.8509 40.6402 55.5366 43.0382 55.4355C45.0946 55.3476 47.1603 55.5207 49.2236 55.5446C50.8184 55.5633 52.4132 55.5366 54.008 55.5154C54.7766 55.5047 54.9428 55.6751 55.0766 56.5699C55.7228 60.8761 56.383 65.1795 57.0291 69.4857C57.1907 70.5535 57.3199 71.6294 57.4677 72.7026C57.5323 73.1819 57.4215 73.5441 56.9899 73.6932C56.5929 73.8291 56.196 74.0235 55.7898 74.0554C53.8095 74.2099 51.8293 74.4043 49.8468 74.4229C48.0743 74.4389 46.304 74.2019 44.5292 74.1486C43.0406 74.1007 41.5496 74.1406 40.061 74.1673C38.5446 74.1939 37.0306 74.2711 35.5165 74.2871C34.8819 74.2925 34.6072 73.9596 34.5749 73.1314C34.5426 72.2606 34.5841 71.3818 34.6142 70.5083C34.6372 69.8159 34.6903 69.1235 34.7319 68.4311C34.6949 68.4311 34.6603 68.4284 34.628 68.4258Z" fill="url(#paint3_radial_123_595)"/>
<path d="M8.17407 14.0333C8.30103 13.8895 8.45103 13.7643 8.55263 13.5992C9.63043 11.8576 10.7013 10.1106 11.7768 8.36631C11.8669 8.21982 11.9499 8.06005 12.0561 7.92956C12.37 7.54875 12.6677 7.54875 13.0024 7.92157C13.0947 8.02543 13.1662 8.15591 13.2516 8.27044C14.6503 10.1 16.0535 11.9242 17.4429 13.767C17.5814 13.9507 17.7407 14.2756 17.6853 14.4434C17.6275 14.6218 17.3275 14.7683 17.1221 14.7896C16.6582 14.8402 16.1874 14.8056 15.6265 14.8056C15.6081 15.1438 15.5688 15.4314 15.5827 15.7136C15.6704 17.5485 15.7719 19.3806 15.8665 21.2155C15.8781 21.4552 15.8989 21.6975 15.8966 21.9372C15.8896 22.6748 15.6519 23.1595 15.0495 23.2528C14.124 23.3939 13.1801 23.4365 12.2453 23.4178C11.6845 23.4072 11.3707 22.9145 11.2852 22.2861C11.2206 21.812 11.1952 21.3274 11.1629 20.848C11.0429 19.1676 10.9321 17.4846 10.8029 15.8042C10.7452 15.0532 10.6852 15.0053 10.032 14.9919C9.77124 14.9866 9.50813 14.9759 9.24961 15.0026C8.83184 15.0452 8.47872 14.9014 8.1764 14.5739C8.17407 14.3954 8.17407 14.2144 8.17407 14.0333Z" fill="url(#paint4_radial_123_595)"/>
<path d="M16.3559 13.8201C16.3351 13.8733 16.3121 13.9292 16.2913 13.9852C16.0212 13.9452 15.7535 13.9027 15.4834 13.8627C14.9226 13.7801 14.7449 13.9212 14.7518 14.5658C14.7634 15.9212 14.8003 17.2767 14.8534 18.6295C14.8903 19.5909 14.9803 20.5496 15.0219 21.5109C15.0519 22.2087 15.0104 22.3178 14.408 22.4111C13.794 22.5096 13.1617 22.4776 12.5385 22.4883C12.2408 22.4936 12.1461 22.2486 12.1162 21.953C12.0169 20.997 11.9061 20.0409 11.8254 19.0849C11.703 17.6761 11.613 16.2647 11.4907 14.856C11.426 14.1264 11.2806 13.9985 10.6275 14.0225C10.3944 14.0305 10.1636 14.0917 9.9282 14.1104C9.72741 14.1264 9.52662 14.113 9.21271 14.113C10.332 12.2995 11.3961 10.5738 12.5062 8.77625C13.8264 10.5046 15.0911 12.1636 16.3559 13.8201Z" fill="url(#paint5_radial_123_595)"/>
</g>
<defs>
<radialGradient id="paint0_radial_123_595" cx="0" cy="0" r="1" gradientUnits="userSpaceOnUse" gradientTransform="translate(36.3024 29.0576) rotate(-90) scale(14.692 7.28334)">
<stop stop-color="#587EDB"/>
<stop offset="1" stop-color="#1445C2"/>
</radialGradient>
<radialGradient id="paint1_radial_123_595" cx="0" cy="0" r="1" gradientUnits="userSpaceOnUse" gradientTransform="translate(36.4133 28.0888) rotate(-90) scale(13.5842 6.20525)">
<stop stop-color="#587EDB"/>
<stop offset="1" stop-color="#1445C2"/>
</radialGradient>
<radialGradient id="paint2_radial_123_595" cx="0" cy="0" r="1" gradientUnits="userSpaceOnUse" gradientTransform="translate(14.3179 74.7826) rotate(-90) scale(3.06411 8.09741)">
<stop stop-color="#587EDB"/>
<stop offset="1" stop-color="#1445C2"/>
</radialGradient>
<radialGradient id="paint3_radial_123_595" cx="0" cy="0" r="1" gradientUnits="userSpaceOnUse" gradientTransform="translate(46.0239 74.4237) rotate(-90) scale(9.68584 10.587)">
<stop stop-color="#587EDB"/>
<stop offset="1" stop-color="#1445C2"/>
</radialGradient>
<radialGradient id="paint4_radial_123_595" cx="0" cy="0" r="1" gradientUnits="userSpaceOnUse" gradientTransform="translate(12.9353 23.422) rotate(-90) scale(8.03837 4.39826)">
<stop stop-color="#587EDB"/>
<stop offset="1" stop-color="#1445C2"/>
</radialGradient>
<radialGradient id="paint5_radial_123_595" cx="0" cy="0" r="1" gradientUnits="userSpaceOnUse" gradientTransform="translate(12.7843 22.4884) rotate(-90) scale(6.98542 3.29929)">
<stop stop-color="#587EDB"/>
<stop offset="1" stop-color="#1445C2"/>
</radialGradient>
<clipPath id="clip0_123_595">
<rect width="65" height="75" fill="white" transform="translate(0.0924072)"/>
</clipPath>
</defs>
</svg>
