<svg width="66" height="75" viewBox="0 0 66 75" fill="none" xmlns="http://www.w3.org/2000/svg">
<g clip-path="url(#clip0_123_461)">
<path d="M41.9056 25.04C41.9056 25.9264 41.4716 28.3225 41.4716 28.3225" stroke="url(#paint0_radial_123_461)" stroke-width="1.6" stroke-linecap="round" stroke-linejoin="round"/>
<path d="M43.5584 28.8348C44.4817 27.3621 47.6442 21.268 47.6442 21.268" stroke="url(#paint1_radial_123_461)" stroke-width="1.6" stroke-linecap="round" stroke-linejoin="round"/>
<path d="M0.927645 13.6354C0.927645 13.6354 0.949895 45.9211 0.927645 48.9086C0.905397 51.8962 1.06558 55.7048 1.95989 58.7239C2.85422 61.7431 6.80525 61.5979 8.9543 61.6294C11.1033 61.661 22.5293 61.6294 22.5293 61.6294" fill="white"/>
<path d="M0.927645 13.6354C0.927645 13.6354 0.949895 45.9211 0.927645 48.9086C0.905397 51.8962 1.06558 55.7049 1.95989 58.7239C2.85422 61.7431 6.80525 61.5979 8.9543 61.6294C11.1033 61.661 22.5293 61.6294 22.5293 61.6294" stroke="black" stroke-width="1.6" stroke-linecap="round" stroke-linejoin="round"/>
<path d="M0.969519 25.2371C0.969519 25.2371 0.870972 15.5581 0.969519 13.0343C1.06806 10.5106 0.856894 7.01201 1.95966 4.06144C3.06242 1.11613 6.58188 0.747304 11.115 0.847413C15.648 0.947521 24.6061 1.58506 28.5621 1.6641C32.5179 1.74313 35.3851 1.33742 37.234 2.5598C39.0829 3.78218 39.4489 6.1848 39.3034 10.911C39.158 15.6371 38.8295 31.2384 38.8295 31.2384" fill="white"/>
<path d="M0.969519 25.2371C0.969519 25.2371 0.870972 15.5581 0.969519 13.0343C1.06806 10.5106 0.856894 7.01201 1.95966 4.06144C3.06242 1.11613 6.58188 0.747304 11.115 0.847413C15.648 0.947521 24.6061 1.58506 28.5621 1.6641C32.5179 1.74313 35.3851 1.33742 37.234 2.5598C39.0829 3.78218 39.4489 6.1848 39.3034 10.911C39.158 15.6371 38.8295 31.2384 38.8295 31.2384" stroke="black" stroke-width="1.6" stroke-linecap="round" stroke-linejoin="round"/>
<path d="M21.0289 6.43558C21.6753 6.41712 25.9734 6.58332 26.6475 6.53253" stroke="black" stroke-width="1.6" stroke-linecap="round" stroke-linejoin="round"/>
<path d="M16.9289 6.44307C17.0397 6.48 16.9566 7.00631 16.6658 6.91859C16.3749 6.83087 16.6934 6.36458 16.9289 6.44307Z" stroke="black" stroke-width="1.6" stroke-linecap="round" stroke-linejoin="round"/>
<path d="M0.92572 9.63483C0.92572 9.63483 3.75145 9.71833 6.54421 9.80183C9.33697 9.88524 15.0026 10.261 17.2302 10.3027C19.4578 10.3445 26.3902 10.8872 28.114 10.8037C29.8376 10.7202 39.3321 11.2351 39.3321 11.2351" stroke="black" stroke-width="1.6" stroke-linecap="round" stroke-linejoin="round"/>
<path d="M19.6019 32.9162C19.6019 32.9162 21.1116 32.2144 25.0912 31.7343C29.0708 31.2541 34.4124 31.7804 36.1344 31.7343C37.8565 31.6881 40.9867 31.5773 42.0762 32.9162C43.1658 34.255 42.3855 38.8579 42.5286 41.5033C42.6718 44.1487 42.5748 48.65 44.4123 50.4229" fill="white"/>
<path d="M19.6019 32.9162C19.6019 32.9162 21.1116 32.2144 25.0912 31.7343C29.0708 31.2541 34.4124 31.7804 36.1344 31.7343C37.8565 31.6881 40.9867 31.5773 42.0762 32.9162C43.1658 34.255 42.3855 38.8579 42.5286 41.5033C42.6718 44.1487 42.5748 48.65 44.4123 50.4229" stroke="black" stroke-width="1.6" stroke-linecap="round" stroke-linejoin="round"/>
<path d="M31.721 50.8613C31.721 50.8613 36.1254 50.4597 38.2075 50.4228C40.2897 50.3858 50.7836 50.7737 52.7456 50.7413C54.7078 50.709 56.6284 50.4828 57.6902 51.974C58.7521 53.4652 57.9256 57.4356 58.512 61.4614C59.4907 68.1972 64.0706 74.1667 64.0706 74.1667H41.9056C36.661 70.6533 34.0895 62.9757 33.9832 56.6969C33.9555 55.2288 33.854 51.0183 31.721 50.8568C29.5881 50.6952 28.3831 53.3405 27.9215 56.8678C27.4598 60.3949 26.9473 62.8926 25.2899 62.6987C23.6325 62.5048 23.5263 59.527 23.4201 58.5021C23.314 57.4772 23.1385 51.0783 23.1385 48.8669C23.1385 46.6555 23.5217 37.2097 22.5475 34.8228C21.5735 32.4359 19.5375 32.2974 18.194 33.8718C16.8505 35.4461 16.7351 38.3453 16.412 41.157C16.0888 43.9686 15.9272 47.2649 13.9789 47.2418C12.0306 47.2188 12.2291 42.0711 12.1045 40.8015C11.9799 39.5318 12.2615 32.5098 12.3123 30.797C12.363 29.0842 12.8109 21.6051 12.8109 21.6051C15.1239 21.5173 33.817 22.2422 34.6295 22.2145L34.7727 31.4757" fill="white"/>
<path d="M31.721 50.8613C31.721 50.8613 36.1254 50.4597 38.2075 50.4228C40.2897 50.3858 50.7835 50.7737 52.7456 50.7413C54.7078 50.709 56.6284 50.4828 57.6902 51.974C58.7521 53.4652 57.9256 57.4356 58.512 61.4614C59.4907 68.1972 64.0706 74.1667 64.0706 74.1667H41.9056C36.661 70.6533 34.0895 62.9757 33.9832 56.6969C33.9555 55.2288 33.854 51.0183 31.721 50.8568C29.5881 50.6952 28.3831 53.3405 27.9215 56.8678C27.4598 60.3949 26.9473 62.8926 25.2899 62.6987C23.6325 62.5048 23.5263 59.527 23.4201 58.5021C23.314 57.4772 23.1385 51.0783 23.1385 48.8669C23.1385 46.6555 23.5217 37.2097 22.5475 34.8228C21.5735 32.4359 19.5375 32.2974 18.194 33.8718C16.8505 35.4461 16.7351 38.3453 16.412 41.157C16.0888 43.9686 15.9272 47.2649 13.9789 47.2418C12.0306 47.2188 12.2291 42.0711 12.1045 40.8015C11.9799 39.5318 12.2615 32.5098 12.3123 30.797C12.363 29.0842 12.8109 21.6051 12.8109 21.6051C15.1239 21.5173 33.817 22.2422 34.6295 22.2145L34.7727 31.4757" stroke="black" stroke-width="1.6" stroke-linecap="round" stroke-linejoin="round"/>
<path d="M1.24127 54.6334C1.24127 54.6334 4.36681 54.6795 5.58101 54.6334C6.79521 54.5872 12.0536 54.6241 13.965 54.6518C15.8763 54.6795 23.2493 54.6518 23.2493 54.6518" stroke="black" stroke-width="1.6" stroke-linecap="round" stroke-linejoin="round"/>
<path d="M13.9742 47.2465C14.519 47.3388 21.4811 47.071 23.1662 46.9741" stroke="black" stroke-width="1.6" stroke-linecap="round" stroke-linejoin="round"/>
<path d="M25.29 62.7033C25.29 62.7033 27.7599 63.0866 29.542 63.105C31.3241 63.1235 34.5511 63.105 34.5511 63.105" stroke="black" stroke-width="1.6" stroke-linecap="round" stroke-linejoin="round"/>
<path d="M15.5901 24.4076H19.0711" stroke="url(#paint2_radial_123_461)" stroke-width="1.6" stroke-linecap="round" stroke-linejoin="round"/>
<path d="M15.4099 27.9115C16.4163 27.9392 25.0634 27.7268 25.0634 27.7268" stroke="url(#paint3_radial_123_461)" stroke-width="1.6" stroke-linecap="round" stroke-linejoin="round"/>
<path d="M15.3282 30.4382C16.9132 30.4382 30.5307 30.4382 30.5307 30.4382" stroke="url(#paint4_radial_123_461)" stroke-width="1.6" stroke-linecap="round" stroke-linejoin="round"/>
<path d="M25.516 36.1478C26.8364 36.1293 31.2777 36.2263 32.7689 36.1478" stroke="url(#paint5_radial_123_461)" stroke-width="1.6" stroke-linecap="round" stroke-linejoin="round"/>
<path d="M35.0726 36.1478C35.4605 36.1987 39.3477 36.1663 39.3477 36.1663" stroke="url(#paint6_radial_123_461)" stroke-width="1.6" stroke-linecap="round" stroke-linejoin="round"/>
<path d="M25.8071 40.5614C26.652 40.5614 28.374 40.6076 30.4885 40.5614C32.603 40.5153 38.4108 40.3722 39.3434 40.4184" stroke="url(#paint7_radial_123_461)" stroke-width="1.6" stroke-linecap="round" stroke-linejoin="round"/>
<path d="M26.3379 45.0074C27.1781 44.9889 30.1652 44.9705 31.758 45.0074C33.3507 45.0443 39.3479 44.9843 39.3479 44.9843" stroke="url(#paint8_radial_123_461)" stroke-width="1.6" stroke-linecap="round" stroke-linejoin="round"/>
<path d="M54.4587 60.0765C54.4587 60.0765 50.0035 58.0036 49.5695 61.0553C49.0248 64.8779 56.0145 63.1235 55.8622 66.3691C55.7098 69.6147 51.37 69.6793 49.9712 67.5464" stroke="url(#paint9_radial_123_461)" stroke-width="1.6" stroke-linecap="round" stroke-linejoin="round"/>
<path d="M51.7576 57.4033C51.7576 57.4033 52.3116 60.3534 52.464 62.3802C52.6163 64.4069 53.5074 69.5362 53.8767 71.0135" stroke="url(#paint10_radial_123_461)" stroke-width="1.6" stroke-linecap="round" stroke-linejoin="round"/>
<path d="M37.1825 54.6656C37.8657 54.6656 42.0162 54.7579 43.6136 54.6656C45.211 54.5733 49.089 54.7071 49.089 54.7071" stroke="url(#paint11_radial_123_461)" stroke-width="1.6" stroke-linecap="round" stroke-linejoin="round"/>
<path d="M37.1825 59.1716C38.1843 59.1716 41.9562 58.9316 43.7706 59.1716" stroke="url(#paint12_radial_123_461)" stroke-width="1.6" stroke-linecap="round" stroke-linejoin="round"/>
</g>
<defs>
<radialGradient id="paint0_radial_123_461" cx="0" cy="0" r="1" gradientUnits="userSpaceOnUse" gradientTransform="translate(41.6886 28.3225) rotate(-90) scale(1.67222 0.200457)">
<stop stop-color="#587EDB"/>
<stop offset="1" stop-color="#1445C2"/>
</radialGradient>
<radialGradient id="paint1_radial_123_461" cx="0" cy="0" r="1" gradientUnits="userSpaceOnUse" gradientTransform="translate(45.6013 28.8348) rotate(-90) scale(3.8548 1.88717)">
<stop stop-color="#587EDB"/>
<stop offset="1" stop-color="#1445C2"/>
</radialGradient>
<radialGradient id="paint2_radial_123_461" cx="0" cy="0" r="1" gradientUnits="userSpaceOnUse" gradientTransform="translate(17.3306 25.4076) rotate(-90) scale(0.509434 1.60781)">
<stop stop-color="#587EDB"/>
<stop offset="1" stop-color="#1445C2"/>
</radialGradient>
<radialGradient id="paint3_radial_123_461" cx="0" cy="0" r="1" gradientUnits="userSpaceOnUse" gradientTransform="translate(20.2366 27.914) rotate(-90.0001) scale(0.0953489 4.45881)">
<stop stop-color="#587EDB"/>
<stop offset="1" stop-color="#1445C2"/>
</radialGradient>
<radialGradient id="paint4_radial_123_461" cx="0" cy="0" r="1" gradientUnits="userSpaceOnUse" gradientTransform="translate(22.9295 31.4382) rotate(-90) scale(0.509434 7.02175)">
<stop stop-color="#587EDB"/>
<stop offset="1" stop-color="#1445C2"/>
</radialGradient>
<radialGradient id="paint5_radial_123_461" cx="0" cy="0" r="1" gradientUnits="userSpaceOnUse" gradientTransform="translate(29.1424 36.179) rotate(-90.0004) scale(0.0170791 3.34999)">
<stop stop-color="#587EDB"/>
<stop offset="1" stop-color="#1445C2"/>
</radialGradient>
<radialGradient id="paint6_radial_123_461" cx="0" cy="0" r="1" gradientUnits="userSpaceOnUse" gradientTransform="translate(37.2102 36.1765) rotate(-90.0003) scale(0.0145882 1.97458)">
<stop stop-color="#587EDB"/>
<stop offset="1" stop-color="#1445C2"/>
</radialGradient>
<radialGradient id="paint7_radial_123_461" cx="0" cy="0" r="1" gradientUnits="userSpaceOnUse" gradientTransform="translate(32.5753 40.582) rotate(-90.0001) scale(0.0879569 6.25214)">
<stop stop-color="#587EDB"/>
<stop offset="1" stop-color="#1445C2"/>
</radialGradient>
<radialGradient id="paint8_radial_123_461" cx="0" cy="0" r="1" gradientUnits="userSpaceOnUse" gradientTransform="translate(32.8429 45.0194) rotate(-90.0006) scale(0.0178752 6.00908)">
<stop stop-color="#587EDB"/>
<stop offset="1" stop-color="#1445C2"/>
</radialGradient>
<radialGradient id="paint9_radial_123_461" cx="0" cy="0" r="1" gradientUnits="userSpaceOnUse" gradientTransform="translate(52.7019 69.0018) rotate(-90) scale(4.89721 2.92158)">
<stop stop-color="#587EDB"/>
<stop offset="1" stop-color="#1445C2"/>
</radialGradient>
<radialGradient id="paint10_radial_123_461" cx="0" cy="0" r="1" gradientUnits="userSpaceOnUse" gradientTransform="translate(52.8172 71.0135) rotate(-90) scale(6.93348 0.978765)">
<stop stop-color="#587EDB"/>
<stop offset="1" stop-color="#1445C2"/>
</radialGradient>
<radialGradient id="paint11_radial_123_461" cx="0" cy="0" r="1" gradientUnits="userSpaceOnUse" gradientTransform="translate(43.1357 54.7071) rotate(-90.0003) scale(0.0376898 5.49939)">
<stop stop-color="#587EDB"/>
<stop offset="1" stop-color="#1445C2"/>
</radialGradient>
<radialGradient id="paint12_radial_123_461" cx="0" cy="0" r="1" gradientUnits="userSpaceOnUse" gradientTransform="translate(40.4765 59.1716) rotate(-90.0001) scale(0.0543585 3.04291)">
<stop stop-color="#587EDB"/>
<stop offset="1" stop-color="#1445C2"/>
</radialGradient>
<clipPath id="clip0_123_461">
<rect width="65" height="75" fill="white" transform="translate(0.0924072)"/>
</clipPath>
</defs>
</svg>
