<svg width="114" height="107" viewBox="0 0 114 107" fill="none" xmlns="http://www.w3.org/2000/svg">
<g id="Icon">
<path id="Fill 1" fill-rule="evenodd" clip-rule="evenodd" d="M28.5701 49.0483C29.1371 49.5893 29.6651 50.1643 30.1311 50.7803C30.2981 51.0073 30.4931 51.2123 30.6451 51.4483C31.2131 52.2613 31.6901 53.1233 32.1571 53.9833C32.3691 54.3663 32.5751 54.7413 32.7851 55.1213C33.0501 55.6073 33.3281 56.0863 33.5271 56.6023C33.6531 56.9233 33.0331 56.7553 32.7121 56.2073C32.1491 55.2353 31.6511 54.2433 31.1191 53.2553C30.8001 52.6643 30.3851 52.1033 29.9771 51.5563C29.5201 50.9643 29.0521 50.3733 28.5081 49.8623C28.1901 49.5273 27.8211 49.2533 27.4671 48.9603C26.8981 48.5673 26.3001 48.1943 25.6501 47.9693C25.3951 47.8923 25.1461 47.8003 24.8871 47.7563C24.6281 47.7223 24.3661 47.6873 24.1091 47.6523C23.9971 47.6323 23.8811 47.6523 23.7661 47.6453C23.3391 47.6303 23.2071 47.5743 23.1141 47.3833C23.0921 47.3393 23.0641 47.2963 23.0511 47.2523C23.0081 47.1073 23.1931 47.0003 23.5361 46.9833C24.5561 46.8983 25.6491 47.1853 26.6091 47.6783C27.3401 48.0233 27.9741 48.5263 28.5801 49.0343L28.5701 49.0483Z" fill="url(#paint0_radial_1151_121)"/>
<path id="Fill 3" fill-rule="evenodd" clip-rule="evenodd" d="M94.5433 49.5151C94.1683 49.8971 93.8013 50.2941 93.4853 50.7341C93.3713 50.8951 93.2613 51.0591 93.1583 51.2271C92.7573 51.7981 92.4343 52.4201 92.1353 53.0571C92.0243 53.3471 91.9023 53.6381 91.8383 53.9411C91.7383 54.3271 91.6803 54.7161 91.5223 55.0921C91.4343 55.3301 91.0143 54.9461 91.0413 54.4471C91.1903 53.6001 91.4923 52.7791 91.9353 52.0371C92.2093 51.6001 92.4403 51.1201 92.7353 50.6851C93.0683 50.2141 93.4223 49.7591 93.8223 49.3451C94.0593 49.0811 94.3243 48.8471 94.5823 48.6061C94.9903 48.2591 95.4203 47.9341 95.8753 47.6541C96.2213 47.4271 96.5783 47.2181 96.9703 47.0711C97.0543 47.0381 97.1473 47.0021 97.2273 46.9711C97.5723 46.9141 97.6893 46.9441 97.7773 47.0341C97.7983 47.0541 97.8223 47.0741 97.8353 47.0951C97.8783 47.1641 97.7603 47.2681 97.5543 47.3781C96.9393 47.6941 96.3583 48.0731 95.7733 48.4821C95.3403 48.7861 94.9393 49.1481 94.5553 49.5261L94.5433 49.5151Z" fill="url(#paint1_radial_1151_121)"/>
<path id="Fill 5" fill-rule="evenodd" clip-rule="evenodd" d="M32.6 28.9955C32.747 29.5835 32.875 30.1745 32.998 30.7655C33.044 30.9805 33.114 31.1905 33.147 31.4085C33.274 32.1765 33.361 32.9495 33.452 33.7205C33.49 34.0685 33.527 34.4025 33.565 34.7475C33.616 35.1825 33.657 35.6305 33.584 36.0775C33.547 36.3495 33.146 35.9865 33.054 35.5225C32.902 34.6735 32.721 33.8235 32.65 32.9375C32.596 32.4085 32.429 31.8805 32.313 31.3505C32.189 30.7675 32.059 30.1835 31.916 29.6035C31.822 29.2495 31.738 28.8905 31.63 28.5395C31.472 28.0065 31.314 27.4685 31.101 26.9615C30.94 26.5645 30.716 26.2045 30.506 25.8495C30.46 25.7735 30.41 25.6915 30.365 25.6185C30.21 25.3265 30.225 25.2005 30.338 25.0325C30.365 24.9935 30.387 24.9515 30.416 24.9195C30.51 24.8115 30.688 24.8645 30.908 25.0585C31.488 25.6705 31.788 26.4595 32.079 27.2305C32.288 27.8085 32.458 28.3985 32.62 28.9885L32.6 28.9955Z" fill="url(#paint2_radial_1151_121)"/>
<path id="Fill 7" fill-rule="evenodd" clip-rule="evenodd" d="M73.7904 34.6489C73.6024 34.0539 73.4794 33.4469 73.3604 32.8439C73.3174 32.6219 73.2774 32.4099 73.2344 32.1849C73.1224 31.4039 73.0664 30.6219 73.0034 29.8429C72.9814 29.4979 72.9444 29.1509 72.9044 28.8099C72.8584 28.3709 72.7964 27.9309 72.8164 27.4879C72.8284 27.2119 73.3114 27.5279 73.3694 28.0279C73.4574 28.9179 73.5484 29.8019 73.6014 30.7019C73.6364 31.2389 73.7534 31.7869 73.8514 32.3239C73.9524 32.9179 74.0844 33.5029 74.2424 34.0819C74.3454 34.4359 74.4594 34.7869 74.5924 35.1299C74.7994 35.6499 75.0324 36.1639 75.3064 36.6529C75.5184 37.0349 75.7664 37.3869 75.9964 37.7589C76.0474 37.8389 76.1024 37.9249 76.1504 38.0029C76.3254 38.3179 76.3394 38.4389 76.2224 38.5839C76.1954 38.6169 76.1714 38.6539 76.1414 38.6799C76.0394 38.7689 75.8754 38.6879 75.7254 38.4759C75.2794 37.8449 74.8624 37.1509 74.4834 36.4009C74.2044 35.8429 73.9714 35.2519 73.7764 34.6549L73.7904 34.6489Z" fill="url(#paint3_radial_1151_121)"/>
<path id="Fill 9" fill-rule="evenodd" clip-rule="evenodd" d="M11.2902 41.5434C12.5252 43.9534 13.9092 46.3384 15.2832 48.7244C16.6442 51.1164 18.1022 53.4804 19.3182 56.0284C20.2072 57.8474 21.1212 59.6634 21.9102 61.5404C23.2952 64.8514 24.4642 68.2894 25.1342 71.8554C25.4702 73.6374 25.6852 75.4454 25.7392 77.2644C25.7782 79.0884 25.6552 80.8904 25.4352 82.6814C25.0402 85.8564 24.3112 88.9914 23.3722 92.0094C22.1642 95.8824 20.6052 99.6884 18.4292 103.108C17.7552 104.179 17.5122 103.839 17.6612 102.719C17.8302 101.606 18.2712 99.6744 19.1582 97.5904C20.7822 93.9124 22.1002 90.1064 22.9522 86.2004C23.7912 82.2914 24.2012 78.2904 23.7342 74.3124C23.2062 69.5184 21.3202 64.7444 19.2602 60.1944C18.6892 58.9404 18.1012 57.6924 17.4892 56.4504C16.9032 55.2144 16.2302 54.0324 15.5462 52.8204L11.4082 45.5734C10.7502 44.3874 10.0992 43.1944 9.49021 41.9684C9.18621 41.3554 8.89021 40.7354 8.62321 40.0864C8.49421 39.7574 8.36521 39.4294 8.26221 39.0644C8.17021 38.7524 8.02121 38.1834 8.21421 37.7114C8.57021 36.8694 9.09121 36.2184 9.85921 35.7604C10.5412 35.3644 11.3322 35.2524 12.0562 35.2994C12.7862 35.3494 13.4712 35.5464 14.1142 35.8054C15.4012 36.3324 16.5112 37.1444 17.4972 38.0574C19.4572 39.9004 20.9122 42.2264 21.7722 44.7434L21.9692 45.3494C22.0182 45.5224 22.0652 45.6954 22.1132 45.8664C22.1232 45.9954 22.2032 46.1024 22.3212 46.1534C22.3802 46.1864 22.4182 46.2034 22.5002 46.2404L22.7902 46.3634L24.0332 46.8574C24.8732 47.2024 25.7052 47.5984 26.5052 48.0554C28.1042 48.9734 29.5612 50.1744 30.7562 51.6114C31.3452 52.3144 31.8652 53.0504 32.3252 53.8504C33.1652 55.3424 33.5042 56.4224 33.6802 57.1844C33.8402 57.9534 33.7902 58.4314 33.6262 58.8374C33.5572 59.0224 33.5042 59.2514 33.4262 59.3644C33.1482 59.7484 32.5462 58.5284 31.6172 56.4694C30.6112 54.3394 29.1952 52.4074 27.3582 50.9354C26.4372 50.2014 25.4292 49.5714 24.3372 49.0514C23.7912 48.7844 23.2282 48.5564 22.6352 48.3044C22.3372 48.1794 22.0332 48.0564 21.6792 47.8864C21.4122 47.7574 21.1172 47.5864 20.8922 47.3744C20.7782 47.2684 20.6642 47.1544 20.6122 47.0024C20.5082 46.8844 20.4922 46.7154 20.4122 46.5804L20.2762 46.0164C20.2482 45.8924 20.2092 45.7714 20.1722 45.6494C20.0962 45.4064 20.0292 45.1614 19.9362 44.9234C19.7652 44.4414 19.5682 43.9664 19.3392 43.5054C18.8912 42.5794 18.3442 41.6924 17.7122 40.8754C16.5652 39.4164 15.1222 38.1124 13.5192 37.4174C12.7312 37.0524 11.8862 36.9444 11.2532 37.0914C10.9402 37.1724 10.6842 37.3144 10.4642 37.5244C10.3502 37.6234 10.2532 37.7544 10.1612 37.8954C10.1182 37.9704 10.0652 38.0344 10.0252 38.1154C9.98621 38.2044 9.94021 38.2994 9.95021 38.2744C9.95121 38.2834 9.93821 38.2834 9.94621 38.2984C9.94721 38.3304 9.99321 38.5094 10.0312 38.6364C10.1282 38.9314 10.2472 39.2464 10.3892 39.5684C10.6672 40.2124 10.9922 40.8664 11.3282 41.5174L11.2902 41.5434Z" fill="url(#paint4_radial_1151_121)"/>
<path id="Fill 11" fill-rule="evenodd" clip-rule="evenodd" d="M108.037 47.7768C106.659 49.6618 105.251 51.5078 104.014 53.4088C103.708 53.8838 103.411 54.3618 103.151 54.8408C102.882 55.3158 102.681 55.7828 102.497 56.3328C102.138 57.3938 101.665 58.4218 101.461 59.5348C101.294 60.3398 101.039 61.1268 100.963 61.9498L100.655 64.4038C100.453 67.3098 100.469 70.2518 100.829 73.1808C101.21 76.1028 101.735 79.0248 102.536 81.8848C103.212 84.4308 104.064 86.9488 105.004 89.3958C106.202 92.5468 107.629 95.6178 108.669 98.8588C109 99.8668 108.62 99.8628 107.932 99.1788C107.263 98.4878 106.193 97.1588 105.414 95.3608C102.764 88.9588 100.391 82.2978 99.4488 75.2578C98.8838 71.0748 98.5078 66.6218 99.1638 62.2838C99.4808 59.8998 100.175 57.5748 101.056 55.3338C101.498 54.1638 102.178 53.1378 102.822 52.1448C103.482 51.1538 104.171 50.1948 104.867 49.2458L107.429 45.7608C108.255 44.6008 109.111 43.4158 109.707 42.2148C109.802 42.0248 109.886 41.7938 109.922 41.6628C109.948 41.5438 109.965 41.3998 109.872 41.3028C109.81 41.2278 109.672 41.0058 109.539 40.8658C109.38 40.7388 109.235 40.5898 109.065 40.4748C108.878 40.3868 108.703 40.2768 108.511 40.1978L107.901 40.0348C107.055 39.8858 106.145 40.0688 105.308 40.3918C103.599 41.0308 102.186 42.3728 101.116 43.8608C100.898 44.1268 100.75 44.4418 100.568 44.7308C100.385 45.0198 100.226 45.3218 100.094 45.6378C99.9578 45.9508 99.7938 46.2488 99.6858 46.5708L99.3148 47.6228L99.2018 47.8608C99.1198 47.9048 99.0888 47.9948 99.0168 48.0468C98.8918 48.1658 98.7448 48.2788 98.5898 48.3538L97.9808 48.7198C97.5838 48.9638 97.2078 49.2268 96.8418 49.5038C96.1108 50.0558 95.4408 50.6808 94.8228 51.3528C94.3568 51.8738 93.9408 52.4178 93.5398 52.9958C92.0798 55.1598 91.7948 55.9588 91.0788 56.2858C90.9288 56.3668 90.7658 56.4918 90.6438 56.5288C90.4368 56.5898 90.3798 56.3408 90.4348 55.8078C90.4708 55.2688 90.7418 54.4948 91.2068 53.5478C91.9558 52.0738 92.9558 50.6778 94.1808 49.4578C94.7968 48.8538 95.4588 48.2818 96.1798 47.7818C96.5388 47.5328 96.9088 47.2938 97.2808 47.0728L97.7438 46.8018C97.7518 46.7948 97.7578 46.7858 97.7568 46.7738C97.7108 46.8808 97.8318 46.5528 97.8858 46.4038L98.0878 45.8488C98.2338 45.4828 98.4278 45.1328 98.5978 44.7748C98.7608 44.4118 98.9748 44.0738 99.1878 43.7338C99.3968 43.3918 99.6078 43.0508 99.8658 42.7378C100.824 41.4448 102.022 40.2818 103.487 39.4538C104.63 38.8058 105.954 38.3358 107.412 38.3798C108.133 38.4208 108.895 38.5478 109.575 38.9368C109.933 39.0938 110.228 39.3478 110.525 39.6048C110.683 39.7228 110.816 39.8618 110.927 40.0188L111.371 40.5868C111.454 40.8518 111.592 41.1128 111.582 41.4038C111.575 41.6758 111.548 42.0048 111.472 42.2208C111.356 42.6188 111.214 42.9228 111.068 43.2228C110.777 43.8138 110.455 44.3388 110.122 44.8508C109.458 45.8708 108.766 46.8378 108.075 47.7978L108.037 47.7768Z" fill="url(#paint5_radial_1151_121)"/>
<path id="Fill 13" fill-rule="evenodd" clip-rule="evenodd" d="M23.5302 15.3774C23.0502 14.7514 22.4982 14.2244 21.9382 13.7644C21.6452 13.5864 21.3672 13.3244 21.0622 13.2014C20.9192 13.1274 20.7542 13.0814 20.6662 13.0534C20.5522 13.0264 20.5572 13.0244 20.5122 13.0244C20.4362 13.0304 20.3792 13.0604 20.3362 13.1654C20.2702 13.3254 20.2042 13.6954 20.1992 14.0414C20.1782 14.7644 20.2752 15.5654 20.4072 16.3584C20.5072 16.9414 20.6392 17.5234 20.7842 18.1124C20.9302 18.6954 21.0792 19.3434 21.1972 19.9114C22.1282 24.0884 23.1992 28.3334 23.9582 32.6194C24.3052 34.5224 24.6212 36.4454 24.8612 38.3644C25.1222 40.8114 25.4092 43.4154 24.4802 45.9004C24.1962 46.6724 23.8592 46.3904 23.6172 45.6664C23.4102 44.9424 23.1262 43.8264 23.1482 42.5024C23.2012 40.1474 22.9082 37.7104 22.5462 35.2834C22.1732 32.8524 21.7122 30.4084 21.2472 27.9424C20.6982 24.9984 19.7602 21.9804 19.1242 18.9534C18.7592 17.2834 18.3402 15.5984 18.4252 13.6944C18.4732 13.2134 18.5152 12.7074 18.8772 12.0984C19.0662 11.8224 19.3022 11.5744 19.6052 11.4304C19.9092 11.3044 20.2442 11.2254 20.5782 11.2684C21.8512 11.4244 22.4452 12.0414 23.2472 12.5624C24.9562 14.0224 26.1772 15.8094 27.2472 17.6384C28.8832 20.4124 30.1082 23.3874 31.1952 26.3604C32.0272 28.6774 32.8382 30.9624 33.3752 33.3724C33.4892 33.9044 33.5982 34.4294 33.6942 34.9724C33.8072 35.9914 33.8162 36.6784 33.7322 37.1594C33.6322 37.6474 33.4482 37.9194 33.2232 38.1274C33.1242 38.2224 33.0342 38.3474 32.9532 38.3984C32.7062 38.5634 32.3202 37.7614 32.0762 36.4014C31.2892 32.3304 29.9452 28.0554 28.2522 23.9404C27.6072 22.4224 26.9442 20.8984 26.1492 19.4624C25.7832 18.7204 25.3292 18.0484 24.9192 17.3404C24.4522 16.6904 24.0262 15.9834 23.4982 15.4094L23.5302 15.3774Z" fill="url(#paint6_radial_1151_121)"/>
<path id="Fill 15" fill-rule="evenodd" clip-rule="evenodd" d="M35.0583 16.1655C34.5843 14.8385 34.0433 13.5365 33.4063 12.2995C32.7683 11.0675 32.0233 9.88348 31.1313 8.93648C30.5103 8.24648 29.6233 7.77648 29.2363 7.85248C29.0713 7.87548 28.8803 7.98348 28.8423 8.08548C28.7743 8.21248 28.7043 8.61248 28.7283 9.01348C28.7523 9.82448 28.8883 10.7355 29.0553 11.6255C29.3973 13.4195 29.8613 15.2305 30.3093 17.0465C30.7113 18.6575 31.1373 20.2795 31.5053 21.9055C31.7443 22.9505 31.9403 24.0155 32.0313 25.1085C32.1123 26.1975 32.1003 27.3435 31.7053 28.4495C31.4053 29.1435 31.1783 28.8695 31.0123 28.2765C30.8333 27.6695 30.5043 26.7615 30.3373 25.6385C29.6763 21.6175 28.3293 17.5055 27.5003 13.1765C27.2703 11.8655 26.9343 10.5635 26.8813 9.06748C26.8803 8.68548 26.8733 8.30248 26.9843 7.84348C27.0793 7.40548 27.3503 6.80848 27.8283 6.50748C28.2113 6.19348 28.7593 6.00248 29.2623 5.99748C29.7783 5.97748 30.2233 6.12548 30.6063 6.29748C31.4493 6.69448 32.0453 7.26448 32.5853 7.84448C33.1253 8.42848 33.5793 9.05448 33.9933 9.69648C34.8173 10.9815 35.4893 12.3295 36.0753 13.7035C36.7963 15.3955 37.3783 17.1325 37.8793 18.8855C38.6253 21.5445 39.1613 24.2625 39.5873 26.9575C39.9233 29.0515 40.2803 31.1075 40.4943 33.2015C40.5503 33.6625 40.5983 34.1125 40.6323 34.5795C40.7553 36.3085 40.5903 36.8645 40.0963 37.2395C39.9813 37.3245 39.8683 37.4365 39.7533 37.4865C39.3723 37.6525 39.0123 36.9625 38.8693 35.7275C38.4063 32.0675 37.9943 28.2405 37.2493 24.4545C36.7023 21.6475 36.0093 18.8515 35.0163 16.1855L35.0583 16.1655Z" fill="url(#paint7_radial_1151_121)"/>
<path id="Fill 17" fill-rule="evenodd" clip-rule="evenodd" d="M46.1742 27.9907C46.0552 27.0077 45.9122 26.0257 45.7402 25.0507C45.5652 24.0437 45.3892 23.0717 45.1812 22.0927C45.0292 21.3797 44.8132 20.6857 44.6422 19.9827C44.3412 18.7437 43.9992 17.5157 43.5592 16.3497C43.3382 15.7707 43.0892 15.2047 42.7882 14.7077C42.5032 14.2147 42.0942 13.7767 41.8352 13.7187C41.6992 13.6907 41.5632 13.7127 41.4332 13.7857C41.2632 13.8867 41.1142 14.0287 40.9692 14.1937C40.6932 14.5367 40.5082 15.0117 40.3942 15.5207C40.0942 16.8447 40.2442 18.3347 39.7202 19.8487C39.5372 20.3317 39.3022 20.1577 39.0732 19.7327C38.8582 19.3037 38.4742 18.6227 38.4502 17.7657C38.4672 17.0087 38.4882 16.2157 38.6332 15.3707C38.7802 14.5457 39.0412 13.5757 39.8462 12.7477C40.0262 12.5387 40.3102 12.3937 40.5412 12.2197C40.8502 12.0447 41.2132 11.9447 41.5702 11.9107C42.2942 11.8437 43.0362 12.2667 43.3862 12.6187C44.1462 13.3607 44.4932 14.1227 44.8162 14.8747C45.5372 16.6727 46.1742 18.4707 46.6522 20.2997C47.1622 22.3167 47.5482 24.3067 47.9022 26.3527C48.1082 27.6077 48.2682 28.8687 48.3962 30.1307C48.5932 32.0417 48.6712 33.9697 48.7382 35.8757C48.7872 37.3567 48.8922 38.8167 48.8612 40.3027C48.8492 40.6297 48.8702 40.9527 48.8232 41.2807C48.7062 42.5027 48.4092 42.8587 47.9192 43.0347C47.8072 43.0757 47.6952 43.1347 47.5942 43.1507C47.4212 43.1777 47.2872 43.0587 47.1722 42.8247C47.0562 42.5897 46.9522 42.2397 46.9482 41.8117C46.8512 39.2727 46.8762 36.6367 46.7102 33.9587C46.5882 31.9747 46.4092 29.9787 46.1252 28.0017L46.1742 27.9907Z" fill="url(#paint8_radial_1151_121)"/>
<path id="Fill 19" fill-rule="evenodd" clip-rule="evenodd" d="M52.7747 59.7631C52.8917 56.5121 52.6147 53.1981 52.4987 49.8371C52.4627 48.6111 52.3857 47.3781 52.4377 46.1371C52.6297 41.8491 52.7367 37.5921 52.5217 33.3461C52.4037 31.4811 52.2407 29.5561 51.7207 27.8691C51.6417 27.6051 51.5457 27.3391 51.4357 27.1271C51.3747 26.9931 51.3387 26.9571 51.2987 26.9051C51.2567 26.8561 51.2087 26.8081 51.1527 26.7801C51.0417 26.7061 50.8927 26.7371 50.7947 26.8131C50.7397 26.8441 50.6957 26.8881 50.6497 26.9291C50.5837 26.9981 50.4827 27.0811 50.4107 27.1771C49.7697 27.9191 49.4827 29.0811 49.0347 30.2471C48.7297 30.9811 48.5127 30.7681 48.3877 30.0781C48.3217 29.7311 48.2527 29.2611 48.2447 28.6691C48.2377 28.0801 48.3167 27.3301 48.7767 26.5541C48.9907 26.2041 49.2067 25.9111 49.5777 25.5671L49.9427 25.2831C50.0687 25.2001 50.2097 25.1511 50.3427 25.0831C50.6037 24.9331 50.9067 24.8991 51.1907 24.9051C51.7837 24.9271 52.3077 25.2831 52.6697 25.7611L52.9377 26.1191L53.0877 26.3901C53.1997 26.5751 53.2637 26.7431 53.3337 26.9151C53.8367 28.2831 53.9737 29.5501 54.1207 30.8261C54.3737 33.3681 54.3227 35.8801 54.2307 38.3941C54.1857 39.8991 54.1407 41.4251 54.0947 42.9621C54.0567 44.5061 54.0007 46.0461 54.0097 47.5351C54.0267 50.8451 54.3467 54.1961 54.4037 57.5861C54.4367 59.6721 54.3557 61.7811 54.0317 63.8671C53.7817 65.4441 53.3877 67.0151 52.7777 68.5061C52.1727 69.9951 51.3917 71.4021 50.4877 72.7081C49.7917 73.7301 49.0237 74.6881 48.1867 75.5841C47.3537 76.4841 46.4567 77.3321 45.4567 78.0691C45.0297 78.4101 44.5777 78.7021 44.1147 79.0071C42.3387 80.0571 41.6057 80.0701 41.0567 79.7811C40.9297 79.7121 40.7757 79.6561 40.6907 79.5741C40.4027 79.2831 41.0557 78.7661 42.2357 78.0891C45.7487 76.0901 48.8747 72.9271 50.7287 69.0801C52.1297 66.2571 52.6557 63.0361 52.7337 59.7671L52.7747 59.7631Z" fill="url(#paint9_radial_1151_121)"/>
<path id="Fill 21" fill-rule="evenodd" clip-rule="evenodd" d="M45.0209 89.144C44.8559 90.485 44.6739 91.833 44.5639 93.188C44.5359 93.684 44.5069 94.175 44.4789 94.672C44.3339 96.415 44.2029 98.165 44.1489 99.916C44.1289 100.693 44.1479 101.475 44.1939 102.243C44.2309 103.213 44.3079 104.258 44.2849 105.144C44.2709 105.372 44.0489 105.509 43.7289 105.292C43.3999 105.04 43.0659 104.575 42.9829 103.988C42.6729 101.929 42.7499 99.882 42.9049 97.823C43.0139 96.591 42.9699 95.31 43.0279 94.05C43.0989 92.666 43.2109 91.284 43.3419 89.903L43.6509 87.358C43.8139 86.074 44.0449 84.792 44.2399 83.519C44.4199 82.532 44.4999 81.541 44.7259 80.549C44.7749 80.331 44.7869 80.111 44.8629 79.893C45.1589 79.093 45.4179 78.904 45.8159 78.888C45.9089 78.885 46.0039 78.871 46.0869 78.883C46.3619 78.925 46.4849 79.335 46.4349 79.909C46.1899 81.57 45.8289 83.303 45.5849 85.109C45.3829 86.438 45.1949 87.789 45.0609 89.146L45.0209 89.144Z" fill="url(#paint10_radial_1151_121)"/>
<path id="Fill 23" fill-rule="evenodd" clip-rule="evenodd" d="M29.4986 94.7143C30.7856 95.1623 32.0936 95.5583 33.4206 95.8643C33.9056 95.9743 34.3986 96.0313 34.8846 96.1233C36.5976 96.4543 38.3386 96.7073 40.0776 96.6443C40.8476 96.6233 41.6126 96.4923 42.3406 96.2983C43.2766 96.0303 44.1496 95.6723 45.0496 95.3223C45.3356 95.2243 45.4856 95.5003 45.4186 95.9173C45.3576 96.3353 45.0546 96.9223 44.4736 97.2203C43.4586 97.7573 42.3386 97.9893 41.2456 98.1333C40.1456 98.2713 39.0456 98.2523 37.9676 98.1233C36.6806 97.9733 35.3476 97.9173 34.0596 97.6793C32.6456 97.4193 31.2596 97.0593 29.8946 96.6453C29.0536 96.3943 28.2266 96.1033 27.3996 95.8163C26.1496 95.3723 24.9236 94.8553 23.7056 94.3543C22.7586 93.9623 21.7916 93.6533 20.8496 93.2013C20.6446 93.0973 20.4366 93.0063 20.2366 92.8763C19.5056 92.3833 19.3586 92.0053 19.5136 91.5813C19.5506 91.4853 19.5816 91.3863 19.6346 91.3113C19.8386 91.0773 20.1796 91.0883 20.7096 91.2513C22.2936 91.7793 23.9386 92.5853 25.6496 93.2493C26.9156 93.7573 28.2006 94.2543 29.5086 94.6713L29.4986 94.7143Z" fill="url(#paint11_radial_1151_121)"/>
<path id="Fill 25" fill-rule="evenodd" clip-rule="evenodd" d="M65.5226 44.2543C66.0696 45.8163 66.6356 47.3823 67.2936 48.9163C67.9176 50.4263 68.6456 52.0623 69.1606 53.6983C69.5526 54.8933 69.9416 56.0783 70.2596 57.2743C70.8166 59.3783 71.3326 61.4803 72.0056 63.4893C72.6696 65.5013 73.5586 67.4393 74.6746 69.2303C75.6716 70.8123 76.8956 72.2673 78.3216 73.4233C80.1726 74.9053 82.3206 75.8613 84.5866 76.5203C85.2716 76.8633 85.1776 77.0173 84.4606 77.2933C84.1026 77.4283 83.5846 77.5563 82.9816 77.5253C82.6776 77.5173 82.3476 77.4923 81.9996 77.4423C81.6626 77.3643 81.3086 77.2603 80.9486 77.1273C78.4466 76.0703 76.3006 74.2943 74.6616 72.2223C73.0046 70.1463 71.8146 67.7763 70.9396 65.3333C69.8916 62.3883 69.1096 59.3413 68.2146 56.4103C67.7316 54.8013 67.2076 53.2163 66.5486 51.6983C65.8986 50.1493 65.1516 48.5823 64.5616 46.9773C64.1696 45.9973 63.7996 45.0093 63.4726 44.0013C63.1146 43.0083 62.8246 41.9873 62.5336 40.9693C62.3096 40.1983 62.1556 39.4033 61.9656 38.6223C61.8326 37.8233 61.6576 37.0353 61.5816 36.2253C61.3876 34.6183 61.3086 32.9683 61.6656 31.3163C61.8176 30.6763 62.0016 30.0323 62.3866 29.4223C62.7616 28.7453 63.6986 28.0803 64.5596 28.4483C64.9626 28.5863 65.3626 28.9383 65.6006 29.2313C65.8296 29.5093 66.0126 29.7923 66.1816 30.0743C66.5076 30.6413 66.7706 31.2093 67.0176 31.7733C67.2306 32.2613 67.4386 32.7393 67.6526 33.2313C68.0246 34.1333 68.2676 34.6733 68.3976 35.0333C68.5376 35.3933 68.5196 35.5723 68.5416 35.8633C68.5506 35.9963 68.6376 36.1283 68.7006 36.2433C68.7506 36.3443 68.7486 36.4343 68.6306 36.5063C68.5196 36.5833 68.2656 36.6133 67.9976 36.5143C67.4256 36.3143 66.9596 35.7573 66.5656 35.0773C65.9956 34.0623 65.5776 33.0393 65.1186 32.0773C64.8906 31.6013 64.6546 31.1383 64.4046 30.7503C64.2936 30.5823 64.1206 30.3583 64.0706 30.3213C64.0506 30.3133 64.0336 30.3103 64.0176 30.3133C64.0016 30.3163 63.9896 30.3263 63.9826 30.3383C63.9556 30.3803 64.0376 30.2763 63.9046 30.4783C63.7176 30.7713 63.5746 31.2133 63.4746 31.6643C63.2836 32.5913 63.2396 33.6343 63.3156 34.6913C63.5526 37.8523 64.4806 41.0883 65.5656 44.2333L65.5226 44.2543Z" fill="url(#paint12_radial_1151_121)"/>
<path id="Fill 27" fill-rule="evenodd" clip-rule="evenodd" d="M68.1117 21.6889C68.0427 23.6969 68.1157 25.7499 68.2787 27.7979C68.3407 28.5459 68.4667 29.2869 68.5467 30.0339C68.8277 32.6679 69.2057 35.3079 69.7617 37.9079C70.0157 39.0589 70.3177 40.2079 70.6647 41.3189C70.8827 42.0349 71.1447 42.7349 71.3987 43.4309C71.6557 44.1189 71.8777 44.8369 72.1887 45.4519C72.3777 45.8089 72.2097 45.9659 71.7367 45.7889C71.2787 45.6039 70.5707 45.0429 70.1477 44.2319C69.4537 42.7669 68.9597 41.2719 68.5147 39.7569C68.1207 38.2319 67.8107 36.6879 67.5907 35.1249C67.3267 33.2549 66.8947 31.3429 66.6447 29.4279C66.3727 27.3259 66.1927 25.2039 66.1807 23.0659C66.1727 21.7509 66.2117 20.4309 66.3767 19.1029C66.5137 18.0989 66.6977 17.0839 67.1227 16.0869C67.3517 15.5969 67.6157 15.0889 68.0797 14.6799C68.4997 14.2259 69.1757 14.0259 69.7977 13.9839C70.3397 13.9709 70.8837 14.2249 71.2387 14.6099C71.5837 14.9769 71.7937 15.3619 71.9757 15.7329C72.3267 16.4769 72.5677 17.1949 72.8127 17.9059C72.9187 18.2189 73.0397 18.5159 73.1357 18.8299C73.5187 19.9749 73.4587 20.3779 73.0507 20.7929C72.9607 20.8849 72.8777 20.9969 72.7827 21.0659C72.6227 21.1829 72.4297 21.1479 72.2087 20.9809C71.9867 20.8149 71.7257 20.5189 71.5507 20.0889C70.9907 18.8559 70.5947 17.4319 70.1187 16.4089C70.0077 16.1519 69.8657 15.9759 69.8047 15.9179C69.7687 15.8769 69.7757 15.9149 69.7667 15.9079C69.5857 15.9449 69.4377 15.9729 69.1847 16.3359C68.8197 16.8559 68.5567 17.7989 68.4077 18.7279C68.2467 19.6719 68.1767 20.6769 68.1607 21.6869L68.1117 21.6889Z" fill="url(#paint13_radial_1151_121)"/>
<path id="Fill 29" fill-rule="evenodd" clip-rule="evenodd" d="M78.1653 11.393C78.0843 10.68 77.9763 9.97098 77.8113 9.33798C77.7693 9.18098 77.7263 9.03198 77.6743 8.89398L77.5823 8.66498C77.5623 8.61698 77.5163 8.56098 77.4553 8.56998C77.4413 8.57198 77.4733 8.56798 77.4203 8.57298C77.3423 8.57698 77.2623 8.57998 77.1953 8.61498C77.0593 8.67798 76.8993 8.68298 76.7703 8.77398C76.4983 8.91198 76.2433 9.11898 76.0033 9.37098C75.5213 9.87998 75.1633 10.622 74.8793 11.392C74.5023 12.435 74.3203 13.582 74.1563 14.734C73.6233 18.832 73.8433 23.115 74.3773 27.308C74.6193 29.173 74.9863 31.033 75.4343 32.841C76.0343 35.163 76.7503 37.441 77.4343 39.712C77.6553 40.414 77.3753 40.462 76.7973 40.016C76.2183 39.574 75.3153 38.611 74.8283 37.258C73.9173 34.882 73.4053 32.41 72.9463 29.939C72.5003 27.463 72.2503 24.95 72.1713 22.418C72.1093 19.394 71.9513 16.228 72.5223 13.089C72.7773 11.776 73.1343 10.445 73.8543 9.19298C74.1873 8.56098 74.7083 7.98398 75.3023 7.49298C75.6433 7.29398 75.9573 7.04098 76.3493 6.93798C76.5383 6.87798 76.7243 6.79698 76.9163 6.76298L77.6363 6.67598C78.2453 6.62998 78.7953 7.03598 79.0923 7.56098C79.2623 7.84798 79.3533 8.05998 79.4273 8.26298C79.5073 8.47198 79.5713 8.67598 79.6323 8.87998C80.1943 11.013 80.3163 13.083 80.4253 15.169C80.5093 16.748 80.4703 18.333 80.5173 19.869C80.5623 21.415 80.6723 22.956 80.8893 24.468C81.2193 26.824 81.8873 29.06 82.6793 31.259C82.8663 31.74 83.0493 32.212 83.2373 32.696C83.9353 34.494 83.9993 35.131 83.6993 35.707C83.6283 35.839 83.5713 35.999 83.4883 36.094C83.2163 36.412 82.5893 35.804 81.9173 34.498C80.9783 32.544 80.1933 30.424 79.6343 28.199C79.0713 25.973 78.7563 23.654 78.6103 21.349C78.4883 19.643 78.5123 17.899 78.4643 16.288C78.4103 14.645 78.3033 12.997 78.1183 11.405L78.1653 11.393Z" fill="url(#paint14_radial_1151_121)"/>
<path id="Fill 31" fill-rule="evenodd" clip-rule="evenodd" d="M90.1511 22.7065C90.0081 21.1135 89.8621 19.5245 89.6711 17.9545C89.4711 16.3945 89.2601 14.8065 88.8251 13.4005C88.7081 13.0135 88.5031 12.5615 88.3741 12.3925C88.3141 12.2965 88.1901 12.2315 88.0831 12.2855C88.1101 12.2785 87.9271 12.3395 87.8101 12.4355C87.1951 12.8015 86.7081 13.6135 86.3561 14.4745C86.0011 15.3485 85.7611 16.3095 85.5811 17.2865C85.2211 19.2465 85.1171 21.2855 85.0981 23.3175C85.0891 25.1255 85.2251 26.9465 85.4391 28.7285C85.5851 29.8745 85.7671 31.0155 85.9311 32.1545C86.1141 33.2925 86.2951 34.4245 86.4511 35.5585C86.5691 36.2485 86.3221 36.2625 85.8221 35.7615C85.5791 35.5095 85.2771 35.1265 84.9691 34.6405C84.6851 34.1505 84.4401 33.5485 84.2831 32.8775C83.6921 30.5035 83.5031 28.0795 83.3731 25.6545C83.2731 23.2275 83.3371 20.7745 83.7241 18.3235C83.9431 16.9735 84.1941 15.5915 84.6621 14.2105C84.9111 13.5215 85.2141 12.8325 85.6571 12.1785L86.0291 11.7015C86.1681 11.5505 86.3261 11.4075 86.4761 11.2635C86.6301 11.1215 86.8261 11.0105 87.0031 10.8875C87.0891 10.8225 87.1911 10.7785 87.2931 10.7345L87.7061 10.5615C88.0601 10.4605 88.4471 10.4295 88.7941 10.5695C89.1021 10.6855 89.3621 10.9005 89.5841 11.1475C89.8161 11.4305 89.9391 11.6545 90.0411 11.8615C90.2521 12.2905 90.3961 12.7075 90.5171 13.1205C90.7561 13.9465 90.9181 14.7605 91.0601 15.5715C91.3351 17.1945 91.5191 18.8105 91.6921 20.4225L92.2741 26.3635C92.5571 29.3565 92.8091 32.3665 93.3041 35.2995C93.6981 37.5735 94.2451 39.7785 94.9731 41.9005C95.1371 42.3665 95.3171 42.8135 95.5021 43.2685C96.1931 44.9515 96.4501 45.4125 96.2971 45.9915C96.2681 46.1195 96.2591 46.2735 96.2131 46.3745C96.0861 46.7165 95.3051 46.2455 94.5961 44.9485C92.5701 41.1015 91.9551 36.6855 91.2471 32.3795C90.9991 30.7715 90.7871 29.1585 90.5901 27.5475C90.4051 25.9355 90.2741 24.3195 90.1071 22.7145L90.1511 22.7065Z" fill="url(#paint15_radial_1151_121)"/>
<path id="Fill 33" fill-rule="evenodd" clip-rule="evenodd" d="M85.9476 93.3237C85.6456 92.1627 85.3256 91.0027 84.9856 89.8457C84.8626 89.4247 84.6836 89.0217 84.5616 88.5997C84.1286 87.1107 83.6696 85.6267 83.1806 84.1517C82.9666 83.4957 82.7036 82.8567 82.4326 82.2307C82.0806 81.4317 81.6766 80.6377 81.4366 79.8227C81.3636 79.5697 81.6376 79.4417 82.0156 79.5097C82.4006 79.5797 82.8826 79.8487 83.1246 80.3067C83.9466 81.9417 84.7006 83.5887 85.1486 85.3727C85.4276 86.4327 85.9016 87.4667 86.2576 88.5237C86.6506 89.6857 87.0096 90.8607 87.3486 92.0417L87.9626 94.2247C88.2496 95.3367 88.5366 96.4517 88.8206 97.5547C89.0306 98.4197 89.3526 99.2397 89.5306 100.13C89.5696 100.324 89.6226 100.513 89.6506 100.711C89.7086 101.471 89.5926 101.727 89.1826 101.887C89.0896 101.923 88.9966 101.97 88.9026 101.99C88.5866 102.055 88.2956 101.773 88.1426 101.303C87.6226 99.8997 87.2466 98.3807 86.8366 96.8247C86.5336 95.6707 86.2406 94.4997 85.9066 93.3387L85.9476 93.3237Z" fill="url(#paint16_radial_1151_121)"/>
<path id="Fill 35" fill-rule="evenodd" clip-rule="evenodd" d="M98.765 92.8881C97.678 93.3771 96.543 93.7151 95.41 94.0001C94.997 94.1071 94.586 94.2151 94.169 94.2971C92.688 94.5381 91.202 94.6511 89.723 94.6481C89.066 94.6341 88.409 94.6911 87.757 94.6601C86.923 94.6591 86.066 94.6441 85.254 94.3651C85 94.2801 85.094 93.9801 85.354 93.6981C85.619 93.4101 86.027 93.1591 86.479 93.1561C88.075 93.1671 89.648 93.1781 91.322 93.1911C91.815 93.1961 92.313 93.1371 92.805 93.0381C93.302 92.9601 93.789 92.8321 94.276 92.7211C95.351 92.4921 96.4 92.1651 97.431 91.7821C98.041 91.5031 98.686 91.2701 99.256 90.9101C99.694 90.6501 100.153 90.4121 100.55 90.0911C100.964 89.7911 101.377 89.4891 101.716 89.1111C102.306 88.5791 102.66 87.8721 103.111 87.2611C103.198 87.1171 103.259 86.9591 103.348 86.8161C103.665 86.2761 103.903 86.1851 104.295 86.2391C104.386 86.2521 104.482 86.2551 104.565 86.2791C104.842 86.3531 104.915 86.7021 104.76 87.2111C104.301 88.7251 103.153 90.0041 101.889 91.0361C101.408 91.4131 100.922 91.7861 100.387 92.0761L99.601 92.5351L98.784 92.9231L98.765 92.8881Z" fill="url(#paint17_radial_1151_121)"/>
<path id="Fill 37" fill-rule="evenodd" clip-rule="evenodd" d="M39.3056 42.6C38.6466 42.582 37.9846 42.572 37.3266 42.618C37.0856 42.627 36.8516 42.683 36.6126 42.703C35.7696 42.78 34.9196 42.868 34.0836 43.048C33.7116 43.124 33.3516 43.253 32.9996 43.381C32.5476 43.556 32.1196 43.779 31.6396 43.89C31.3376 43.962 31.3696 43.132 31.8906 42.844C32.8206 42.383 33.8156 42.038 34.8546 41.901C35.4746 41.821 36.1026 41.667 36.7326 41.59C37.4266 41.513 38.1216 41.476 38.8146 41.468C39.2416 41.459 39.6666 41.469 40.0916 41.474C40.7336 41.499 41.3756 41.525 42.0136 41.55C42.5066 41.567 42.9946 41.523 43.4846 41.52C43.5936 41.518 43.6996 41.508 43.8076 41.514C44.2096 41.538 44.3296 41.624 44.3886 41.919C44.4016 41.987 44.4216 42.054 44.4266 42.121C44.4426 42.345 44.2636 42.515 43.9706 42.562C43.0966 42.697 42.1996 42.696 41.3036 42.692C40.6386 42.663 39.9726 42.629 39.3076 42.628L39.3056 42.6Z" fill="url(#paint18_radial_1151_121)"/>
<path id="Fill 39" fill-rule="evenodd" clip-rule="evenodd" d="M77.7157 42.3832C78.2737 42.0612 78.8527 41.7642 79.4417 41.4862C79.6527 41.3782 79.8617 41.2582 80.0817 41.1652C80.8667 40.8552 81.6927 40.6222 82.5357 40.4932C82.9117 40.4442 83.2837 40.3742 83.6637 40.3392C84.1457 40.3042 84.6547 40.2932 85.1117 40.5062C85.2557 40.5692 85.1787 40.8132 85.0177 41.0522C84.8537 41.2912 84.6237 41.5322 84.3977 41.5422C83.5887 41.6302 82.7937 41.6512 81.9127 41.7952C81.3837 41.8662 80.8937 42.1482 80.3977 42.3792C79.8477 42.6312 79.3037 42.9182 78.7687 43.2272C78.4407 43.4212 78.1117 43.6152 77.7917 43.8262C77.3037 44.1402 76.8107 44.4592 76.3607 44.8242C76.0157 45.1132 75.7077 45.4392 75.3657 45.7242C75.2917 45.7882 75.2247 45.8592 75.1457 45.9192C74.8557 46.1452 74.6977 46.1342 74.4847 45.9972C74.4357 45.9642 74.3827 45.9372 74.3407 45.9022C74.1997 45.7832 74.2137 45.5622 74.3597 45.3112C74.5937 44.9622 74.8537 44.6242 75.1327 44.2992C75.4257 43.9892 75.7667 43.7282 76.1027 43.4592C76.6127 43.0702 77.1397 42.6952 77.6967 42.3572L77.7157 42.3832Z" fill="url(#paint19_radial_1151_121)"/>
<path id="Fill 41" fill-rule="evenodd" clip-rule="evenodd" d="M9.53068 3.03748C10.0357 3.38848 10.5477 3.72848 11.0547 4.07748C11.3137 4.25648 11.5727 4.43548 11.8267 4.62048C11.9487 4.70948 12.0707 4.79848 12.1907 4.88848C12.2507 4.93348 12.3107 4.97848 12.3707 5.02448C12.2187 4.90848 12.4497 5.08748 12.4577 5.09448C12.9367 5.47548 13.3977 5.88048 13.8207 6.32248C13.9327 6.43948 14.0417 6.55948 14.1487 6.68348C14.1967 6.73848 14.2437 6.79548 14.2907 6.85148C14.3337 6.90348 14.4147 7.00548 14.3297 6.89548C14.5277 7.15148 14.7057 7.42348 14.8687 7.70148C15.1277 8.14148 15.7597 8.33748 16.2027 8.05148C16.6467 7.76648 16.8287 7.18748 16.5527 6.71748C15.1547 4.33248 12.7257 2.88648 10.5147 1.35348C10.0937 1.06248 9.41368 1.26348 9.18068 1.70348C8.91768 2.20048 9.08168 2.72648 9.53068 3.03748Z" fill="url(#paint20_radial_1151_121)"/>
<path id="Fill 43" fill-rule="evenodd" clip-rule="evenodd" d="M2.01474 20.0815C4.49474 19.6815 7.02274 20.0745 9.51874 19.9745C10.0447 19.9535 10.4937 19.5415 10.4937 18.9995C10.4937 18.4875 10.0477 18.0035 9.51874 18.0235C6.83374 18.1325 4.16774 17.7695 1.49674 18.2015C0.975736 18.2855 0.686736 18.9335 0.815736 19.4005C0.967736 19.9535 1.49374 20.1665 2.01474 20.0815Z" fill="url(#paint21_radial_1151_121)"/>
<path id="Fill 45" fill-rule="evenodd" clip-rule="evenodd" d="M99.5003 0.556081C97.9983 2.68308 96.2623 4.81808 95.7793 7.45008C95.6843 7.96708 95.9213 8.50108 96.4603 8.64908C96.9343 8.78008 97.5633 8.48908 97.6593 7.96808C97.8903 6.71208 98.3673 5.72608 99.0363 4.63908C99.6953 3.56808 100.459 2.56708 101.184 1.53908C101.488 1.11008 101.261 0.455081 100.834 0.205081C100.346 -0.0799187 99.8053 0.124081 99.5003 0.556081Z" fill="url(#paint22_radial_1151_121)"/>
<path id="Fill 48" fill-rule="evenodd" clip-rule="evenodd" d="M111.984 12.1938C109.421 12.6848 107.113 13.9338 104.644 14.7238C104.142 14.8838 103.819 15.4008 103.963 15.9228C104.098 16.4168 104.658 16.7648 105.162 16.6038C107.631 15.8138 109.94 14.5658 112.503 14.0748C113.02 13.9748 113.315 13.3538 113.184 12.8758C113.035 12.3338 112.503 12.0948 111.984 12.1938Z" fill="url(#paint23_radial_1151_121)"/>
<path id="Fill 51" fill-rule="evenodd" clip-rule="evenodd" d="M31.5623 102.61C31.5933 102.539 31.6303 102.455 31.6373 102.361C31.6443 102.262 31.5703 102.2 31.5233 102.206C31.4283 102.213 31.3603 102.304 31.2723 102.425L31.1363 102.641C31.0573 102.784 31.1323 102.611 30.7823 103.314C30.5133 103.832 30.2463 104.349 29.8273 104.919C29.5723 105.202 29.4073 105.538 28.6863 105.863C28.4613 105.928 28.2753 106.001 27.9963 105.972C27.7203 105.958 27.4763 105.884 27.2963 105.774C27.1993 105.721 27.1013 105.661 27.0173 105.598L26.8493 105.435C26.7393 105.324 26.6283 105.196 26.5813 105.111C26.4983 104.977 26.3853 104.812 26.3413 104.698C26.2923 104.579 26.1703 104.354 26.1383 104.203C26.0073 103.873 26.0343 103.497 26.0453 103.164C26.1123 102.574 26.2503 102.144 26.3863 101.715C26.6803 100.883 27.0173 100.143 27.3323 99.4228C27.6063 98.7968 27.8763 98.1558 27.9953 97.6418C28.0263 97.5148 28.0373 97.4128 28.0463 97.3368C28.0493 97.3208 28.0343 97.2778 28.0653 97.2898C28.1453 97.2778 28.2403 97.2448 28.3073 97.2178C28.3513 97.2088 28.3963 97.1898 28.4403 97.1608C28.4943 97.1228 28.4693 97.1468 28.4913 97.1298C28.5153 97.1078 28.4973 97.1198 28.4763 97.1478C28.4543 97.1798 28.4753 97.1628 28.4283 97.2378L28.4063 97.2808L28.3003 97.5408L28.2993 97.5388L28.2933 97.5298C28.2503 97.5198 28.1913 97.4898 28.1413 97.5238C28.0313 97.5188 27.9503 97.5328 27.8333 97.6338C27.7543 97.6858 27.6663 97.7468 27.5823 97.8508C27.4953 97.9378 27.4053 98.0318 27.3263 98.1568C27.0143 98.6298 26.7423 99.2128 26.5033 99.8248L25.7833 101.74C25.6533 102.072 25.5183 102.408 25.3353 102.765C25.1893 103.088 24.8113 103.618 24.3603 103.88C24.0623 104.019 23.9433 104.083 23.6713 104.167C23.5573 104.206 23.4373 104.245 23.2763 104.265C23.1353 104.291 22.9793 104.312 22.7583 104.282C22.5813 104.282 22.3033 104.167 22.0953 104.023C21.8973 103.848 21.7343 103.621 21.6853 103.442C21.5423 103.05 21.5713 102.793 21.5773 102.538C21.6733 101.59 21.9443 100.876 22.1933 100.129C22.6233 98.9158 23.0743 97.7358 23.4453 96.5768C23.6243 96.0078 23.7883 95.4058 23.8063 94.9418L23.8053 94.7898C23.7953 94.7578 23.7903 94.7298 23.7893 94.6978C23.7863 94.6888 23.7843 94.6968 23.7843 94.6968C23.7883 94.6998 23.8993 94.6288 23.9173 94.6128C23.9303 94.6098 23.9443 94.6018 23.9593 94.5878C23.9823 94.5648 23.9873 94.5468 23.9573 94.5928C23.9393 94.6218 23.9313 94.6488 23.9283 94.6728V94.6918V94.6938L23.9063 94.7768L23.9053 94.7778H23.9043L23.9013 94.7788L23.8933 94.7808C23.8823 94.7808 23.8713 94.7678 23.8593 94.7798C23.8403 94.7778 23.7973 94.7858 23.7323 94.8338C23.3683 95.0748 22.9413 95.7978 22.6283 96.4658C22.2973 97.1558 22.0023 97.8948 21.6943 98.6338C21.3823 99.3768 21.0783 100.132 20.6823 100.876C20.4853 101.247 20.2653 101.618 20.0013 101.985C19.7283 102.345 19.4433 102.731 18.8863 103.034C18.7273 103.126 18.4943 103.161 18.3653 103.172C18.2283 103.163 18.1173 103.16 18.0373 103.107C17.8743 103.02 17.8223 102.925 17.8433 102.836C17.8633 102.644 18.2473 102.537 18.3743 102.153C18.6483 101.491 18.7143 99.9988 19.4413 98.3108C20.0293 96.9698 20.4973 95.6018 21.5023 94.1218C21.7853 93.7528 22.0923 93.3388 22.7303 92.9658C22.8753 92.8738 23.1003 92.7938 23.2903 92.7288C23.5103 92.6798 23.7523 92.6378 23.9823 92.6528C24.3813 92.6548 25.1083 92.8658 25.5003 93.4198C25.6853 93.6578 25.7803 93.9058 25.8523 94.1258C25.8933 94.3028 25.9433 94.5318 25.9463 94.6748C25.9683 94.9968 25.9463 95.2518 25.9223 95.4998C25.8593 95.9648 25.7663 96.3798 25.6613 96.7668C25.2573 98.3118 24.6083 99.6268 24.1363 100.954C23.8973 101.585 23.6673 102.304 23.6253 102.695C23.6183 102.742 23.6143 102.779 23.6143 102.764C23.6213 102.756 23.3393 102.828 23.2753 102.842C23.1913 102.851 23.1073 102.877 23.0273 102.922C22.9233 102.99 22.9313 102.972 22.9003 102.994C22.8773 103.004 22.8383 103.069 22.8793 103.011C22.8973 102.981 22.9033 102.951 22.9013 102.928C22.9353 102.838 22.9533 102.741 22.9523 102.65C22.9503 102.56 22.9263 102.495 22.9303 102.306C22.9303 102.245 22.9393 102.287 22.9453 102.276C22.9433 102.291 23.0113 102.264 23.0563 102.253C23.1053 102.24 23.1523 102.234 23.2223 102.201L23.3183 102.161C23.3373 102.153 23.3383 102.155 23.3513 102.154C23.4163 102.117 23.4343 102.14 23.6073 101.837C23.7493 101.57 23.8903 101.258 24.0283 100.931C24.3963 100.048 24.7393 99.0848 25.2003 98.1008C25.4513 97.6068 25.7023 97.1128 26.1043 96.5958C26.2803 96.3408 26.5533 96.0948 26.8853 95.8438C27.0763 95.7518 27.2633 95.6468 27.4573 95.5618L28.0783 95.4008C28.2903 95.4348 28.5103 95.3808 28.7193 95.4378C28.9273 95.4708 29.1343 95.5188 29.4303 95.7078C29.7053 95.8768 29.9463 96.1778 30.0563 96.4468C30.1823 96.7238 30.2163 96.9728 30.2303 97.1838C30.2553 98.0188 30.0583 98.5448 29.8953 99.0888C29.5433 100.143 29.1133 101.075 28.7583 101.983C28.5703 102.47 28.3743 102.968 28.3063 103.338C28.2743 103.496 28.2803 103.555 28.3153 103.65C28.3153 103.65 28.3713 103.796 28.3953 103.82C28.4073 103.843 28.4273 103.892 28.4213 103.872C28.4213 103.872 28.4233 103.867 28.4143 103.874C28.3803 103.905 28.3483 103.938 28.3173 103.974C28.2543 104.047 28.1973 104.138 28.1763 104.146C28.1183 104.177 28.0703 104.381 28.0823 104.321C28.0823 104.321 28.0773 104.321 28.0763 104.328C28.0773 104.31 28.0733 104.239 28.0593 104.205C28.0443 104.15 28.0283 104.156 27.9963 104.07C27.9633 103.984 27.9213 103.905 27.8723 103.834C27.8473 103.833 27.8763 103.829 27.8963 103.803C27.9813 103.743 28.1343 103.556 28.2653 103.365C28.5363 102.968 28.7963 102.496 29.0493 102.018L30.1983 99.7488C30.5883 98.9958 30.9873 98.3038 31.3673 97.7838C31.7503 97.2708 32.0953 96.9428 32.4583 96.6518C32.8203 96.3898 33.2033 96.1198 33.7743 96.1308C34.1233 96.1308 34.5533 96.2868 34.7743 96.5658C35.0103 96.8338 35.0603 97.1168 35.1043 97.3808C35.1633 97.9228 35.1183 98.4518 34.9843 99.1768C34.8623 99.8808 34.5273 100.876 34.1473 101.888C33.9673 102.391 33.7923 102.888 33.6703 103.383C33.5873 103.735 33.5553 103.982 33.5643 104.213C33.5693 104.294 33.5813 104.36 33.5933 104.412C33.6043 104.444 33.6213 104.489 33.6683 104.558C33.6993 104.671 33.7763 104.516 33.5463 104.821C33.4893 104.874 33.4763 105.024 33.4823 104.953C33.4793 104.94 33.4763 104.951 33.4723 104.933C33.4653 104.874 33.4483 104.818 33.4233 104.771C33.3943 104.705 33.3743 104.725 33.3173 104.61C33.3083 104.585 33.3213 104.594 33.3233 104.587C33.3293 104.589 33.3513 104.568 33.3783 104.533C33.4263 104.487 33.4853 104.401 33.5433 104.317C33.6623 104.144 33.7803 103.936 33.8943 103.724C34.3543 102.835 34.7263 101.922 35.2003 100.892C35.4683 100.332 35.8133 99.5588 36.1623 99.0118C36.5173 98.4358 36.8863 97.9548 37.2763 97.5848C37.6693 97.2308 38.0953 96.9308 38.6673 96.8808C39.2293 96.8728 39.8583 97.2138 40.1413 97.6498C40.4403 98.3388 40.4083 99.0748 40.2523 100.105C40.1693 100.609 40.0193 101.164 39.8873 101.719L39.5453 103.107C39.4633 103.474 39.3913 103.847 39.3693 104.15C39.3603 104.229 39.3673 104.286 39.3673 104.339C39.3713 104.357 39.3743 104.374 39.3743 104.39L39.3773 104.384C39.3693 104.382 39.3043 104.391 39.2703 104.398C39.1893 104.413 39.1083 104.436 39.0283 104.467C38.8103 104.489 38.6983 104.696 38.7683 104.57C38.7583 104.578 38.8053 104.404 38.7713 104.323C38.7553 104.265 38.7073 103.931 38.6803 103.918C38.6943 103.913 38.8173 103.82 38.9053 103.744C39.0053 103.687 39.0853 103.562 39.1753 103.466C39.3483 103.254 39.5023 102.977 39.6433 102.675C39.8873 102.133 40.0543 101.517 40.2563 100.861C40.6153 99.6308 40.9983 98.7348 41.5173 98.1348C41.6613 97.9838 41.7983 97.8588 41.9263 97.7578C42.0763 97.6578 42.2363 97.5828 42.3723 97.5328C42.6523 97.4338 42.9603 97.4858 43.1493 97.5548C43.3483 97.6628 43.5393 97.7768 43.6043 97.8938C43.7203 98.1038 43.4673 98.3028 43.3733 98.5738C43.3113 98.8308 43.1523 99.2008 42.9373 100.069C42.7883 100.689 42.6293 101.383 42.4243 102.11C42.2133 102.838 41.9743 103.612 41.4993 104.427C41.2553 104.834 40.9373 105.25 40.5093 105.621C40.2633 105.798 40.0773 105.969 39.7563 106.127C39.6693 106.168 39.6193 106.199 39.4983 106.242C39.3763 106.283 39.2513 106.319 39.1263 106.347C38.9553 106.379 38.7143 106.386 38.5153 106.367C38.2353 106.322 37.9053 106.206 37.6723 106.018C37.4163 105.822 37.2203 105.552 37.1503 105.387C37.1013 105.291 37.0593 105.189 37.0233 105.089L36.9733 104.888C36.9063 104.584 36.9183 104.447 36.9103 104.256C36.9163 103.943 36.9483 103.691 36.9853 103.469C37.0583 103.018 37.1523 102.632 37.2473 102.253L37.3563 101.822L37.3523 101.798C37.3483 101.786 37.3433 101.777 37.3393 101.771C37.3293 101.76 37.3193 101.762 37.3093 101.767C37.2783 101.783 37.2803 101.806 37.2803 101.806C37.2743 101.821 37.2933 101.774 37.2663 101.838L36.6883 103.232C36.4693 103.756 36.2483 104.289 35.9643 104.86C35.8103 105.152 35.6753 105.438 35.4183 105.788C35.3663 105.866 35.2943 105.959 35.2003 106.062C35.1023 106.168 35.0583 106.238 34.8933 106.374C34.6413 106.567 34.2263 106.95 33.3963 106.926C32.9793 106.916 32.7133 106.784 32.4243 106.62C32.2643 106.526 32.2023 106.462 32.1293 106.394C32.0553 106.324 31.9833 106.251 31.9163 106.174C31.6683 105.868 31.6023 105.741 31.4473 105.423C31.1783 104.786 31.1873 104.275 31.2083 103.859C31.2223 103.649 31.2493 103.458 31.2813 103.277L31.3343 103.015L31.3483 102.951C31.3463 102.958 31.3463 102.961 31.3463 102.961L31.3483 102.958L31.3643 102.928C31.3883 102.885 31.4233 102.824 31.4553 102.748L31.5623 102.61Z" fill="url(#paint24_radial_1151_121)"/>
<path id="Fill 53" fill-rule="evenodd" clip-rule="evenodd" d="M98.4216 93.6508C98.3666 93.4888 98.3026 93.3498 98.2716 93.2908C98.2666 93.2838 98.2556 93.2558 98.2606 93.2618C98.3516 93.1978 98.4666 93.0768 98.5436 92.9698C98.6036 92.9168 98.6556 92.8388 98.6876 92.7558C98.7036 92.7428 98.7206 92.6878 98.7186 92.6738C98.7166 92.7208 98.7126 92.6768 98.7316 92.7738C98.7376 92.7498 98.7046 92.6748 98.7046 92.6748C98.7236 92.7078 98.7096 92.6788 98.7516 92.7298C98.8106 92.7978 98.8426 92.8048 98.9396 92.8688C99.0476 92.9428 99.1606 92.9938 99.2806 93.0258C99.3096 93.0478 99.2876 93.0498 99.2886 93.0618C99.2806 93.0928 99.2696 93.1508 99.2616 93.2178C99.2476 93.3588 99.2386 93.5308 99.2466 93.7238C99.2466 93.8148 99.2546 93.9168 99.2636 94.0208L99.3136 94.5088L99.6376 97.0228C99.7456 97.8528 99.7886 98.5928 99.7576 99.1538C99.7286 99.7218 99.6346 100.116 99.5216 100.426C99.4086 100.744 99.2816 100.988 99.0896 101.235C98.9946 101.355 98.8766 101.484 98.6916 101.596C98.5136 101.719 98.2316 101.787 97.9816 101.808C97.6226 101.81 97.4876 101.634 97.3306 101.562C97.1826 101.463 97.0526 101.38 96.9106 101.238C96.6356 100.953 96.2876 100.594 95.8886 99.6268C95.5696 98.7558 95.2736 97.6108 95.0016 96.6198C94.8616 96.1558 94.6816 95.6268 94.5356 95.2998C94.4466 95.0908 94.3446 94.8988 94.2576 94.7788C94.2136 94.7108 94.1766 94.6788 94.1696 94.6658C94.1436 94.7308 94.2436 94.5028 94.2476 94.5058C94.2706 94.4688 94.2756 94.3738 94.2726 94.4218C94.2736 94.4278 94.2766 94.4318 94.2766 94.4318C94.2776 94.4408 94.2826 94.5048 94.2926 94.5328C94.3136 94.6008 94.3626 94.6768 94.3346 94.6648C94.3226 94.6568 94.2636 94.7128 94.2116 94.7498L94.1186 94.8468L94.0706 94.8968L94.0586 94.9098L94.0526 94.9158L94.0516 94.9178C93.8076 94.7238 94.5946 95.3498 93.5046 94.4858L93.5146 94.4958C93.5426 94.5198 93.5726 94.5388 93.6056 94.5488C93.6436 94.5498 93.8016 94.6208 93.9166 94.6298C93.9856 94.6408 94.0216 94.6298 94.1176 94.6438C94.2236 94.6568 94.1476 94.6528 94.1716 94.6578C94.1716 94.6578 94.1696 94.7068 94.1716 94.7458C94.1816 94.9228 94.2296 95.1808 94.2806 95.4288C94.4946 96.4498 94.7896 97.5328 94.8886 98.7108C94.9376 99.1828 94.9536 100.268 94.5706 100.908C94.2216 101.602 93.4716 101.976 92.7336 101.98C92.3096 102.001 91.8956 101.815 91.6236 101.515C91.1656 101.049 90.9506 100.16 90.8606 99.5198C90.7806 98.9828 90.7306 98.4638 90.6716 97.9588C90.6126 97.4538 90.5496 96.9588 90.4486 96.4998C90.3526 96.0478 90.2006 95.5998 90.0106 95.3808C89.8896 95.2358 89.8086 95.2128 89.6806 95.2068L89.6396 95.2048C89.6336 95.1878 89.6516 95.2608 89.6276 95.1558L89.5906 95.0328C89.5736 94.9958 89.5536 94.9758 89.5726 94.9998C89.5616 94.9848 89.6506 95.0798 89.7496 95.1078C89.7746 95.1318 89.7466 95.1238 89.7476 95.1728C89.6856 95.5218 89.8256 96.2268 89.9516 96.8268C90.0866 97.4568 90.2336 98.1058 90.3106 98.7988C90.3486 99.1458 90.3766 99.5028 90.3506 99.8858C90.3176 100.261 90.2576 100.719 89.8936 101.13C89.6466 101.367 89.3956 101.429 89.2636 101.413C89.1226 101.403 89.0646 101.357 89.0616 101.291C89.0436 101.159 89.2966 100.951 89.3266 100.654C89.3666 100.121 88.6976 99.1598 88.2546 97.7118C88.1236 97.2478 87.9846 96.7728 87.8756 96.2338C87.8236 95.9588 87.7766 95.6688 87.7666 95.3158C87.7926 94.9648 87.7206 94.4718 88.2746 93.7908C88.5506 93.4718 89.0096 93.2658 89.3106 93.2378C89.4886 93.2058 89.6316 93.2038 89.7486 93.2128C89.8766 93.2178 90.0036 93.2258 90.1286 93.2578C90.6276 93.3448 91.1406 93.6578 91.4316 93.9998C92.0246 94.6948 92.1646 95.3178 92.3076 95.8668C92.5506 96.9658 92.5876 97.9428 92.6926 98.8468L92.7336 99.1748L92.7526 99.3208L92.7536 99.3498L92.7516 99.4138C92.7506 99.4548 92.7696 99.5208 92.8226 99.5368C92.9056 99.5758 93.0146 99.5228 93.0466 99.4018L93.0596 99.3548C93.0616 99.3678 93.0696 99.3038 93.0676 99.2128C93.0676 99.0558 93.0596 98.8908 93.0466 98.7228C93.0206 98.3848 92.9716 98.0308 92.9106 97.6708C92.7886 96.8998 92.5886 96.1498 92.4346 95.2298C92.4156 94.9648 92.3286 94.7868 92.4456 94.2198C92.4646 94.0788 92.6976 93.7278 92.6946 93.7618L92.8316 93.6098C92.9146 93.5108 93.0316 93.4068 93.1566 93.3058C93.3876 93.1148 93.7706 92.8808 94.2786 92.8818C94.7876 92.8798 95.2146 93.1548 95.4326 93.3718C95.6866 93.6028 95.8346 93.8268 95.9776 94.0468L96.1636 94.3688L96.2666 94.5748C96.3216 94.6958 96.3676 94.8208 96.4106 94.9468C96.4966 95.1998 96.5676 95.4558 96.6496 95.7468C96.6946 95.9068 96.7436 96.0738 96.8076 96.2418C96.8696 96.3848 96.9536 96.6408 97.1446 96.6008C97.3146 96.5678 97.3456 96.3938 97.3676 96.2618C97.3876 96.1198 97.3856 95.9698 97.3786 95.8148C97.3616 95.5048 97.3196 95.1698 97.2856 94.8038L97.2616 94.5248L97.2416 94.1418C97.2326 93.6558 97.2036 93.1668 97.3676 92.5398C97.4306 92.3458 97.4976 92.1248 97.6886 91.8868C97.8526 91.6468 98.2066 91.4478 98.5156 91.4008C98.8386 91.3498 99.2216 91.4438 99.4436 91.6098C99.6926 91.7698 99.8236 91.9468 99.9416 92.1068C100.363 92.7528 100.507 93.3108 100.682 93.8758C101.002 94.9948 101.223 96.0848 101.52 97.1258C101.736 97.9008 102.013 98.6948 102.364 99.2148C102.563 99.4738 102.665 99.5378 102.794 99.5288C102.996 99.4708 102.867 99.6548 102.952 99.3628C103.014 98.8188 102.734 97.9528 102.472 97.2208C102.185 96.4698 101.826 95.7108 101.483 94.9298C101.218 94.3198 100.945 93.7128 100.742 93.0108C100.659 92.6438 100.528 92.2968 100.64 91.7088C100.661 91.5738 100.759 91.3848 100.841 91.2398C100.944 91.0938 101.124 90.9468 101.267 90.8538C101.454 90.7548 101.647 90.6618 101.881 90.5938C102.33 90.4428 102.99 90.4988 103.426 90.7898C103.869 91.0618 104.14 91.4028 104.365 91.7178C104.801 92.3568 105.078 92.9738 105.353 93.5718C105.59 94.0738 105.822 94.5658 106.061 95.0718C106.949 96.8588 107.163 96.9178 107.152 97.7638C107.161 97.9348 107.229 98.1128 107.239 98.2658C107.264 98.5138 107.029 98.6858 106.481 98.6188C105.923 98.5638 105.224 98.0448 104.698 97.2978C103.923 96.1868 103.483 95.0268 103.016 94.0058C102.794 93.5058 102.55 93.0188 102.346 92.7618C102.298 92.7088 102.258 92.6668 102.238 92.6498C102.179 92.7028 102.351 92.4818 102.371 92.3868C102.378 92.3738 102.383 92.3598 102.384 92.3488C102.374 92.3978 102.377 92.4138 102.38 92.4698C102.373 92.5458 102.403 92.6888 102.407 92.6858C102.398 92.6938 102.388 92.6978 102.378 92.7018L102.31 92.7428L102.292 92.7528L102.282 92.7558L102.281 92.7568C101.454 91.2288 102.052 92.3338 101.867 91.9918H101.868H101.869C101.869 91.9918 101.872 91.9828 101.867 91.9748C101.813 91.9208 101.931 92.0388 102.007 92.0488C102.039 92.0398 102.293 92.1488 102.461 92.1508C102.561 92.1618 102.627 92.1448 102.751 92.1518L102.76 92.1768C102.769 92.2018 102.755 92.1928 102.772 92.2458C102.794 92.3278 102.804 92.4018 102.845 92.5178C102.976 92.9448 103.203 93.4708 103.442 93.9958L104.207 95.6538C104.471 96.2368 104.726 96.8918 104.922 97.5378C105.068 98.0488 105.226 98.5828 105.218 99.3688C105.194 99.7658 105.145 100.31 104.707 100.908C104.484 101.209 104.173 101.438 103.85 101.595C103.55 101.72 103.23 101.798 103.002 101.804C102.513 101.874 101.797 101.71 101.388 101.419C100.943 101.137 100.666 100.812 100.463 100.527C100.049 99.9468 99.8586 99.4228 99.6866 98.9238C99.3596 97.9308 99.1746 97.0088 98.9826 96.1148C98.7946 95.2358 98.6136 94.3388 98.3746 93.6738L98.4216 93.6508Z" fill="url(#paint25_radial_1151_121)"/>
</g>
<defs>
<radialGradient id="paint0_radial_1151_121" cx="0" cy="0" r="1" gradientUnits="userSpaceOnUse" gradientTransform="translate(28.2943 56.7644) rotate(-90) scale(4.99039 4.8492)">
<stop stop-color="#587EDB"/>
<stop offset="1" stop-color="#1445C2"/>
</radialGradient>
<radialGradient id="paint1_radial_1151_121" cx="0" cy="0" r="1" gradientUnits="userSpaceOnUse" gradientTransform="translate(94.4421 55.1644) rotate(-90) scale(4.18876 3.14266)">
<stop stop-color="#587EDB"/>
<stop offset="1" stop-color="#1445C2"/>
</radialGradient>
<radialGradient id="paint2_radial_1151_121" cx="0" cy="0" r="1" gradientUnits="userSpaceOnUse" gradientTransform="translate(31.9373 36.171) rotate(-90) scale(5.75997 1.55775)">
<stop stop-color="#587EDB"/>
<stop offset="1" stop-color="#1445C2"/>
</radialGradient>
<radialGradient id="paint3_radial_1151_121" cx="0" cy="0" r="1" gradientUnits="userSpaceOnUse" gradientTransform="translate(74.5554 38.7156) rotate(-90) scale(5.77194 1.61)">
<stop stop-color="#587EDB"/>
<stop offset="1" stop-color="#1445C2"/>
</radialGradient>
<radialGradient id="paint4_radial_1151_121" cx="0" cy="0" r="1" gradientUnits="userSpaceOnUse" gradientTransform="translate(20.949 103.758) rotate(-90) scale(34.8802 11.8508)">
<stop stop-color="#587EDB"/>
<stop offset="1" stop-color="#1445C2"/>
</radialGradient>
<radialGradient id="paint5_radial_1151_121" cx="0" cy="0" r="1" gradientUnits="userSpaceOnUse" gradientTransform="translate(100.999 99.6588) rotate(-90) scale(31.2191 9.77676)">
<stop stop-color="#587EDB"/>
<stop offset="1" stop-color="#1445C2"/>
</radialGradient>
<radialGradient id="paint6_radial_1151_121" cx="0" cy="0" r="1" gradientUnits="userSpaceOnUse" gradientTransform="translate(26.1011 46.3607) rotate(-90) scale(17.8832 7.10098)">
<stop stop-color="#587EDB"/>
<stop offset="1" stop-color="#1445C2"/>
</radialGradient>
<radialGradient id="paint7_radial_1151_121" cx="0" cy="0" r="1" gradientUnits="userSpaceOnUse" gradientTransform="translate(33.7761 37.5109) rotate(-90) scale(16.0549 6.36955)">
<stop stop-color="#587EDB"/>
<stop offset="1" stop-color="#1445C2"/>
</radialGradient>
<radialGradient id="paint8_radial_1151_121" cx="0" cy="0" r="1" gradientUnits="userSpaceOnUse" gradientTransform="translate(43.6585 43.1545) rotate(-90) scale(15.9202 4.81125)">
<stop stop-color="#587EDB"/>
<stop offset="1" stop-color="#1445C2"/>
</radialGradient>
<radialGradient id="paint9_radial_1151_121" cx="0" cy="0" r="1" gradientUnits="userSpaceOnUse" gradientTransform="translate(47.5168 79.9422) rotate(-90) scale(28.0381 6.36818)">
<stop stop-color="#587EDB"/>
<stop offset="1" stop-color="#1445C2"/>
</radialGradient>
<radialGradient id="paint10_radial_1151_121" cx="0" cy="0" r="1" gradientUnits="userSpaceOnUse" gradientTransform="translate(44.6077 105.401) rotate(-90) scale(13.5116 1.698)">
<stop stop-color="#587EDB"/>
<stop offset="1" stop-color="#1445C2"/>
</radialGradient>
<radialGradient id="paint11_radial_1151_121" cx="0" cy="0" r="1" gradientUnits="userSpaceOnUse" gradientTransform="translate(32.4462 98.2287) rotate(-90) scale(3.61538 11.998)">
<stop stop-color="#587EDB"/>
<stop offset="1" stop-color="#1445C2"/>
</radialGradient>
<radialGradient id="paint12_radial_1151_121" cx="0" cy="0" r="1" gradientUnits="userSpaceOnUse" gradientTransform="translate(73.2348 77.53) rotate(-90) scale(25.0574 10.9168)">
<stop stop-color="#587EDB"/>
<stop offset="1" stop-color="#1445C2"/>
</radialGradient>
<radialGradient id="paint13_radial_1151_121" cx="0" cy="0" r="1" gradientUnits="userSpaceOnUse" gradientTransform="translate(69.786 45.8619) rotate(-90) scale(16.24 3.33136)">
<stop stop-color="#587EDB"/>
<stop offset="1" stop-color="#1445C2"/>
</radialGradient>
<radialGradient id="paint14_radial_1151_121" cx="0" cy="0" r="1" gradientUnits="userSpaceOnUse" gradientTransform="translate(77.9864 40.3047) rotate(-90) scale(17.1334 5.43437)">
<stop stop-color="#587EDB"/>
<stop offset="1" stop-color="#1445C2"/>
</radialGradient>
<radialGradient id="paint15_radial_1151_121" cx="0" cy="0" r="1" gradientUnits="userSpaceOnUse" gradientTransform="translate(89.8354 46.4823) rotate(-90) scale(18.3434 6.00846)">
<stop stop-color="#587EDB"/>
<stop offset="1" stop-color="#1445C2"/>
</radialGradient>
<radialGradient id="paint16_radial_1151_121" cx="0" cy="0" r="1" gradientUnits="userSpaceOnUse" gradientTransform="translate(85.5447 101.999) rotate(-90) scale(11.466 3.80581)">
<stop stop-color="#587EDB"/>
<stop offset="1" stop-color="#1445C2"/>
</radialGradient>
<radialGradient id="paint17_radial_1151_121" cx="0" cy="0" r="1" gradientUnits="userSpaceOnUse" gradientTransform="translate(94.9722 94.6695) rotate(-90) scale(4.30162 9.11545)">
<stop stop-color="#587EDB"/>
<stop offset="1" stop-color="#1445C2"/>
</radialGradient>
<radialGradient id="paint18_radial_1151_121" cx="0" cy="0" r="1" gradientUnits="userSpaceOnUse" gradientTransform="translate(37.9374 43.8944) rotate(-90) scale(1.23794 5.99538)">
<stop stop-color="#587EDB"/>
<stop offset="1" stop-color="#1445C2"/>
</radialGradient>
<radialGradient id="paint19_radial_1151_121" cx="0" cy="0" r="1" gradientUnits="userSpaceOnUse" gradientTransform="translate(79.7149 46.0955) rotate(-90) scale(2.94248 5.05552)">
<stop stop-color="#587EDB"/>
<stop offset="1" stop-color="#1445C2"/>
</radialGradient>
<radialGradient id="paint20_radial_1151_121" cx="0" cy="0" r="1" gradientUnits="userSpaceOnUse" gradientTransform="translate(12.869 8.18578) rotate(-90) scale(3.55015 3.52355)">
<stop stop-color="#587EDB"/>
<stop offset="1" stop-color="#1445C2"/>
</radialGradient>
<radialGradient id="paint21_radial_1151_121" cx="0" cy="0" r="1" gradientUnits="userSpaceOnUse" gradientTransform="translate(5.63945 20.0995) rotate(-90) scale(1.07794 4.48421)">
<stop stop-color="#587EDB"/>
<stop offset="1" stop-color="#1445C2"/>
</radialGradient>
<radialGradient id="paint22_radial_1151_121" cx="0" cy="0" r="1" gradientUnits="userSpaceOnUse" gradientTransform="translate(98.5413 8.68034) rotate(-90) scale(4.3848 2.57039)">
<stop stop-color="#587EDB"/>
<stop offset="1" stop-color="#1445C2"/>
</radialGradient>
<radialGradient id="paint23_radial_1151_121" cx="0" cy="0" r="1" gradientUnits="userSpaceOnUse" gradientTransform="translate(108.572 16.6435) rotate(-90) scale(2.278 4.28923)">
<stop stop-color="#587EDB"/>
<stop offset="1" stop-color="#1445C2"/>
</radialGradient>
<radialGradient id="paint24_radial_1151_121" cx="0" cy="0" r="1" gradientUnits="userSpaceOnUse" gradientTransform="translate(30.7365 106.927) rotate(-90) scale(7.27327 11.9144)">
<stop stop-color="#587EDB"/>
<stop offset="1" stop-color="#1445C2"/>
</radialGradient>
<radialGradient id="paint25_radial_1151_121" cx="0" cy="0" r="1" gradientUnits="userSpaceOnUse" gradientTransform="translate(97.5035 101.981) rotate(-90) scale(5.84265 8.99458)">
<stop stop-color="#587EDB"/>
<stop offset="1" stop-color="#1445C2"/>
</radialGradient>
</defs>
</svg>
